<svg xmlns="http://www.w3.org/2000/svg" xmlns:xlink="http://www.w3.org/1999/xlink" width="88.414" height="42.239" viewBox="0 0 88.414 42.239">
  <defs>
    <style>
      .cls-1 {
        fill: #231f20;
        fill-rule: evenodd;
      }

      .cls-2 {
        clip-path: url(#clip-path);
      }

      .cls-3 {
        fill: none;
        stroke: #231f20;
        stroke-miterlimit: 2.613;
        stroke-width: 0.546px;
      }
    </style>
    <clipPath id="clip-path">
      <path id="path660" d="M606.525-765.9h88.414v42.239H606.525V-765.9Z" transform="translate(-606.525 765.9)"/>
    </clipPath>
  </defs>
  <g id="AVR" transform="translate(-606.525 765.9)">
    <path id="path652" class="cls-1" d="M670.244-760.661h1.765c.867,0,.957.475.957.9a6.988,6.988,0,0,0,.12,1.259h.9v-.112c-.24-.112-.24-.224-.27-.5l-.029-.9c-.061-.728-.33-.84-.659-.952a1.232,1.232,0,0,0,.749-1.2c0-1.062-.867-1.371-1.765-1.371h-2.482v5.038h.717Zm0-2.3h1.824c.36,0,.957.058.957.84,0,.728-.568.869-1.075.869h-1.706v-1.709" transform="translate(17.639 0.66)"/>
    <g id="g654" transform="translate(606.525 -765.9)">
      <g id="g656" class="cls-2">
        <g id="g662" transform="translate(77.144 0.468)">
          <path id="path664" class="cls-3" d="M672.206-765.534a5.248,5.248,0,0,1,5.415,5.066,5.249,5.249,0,0,1-5.415,5.066,5.249,5.249,0,0,1-5.411-5.066A5.248,5.248,0,0,1,672.206-765.534Z" transform="translate(-666.795 765.534)"/>
        </g>
      </g>
    </g>
    <path id="path3540" d="M619.407,229.563,608.688,256h7.76l1.92-4.6h11.04l2.12,4.6h7.88l-11.92-26.439Zm4.04,7.48,3.76,9.08h-7.12Z" transform="translate(0.605 -988.471)"/>
    <path id="path4328" d="M626.523,229.563l14.59,32.664,15.07-32.664h-7.97l-7.1,16-6.72-16Z" transform="translate(5.599 -988.471)"/>
    <path id="path2890" d="M655.189,229.563,643.469,256h7.96l4.23-9.49h1.82l2.51,9.49h8.16l-3.68-10.44s8.324-1.221,8.56-8.52a7.183,7.183,0,0,0-7.48-7.48Zm5.28,5.08h2.84a2.5,2.5,0,0,1,2.24,2.4c0,2.13-1.48,3.64-4.44,3.92h-3.475Z" transform="translate(10.343 -988.471)"/>
  </g>
</svg>
