<svg id="Azure" xmlns="http://www.w3.org/2000/svg" xmlns:xlink="http://www.w3.org/1999/xlink" width="98.781" height="93.078" viewBox="0 0 98.781 93.078">
  <defs>
    <style>
      .cls-1 {
        fill: url(#linear-gradient);
      }

      .cls-2 {
        fill: #0078d4;
      }

      .cls-3 {
        fill: url(#linear-gradient-2);
      }

      .cls-4 {
        fill: url(#linear-gradient-3);
      }
    </style>
    <linearGradient id="linear-gradient" x1="0.59" y1="0.074" x2="0.372" y2="1.038" gradientUnits="objectBoundingBox">
      <stop offset="0" stop-color="#114a8b"/>
      <stop offset="1" stop-color="#0669bc"/>
    </linearGradient>
    <linearGradient id="linear-gradient-2" x1="0.597" y1="0.523" x2="0.527" y2="0.549" gradientUnits="objectBoundingBox">
      <stop offset="0" stop-opacity="0.302"/>
      <stop offset="0.071" stop-opacity="0.2"/>
      <stop offset="0.321" stop-opacity="0.102"/>
      <stop offset="0.623" stop-opacity="0.051"/>
      <stop offset="1" stop-opacity="0"/>
    </linearGradient>
    <linearGradient id="linear-gradient-3" x1="0.373" y1="0.046" x2="0.625" y2="1" gradientUnits="objectBoundingBox">
      <stop offset="0" stop-color="#3ccbf4"/>
      <stop offset="1" stop-color="#2892df"/>
    </linearGradient>
  </defs>
  <path id="Path_712" data-name="Path 712" class="cls-1" d="M32.931,0h29.23L31.817,89.907a4.66,4.66,0,0,1-4.415,3.17H4.654a4.653,4.653,0,0,1-4.41-6.141L28.515,3.171A4.661,4.661,0,0,1,32.931,0Z"/>
  <path id="Path_713" data-name="Path 713" class="cls-2" d="M118.231,156.282H71.879A2.145,2.145,0,0,0,70.414,160L100.2,187.8a4.684,4.684,0,0,0,3.195,1.258H129.64Z" transform="translate(-42.824 -95.979)"/>
  <path id="Path_714" data-name="Path 714" class="cls-3" d="M32.94,0a4.623,4.623,0,0,0-4.426,3.232L.288,86.862a4.648,4.648,0,0,0,4.387,6.217H28.011a4.988,4.988,0,0,0,3.828-3.256l5.629-16.589L57.574,91.988a4.757,4.757,0,0,0,2.993,1.091H86.715L75.247,60.306l-33.432.008L62.276,0Z" transform="translate(-0.009 -0.002)"/>
  <path id="Path_715" data-name="Path 715" class="cls-4" d="M123.231,3.169A4.653,4.653,0,0,0,118.822,0H86.245a4.654,4.654,0,0,1,4.41,3.166l28.272,83.768a4.654,4.654,0,0,1-4.41,6.143h32.578a4.654,4.654,0,0,0,4.408-6.143Z" transform="translate(-52.966 -0.002)"/>
</svg>
