<svg id="blender" xmlns="http://www.w3.org/2000/svg" width="98.483" height="80" viewBox="0 0 98.483 80">
  <defs>
    <style>
      .cls-1 {
        fill: #fff;
      }

      .cls-2 {
        fill: #265787;
      }

      .cls-3 {
        fill: #ea7600;
      }
    </style>
  </defs>
  <path id="Path_723" data-name="Path 723" class="cls-1" d="M100.378,79.5a22.607,22.607,0,0,1,8.205-16.005,27.834,27.834,0,0,1,35.3,0,22.631,22.631,0,0,1,8.205,16,22.223,22.223,0,0,1-6.908,17.181,27.745,27.745,0,0,1-37.906,0A22.188,22.188,0,0,1,100.378,79.5Z" transform="translate(-61.742 -35.181)"/>
  <path id="Path_724" data-name="Path 724" class="cls-2" d="M133.141,98.359a11.6,11.6,0,0,1,4.21-8.213,14.282,14.282,0,0,1,18.115,0,11.612,11.612,0,0,1,4.21,8.209,11.4,11.4,0,0,1-3.545,8.816,14.236,14.236,0,0,1-19.45,0A11.385,11.385,0,0,1,133.141,98.359Z" transform="translate(-81.911 -53.474)"/>
  <path id="Path_725" data-name="Path 725" class="cls-3" d="M30.164,51.618a24.307,24.307,0,0,0,1.047,5.734,30.249,30.249,0,0,0,6.535,11.315A33.762,33.762,0,0,0,49.183,76.88a37.394,37.394,0,0,0,30.025-.052,34,34,0,0,0,11.428-8.246,30.5,30.5,0,0,0,6.533-11.336,28.482,28.482,0,0,0,1.025-12.613,29.215,29.215,0,0,0-4.167-11.4,31.817,31.817,0,0,0-7.6-8.381l.007-.005L55.668,1.222c-.028-.021-.05-.043-.08-.063a6.839,6.839,0,0,0-7.633.009c-2.244,1.57-2.5,4.167-.5,5.805l-.009.009L60.274,17.416l-39.11.042h-.052c-3.233,0-6.34,2.124-6.955,4.8-.632,2.731,1.563,5,4.925,5.008l-.005.012L38.9,27.244,3.527,54.4c-.045.033-.094.068-.135.1C.055,57.052-1.024,61.3,1.078,63.99c2.133,2.734,6.669,2.739,10.04.016l19.306-15.8A30.208,30.208,0,0,0,30.164,51.618Zm49.608,7.143a22.312,22.312,0,0,1-31.154.05,18.525,18.525,0,0,1-4.252-6.656,17.285,17.285,0,0,1-.976-7.438,17.562,17.562,0,0,1,2.131-7,19.3,19.3,0,0,1,4.732-5.626,22.483,22.483,0,0,1,27.881-.04,19.223,19.223,0,0,1,4.727,5.609,17.57,17.57,0,0,1,2.14,7,17.327,17.327,0,0,1-.98,7.433A18.612,18.612,0,0,1,79.773,58.761Z" transform="translate(0 0)"/>
</svg>
