<svg xmlns="http://www.w3.org/2000/svg" width="52" height="52" viewBox="0 0 52 52" fill="none">
  <g filter="url(#filter0_d_418_287)">
    <circle cx="26" cy="26" r="24" fill="white"/>
  </g>
  <path d="M39.2133 24.6745C38.7339 21.2896 36.9833 18.2091 34.3117 16.0495C31.6401 13.8899 28.2448 12.8105 24.8051 13.0273C21.3654 13.2442 18.1352 14.7413 15.7609 17.219C13.3866 19.6967 12.0433 22.9723 12 26.3902C12.0191 29.812 13.3518 33.0982 15.7272 35.5801C18.1025 38.0621 21.342 39.5534 24.7867 39.7508C25.5244 39.7946 26.2644 39.783 27.0003 39.7161C27.4583 39.6752 27.8973 39.5158 28.2736 39.2538C28.65 38.9918 28.9503 38.6365 29.1447 38.2232C29.3366 37.812 29.4145 37.3575 29.3704 36.9065C29.3263 36.4554 29.1617 36.0242 28.8937 35.6573C28.1361 34.6505 27.7683 33.4073 27.8573 32.1542C27.9463 30.9011 28.4862 29.7214 29.3787 28.8298C30.2779 27.9316 31.4669 27.3752 32.7377 27.2578C34.0086 27.1405 35.2806 27.4697 36.3317 28.1879C36.6197 28.376 36.9529 28.4849 37.2972 28.5035C37.6416 28.5222 37.9847 28.4499 38.2917 28.294C38.597 28.14 38.8547 27.9073 39.0378 27.6202C39.2209 27.3332 39.3225 27.0024 39.332 26.6629C39.3421 25.9981 39.3024 25.3335 39.2133 24.6745ZM14.1657 24.4831C14.1601 24.0177 14.2942 23.5612 14.5508 23.1716C14.8075 22.782 15.1751 22.4768 15.6071 22.2949C16.039 22.113 16.5157 22.0626 16.9766 22.15C17.4376 22.2374 17.8619 22.4587 18.1957 22.7858C18.5295 23.1129 18.7577 23.5311 18.8513 23.9871C18.9449 24.4431 18.8997 24.9165 18.7214 25.347C18.5431 25.7775 18.2398 26.1457 17.85 26.4048C17.4603 26.664 17.0016 26.8024 16.5323 26.8024C15.9084 26.806 15.3086 26.5637 14.8647 26.1288C14.4209 25.6938 14.1695 25.1019 14.1657 24.4831ZM18.03 33.129C17.5686 33.1236 17.1191 32.983 16.7381 32.7248C16.3572 32.4667 16.0617 32.1025 15.8889 31.6782C15.7161 31.2539 15.6737 30.7884 15.767 30.3402C15.8604 29.8921 16.0853 29.4813 16.4135 29.1596C16.7417 28.838 17.1585 28.6198 17.6114 28.5325C18.0644 28.4451 18.5332 28.4927 18.959 28.669C19.3848 28.8454 19.7485 29.1427 20.0043 29.5235C20.2601 29.9044 20.3966 30.3517 20.3967 30.8094C20.393 31.4282 20.1415 32.0202 19.6977 32.4553C19.2539 32.8903 18.654 33.1326 18.03 33.129ZM18.1543 18.6325C18.1488 18.1671 18.2829 17.7106 18.5395 17.321C18.7962 16.9314 19.1638 16.6263 19.5957 16.4443C20.0277 16.2624 20.5044 16.212 20.9653 16.2994C21.4262 16.3868 21.8505 16.6081 22.1843 16.9352C22.5181 17.2623 22.7463 17.6805 22.8399 18.1365C22.9335 18.5926 22.8883 19.0659 22.7101 19.4964C22.5318 19.9269 22.2285 20.2951 21.8387 20.5543C21.4489 20.8134 20.9903 20.9518 20.521 20.9518C19.8927 20.9571 19.2878 20.7159 18.838 20.2808C18.6172 20.0668 18.4416 19.8113 18.3214 19.5293C18.2012 19.2472 18.1389 18.9443 18.138 18.6381L18.1543 18.6325ZM23.4793 38.4117C22.9349 38.4052 22.4045 38.2392 21.955 37.9345C21.5055 37.6298 21.1569 37.2001 20.953 36.6994C20.7492 36.1987 20.6993 35.6494 20.8095 35.1206C20.9197 34.5918 21.1852 34.1071 21.5725 33.7276C21.9598 33.3481 22.4516 33.0906 22.9861 32.9877C23.5206 32.8847 24.0739 32.9409 24.5763 33.149C25.0786 33.3572 25.5077 33.708 25.8095 34.1575C26.1113 34.6069 26.2724 35.1348 26.2723 35.6748C26.2728 36.0355 26.2008 36.3928 26.0607 36.7257C25.9207 37.0586 25.7152 37.3606 25.4563 37.614C24.9297 38.1296 24.2193 38.4183 23.4793 38.4176V38.4117ZM27.946 19.9836C27.4846 19.9782 27.0351 19.8375 26.6541 19.5793C26.2731 19.3212 25.9776 18.957 25.8048 18.5327C25.6321 18.1083 25.5897 17.6428 25.6831 17.1946C25.7764 16.7465 26.0014 16.3357 26.3296 16.0141C26.6578 15.6924 27.0747 15.4742 27.5276 15.387C27.9806 15.2997 28.4495 15.3472 28.8753 15.5236C29.301 15.7 29.6647 15.9974 29.9205 16.3783C30.1762 16.7592 30.3127 17.2066 30.3127 17.6642C30.3089 18.2828 30.0576 18.8746 29.614 19.3096C29.1704 19.7445 28.5708 19.9869 27.947 19.9836H27.946ZM33.9117 26.0024C33.3193 25.9931 32.7429 25.8104 32.255 25.4772C31.767 25.144 31.3892 24.6753 31.169 24.1298C30.9488 23.5844 30.896 22.9866 31.0174 22.4115C31.1387 21.8364 31.4287 21.3097 31.8509 20.8976C32.2731 20.4854 32.8087 20.2062 33.3905 20.095C33.9722 19.9838 34.5741 20.0456 35.1205 20.2726C35.667 20.4995 36.1336 20.8816 36.4617 21.3708C36.7899 21.8599 36.965 22.4344 36.965 23.0219C36.9646 23.4152 36.8853 23.8045 36.7316 24.167C36.578 24.5296 36.353 24.8582 36.07 25.1336C35.4942 25.6941 34.7185 26.0063 33.9117 26.0024Z" fill="url(#paint0_linear_418_287)"/>
  <defs>
    <filter id="filter0_d_418_287" x="0" y="0" width="52" height="52" filterUnits="userSpaceOnUse" color-interpolation-filters="sRGB">
      <feFlood flood-opacity="0" result="BackgroundImageFix"/>
      <feColorMatrix in="SourceAlpha" type="matrix" values="0 0 0 0 0 0 0 0 0 0 0 0 0 0 0 0 0 0 127 0" result="hardAlpha"/>
      <feOffset/>
      <feGaussianBlur stdDeviation="1"/>
      <feComposite in2="hardAlpha" operator="out"/>
      <feColorMatrix type="matrix" values="0 0 0 0 0.0823529 0 0 0 0 0.807843 0 0 0 0 1 0 0 0 1 0"/>
      <feBlend mode="normal" in2="BackgroundImageFix" result="effect1_dropShadow_418_287"/>
      <feBlend mode="normal" in="SourceGraphic" in2="effect1_dropShadow_418_287" result="shape"/>
    </filter>
    <linearGradient id="paint0_linear_418_287" x1="12" y1="26.4152" x2="39.3335" y2="26.4152" gradientUnits="userSpaceOnUse">
      <stop offset="0.01" stop-color="#41D692"/>
      <stop offset="1" stop-color="#15CEFF"/>
    </linearGradient>
  </defs>
</svg>