<svg width="258" height="258" viewBox="0 0 258 258" fill="none" xmlns="http://www.w3.org/2000/svg">
<g id="img_iOS">
<rect id="Rectangle 327" x="1" y="1" width="256" height="256" rx="8" stroke="#15CEFF" stroke-width="2" stroke-linecap="round" stroke-dasharray="5 12"/>
<g id="Group">
<g id="Group_2">
<path id="Vector" d="M106.555 187.481L108.903 188.125L112.718 180.099L109.252 179.15L106.555 187.481Z" fill="#A0616A"/>
<path id="Vector_2" d="M109.469 186.936L109.467 186.935L106.912 186.384L106.91 186.384L106.318 186.257L104.285 191.039L104.176 191.295L105.844 191.753L105.981 191.506L106.61 190.384L106.85 191.744L106.901 192.041L111.323 193.254C111.585 193.326 111.857 193.296 112.086 193.187C112.331 193.075 112.527 192.872 112.61 192.611C113.056 191.86 109.941 189.119 109.622 188.532L110.097 187.069L109.469 186.936Z" fill="#2F2E41"/>
</g>
<path id="Vector_3" d="M121.596 161.271L121.323 161.92L120.528 163.802L111.994 183.855L105.996 182.498C107.125 174.922 107.922 170.23 110.773 166.199C111.562 165.082 112.512 164.014 113.668 162.95C113.668 162.95 109.113 162.937 103.765 162.837C103.295 162.828 102.818 162.819 102.337 162.806C97.9088 162.711 93.1755 162.554 90.135 162.294C88.2849 162.136 87.0076 161.323 86.1704 160.18C83.7741 156.924 84.9153 150.981 86.3964 149.849L96.4083 146.187L100.446 152.864L100.868 153.561L115.907 154.531C118.101 154.672 119.965 156.059 120.574 158.004L121.596 161.271Z" fill="#2F2E41"/>
<path id="Vector_4" d="M81.6923 63L80.958 173.538L184 157.104V63H81.6923ZM98.662 156.654H82.1818V141.495H98.662V156.654ZM98.662 141.045H82.1818V125.886H98.662V141.045ZM98.662 125.436H82.1818V110.277H98.662V125.436ZM98.662 109.827H82.1818V94.6681H98.662V109.827ZM98.662 94.2178H82.1818V79.0592H98.662V94.2178ZM98.662 78.609H82.1818C82.1818 70.2371 89.5602 63.4503 98.662 63.4503L98.662 78.609ZM115.632 156.654H99.1515V141.495H115.632V156.654ZM115.632 141.045H99.1515V125.886H115.632V141.045ZM115.632 125.436H99.1515V110.277H115.632V125.436ZM115.632 109.827H99.1515V94.6681H115.632V109.827ZM115.632 94.2178H99.1515C99.1515 85.846 106.53 79.0592 115.632 79.0592L115.632 94.2178ZM115.632 78.609H99.1515V63.4503H115.632V78.609ZM132.601 156.654H116.121V141.495H132.601V156.654ZM132.601 141.045H116.121V125.886H132.601V141.045ZM132.601 125.436H116.121V110.277H132.601V125.436ZM132.601 109.827H116.121V94.6681H132.601V109.827ZM132.601 94.2178H116.121V79.0592H132.601V94.2178ZM132.601 78.609H116.121V63.4503H132.601V78.609ZM149.571 156.654H133.091V141.495H149.571V156.654ZM149.571 141.045H133.091V125.886H149.571V141.045ZM149.571 125.436H133.091V110.277H149.571V125.436ZM149.571 109.827H133.091V94.6681H149.571V109.827ZM149.571 94.2178H133.091V79.0592H149.571V94.2178ZM149.571 78.609H133.091V63.4503H149.571V78.609ZM166.541 156.654C157.439 156.654 150.06 149.867 150.06 141.495L166.541 141.495V156.654ZM166.541 141.045H150.06V125.886H166.541V141.045ZM166.541 125.436H150.06V110.277H166.541V125.436ZM166.541 109.827H150.06V94.6681H166.541V109.827ZM166.541 94.2178H150.06V79.0592H166.541V94.2178ZM166.541 78.609H150.06V63.4503H166.541V78.609ZM167.03 156.654L167.03 141.495H183.51C183.51 149.867 176.132 156.654 167.03 156.654ZM183.51 141.045H167.03V125.886H183.51V141.045ZM183.51 125.436H167.03V110.277H183.51V125.436ZM183.51 109.827H167.03V94.6681H183.51V109.827ZM183.51 94.2178H167.03C167.03 85.846 174.408 79.0592 183.51 79.0592L183.51 94.2178ZM183.51 78.609H167.03V63.4503H183.51V78.609Z" fill="#F2F2F2"/>
<g id="Group_3">
<path id="Vector_5" d="M110.183 110.448L108.171 115.6L104.812 114.954L107.149 109.577C107.084 109.41 107.044 109.232 107.035 109.046C106.982 108.036 107.831 107.177 108.93 107.129C110.028 107.081 110.962 107.862 111.014 108.872C111.047 109.517 110.713 110.098 110.183 110.448Z" fill="#A0616A"/>
<path id="Vector_6" d="M110.517 111.846L105.963 123.111L105.304 124.737C104.71 126.207 103.074 127.087 101.388 126.845L90.811 125.325L90.0293 120.865L101.439 121.789L103.347 117.186L105.878 111.076L106.456 111.171L109.691 111.708L110.517 111.846Z" fill="#15CEFF"/>
</g>
<g id="Group_4">
<path id="Vector_7" d="M90.7217 186.895L92.6909 188.236L99.2515 181.887L96.345 179.908L90.7217 186.895Z" fill="#A0616A"/>
<path id="Vector_8" d="M93.2152 188.845L94.2037 187.617L93.6626 187.294L91.4628 185.973L90.9529 185.669L87.2697 189.527L87.0723 189.734L88.4705 190.686L88.6917 190.498L89.6958 189.641L89.4191 190.993L89.3577 191.291L93.0646 193.815C93.286 193.966 93.5515 194.024 93.8056 193.993C94.0792 193.963 94.3381 193.834 94.5143 193.615C95.2119 193.049 93.2987 189.497 93.2152 188.845Z" fill="#2F2E41"/>
</g>
<path id="Vector_9" d="M133.092 141.345C114.467 141.345 99.3154 127.408 99.3154 110.277C99.3154 93.1462 114.467 79.2094 133.092 79.2094C151.716 79.2094 166.868 93.1463 166.868 110.277C166.868 127.408 151.716 141.345 133.092 141.345ZM133.092 79.6596C114.737 79.6596 108.616 92.7192 108.616 109.602C108.616 126.484 114.737 140.895 133.092 140.895C151.446 140.895 166.378 127.16 166.378 110.277C166.378 93.3947 151.446 79.6596 133.092 79.6596Z" fill="#3F3D56"/>
<path id="Vector_10" d="M149.093 109.023L134.125 95.2545C134.082 95.2019 134.035 95.1506 133.983 95.1026C133.67 94.8141 133.258 94.6717 132.847 94.6745C132.436 94.6717 132.024 94.8141 131.71 95.1026C131.658 95.1506 131.612 95.2019 131.568 95.2545L116.6 109.023C115.978 109.594 115.978 110.521 116.6 111.092C117.221 111.664 118.228 111.664 118.85 111.092L131.256 99.6809V123.897C131.256 124.706 131.968 125.361 132.847 125.361C133.725 125.361 134.437 124.706 134.437 123.897V99.6809L146.843 111.092C147.465 111.664 148.472 111.664 149.093 111.092C149.715 110.521 149.715 109.594 149.093 109.023Z" fill="#15CEFF"/>
<path id="Vector_11" d="M94.1748 139.994L96.5877 147.232L85.6084 148.324L89.5245 139.094L94.1748 139.994Z" fill="#A0616A"/>
<path id="Vector_12" d="M114.735 167.91L114.238 168.435L112.794 169.956L97.357 186.145L92.2172 182.994C96.0794 176.222 98.5637 172.059 102.734 169.16C103.89 168.356 105.177 167.649 106.658 167.01C106.658 167.01 102.379 165.573 97.3864 163.806C96.9483 163.651 96.5028 163.493 96.0549 163.331C91.9259 161.856 87.5326 160.229 84.7693 159.033C83.0878 158.306 82.1871 157.142 81.8224 155.805C80.7724 151.993 84.0424 146.761 85.8535 146.16L96.6228 145.847L97.9518 153.389L98.0913 154.177C98.0913 154.177 102.037 155.931 106.178 157.685C106.8 157.946 107.424 158.209 108.041 158.466C109.02 158.871 109.974 159.263 110.86 159.616C110.88 159.624 110.901 159.632 110.921 159.641C113.489 160.661 115.087 163.05 114.901 165.617L114.735 167.91Z" fill="#2F2E41"/>
<path id="Vector_13" d="M96.8629 134.393C96.601 136.113 96.5398 137.738 96.8678 138.643C96.955 138.884 98.2608 140.643 98.3363 140.895C99.0104 143.142 96.1335 143.596 96.1335 143.596L85.0968 146.967C84.4612 147.161 83.9263 146.483 84.3323 145.994C85.2376 144.902 86.0645 143.324 86.0055 141.235C85.9137 137.978 84.3471 132.8 83.4812 130.167C83.1248 129.083 83.2107 127.919 83.721 126.889L84.9531 124.402L86.7447 120.788L87.3223 118.157L92.4622 118.382L93.0961 120.523L97.8786 127.238C98.0719 127.511 98.1992 127.815 98.2555 128.128C98.3314 128.519 98.2947 128.929 98.1454 129.314C97.6485 130.595 97.1419 132.547 96.8629 134.393Z" fill="#15CEFF"/>
<g id="Group_5">
<path id="Vector_14" d="M126.847 126.114L120.989 127.079L119.923 124.078L126.155 123.26C126.28 123.126 126.428 123.005 126.598 122.905C127.524 122.359 128.756 122.608 129.35 123.46C129.943 124.312 129.673 125.445 128.747 125.991C128.156 126.339 127.441 126.363 126.847 126.114Z" fill="#A0616A"/>
<path id="Vector_15" d="M87.6123 126.078L88.355 126.811C90.1559 128.591 92.6242 129.676 95.2611 129.846L105.111 130.481L123.405 127.318L122.291 123.295L104.997 126.036L87.6123 126.078Z" fill="#15CEFF"/>
</g>
<g id="Group_6">
<path id="Vector_16" d="M75.0023 114.509C74.9493 116.607 75.8018 118.639 77.0265 120.423C77.3904 119.382 78.0446 118.434 78.7268 117.53C78.3706 119.466 78.7606 121.504 79.769 123.234C79.8068 123.259 79.8423 123.281 79.8806 123.3C80.8788 123.853 82.1444 124.076 83.2243 123.677C80.9931 121.465 80.7091 117.8 82.5798 115.318C83.1094 114.614 83.7943 113.992 84.1224 113.19C84.6403 111.912 84.1424 110.504 83.8284 109.171C83.5347 107.931 83.4833 106.454 84.3881 105.545C84.2023 105.301 83.8494 105.132 83.5166 105.176C82.9587 105.248 82.5526 105.694 82.294 106.154C82.0354 106.613 81.8648 107.122 81.5043 107.519C80.8368 108.262 79.7001 108.437 78.7421 108.829C76.4222 109.779 75.058 112.174 75.0023 114.509Z" fill="#2F2E41"/>
<path id="Vector_17" d="M94.5305 113.309C94.3979 112.883 95.3117 115.491 94.8707 115.539C92.8625 115.75 90.1056 116.854 88.7068 117.368C88.6438 117.362 88.5808 117.355 88.5197 117.347C88.3697 117.331 88.2233 117.31 88.0788 117.284C84.8218 116.717 83.5693 112.116 83.5693 112.074C83.5693 111.867 84.1091 106.185 84.9595 106.1C85.18 106.079 85.4042 106.067 85.632 106.067H87.7422C88.1906 105.979 88.6352 105.919 89.0669 105.89H89.0706C93.3187 105.592 96.6683 107.974 96.3552 110.872C96.3534 110.876 96.3497 110.879 96.3478 110.882C96.257 111.007 96.1774 111.124 96.107 111.237C96.0384 111.343 95.981 111.444 95.931 111.54C95.5438 112.28 96.5391 113.211 95.8791 113.385C95.0013 113.616 98.1877 121.215 94.7133 121.215C96.4033 121.657 94.8962 114.487 94.5305 113.309Z" fill="#2F2E41"/>
<path id="Vector_18" d="M90.7383 117.768C93.4976 117.768 95.7344 115.71 95.7344 113.172C95.7344 110.634 93.4976 108.577 90.7383 108.577C87.979 108.577 85.7422 110.634 85.7422 113.172C85.7422 115.71 87.979 117.768 90.7383 117.768Z" fill="#A0616A"/>
<path id="Vector_19" d="M96.3559 111.123C96.2725 111.163 96.191 111.2 96.1076 111.237C96.0206 111.276 95.9335 111.315 95.8464 111.35C94.1735 112.048 92.8118 112.125 91.9855 111.123C91.9632 110.598 91.8354 110.077 91.6057 109.592C91.6483 110.129 91.489 110.675 91.1648 111.123H89.5011C87.7874 112.169 86.9073 112.278 88.0967 115.713C88.4284 116.67 89.747 122.239 89.2282 123.065C89.0782 123.05 87.4817 116.95 87.3372 116.925C84.0802 116.358 82.0108 111.422 82.2757 111.143C82.2757 110.322 82.4832 109.547 82.8556 108.854C83.3373 107.954 84.095 107.197 85.0306 106.677C85.5827 106.43 86.1644 106.23 86.7684 106.077C86.7832 106.073 86.7962 106.07 86.811 106.067C86.9944 106.021 87.1815 105.979 87.3687 105.944C87.7522 105.87 88.1412 105.814 88.5395 105.781C88.5673 105.779 88.5951 105.777 88.6211 105.777C88.7841 105.777 88.936 105.82 89.0675 105.89C89.0694 105.89 89.0694 105.892 89.0712 105.892C89.1676 105.944 89.2528 106.013 89.3195 106.095C89.4344 106.23 89.5011 106.398 89.5011 106.581H91.3537C91.4223 106.581 91.4908 106.583 91.5594 106.586C94.1401 106.681 96.2151 108.548 96.3485 110.882C96.3541 110.963 96.3559 111.042 96.3559 111.123Z" fill="#2F2E41"/>
<path id="Vector_20" d="M88.7236 106.626C88.7236 108.298 87.2499 109.654 85.4321 109.654C83.6143 109.654 82.1406 108.298 82.1406 106.626C82.1406 104.954 83.6143 103.599 85.4321 103.599C87.2499 103.599 88.7236 104.954 88.7236 106.626Z" fill="#2F2E41"/>
</g>
</g>
</g>
</svg>
