<svg width="417" height="465" viewBox="0 0 417 465" fill="none" xmlns="http://www.w3.org/2000/svg">
<g filter="url(#filter0_d_674_2380)">
<path d="M409.844 319.88C409.844 328.489 407.575 336.946 403.267 344.4C398.958 351.854 392.762 358.041 385.302 362.339L233.359 449.863C225.92 454.148 217.486 456.403 208.901 456.403C200.316 456.403 191.882 454.148 184.443 449.863L32.4987 362.339C25.0385 358.041 18.8422 351.854 14.5338 344.4C10.2253 336.946 7.95685 328.489 7.95676 319.88V145.024C7.95685 136.414 10.2253 127.957 14.5338 120.503C18.8422 113.049 25.0385 106.862 32.4987 102.565L184.444 15.0405C191.883 10.7555 200.317 8.5 208.902 8.5C217.487 8.5 225.921 10.7555 233.36 15.0405L385.302 102.565C392.762 106.862 398.959 113.049 403.267 120.503C407.575 127.957 409.844 136.415 409.844 145.025V319.88Z" fill="white"/>
</g>
<path d="M415.907 323.63C415.907 332.239 413.639 340.696 409.33 348.15C405.022 355.604 398.825 361.791 391.365 366.089L232.907 457.363C225.468 461.648 217.034 463.903 208.449 463.903C199.864 463.903 191.43 461.648 183.991 457.363L25.5422 366.089C18.082 361.791 11.8857 355.604 7.57721 348.15C3.26877 340.696 1.0003 332.239 1.00021 323.63V141.274C1.0003 132.664 3.26877 124.207 7.57721 116.753C11.8857 109.299 18.082 103.112 25.5422 98.8145L183.996 7.54053C191.435 3.25546 199.869 1 208.454 1C217.039 1 225.473 3.25546 232.912 7.54053L391.365 98.8145C398.825 103.112 405.022 109.299 409.33 116.753C413.639 124.207 415.907 132.664 415.907 141.274V323.63Z" stroke="#15CEFF" stroke-width="2" stroke-linecap="round" stroke-linejoin="round" stroke-dasharray="3 10"/>
<path d="M316.556 297.106C329.489 289.135 338.776 274.971 336.637 260.788C325.05 272.141 309.471 279.358 292.655 281.163C286.167 281.837 278.875 281.966 274.321 286.269C271.487 288.947 270.321 292.826 270.311 296.562C270.3 300.299 271.327 303.965 272.347 307.582L272.121 308.491C287.67 307.78 303.623 305.077 316.556 297.106Z" fill="#F0F0F0"/>
<path d="M336.312 260.788C331.586 271.815 323.203 281.191 312.353 287.586C310.044 289.001 307.507 290.072 304.835 290.76C302.209 291.353 299.459 291.288 296.869 290.573C294.44 289.95 292.033 289.054 289.482 288.986C288.175 288.968 286.879 289.205 285.679 289.681C284.479 290.157 283.402 290.86 282.518 291.746C280.254 293.899 278.966 296.673 277.809 299.425C276.524 302.482 275.242 305.675 272.571 307.958C272.247 308.235 272.733 308.681 273.056 308.405C277.704 304.431 278.134 298.139 281.767 293.55C283.462 291.409 285.869 289.724 288.839 289.619C291.436 289.527 293.918 290.449 296.372 291.099C298.887 291.831 301.559 291.986 304.154 291.549C306.855 290.989 309.433 290.009 311.777 288.653C317.107 285.677 321.895 281.949 325.965 277.605C330.641 272.671 334.365 267.037 336.975 260.948C337.137 260.571 336.472 260.414 336.312 260.788Z" fill="white"/>
<path d="M315.977 285.716C317.391 287.245 319.349 288.262 321.502 288.586C323.656 288.909 325.864 288.518 327.732 287.481C328.11 287.27 327.771 286.721 327.393 286.932C325.655 287.9 323.598 288.265 321.594 287.96C319.59 287.655 317.77 286.701 316.462 285.27C316.178 284.959 315.695 285.408 315.977 285.716Z" fill="white"/>
<path d="M298.054 291.038C298.374 286.946 300.358 283.115 303.611 280.309C303.934 280.031 303.448 279.586 303.126 279.863C299.746 282.789 297.69 286.779 297.368 291.038C297.338 291.444 298.024 291.442 298.054 291.038Z" fill="white"/>
<path d="M329.774 272.417C329.093 271.93 328.554 271.296 328.206 270.57C327.858 269.845 327.711 269.051 327.778 268.26C327.814 267.855 327.128 267.857 327.092 268.26C327.022 269.134 327.185 270.011 327.568 270.813C327.951 271.615 328.542 272.319 329.289 272.863C329.355 272.92 329.442 272.951 329.532 272.951C329.622 272.951 329.709 272.92 329.774 272.863C329.838 272.804 329.874 272.724 329.874 272.64C329.874 272.556 329.838 272.476 329.774 272.417Z" fill="white"/>
<path d="M291.79 235.314C291.76 235.566 291.73 235.819 291.694 236.074C291.268 239.467 290.543 242.823 289.526 246.108C289.451 246.363 289.372 246.621 289.29 246.874C286.748 254.765 282.635 262.153 277.16 268.663C274.979 271.251 272.587 273.683 270.005 275.938C266.439 279.052 262.303 282.167 260.127 286.068C259.895 286.472 259.69 286.89 259.515 287.318L270.933 308.168C270.985 308.203 271.032 308.241 271.084 308.277L271.498 309.128C271.64 309.021 271.785 308.906 271.927 308.798C272.01 308.736 272.09 308.669 272.172 308.607C272.227 308.564 272.281 308.521 272.333 308.485C272.351 308.471 272.369 308.457 272.382 308.445C272.433 308.409 272.477 308.37 272.524 308.337C273.335 307.699 274.142 307.054 274.947 306.403C274.952 306.401 274.952 306.401 274.954 306.394C281.068 301.42 286.784 295.933 291.413 289.822C291.552 289.638 291.697 289.452 291.831 289.258C293.9 286.493 295.721 283.577 297.274 280.539C298.119 278.873 298.872 277.169 299.529 275.433C301.218 270.944 302.129 266.239 302.229 261.49C302.426 252.023 299.329 242.604 292.331 235.827C292.151 235.653 291.975 235.485 291.79 235.314Z" fill="#F0F0F0"/>
<path d="M291.527 235.494C294.972 246.915 294.416 259.044 289.939 270.158C289.021 272.567 287.697 274.827 286.014 276.856C284.305 278.784 282.066 280.255 279.53 281.118C277.183 281.966 274.675 282.584 272.593 283.942C271.539 284.652 270.659 285.559 270.012 286.603C269.365 287.647 268.966 288.806 268.84 290.002C268.441 292.976 269.228 295.903 270.106 298.742C271.081 301.894 272.147 305.153 271.509 308.456C271.432 308.856 272.112 308.943 272.189 308.543C273.299 302.797 269.524 297.535 269.421 291.859C269.373 289.21 270.192 286.532 272.494 284.804C274.508 283.292 277.093 282.653 279.478 281.814C281.965 281.005 284.2 279.649 285.986 277.863C287.776 275.92 289.193 273.71 290.177 271.329C292.484 266.002 293.867 260.373 294.274 254.65C294.778 248.122 294.063 241.561 292.162 235.254C292.044 234.864 291.41 235.106 291.527 235.494Z" fill="white"/>
<path d="M291.61 266.658C293.739 267.095 295.968 266.823 297.899 265.888C299.83 264.954 301.337 263.419 302.151 261.557C302.314 261.179 301.684 260.928 301.521 261.306C300.767 263.041 299.363 264.471 297.563 265.338C295.763 266.205 293.685 266.451 291.705 266.033C291.275 265.942 291.182 266.568 291.61 266.658Z" fill="white"/>
<path d="M280.783 280.832C278.359 277.389 277.436 273.231 278.197 269.189C278.273 268.788 277.593 268.701 277.518 269.101C276.734 273.309 277.704 277.634 280.235 281.212C280.476 281.553 281.023 281.172 280.783 280.832Z" fill="white"/>
<path d="M293.92 248.399C293.058 248.388 292.212 248.179 291.459 247.793C290.706 247.406 290.069 246.854 289.605 246.185C289.369 245.841 288.822 246.224 289.058 246.565C289.573 247.302 290.278 247.911 291.109 248.34C291.94 248.769 292.872 249.004 293.825 249.024C293.914 249.033 294.004 249.01 294.076 248.96C294.148 248.911 294.197 248.837 294.212 248.756C294.224 248.673 294.2 248.589 294.146 248.522C294.091 248.455 294.01 248.411 293.92 248.399Z" fill="white"/>
<path d="M257.454 113.877H246.239C246.755 115.04 246.952 116.302 246.813 117.551C246.673 118.801 246.202 120 245.44 121.042C244.679 122.085 243.65 122.939 242.445 123.53C241.239 124.12 239.895 124.429 238.529 124.429H189.308C187.943 124.429 186.598 124.12 185.393 123.53C184.188 122.939 183.159 122.085 182.397 121.042C181.636 120 181.164 118.801 181.025 117.551C180.886 116.302 181.083 115.04 181.598 113.877H171.124C166.475 113.877 162.017 115.575 158.73 118.599C155.442 121.622 153.596 125.723 153.596 129.999V334.336C153.596 336.453 154.049 338.55 154.93 340.506C155.811 342.462 157.102 344.239 158.729 345.736C160.357 347.234 162.289 348.421 164.416 349.231C166.543 350.042 168.822 350.459 171.124 350.459H257.454C259.756 350.459 262.035 350.042 264.162 349.231C266.289 348.421 268.221 347.234 269.848 345.737C271.476 344.239 272.767 342.462 273.648 340.506C274.529 338.55 274.982 336.453 274.982 334.336V129.999C274.982 127.882 274.529 125.785 273.648 123.829C272.767 121.873 271.476 120.096 269.848 118.599C268.221 117.102 266.289 115.914 264.162 115.104C262.035 114.294 259.756 113.877 257.454 113.877Z" fill="white"/>
<path d="M257.454 351.335H171.124C166.224 351.33 161.526 349.538 158.062 346.351C154.597 343.164 152.648 338.843 152.643 334.336V129.999C152.648 125.492 154.597 121.171 158.062 117.985C161.526 114.798 166.224 113.005 171.124 113H183.017L182.481 114.208C182.024 115.238 181.85 116.355 181.973 117.462C182.097 118.568 182.514 119.63 183.189 120.553C183.863 121.476 184.774 122.233 185.841 122.756C186.909 123.279 188.099 123.552 189.309 123.553H238.529C239.739 123.552 240.929 123.279 241.996 122.756C243.064 122.233 243.975 121.476 244.649 120.553C245.324 119.63 245.741 118.568 245.864 117.462C245.988 116.355 245.814 115.238 245.357 114.208L244.821 113H257.454C262.354 113.005 267.052 114.798 270.516 117.985C273.981 121.171 275.93 125.492 275.936 129.999V334.336C275.93 338.843 273.981 343.164 270.516 346.351C267.052 349.538 262.354 351.33 257.454 351.335ZM171.124 114.754C166.729 114.758 162.516 116.366 159.409 119.224C156.302 122.082 154.554 125.957 154.549 129.999V334.336C154.554 338.378 156.302 342.253 159.409 345.111C162.516 347.97 166.729 349.577 171.124 349.582H257.454C261.849 349.577 266.062 347.97 269.169 345.112C272.276 342.253 274.024 338.378 274.029 334.336V129.999C274.024 125.957 272.276 122.082 269.169 119.224C266.062 116.366 261.849 114.758 257.454 114.754H247.548C247.88 116.01 247.897 117.318 247.599 118.582C247.3 119.845 246.694 121.029 245.826 122.045C244.957 123.061 243.849 123.883 242.585 124.448C241.321 125.013 239.935 125.306 238.529 125.306H189.309C187.904 125.306 186.517 125.012 185.253 124.447C183.99 123.882 182.882 123.06 182.014 122.044C181.145 121.028 180.539 119.844 180.241 118.581C179.942 117.318 179.959 116.01 180.29 114.754L171.124 114.754Z" fill="#E4E4E4"/>
<path d="M258.101 145.281H232.068C231.775 145.281 231.494 145.174 231.287 144.984C231.08 144.793 230.964 144.535 230.964 144.265C230.964 143.996 231.08 143.737 231.287 143.547C231.494 143.356 231.775 143.249 232.068 143.249H258.101C258.247 143.249 258.39 143.275 258.525 143.326C258.659 143.377 258.781 143.452 258.884 143.546C258.986 143.64 259.068 143.753 259.124 143.876C259.179 143.999 259.208 144.132 259.208 144.265C259.208 144.399 259.179 144.531 259.124 144.655C259.068 144.778 258.986 144.89 258.884 144.984C258.781 145.079 258.659 145.154 258.525 145.205C258.39 145.256 258.247 145.282 258.101 145.281Z" fill="#15CEFF"/>
<path d="M258.101 149.838H232.068C231.775 149.838 231.494 149.731 231.287 149.541C231.08 149.35 230.964 149.092 230.964 148.822C230.964 148.553 231.08 148.294 231.287 148.104C231.494 147.913 231.775 147.806 232.068 147.806H258.101C258.247 147.806 258.39 147.832 258.525 147.883C258.659 147.934 258.781 148.009 258.884 148.103C258.986 148.197 259.068 148.309 259.124 148.433C259.179 148.556 259.208 148.689 259.208 148.822C259.208 148.956 259.179 149.088 259.124 149.211C259.068 149.335 258.986 149.447 258.884 149.541C258.781 149.636 258.659 149.711 258.525 149.761C258.39 149.812 258.247 149.838 258.101 149.838Z" fill="#15CEFF"/>
<path d="M258.101 154.395H232.068C231.775 154.395 231.494 154.288 231.287 154.097C231.08 153.907 230.964 153.649 230.964 153.379C230.964 153.11 231.08 152.851 231.287 152.661C231.494 152.47 231.775 152.363 232.068 152.363H258.101C258.247 152.363 258.39 152.389 258.525 152.44C258.659 152.491 258.781 152.566 258.884 152.66C258.986 152.754 259.068 152.866 259.124 152.99C259.179 153.113 259.208 153.245 259.208 153.379C259.208 153.513 259.179 153.645 259.124 153.768C259.068 153.892 258.986 154.004 258.884 154.098C258.781 154.193 258.659 154.267 258.525 154.318C258.39 154.369 258.247 154.395 258.101 154.395Z" fill="#15CEFF"/>
<path d="M126.429 346.899L130.791 346.899L132.866 331.423H126.429L126.429 346.899Z" fill="#FFB6B6"/>
<path d="M125.316 345.589L133.907 345.589C135.359 345.589 136.752 346.119 137.778 347.064C138.805 348.008 139.382 349.289 139.382 350.624V350.788L125.317 350.788L125.316 345.589Z" fill="#2F2E41"/>
<path d="M109.375 343.165L113.49 344.496L121.033 330.532L114.96 328.566L109.375 343.165Z" fill="#FFB6B6"/>
<path d="M108.798 341.589L116.902 344.212C118.271 344.656 119.393 345.581 120.021 346.786C120.649 347.99 120.73 349.374 120.248 350.634L120.189 350.788L106.922 346.494L108.798 341.589Z" fill="#2F2E41"/>
<path d="M106.783 256.946L104.142 259.591L114.816 300.463L125.784 340.322H134.552L129.509 302.285V263.167L106.783 256.946Z" fill="#2F2E41"/>
<path d="M134.068 260.224L135.224 264.182L129.048 299.482L120.277 336.887H110.346L117.802 291.023L126.913 257.264L134.068 260.224Z" fill="#2F2E41"/>
<path d="M139.527 201.577L135.666 195.202L126.508 193.823C121.943 194.934 117.857 197.302 114.798 200.61C111.739 203.919 109.853 208.009 109.394 212.331L104.429 259.11C104.429 259.11 129.836 269.866 135.224 263.81L142.716 210.713C143.012 209.067 142.877 207.379 142.323 205.79C141.768 204.201 140.81 202.757 139.527 201.577Z" fill="#3F3D56"/>
<path d="M133.018 191.756C138.385 191.756 142.736 187.754 142.736 182.817C142.736 177.881 138.385 173.879 133.018 173.879C127.652 173.879 123.301 177.881 123.301 182.817C123.301 187.754 127.652 191.756 133.018 191.756Z" fill="#FFB6B6"/>
<path d="M145.785 177.945C145.186 177.791 144.676 177.43 144.36 176.937C144.146 176.608 144.032 176.232 144.03 175.848C144.028 175.464 144.139 175.087 144.349 174.756C143.902 174.542 143.411 174.42 142.908 174.396C142.405 174.373 141.902 174.449 141.434 174.619C141.829 174.301 142.138 173.902 142.333 173.454C142.528 173.005 142.605 172.52 142.557 172.039C141.391 172.402 140.224 172.765 139.058 173.128C139.481 172.831 139.793 172.42 139.951 171.952C140.109 171.484 140.106 170.983 139.941 170.517C138.984 171.771 137.001 171.94 135.386 171.566C133.77 171.192 132.278 170.407 130.631 170.171C129.718 170.04 128.786 170.082 127.891 170.297C126.997 170.511 126.16 170.892 125.432 171.416C124.704 171.94 124.101 172.595 123.66 173.343C123.219 174.09 122.95 174.912 122.868 175.759C122.444 175.809 122.04 175.957 121.694 176.189C121.349 176.422 121.074 176.731 120.894 177.089C120.544 177.808 120.385 178.594 120.429 179.381C120.458 181.26 120.956 183.108 121.883 184.782C122.811 186.456 124.144 187.912 125.779 189.038L126.316 188.868C126.255 187.852 126.621 186.853 127.339 186.079C128.057 185.305 129.072 184.816 130.173 184.712C131.598 184.63 133.281 185.155 134.299 184.233C135.229 183.389 134.896 181.879 135.656 180.901C136.316 180.051 137.631 179.852 138.745 180.056C139.86 180.26 140.874 180.779 141.957 181.097C143.039 181.415 144.307 181.505 145.238 180.905C145.622 180.621 145.933 180.262 146.148 179.854C146.363 179.446 146.476 179 146.48 178.546C146.491 178.363 146.489 178.179 146.475 177.996C146.243 178.008 146.011 177.99 145.785 177.945Z" fill="#2F2E41"/>
<path d="M180.981 261.407H80.9102V288.062H180.981V261.407Z" fill="white"/>
<path d="M181.89 288.899H80V260.57H181.89V288.899ZM81.8195 287.225H180.071V262.244H81.8195L81.8195 287.225Z" fill="#E4E4E4"/>
<path d="M161.542 270.573H100.349C100.005 270.573 99.6751 270.448 99.4318 270.224C99.1884 270 99.0518 269.696 99.0518 269.38C99.0518 269.063 99.1884 268.76 99.4318 268.536C99.6751 268.312 100.005 268.186 100.349 268.186H161.542C161.886 268.186 162.216 268.312 162.459 268.536C162.703 268.76 162.839 269.063 162.839 269.38C162.839 269.696 162.703 270 162.459 270.224C162.216 270.448 161.886 270.573 161.542 270.573Z" fill="#15CEFF"/>
<path d="M161.542 275.929H100.349C100.005 275.928 99.6757 275.802 99.4329 275.578C99.1901 275.354 99.0537 275.051 99.0537 274.735C99.0537 274.419 99.1901 274.115 99.4329 273.891C99.6757 273.668 100.005 273.542 100.349 273.541H161.542C161.885 273.542 162.215 273.668 162.458 273.891C162.7 274.115 162.837 274.419 162.837 274.735C162.837 275.051 162.7 275.354 162.458 275.578C162.215 275.802 161.885 275.928 161.542 275.929Z" fill="#15CEFF"/>
<path d="M136.773 281.284H100.349C100.005 281.284 99.6751 281.158 99.4318 280.934C99.1884 280.71 99.0518 280.406 99.0518 280.09C99.0518 279.773 99.1884 279.47 99.4318 279.246C99.6751 279.022 100.005 278.896 100.349 278.896H136.773C137.117 278.896 137.447 279.022 137.69 279.246C137.934 279.47 138.07 279.773 138.07 280.09C138.07 280.406 137.934 280.71 137.69 280.934C137.447 281.158 137.117 281.284 136.773 281.284Z" fill="#15CEFF"/>
<path d="M140.559 264.738C140.17 264.416 139.862 264.02 139.657 263.577C139.453 263.134 139.357 262.656 139.375 262.175C139.393 261.694 139.526 261.223 139.764 260.794C140.002 260.366 140.339 259.991 140.751 259.695L136.655 248.623L143.049 250.156L145.958 260.435C146.452 261.105 146.662 261.919 146.547 262.722C146.433 263.525 146.002 264.262 145.336 264.792C144.671 265.323 143.817 265.61 142.936 265.6C142.056 265.59 141.21 265.283 140.559 264.738Z" fill="#FFB6B6"/>
<path d="M137.729 257.358L131.101 234.819L130.52 207.359C130.491 206.235 130.859 205.133 131.569 204.218C132.28 203.303 133.294 202.625 134.46 202.287C135.332 202.029 136.259 201.969 137.161 202.113C138.064 202.256 138.916 202.598 139.643 203.11C140.371 203.621 140.953 204.288 141.34 205.051C141.728 205.815 141.908 206.653 141.866 207.495L140.799 229.102L146.058 254.894L137.729 257.358Z" fill="#3F3D56"/>
<path d="M116.613 265.393C116.224 265.071 115.917 264.675 115.712 264.232C115.508 263.789 115.411 263.31 115.43 262.83C115.448 262.349 115.581 261.877 115.819 261.449C116.056 261.02 116.393 260.645 116.806 260.349L112.71 249.278L119.103 250.811L122.013 261.089C122.507 261.76 122.717 262.574 122.602 263.377C122.487 264.18 122.057 264.917 121.391 265.447C120.725 265.977 119.871 266.265 118.991 266.255C118.11 266.245 117.264 265.938 116.613 265.393Z" fill="#FFB6B6"/>
<path d="M112.777 256.307L109.941 233.133L113.904 205.881C114.005 205.187 114.257 204.519 114.644 203.917C115.031 203.314 115.546 202.789 116.158 202.373C116.77 201.958 117.467 201.659 118.207 201.496C118.947 201.333 119.715 201.308 120.466 201.423C121.216 201.538 121.934 201.791 122.576 202.167C123.218 202.542 123.772 203.033 124.204 203.609C124.636 204.185 124.938 204.835 125.091 205.521C125.244 206.206 125.246 206.913 125.097 207.6L120.475 228.807L121.416 255.034L112.777 256.307Z" fill="#3F3D56"/>
<path d="M329.192 337.259H175.999V304.831H329.192V337.259Z" fill="white"/>
<path d="M198.108 315.553C197.712 315.553 197.332 315.698 197.052 315.955C196.773 316.213 196.615 316.562 196.615 316.926C196.615 317.29 196.773 317.64 197.052 317.897C197.332 318.155 197.712 318.3 198.108 318.3H307.089C307.484 318.299 307.863 318.154 308.142 317.896C308.422 317.639 308.578 317.29 308.578 316.926C308.578 316.562 308.422 316.214 308.142 315.956C307.863 315.699 307.484 315.554 307.089 315.553H198.108Z" fill="#E6E6E6"/>
<path d="M198.108 323.791C197.712 323.79 197.332 323.934 197.052 324.191C196.771 324.448 196.613 324.797 196.612 325.161C196.611 325.525 196.768 325.875 197.047 326.133C197.327 326.391 197.706 326.536 198.102 326.537H267C267.197 326.537 267.391 326.502 267.573 326.433C267.754 326.364 267.919 326.263 268.058 326.136C268.197 326.008 268.307 325.857 268.382 325.69C268.457 325.523 268.496 325.344 268.496 325.164C268.496 324.983 268.457 324.804 268.382 324.638C268.307 324.471 268.197 324.319 268.058 324.192C267.919 324.064 267.754 323.963 267.573 323.894C267.391 323.825 267.197 323.79 267 323.791H198.108Z" fill="#E6E6E6"/>
<path d="M329.192 337.259H175.999V304.831H329.192V337.259ZM178.517 334.943H326.673V307.147H178.517V334.943Z" fill="#E5E5E5"/>
<path d="M87.7971 243.992C86.5319 243.992 85.2952 243.647 84.2433 243C83.1913 242.354 82.3715 241.435 81.8873 240.36C81.4032 239.285 81.2765 238.102 81.5233 236.96C81.7701 235.819 82.3793 234.771 83.2739 233.948C84.1685 233.125 85.3083 232.564 86.5491 232.337C87.79 232.11 89.0761 232.227 90.245 232.672C91.4138 233.118 92.4128 233.872 93.1157 234.839C93.8186 235.807 94.1938 236.944 94.1938 238.108C94.1937 239.669 93.5198 241.165 92.3202 242.269C91.1206 243.372 89.4936 243.992 87.7971 243.992Z" fill="#F0F0F0"/>
<path d="M116.981 160.615C115.585 160.615 114.22 160.234 113.059 159.52C111.898 158.807 110.994 157.793 110.459 156.606C109.925 155.42 109.785 154.114 110.058 152.854C110.33 151.595 111.002 150.438 111.99 149.53C112.977 148.621 114.235 148.003 115.604 147.752C116.974 147.502 118.393 147.631 119.683 148.122C120.973 148.613 122.076 149.446 122.851 150.514C123.627 151.581 124.041 152.837 124.041 154.121C124.041 154.974 123.858 155.818 123.504 156.606C123.149 157.394 122.629 158.11 121.973 158.713C121.318 159.316 120.54 159.794 119.683 160.12C118.827 160.447 117.909 160.615 116.981 160.615Z" fill="#F0F0F0"/>
<path d="M299.074 207.026C297.874 207.026 296.7 206.698 295.701 206.085C294.703 205.471 293.925 204.599 293.465 203.579C293.006 202.558 292.885 201.435 293.12 200.352C293.354 199.269 293.932 198.274 294.781 197.493C295.63 196.712 296.712 196.18 297.89 195.964C299.068 195.749 300.288 195.859 301.398 196.282C302.507 196.705 303.455 197.42 304.122 198.339C304.79 199.257 305.146 200.337 305.146 201.441C305.146 202.923 304.506 204.343 303.367 205.39C302.229 206.438 300.685 207.026 299.074 207.026Z" fill="#F0F0F0"/>
<path d="M260.635 171.428H167.574V236.068H260.635V171.428Z" fill="white"/>
<path d="M261.854 237.189H166.355V170.307H261.854V237.189ZM168.793 234.947H259.417V172.549H168.793V234.947Z" fill="#E4E4E4"/>
<path d="M259.578 172.749H169.158L259.578 235.439V172.749Z" fill="#F0F0F0"/>
<path d="M311.912 350.812C309.204 350.812 306.556 350.073 304.304 348.689C302.051 347.305 300.296 345.337 299.259 343.036C298.223 340.734 297.952 338.201 298.48 335.757C299.008 333.313 300.313 331.069 302.228 329.307C304.144 327.545 306.584 326.345 309.241 325.859C311.897 325.373 314.651 325.623 317.154 326.576C319.656 327.53 321.795 329.144 323.3 331.216C324.805 333.288 325.608 335.723 325.608 338.215C325.608 339.869 325.254 341.507 324.566 343.036C323.877 344.564 322.869 345.953 321.597 347.122C320.325 348.292 318.815 349.22 317.154 349.853C315.492 350.486 313.711 350.812 311.912 350.812Z" fill="#15CEFF"/>
<path d="M317.316 336.972H313.263V333.244C313.263 332.915 313.12 332.598 312.867 332.365C312.614 332.132 312.27 332.001 311.912 332.001C311.553 332.001 311.21 332.132 310.956 332.365C310.703 332.598 310.561 332.915 310.561 333.244V336.972H306.508C306.15 336.973 305.807 337.104 305.554 337.337C305.301 337.57 305.159 337.886 305.159 338.215C305.159 338.544 305.301 338.86 305.554 339.093C305.807 339.326 306.15 339.457 306.508 339.457H310.561V343.185C310.561 343.515 310.703 343.831 310.956 344.064C311.21 344.297 311.553 344.428 311.912 344.428C312.27 344.428 312.614 344.297 312.867 344.064C313.12 343.831 313.263 343.515 313.263 343.185V339.457H317.316C317.493 339.458 317.669 339.426 317.833 339.364C317.998 339.301 318.147 339.21 318.273 339.094C318.398 338.979 318.498 338.842 318.566 338.691C318.634 338.54 318.669 338.378 318.669 338.215C318.669 338.051 318.634 337.89 318.566 337.739C318.498 337.588 318.398 337.451 318.273 337.335C318.147 337.22 317.998 337.128 317.833 337.066C317.669 337.004 317.493 336.972 317.316 336.972Z" fill="white"/>
<defs>
<filter id="filter0_d_674_2380" x="1.95703" y="2.5" width="413.887" height="459.903" filterUnits="userSpaceOnUse" color-interpolation-filters="sRGB">
<feFlood flood-opacity="0" result="BackgroundImageFix"/>
<feColorMatrix in="SourceAlpha" type="matrix" values="0 0 0 0 0 0 0 0 0 0 0 0 0 0 0 0 0 0 127 0" result="hardAlpha"/>
<feOffset/>
<feGaussianBlur stdDeviation="3"/>
<feColorMatrix type="matrix" values="0 0 0 0 0 0 0 0 0 0 0 0 0 0 0 0 0 0 0.161 0"/>
<feBlend mode="normal" in2="BackgroundImageFix" result="effect1_dropShadow_674_2380"/>
<feBlend mode="normal" in="SourceGraphic" in2="effect1_dropShadow_674_2380" result="shape"/>
</filter>
</defs>
</svg>
