<svg width="258" height="258" viewBox="0 0 258 258" fill="none" xmlns="http://www.w3.org/2000/svg">
<g id="img_maintenence">
<rect id="Rectangle 327" x="1" y="1" width="256" height="256" rx="8" stroke="#15CEFF" stroke-width="2" stroke-linecap="round" stroke-dasharray="5 12"/>
<g id="Group 620">
<path id="Vector" d="M117.01 87.2996C116.999 87.0711 116.961 86.8448 116.895 86.6258C116.741 86.1217 116.443 85.6737 116.037 85.3367C115.632 84.9998 115.137 84.7885 114.613 84.7289C114.601 84.7279 114.59 84.7279 114.578 84.7289C114.563 84.7246 114.547 84.7212 114.531 84.7187C113.521 84.595 112.496 84.7004 111.532 85.027C110.049 85.5232 108.749 86.5237 108.122 87.9529C107.868 87.6068 107.534 87.3278 107.149 87.1399C106.763 86.9521 106.337 86.8611 105.909 86.8749C105.356 86.9114 104.828 87.1174 104.397 87.4649C103.966 87.8124 103.652 88.2844 103.499 88.8166C103.483 88.8816 103.488 88.95 103.514 89.012C103.539 89.0739 103.583 89.1263 103.64 89.1617C103.805 89.3017 104 89.401 104.21 89.4516C104.663 89.5476 105.116 89.6354 105.574 89.715C106.464 89.8702 107.358 89.9961 108.257 90.0927C110.082 90.2886 111.918 90.3582 113.753 90.301C114.364 90.2805 114.954 90.2601 115.513 89.9906C115.92 89.7901 116.268 89.4867 116.522 89.1106C116.88 88.5773 117.051 87.9405 117.01 87.2996Z" fill="#E6E6E6"/>
<path id="Vector_2" d="M157.373 156.099H152.403V78.5172C152.069 78.2702 151.732 78.0252 151.391 77.7863C151.323 77.7393 151.256 77.6924 151.189 77.6454C147.258 74.8961 143.006 72.6374 138.528 70.9198L137.564 84.2118L137.564 84.2126H131.363V68.6922C130.959 68.5921 130.554 68.4982 130.146 68.4104V84.2126H106.731V68C106.324 68.0755 105.918 68.1531 105.514 68.2368V84.2126H99.1088L99.1088 84.2118L98.0981 70.2725C93.7396 71.7833 89.5742 73.8022 85.6881 76.2876C85.5534 76.3734 85.4186 76.4591 85.2839 76.549C85.0123 76.7246 84.7407 76.9042 84.4733 77.0859V156.099H77.4761C76.5808 156.098 75.6991 156.318 74.9083 156.737C74.1174 157.156 73.4415 157.764 72.9399 158.505C72.4383 159.247 72.1262 160.1 72.031 160.99C71.9358 161.88 72.0605 162.78 72.3941 163.611C72.4941 163.862 72.6136 164.105 72.7514 164.338C72.9293 164.641 73.1358 164.927 73.368 165.191C73.8809 165.776 74.5127 166.244 75.2212 166.565C75.9296 166.885 76.6984 167.051 77.4761 167.051H157.373C158.826 167.051 160.218 166.474 161.245 165.447C162.272 164.42 162.849 163.027 162.849 161.575C162.849 160.123 162.272 158.73 161.245 157.703C160.218 156.676 158.826 156.099 157.373 156.099ZM136.228 102.666L132.363 156.099H104.309L100.444 102.666H136.228ZM137.476 85.4293L136.522 98.6102H131.363V85.4293H137.476ZM130.146 85.4293V98.6102H120.829C120.642 98.2441 120.358 97.9367 120.008 97.722C119.657 97.5073 119.255 97.3936 118.844 97.3935H117.627C117.216 97.3936 116.813 97.5073 116.463 97.722C116.113 97.9367 115.828 98.2441 115.642 98.6102H106.731V85.4293H130.146ZM105.514 98.6102H100.15L99.1966 85.4293H105.514V98.6102Z" fill="#F2F2F2"/>
<path id="Vector_3" d="M72.4834 164.929C74.2572 167.031 76.1757 169.006 78.2249 170.84L155.727 171.044C157.776 169.21 159.695 167.235 161.469 165.133L72.4834 164.929Z" fill="#3F3D56"/>
<path id="Vector_4" d="M111.623 145.162V166.103H126.293V145.162C126.294 145.012 126.245 144.865 126.156 144.744C126.067 144.623 125.941 144.533 125.797 144.489C125.729 144.466 125.658 144.455 125.587 144.456H112.332C112.239 144.456 112.147 144.474 112.061 144.509C111.975 144.545 111.897 144.597 111.831 144.662C111.765 144.728 111.713 144.806 111.677 144.892C111.642 144.978 111.623 145.07 111.623 145.162ZM117.348 152.358C117.352 151.945 117.519 151.55 117.812 151.26C118.105 150.969 118.501 150.806 118.914 150.806C119.327 150.806 119.723 150.969 120.016 151.26C120.31 151.55 120.476 151.945 120.48 152.358V154.787C120.478 155.201 120.312 155.598 120.019 155.89C119.725 156.182 119.328 156.346 118.914 156.346C118.5 156.346 118.103 156.182 117.81 155.89C117.516 155.598 117.35 155.201 117.348 154.787V152.358Z" fill="#2F2E41"/>
<path id="Vector_5" d="M111.577 165.433V167.453C111.577 167.557 111.619 167.658 111.693 167.732C111.767 167.806 111.867 167.848 111.971 167.849H125.943C126.048 167.848 126.148 167.806 126.222 167.732C126.296 167.658 126.337 167.557 126.337 167.453V165.433H111.577Z" fill="#3F3D56"/>
<path id="Vector_6" d="M88.5439 113.613V151.847C88.5443 152.335 88.7381 152.802 89.0826 153.146C89.4271 153.491 89.8943 153.685 90.3816 153.685H147.041C147.528 153.685 147.996 153.491 148.34 153.146C148.685 152.802 148.878 152.335 148.879 151.847V113.613C148.878 113.126 148.684 112.659 148.339 112.315C147.995 111.971 147.528 111.778 147.041 111.777H90.3816C89.8947 111.778 89.428 111.971 89.0836 112.315C88.7392 112.659 88.5451 113.126 88.5439 113.613Z" fill="#3F3D56"/>
<path id="Vector_7" d="M89.873 114.089V151.376C89.8735 151.636 89.9771 151.886 90.1612 152.07C90.3453 152.254 90.5948 152.357 90.8551 152.358H146.569C146.83 152.357 147.079 152.254 147.263 152.07C147.447 151.886 147.551 151.636 147.551 151.376V114.089C147.551 113.828 147.448 113.578 147.264 113.393C147.08 113.209 146.83 113.105 146.569 113.104H90.8551C90.5945 113.105 90.3447 113.209 90.1606 113.393C89.9765 113.578 89.8731 113.828 89.873 114.089Z" fill="#15CEFF"/>
<path id="Vector_8" d="M101.234 168.325C101.291 168.396 101.363 168.453 101.445 168.492C101.527 168.531 101.617 168.552 101.708 168.551H134.854C134.945 168.551 135.034 168.531 135.116 168.492C135.198 168.453 135.27 168.396 135.327 168.325C135.384 168.255 135.425 168.173 135.446 168.085C135.467 167.997 135.469 167.905 135.45 167.816L134.936 165.372C134.914 165.272 134.868 165.18 134.802 165.102C134.736 165.025 134.651 164.965 134.556 164.929C134.487 164.902 134.413 164.888 134.339 164.888H102.22C102.146 164.888 102.073 164.902 102.004 164.929C101.908 164.965 101.824 165.025 101.757 165.102C101.691 165.18 101.645 165.272 101.624 165.372L101.109 167.816C101.091 167.905 101.093 167.996 101.114 168.084C101.136 168.172 101.177 168.254 101.234 168.325Z" fill="#2F2E41"/>
<path id="Vector_9" d="M102.22 165.399C102.21 165.399 102.2 165.4 102.191 165.404C102.175 165.409 102.16 165.419 102.148 165.431C102.137 165.444 102.128 165.459 102.124 165.476L101.609 167.921C101.606 167.935 101.607 167.95 101.61 167.964C101.614 167.978 101.621 167.991 101.63 168.002L101.632 168.005C101.641 168.016 101.653 168.026 101.666 168.032C101.679 168.038 101.693 168.041 101.708 168.041H134.854C134.869 168.041 134.883 168.038 134.896 168.032C134.909 168.025 134.921 168.016 134.93 168.005C134.94 167.994 134.947 167.981 134.95 167.967C134.954 167.953 134.954 167.938 134.952 167.924L134.436 165.477C134.433 165.461 134.425 165.446 134.414 165.434C134.403 165.421 134.39 165.412 134.374 165.406C134.364 165.401 134.352 165.399 134.34 165.399H102.22Z" fill="white"/>
<path id="Vector_10" d="M92.6471 118.241H144.779C144.833 118.24 144.884 118.217 144.922 118.179C144.96 118.14 144.981 118.088 144.981 118.034C144.981 117.979 144.96 117.927 144.922 117.889C144.884 117.85 144.833 117.827 144.779 117.826H92.6471C92.5929 117.827 92.5414 117.85 92.5035 117.889C92.4656 117.927 92.4443 117.979 92.4443 118.034C92.4443 118.088 92.4656 118.14 92.5035 118.179C92.5414 118.217 92.5929 118.24 92.6471 118.241Z" fill="#3F3D56"/>
<path id="Vector_11" d="M141.23 116.768C141.901 116.768 142.445 116.212 142.445 115.526C142.445 114.84 141.901 114.284 141.23 114.284C140.559 114.284 140.015 114.84 140.015 115.526C140.015 116.212 140.559 116.768 141.23 116.768Z" fill="#3F3D56"/>
<path id="Vector_12" d="M137.033 116.768C137.704 116.768 138.248 116.212 138.248 115.526C138.248 114.84 137.704 114.284 137.033 114.284C136.362 114.284 135.818 114.84 135.818 115.526C135.818 116.212 136.362 116.768 137.033 116.768Z" fill="#3F3D56"/>
<path id="Vector_13" d="M132.836 116.768C133.507 116.768 134.051 116.212 134.051 115.526C134.051 114.84 133.507 114.284 132.836 114.284C132.165 114.284 131.621 114.84 131.621 115.526C131.621 116.212 132.165 116.768 132.836 116.768Z" fill="#3F3D56"/>
<path id="Vector_14" d="M94.9512 114.817C94.951 114.847 94.9567 114.876 94.9678 114.903C94.9789 114.93 94.9953 114.955 95.0159 114.976C95.0366 114.997 95.0612 115.013 95.0882 115.025C95.1153 115.036 95.1444 115.042 95.1737 115.042H98.1547C98.2137 115.041 98.2697 115.016 98.3109 114.974C98.3521 114.932 98.3752 114.875 98.3752 114.816C98.3752 114.758 98.3521 114.701 98.3109 114.659C98.2697 114.617 98.2137 114.592 98.1547 114.591H95.1737C95.1142 114.592 95.0574 114.616 95.0157 114.658C94.974 114.701 94.9508 114.758 94.9512 114.817Z" fill="#3F3D56"/>
<path id="Vector_15" d="M94.9512 115.665C94.951 115.694 94.9567 115.723 94.9678 115.75C94.9789 115.778 94.9953 115.802 95.0159 115.823C95.0366 115.844 95.0612 115.861 95.0882 115.872C95.1153 115.883 95.1444 115.889 95.1737 115.889H98.1547C98.2137 115.888 98.2698 115.864 98.3111 115.822C98.3523 115.779 98.3754 115.723 98.3754 115.664C98.3754 115.605 98.3523 115.548 98.3111 115.506C98.2698 115.464 98.2137 115.439 98.1547 115.438H95.1737C95.1142 115.439 95.0574 115.463 95.0157 115.506C94.974 115.548 94.9508 115.605 94.9512 115.665Z" fill="#3F3D56"/>
<path id="Vector_16" d="M94.9512 116.51C94.9508 116.57 94.974 116.627 95.0157 116.669C95.0574 116.712 95.1142 116.736 95.1737 116.737H98.1547C98.2137 116.735 98.2697 116.711 98.3109 116.669C98.3521 116.627 98.3752 116.57 98.3752 116.511C98.3752 116.452 98.3521 116.396 98.3109 116.353C98.2697 116.311 98.2137 116.287 98.1547 116.286H95.1737C95.1444 116.286 95.1153 116.292 95.0882 116.303C95.0612 116.314 95.0366 116.331 95.0159 116.352C94.9953 116.373 94.9789 116.397 94.9678 116.424C94.9567 116.452 94.951 116.481 94.9512 116.51Z" fill="#3F3D56"/>
<path id="Vector_17" d="M137.01 124.569H100.414C99.9332 124.57 99.4723 124.761 99.1323 125.101C98.7924 125.441 98.6011 125.902 98.6006 126.383V144.194C98.6011 144.675 98.7923 145.136 99.1323 145.476C99.4723 145.816 99.9332 146.007 100.414 146.008H137.01C137.491 146.007 137.952 145.816 138.292 145.476C138.632 145.136 138.823 144.675 138.824 144.194V126.383C138.823 125.902 138.632 125.441 138.292 125.101C137.952 124.761 137.491 124.57 137.01 124.569ZM138.415 126.383V131.579H125.552V124.978H137.01C137.383 124.978 137.74 125.126 138.003 125.39C138.267 125.653 138.415 126.01 138.415 126.383ZM112.281 138.59V131.988H125.144V138.59H112.281ZM125.144 138.998V145.6H112.281V138.998H125.144ZM111.872 138.59H99.0089V131.988H111.872V138.59ZM112.281 131.579V124.978H125.144V131.579H112.281ZM125.552 131.988H138.415V138.59H125.552V131.988ZM100.414 124.978H111.872V131.579H99.0089V126.383C99.0094 126.01 99.1575 125.653 99.4209 125.39C99.6843 125.126 100.041 124.978 100.414 124.978ZM99.0089 144.194V138.998H111.872V145.6H100.414C100.041 145.599 99.6843 145.451 99.4209 145.188C99.1575 144.924 99.0093 144.567 99.0089 144.194ZM137.01 145.6H125.552V138.998H138.415V144.194C138.415 144.567 138.267 144.924 138.003 145.188C137.74 145.451 137.383 145.599 137.01 145.6Z" fill="#3F3D56"/>
<path id="Vector_18" d="M116.853 129.091C116.528 128.554 116.144 127.981 115.541 127.805C114.843 127.602 114.126 128.006 113.518 128.404C111.699 129.595 109.948 130.885 108.271 132.269L108.273 132.29L112.188 132.02C113.131 131.955 114.106 131.881 114.939 131.435C115.256 131.266 115.564 131.04 115.922 131.024C116.367 131.005 116.755 131.315 117.06 131.64C118.865 133.561 119.387 136.499 121.411 138.187C120.134 135.04 118.61 131.998 116.853 129.091Z" fill="white"/>
<path id="Vector_19" d="M127.943 145.387C127.743 145.135 127.662 145.076 127.465 144.822C125.863 142.749 124.356 140.607 122.946 138.394C121.989 136.891 121.079 135.36 120.216 133.8C119.805 133.058 119.406 132.31 119.017 131.557C118.716 130.972 118.422 130.385 118.134 129.793C118.052 129.625 117.972 129.455 117.892 129.285C117.705 128.885 117.521 128.483 117.323 128.089C117.119 127.615 116.806 127.196 116.41 126.866C116.222 126.723 115.997 126.636 115.762 126.616C115.43 126.618 115.105 126.711 114.823 126.885C112.685 128.009 110.689 129.385 108.879 130.984C107.065 132.577 105.445 134.376 104.049 136.345C104.007 136.406 103.906 136.348 103.949 136.286C104.119 136.046 104.292 135.809 104.468 135.574C106.661 132.658 109.35 130.15 112.412 128.165C112.927 127.831 113.452 127.512 113.986 127.21C114.256 127.057 114.526 126.907 114.802 126.765C115.065 126.611 115.361 126.519 115.666 126.498C116.715 126.481 117.258 127.669 117.631 128.468C117.748 128.72 117.867 128.971 117.987 129.221C118.441 130.17 118.912 131.11 119.401 132.042C119.703 132.617 120.011 133.189 120.326 133.758C121.305 135.529 122.347 137.263 123.45 138.962C124.911 141.212 126.361 143.2 128.025 145.305C128.071 145.363 127.989 145.446 127.943 145.387Z" fill="white"/>
<path id="Vector_20" d="M108.775 130.398C108.714 130.33 108.654 130.262 108.592 130.194C108.109 129.659 107.59 129.13 106.925 128.824C106.609 128.673 106.263 128.593 105.912 128.589C105.55 128.599 105.193 128.677 104.86 128.818C104.702 128.881 104.547 128.953 104.394 129.03C104.22 129.118 104.049 129.211 103.878 129.305C103.559 129.482 103.243 129.667 102.931 129.86C102.311 130.243 101.711 130.655 101.13 131.097C100.828 131.326 100.533 131.562 100.245 131.807C99.976 132.033 99.7128 132.266 99.455 132.505C99.3999 132.556 99.3176 132.473 99.3727 132.423C99.4407 132.359 99.5094 132.296 99.5781 132.234C99.7722 132.059 99.9694 131.887 100.17 131.718C100.535 131.41 100.91 131.113 101.294 130.829C101.891 130.387 102.509 129.974 103.148 129.592C103.467 129.401 103.791 129.218 104.118 129.043C104.217 128.99 104.318 128.938 104.419 128.889C104.649 128.773 104.888 128.676 105.133 128.599C105.481 128.486 105.849 128.45 106.212 128.493C106.562 128.544 106.9 128.66 107.207 128.837C107.859 129.201 108.365 129.765 108.857 130.315C108.907 130.371 108.825 130.454 108.775 130.398Z" fill="white"/>
<path id="Vector_21" d="M122.137 135.941L123.7 135.37L124.476 135.086C124.726 134.985 124.982 134.897 125.242 134.822C125.469 134.757 125.71 134.76 125.935 134.831C126.136 134.905 126.32 135.019 126.476 135.166C126.635 135.313 126.783 135.471 126.919 135.64C127.088 135.843 127.255 136.048 127.422 136.252C128.112 137.096 128.797 137.944 129.478 138.795C130.159 139.646 130.836 140.501 131.508 141.359C132.181 142.219 132.85 143.084 133.514 143.951C133.595 144.058 133.677 144.164 133.758 144.27C133.803 144.329 133.904 144.271 133.859 144.211C133.189 143.335 132.516 142.462 131.837 141.593C131.157 140.722 130.472 139.854 129.783 138.99C129.093 138.126 128.399 137.266 127.7 136.41C127.526 136.196 127.352 135.983 127.177 135.77C127.03 135.591 126.884 135.409 126.722 135.242C126.585 135.076 126.416 134.939 126.225 134.839C126.035 134.739 125.826 134.677 125.612 134.657C125.352 134.666 125.096 134.722 124.856 134.823C124.595 134.918 124.334 135.014 124.073 135.109L122.499 135.685L122.106 135.829C122.036 135.854 122.066 135.967 122.137 135.941Z" fill="white"/>
<path id="Vector_22" d="M106.72 129.497C106.318 129.299 105.871 129.211 105.425 129.243C104.978 129.275 104.548 129.426 104.179 129.679C105.571 129.919 106.947 130.24 108.302 130.641C107.739 130.311 107.299 129.795 106.72 129.497Z" fill="white"/>
<path id="Vector_23" d="M104.171 129.677L104.019 129.801C104.07 129.758 104.124 129.717 104.179 129.678L104.171 129.677Z" fill="white"/>
<path id="Vector_24" d="M126.417 135.947C126.281 135.745 126.09 135.586 125.867 135.487L125.652 135.496C127.288 138.386 129.496 140.91 132.143 142.916L126.417 135.947Z" fill="white"/>
<path id="Vector_25" d="M125.412 132.783C126.095 132.783 126.649 132.229 126.649 131.546C126.649 130.863 126.095 130.309 125.412 130.309C124.729 130.309 124.175 130.863 124.175 131.546C124.175 132.229 124.729 132.783 125.412 132.783Z" fill="white"/>
<path id="Vector_26" d="M143.365 145.293C143.609 145.293 143.842 145.196 144.014 145.024C144.187 144.852 144.284 144.618 144.284 144.375V125.386C144.284 125.142 144.187 124.909 144.015 124.736C143.842 124.564 143.609 124.467 143.365 124.467C143.121 124.467 142.888 124.564 142.715 124.736C142.543 124.909 142.446 125.142 142.446 125.386V144.375C142.447 144.618 142.544 144.852 142.716 145.024C142.888 145.196 143.122 145.293 143.365 145.293Z" fill="#3F3D56"/>
<path id="Vector_27" d="M143.365 145.293C143.609 145.293 143.842 145.196 144.014 145.024C144.187 144.852 144.284 144.618 144.284 144.375V140.348C144.178 140.204 144.04 140.087 143.88 140.006C143.72 139.925 143.544 139.883 143.365 139.883C143.186 139.883 143.01 139.925 142.85 140.006C142.69 140.087 142.552 140.204 142.446 140.348V144.375C142.447 144.618 142.544 144.852 142.716 145.024C142.888 145.196 143.122 145.293 143.365 145.293Z" fill="#2F2E41"/>
<path id="Vector_28" d="M143.365 141.414C143.627 141.414 143.878 141.309 144.063 141.124C144.249 140.939 144.353 140.688 144.353 140.426V136.096C144.239 135.94 144.091 135.814 143.919 135.727C143.747 135.64 143.558 135.595 143.365 135.595C143.173 135.595 142.983 135.64 142.811 135.727C142.64 135.814 142.491 135.94 142.377 136.096V140.426C142.377 140.688 142.482 140.939 142.667 141.124C142.852 141.309 143.103 141.414 143.365 141.414Z" fill="#15CEFF"/>
<path id="Vector_29" d="M143.365 140.627C143.556 140.626 143.739 140.55 143.875 140.415C144.01 140.28 144.086 140.097 144.086 139.906V136.747C144.003 136.634 143.894 136.542 143.769 136.479C143.644 136.415 143.506 136.382 143.365 136.382C143.225 136.382 143.086 136.415 142.961 136.479C142.836 136.542 142.728 136.634 142.645 136.747V139.906C142.645 140.097 142.721 140.28 142.856 140.415C142.991 140.55 143.174 140.626 143.365 140.627Z" fill="#3F3D56"/>
<path id="Vector_30" d="M115.02 166.626C114.859 166.481 114.761 166.279 114.749 166.062C114.737 165.846 114.811 165.634 114.955 165.472L122.983 156.49C123.054 156.41 123.141 156.345 123.238 156.299C123.334 156.252 123.439 156.225 123.546 156.219C123.653 156.213 123.76 156.228 123.862 156.264C123.963 156.299 124.056 156.354 124.136 156.425C124.216 156.497 124.281 156.583 124.328 156.68C124.374 156.777 124.401 156.882 124.407 156.989C124.413 157.096 124.398 157.203 124.363 157.304C124.327 157.405 124.272 157.499 124.201 157.579L116.173 166.561C116.029 166.722 115.826 166.82 115.61 166.832C115.394 166.844 115.182 166.77 115.02 166.626Z" fill="#15CEFF"/>
<path id="Vector_31" d="M181.613 181.414C181.613 182.903 181.262 184.042 181.305 184.953C178.897 186.004 176.421 186.892 173.893 187.611C173.607 187.693 173.322 187.77 173.034 187.848C171.476 183.078 169.916 178.711 169.301 178.248C167.895 177.192 167.19 181.559 167.19 180.504C167.19 179.448 167.895 179.448 166.137 178.041C164.377 176.635 165.432 170.303 165.432 170.303L162.97 163.971L165.724 153.873L169.301 140.754H172.819C172.819 140.754 172.923 140.83 173.097 140.971C173.977 141.689 176.631 144.091 176.337 146.735C176.249 147.523 176.446 149.814 176.786 152.864C177.824 162.075 180.206 172.087 180.206 174.73C180.206 178.248 181.613 179.303 181.613 181.414Z" fill="#E6E6E6"/>
<path id="Vector_32" d="M178.663 152.83C178.659 152.819 178.657 152.811 178.653 152.803C178.574 152.591 178.482 152.383 178.377 152.182C177.783 151.065 178.412 149.35 177.742 147.456C176.66 144.385 175.341 142.574 173.407 140.95C173.35 140.901 173.293 140.854 173.234 140.805L173.232 140.803C171.941 139.744 170.386 138.753 168.454 137.52C168.052 137.263 167.631 136.996 167.194 136.714C166.631 136.352 166.661 135.148 166.694 133.874C166.731 132.459 166.77 130.993 166.075 130.078L166.03 130.019L165.959 130C163.579 129.53 161.151 129.342 158.727 129.443H158.725C157.696 129.481 156.674 129.631 155.677 129.89C155.603 129.911 155.53 129.931 155.458 129.955C155.403 129.97 155.348 129.988 155.293 130.006L155.248 130.023L155.213 130.055C154.541 130.727 154.386 131.932 154.313 133.188V133.19C154.298 133.418 154.286 133.647 154.276 133.876C154.219 135.097 154.166 136.25 153.716 136.751C152.715 137.886 151.503 138.817 150.149 139.495C148.04 140.536 146.372 140.503 146.348 140.503L146.154 140.497L146.135 140.689C144.735 143.358 144.788 150.243 144.745 157.616C144.743 158.026 144.74 158.438 144.737 158.853C144.712 162.287 144.647 165.781 144.39 168.964C144.277 170.332 144.132 171.641 143.938 172.864C142.995 178.819 138.722 173.874 136.678 177.837C136.745 178.227 136.858 178.607 137.015 178.971C137.249 179.109 137.49 179.244 137.729 179.379C138.789 179.969 139.868 180.52 140.968 181.031C141.029 181.059 141.09 181.088 141.151 181.114C143.167 182.047 145.245 182.84 147.371 183.487C147.785 183.614 148.2 183.734 148.618 183.848C152.321 184.87 156.133 185.442 159.973 185.549C159.988 185.547 160.004 185.547 160.019 185.547C164.56 185.422 169.071 184.771 173.463 183.609C173.524 183.593 173.585 183.577 173.646 183.56C173.934 183.483 174.22 183.405 174.506 183.324C177.033 182.605 179.509 181.716 181.918 180.665C181.92 180.755 181.929 180.844 181.944 180.933C181.946 180.962 181.95 180.99 181.956 181.018C181.96 180.986 181.965 180.953 181.967 180.92C181.979 180.824 181.989 180.726 181.999 180.628C183.249 168.443 180.654 158.097 178.663 152.83Z" fill="#3F3D56"/>
<path id="Vector_33" d="M150.602 122.965C151.848 125.244 153.833 127.03 156.23 128.03C158.627 129.03 161.293 129.184 163.789 128.466C166.286 127.748 168.463 126.201 169.963 124.081C171.462 121.961 172.195 119.393 172.041 116.8C171.886 114.207 170.853 111.744 169.112 109.817C167.371 107.89 165.025 106.613 162.461 106.197C159.897 105.781 157.269 106.251 155.007 107.529C152.746 108.806 150.987 110.816 150.021 113.227C149.969 113.358 149.921 113.489 149.874 113.625C149.328 115.144 149.11 116.763 149.236 118.373C149.361 119.983 149.827 121.548 150.602 122.965Z" fill="#FFB6B6"/>
<path id="Vector_34" d="M148.959 113.625C149.451 112.248 149.237 112.965 149.734 111.594C149.409 112.808 149.922 113.489 149.875 113.625H163.485V105.713C159.498 104.133 155.599 102.788 153.245 105.713C151.146 105.713 149.134 106.547 147.65 108.03C146.167 109.514 145.333 111.526 145.333 113.625H148.959Z" fill="#2F2E41"/>
<path id="Vector_35" d="M153.783 135.617C153.793 135.471 153.809 135.319 153.83 135.173C153.977 134.095 154.343 133.059 154.714 132.033C155.107 130.929 155.505 129.82 155.902 128.716C155.39 130.72 155.546 132.836 156.347 134.744C158.644 132.954 157.195 128.862 160.198 128.862C167.419 128.862 174.85 123.007 174.85 115.78C174.85 108.559 171.752 103.159 164.531 103.159C157.305 103.159 151.444 106.466 151.303 113.687C160.198 115.78 152.103 134.885 153.783 135.617Z" fill="#2F2E41"/>
<path id="Vector_36" d="M173.948 114.674C178.572 114.674 182.321 110.925 182.321 106.301C182.321 101.678 178.572 97.9292 173.948 97.9292C169.325 97.9292 165.576 101.678 165.576 106.301C165.576 110.925 169.325 114.674 173.948 114.674Z" fill="#2F2E41"/>
<path id="Vector_37" d="M187 154.316C186.972 154.747 186.946 155.206 186.925 155.692C186.492 164.858 186.865 177.196 183.948 183.891C183.294 184.249 182.634 184.59 181.967 184.916C181.941 184.929 181.916 184.941 181.894 184.953C181.714 185.041 181.534 185.127 181.355 185.208C181.348 185.214 181.34 185.218 181.332 185.22C179.359 186.153 177.326 186.952 175.246 187.611C174.99 187.693 174.733 187.771 174.476 187.848C174.421 187.865 174.366 187.881 174.31 187.897C170.392 189.056 166.34 189.707 162.256 189.835C162.043 189.841 161.835 189.845 161.633 189.849C161.562 189.851 161.492 189.853 161.423 189.853C161.194 189.855 160.967 189.857 160.739 189.857C160.277 189.857 159.818 189.851 159.361 189.837C155.521 189.729 151.709 189.158 148.006 188.136C147.588 188.022 147.173 187.901 146.759 187.775C144.633 187.128 142.555 186.335 140.539 185.402C140.478 185.376 140.417 185.347 140.356 185.318C139.257 184.808 138.178 184.257 137.117 183.667C136.878 183.532 136.637 183.397 136.403 183.258C136.246 182.895 136.133 182.515 136.066 182.125C135.602 179.898 135.231 181.4 134.965 176.765C134.722 172.516 134.567 168.255 134.51 165.819C134.492 165.17 134.485 164.649 134.483 164.294C134.7 162.747 138.179 160.991 143.253 159.322C143.733 159.165 144.229 159.008 144.737 158.853C146.109 158.43 147.575 158.016 149.107 157.616C153.006 156.595 157.337 155.657 161.635 154.884C163.756 154.504 165.87 154.163 167.922 153.873C171.521 153.362 174.927 153.009 177.841 152.864C178.12 152.85 178.394 152.838 178.664 152.83C178.954 152.817 179.237 152.809 179.515 152.803C183.713 152.711 186.58 153.148 187 154.316Z" fill="#2F2E41"/>
<path id="Vector_38" opacity="0.2" d="M187 154.316C186.972 154.747 186.946 155.206 186.925 155.692C183.744 152.266 149.474 167.571 134.965 176.765C134.722 172.516 134.567 168.255 134.51 165.819C134.492 165.17 134.485 164.649 134.483 164.294C134.7 162.747 138.179 160.991 143.253 159.322C143.733 159.165 144.229 159.008 144.737 158.853C146.109 158.43 147.575 158.016 149.107 157.615C153.006 156.595 157.337 155.657 161.635 154.884C163.756 154.504 165.87 154.163 167.922 153.873C171.521 153.362 174.927 153.009 177.841 152.864C178.12 152.85 178.394 152.838 178.664 152.83C178.954 152.817 179.237 152.809 179.515 152.803C183.713 152.711 186.58 153.148 187 154.316Z" fill="black"/>
<path id="Vector_39" d="M117.307 164.936C117.628 165.341 118.035 165.671 118.497 165.902C118.96 166.133 119.467 166.26 119.984 166.274C120.501 166.287 121.015 166.188 121.489 165.981C121.963 165.775 122.386 165.467 122.729 165.08L134.357 169.855L133.102 163.445L122.252 159.893C121.563 159.361 120.703 159.1 119.834 159.16C118.966 159.22 118.149 159.596 117.54 160.218C116.93 160.839 116.57 161.663 116.527 162.533C116.484 163.402 116.761 164.257 117.307 164.936Z" fill="#FFB6B6"/>
<path id="Vector_40" d="M155.986 138.241L155.922 138.235L149.141 138.727C148.281 138.789 147.443 139.034 146.684 139.445C145.925 139.856 145.262 140.424 144.739 141.111C144.496 141.429 144.286 141.771 144.111 142.131L144.11 142.132C143.525 143.328 143.349 144.683 143.608 145.989L146.8 162.058L139.119 161.36L136.316 161.84L133.007 160.505L126.218 160.62L126.06 161.141L124.636 165.862L124.524 166.233L134.892 172.766L137.897 171.851L139.313 172.939L139.381 172.941L142.189 172.996L154.164 173.231L157.437 167.432L157.948 166.523C161.75 158.007 162.688 152.062 162.39 147.966C162.234 145.802 161.734 144.157 161.128 142.918C159.256 139.087 156.118 138.274 155.986 138.241Z" fill="#3F3D56"/>
<path id="Vector_41" d="M175.007 113.734C173.419 113.378 171.947 112.626 170.728 111.548C169.508 110.471 168.58 109.103 168.03 107.572C167.538 106.147 167.353 104.583 166.528 103.315C167.784 101.59 168.792 99.6967 169.521 97.6913C169.803 96.9149 170.463 95.5055 169.343 95.0784C168.451 94.7382 167.437 95.5594 166.908 96.2074C166.506 96.6985 166.218 97.2724 166.064 97.888C165.882 97.0825 165.7 96.277 165.517 95.4715C165.494 95.3942 165.442 95.3288 165.372 95.289C165.301 95.2491 165.219 95.2379 165.14 95.2575C163.645 95.5124 162.561 96.8967 162.373 98.3547C162.27 99.1053 162.441 99.8678 162.854 100.503C163.334 101.234 164.037 101.757 164.707 102.302C165.418 102.881 166.022 103.497 166.404 104.344C166.802 105.224 166.981 106.187 167.245 107.111C167.746 108.886 168.716 110.493 170.053 111.762C171.391 113.032 173.046 113.917 174.844 114.325C175.228 114.409 175.393 113.819 175.007 113.734ZM166.565 99.0917C166.517 98.3222 166.72 97.558 167.144 96.9142C167.356 96.5878 167.622 96.2996 167.931 96.062C168.223 95.8385 168.655 95.5426 169.042 95.6247C169.543 95.7312 169.342 96.2913 169.235 96.6291C169.094 97.0748 168.94 97.5157 168.771 97.9519C168.443 98.799 168.062 99.6246 167.63 100.424C167.406 100.84 167.166 101.247 166.916 101.648C166.744 100.886 166.571 100.125 166.399 99.3636C166.453 99.3437 166.499 99.306 166.529 99.2566C166.559 99.2072 166.572 99.1491 166.565 99.0917ZM162.988 99.2136C162.888 98.5178 163.033 97.8088 163.399 97.2085C163.764 96.6082 164.328 96.1541 164.992 95.9241C165.478 98.0708 165.964 100.217 166.451 102.364C166.35 102.512 166.247 102.658 166.143 102.803C166.116 102.772 166.091 102.74 166.063 102.709C165.043 101.599 163.265 100.843 162.988 99.2136Z" fill="#15CEFF"/>
<path id="Vector_42" d="M116.024 87.3902C119.035 87.3902 121.476 84.9494 121.476 81.9385C121.476 78.9276 119.035 76.4868 116.024 76.4868C113.013 76.4868 110.572 78.9276 110.572 81.9385C110.572 84.9494 113.013 87.3902 116.024 87.3902Z" fill="#FD6584"/>
<path id="Vector_43" d="M128.225 79.357C128.072 78.8529 127.774 78.4047 127.369 78.0677C126.963 77.7306 126.468 77.5195 125.945 77.4602C125.932 77.4591 125.92 77.4591 125.908 77.4602C125.893 77.4556 125.878 77.4522 125.863 77.45C124.038 77.2131 122.008 77.7889 120.642 79.0426C120.135 79.5006 119.73 80.0598 119.452 80.6842C119.199 80.3383 118.865 80.0594 118.48 79.8715C118.094 79.6837 117.669 79.5926 117.241 79.6061C116.688 79.6426 116.16 79.8487 115.729 80.1962C115.298 80.5436 114.984 81.0157 114.831 81.5478C114.814 81.6128 114.819 81.6816 114.844 81.7437C114.87 81.8059 114.915 81.8582 114.972 81.8929C115.136 82.0333 115.332 82.1327 115.542 82.1828C115.993 82.2788 116.448 82.3666 116.904 82.4462C117.794 82.6014 118.689 82.7273 119.589 82.8239C120.183 82.8872 120.778 82.9376 121.375 82.975C122.608 83.0526 123.848 83.071 125.083 83.0322C125.696 83.0118 126.284 82.9914 126.843 82.7219C127.251 82.5214 127.599 82.2181 127.854 81.8418C128.093 81.48 128.251 81.07 128.315 80.6406C128.379 80.2113 128.349 79.7732 128.225 79.357Z" fill="#E6E6E6"/>
</g>
</g>
</svg>
