<svg width="258" height="258" viewBox="0 0 258 258" fill="none" xmlns="http://www.w3.org/2000/svg">
<rect x="1" y="1" width="256" height="256" rx="8" stroke="#15CEFF" stroke-width="2" stroke-linecap="round" stroke-dasharray="5 12"/>
<path d="M128.713 173.692C175.499 173.692 213.427 171.686 213.427 169.211C213.427 166.736 175.499 164.729 128.713 164.729C81.9274 164.729 44 166.736 44 169.211C44 171.686 81.9274 173.692 128.713 173.692Z" fill="#F2F2F2"/>
<path d="M198.243 84H70.9795V87.725H198.243V84Z" fill="#F2F2F2"/>
<path d="M74.3857 86.7719C74.9645 86.7719 75.4336 86.3402 75.4336 85.8077C75.4336 85.2751 74.9645 84.8434 74.3857 84.8434C73.807 84.8434 73.3379 85.2751 73.3379 85.8077C73.3379 86.3402 73.807 86.7719 74.3857 86.7719Z" fill="#15CEFF"/>
<path d="M77.791 86.7719C78.3697 86.7719 78.8389 86.3402 78.8389 85.8077C78.8389 85.2751 78.3697 84.8434 77.791 84.8434C77.2123 84.8434 76.7432 85.2751 76.7432 85.8077C76.7432 86.3402 77.2123 86.7719 77.791 86.7719Z" fill="#15CEFF"/>
<path d="M81.1963 86.7719C81.775 86.7719 82.2442 86.3402 82.2442 85.8077C82.2442 85.2751 81.775 84.8434 81.1963 84.8434C80.6176 84.8434 80.1484 85.2751 80.1484 85.8077C80.1484 86.3402 80.6176 86.7719 81.1963 86.7719Z" fill="#15CEFF"/>
<path d="M71.0697 142.901L70.9795 142.972V168.094H198.243V123.966L196.726 124.072L71.0697 142.901Z" fill="#3F3D56"/>
<path d="M115.703 108.912H80.165V110.231H115.703V108.912Z" fill="#3F3D56"/>
<path d="M115.703 111.812H80.165V113.131H115.703V111.812Z" fill="#3F3D56"/>
<path d="M92.2022 114.712H80.165V116.031H92.2022V114.712Z" fill="#3F3D56"/>
<path d="M188.177 145.505H152.639V146.824H188.177V145.505Z" fill="white"/>
<path d="M188.177 148.405H152.639V149.724H188.177V148.405Z" fill="white"/>
<path d="M164.676 151.305H152.639V152.624H164.676V151.305Z" fill="white"/>
<path d="M130.557 166.88C131.329 166.88 131.955 166.304 131.955 165.594C131.955 164.883 131.329 164.307 130.557 164.307C129.785 164.307 129.159 164.883 129.159 165.594C129.159 166.304 129.785 166.88 130.557 166.88Z" fill="#F2F2F2"/>
<path d="M134.612 167.008C135.384 167.008 136.01 166.432 136.01 165.722C136.01 165.012 135.384 164.436 134.612 164.436C133.84 164.436 133.214 165.012 133.214 165.722C133.214 166.432 133.84 167.008 134.612 167.008Z" fill="#F2F2F2"/>
<path d="M138.666 167.137C139.438 167.137 140.063 166.561 140.063 165.851C140.063 165.14 139.438 164.565 138.666 164.565C137.893 164.565 137.268 165.14 137.268 165.851C137.268 166.561 137.893 167.137 138.666 167.137Z" fill="#F2F2F2"/>
<path d="M134.624 166.751C135.242 166.751 135.743 166.291 135.743 165.722C135.743 165.154 135.242 164.693 134.624 164.693C134.007 164.693 133.506 165.154 133.506 165.722C133.506 166.291 134.007 166.751 134.624 166.751Z" fill="#3F3D56"/>
<path d="M103.921 123.999H91.8838V126.526H103.921V123.999Z" fill="#3F3D56"/>
<path d="M175.469 158.182H163.432V160.708H175.469V158.182Z" fill="white"/>
<path opacity="0.3" d="M97.9693 132.935C102.568 132.935 106.296 129.506 106.296 125.276C106.296 121.046 102.568 117.617 97.9693 117.617C93.3706 117.617 89.6426 121.046 89.6426 125.276C89.6426 129.506 93.3706 132.935 97.9693 132.935Z" fill="#15CEFF"/>
<path opacity="0.3" d="M97.9701 130.382C101.036 130.382 103.521 128.096 103.521 125.276C103.521 122.456 101.036 120.17 97.9701 120.17C94.9043 120.17 92.4189 122.456 92.4189 125.276C92.4189 128.096 94.9043 130.382 97.9701 130.382Z" fill="#15CEFF"/>
<path d="M97.9692 128.822C100.098 128.822 101.824 127.234 101.824 125.276C101.824 123.318 100.098 121.73 97.9692 121.73C95.8402 121.73 94.1143 123.318 94.1143 125.276C94.1143 127.234 95.8402 128.822 97.9692 128.822Z" fill="#15CEFF"/>
<path opacity="0.3" d="M168.034 113.953C172.633 113.953 176.361 110.524 176.361 106.294C176.361 102.064 172.633 98.6353 168.034 98.6353C163.435 98.6353 159.707 102.064 159.707 106.294C159.707 110.524 163.435 113.953 168.034 113.953Z" fill="#15CEFF"/>
<path opacity="0.3" d="M168.035 111.4C171.1 111.4 173.586 109.114 173.586 106.294C173.586 103.474 171.1 101.188 168.035 101.188C164.969 101.188 162.483 103.474 162.483 106.294C162.483 109.114 164.969 111.4 168.035 111.4Z" fill="#15CEFF"/>
<path d="M168.034 109.84C170.163 109.84 171.889 108.253 171.889 106.294C171.889 104.336 170.163 102.749 168.034 102.749C165.905 102.749 164.179 104.336 164.179 106.294C164.179 108.253 165.905 109.84 168.034 109.84Z" fill="#15CEFF"/>
<path opacity="0.3" d="M169.518 167.117C174.117 167.117 177.845 163.688 177.845 159.458C177.845 155.228 174.117 151.799 169.518 151.799C164.919 151.799 161.191 155.228 161.191 159.458C161.191 163.688 164.919 167.117 169.518 167.117Z" fill="#15CEFF"/>
<path opacity="0.3" d="M169.518 164.564C172.584 164.564 175.069 162.278 175.069 159.458C175.069 156.638 172.584 154.352 169.518 154.352C166.452 154.352 163.967 156.638 163.967 159.458C163.967 162.278 166.452 164.564 169.518 164.564Z" fill="#15CEFF"/>
<path d="M169.518 163.004C171.647 163.004 173.373 161.416 173.373 159.458C173.373 157.5 171.647 155.912 169.518 155.912C167.389 155.912 165.663 157.5 165.663 159.458C165.663 161.416 167.389 163.004 169.518 163.004Z" fill="#15CEFF"/>
<path d="M57.8658 99.5113L61.293 99.6335L61.4639 95.5796L58.0367 95.4573L57.8658 99.5113Z" fill="#15CEFF"/>
<path d="M73.4967 109.653C73.4967 109.653 78.2428 107.567 78.1669 109.369C78.0909 111.17 73.3828 112.356 73.3828 112.356L73.4967 109.653Z" fill="#FFB9B9"/>
<path d="M70.893 124.894C70.893 124.894 73.1322 129.936 73.9595 133.573C74.7868 137.211 76.0467 142.217 74.4261 145.767C72.8054 149.318 68.1976 159.752 68.1502 160.878C68.1027 162.004 68.5448 163.147 67.5657 163.112C66.5865 163.077 61.2579 161.534 61.0415 160.85C60.8252 160.166 62.8595 158.434 62.8595 158.434L67.8829 143.955L62.6418 134.523L58.8614 148.595L58.1209 166.158C58.1209 166.158 54.4869 165.126 53.9593 166.009C53.9593 166.009 52.3312 163.922 52.1244 163.012C51.9175 162.103 52.8933 144.774 52.8933 144.774C52.8933 144.774 49.5576 125.036 52.2504 125.132C54.9432 125.228 65.4905 119.29 70.893 124.894Z" fill="#2F2E41"/>
<path d="M67.6035 162.212C67.6035 162.212 70.0874 167.261 70.3227 167.495C70.558 167.729 72.1767 170.042 70.9527 169.998C69.7287 169.955 66.8386 168.724 64.7113 166.844C62.5841 164.964 59.7794 161.707 60.0337 161.49C60.288 161.274 62.0301 160.66 62.0301 160.66L67.6035 162.212Z" fill="#2F2E41"/>
<path d="M57.6781 165.015C57.6781 165.015 57.828 167.275 58.2796 168.193C58.7312 169.111 58.6743 170.462 57.4503 170.419C56.2263 170.375 53.0629 169.811 53.0629 169.811C53.0629 169.811 52.8751 168.451 53.1293 168.235C53.3836 168.018 54.4673 165.577 54.0061 164.884C53.545 164.191 57.6781 165.015 57.6781 165.015Z" fill="#2F2E41"/>
<path d="M55.8677 91.6599C55.8677 91.6599 53.2583 95.4005 52.2411 96.2662C51.224 97.132 54.0856 99.0381 54.0856 99.0381L59.2074 99.6718C59.2074 99.6718 59.1429 95.3849 59.4067 94.9432C59.6705 94.5016 55.8677 91.6599 55.8677 91.6599Z" fill="#FFB9B9"/>
<path d="M60.32 96.5544C60.32 96.5544 59.2648 98.3208 58.2856 98.2859C57.3064 98.251 52.2416 96.2663 52.0253 95.582C51.809 94.8978 50.3477 100.483 50.3477 100.483L62.7409 120.545L65.7639 118.623L64.2992 106.844L63.0962 100.487L60.32 96.5544Z" fill="#15CEFF"/>
<path d="M51.5683 114.508C52.0626 115.46 52.3714 116.451 52.3286 117.467C52.3267 117.512 52.3248 117.557 52.3204 117.602C52.2031 119.686 51.3685 122.096 51.069 123.849C50.8518 125.106 50.9136 126.024 51.7135 126.24C53.6529 126.76 51.4308 127.132 58.9341 129.429C66.4374 131.726 67.7468 129.743 67.7658 129.293C67.7848 128.843 66.7032 125.421 66.9575 125.205C67.2118 124.989 70.5156 128.038 71.5137 127.623C72.5119 127.207 71.6277 124.921 71.6277 124.921C71.6277 124.921 69.379 120.105 69.4265 118.979C69.4739 117.853 66.0203 112.543 66.0203 112.543L63.6713 98.4779C63.6713 98.4779 62.768 96.6417 61.5535 96.3728C60.339 96.104 59.3314 96.7446 59.3314 96.7446L61.3637 100.876L63.5079 108.169L63.1492 110.862C63.1492 110.862 60.6557 106.038 59.0181 104.175C57.3805 102.313 53.8888 97.9035 53.8888 97.9035C53.8888 97.9035 53.0737 95.3735 53.689 94.6175C54.3045 93.8592 51.1221 93.7457 49.7652 96.8544C49.0461 98.502 47.8785 100.959 47.1471 103.247C46.4953 105.273 46.1874 107.168 46.8331 108.251C47.82 109.905 50.3026 112.08 51.5683 114.508Z" fill="#575A89"/>
<path opacity="0.1" d="M46.8331 108.251C47.82 109.905 50.3026 112.08 51.5683 114.508C51.8988 113.413 52.3021 112.279 52.3021 112.279C52.3021 112.279 53.8489 104.667 49.2736 102.7C48.5155 102.633 47.7574 102.828 47.1471 103.247C46.4953 105.273 46.1874 107.168 46.8331 108.251Z" fill="black"/>
<path d="M64.9954 107.771L68.8742 108.812L74.2598 109.004L74.8138 113.308L65.9631 113.894C65.9631 113.894 63.7524 108.178 64.9954 107.771Z" fill="#575A89"/>
<path d="M58.6701 122.244C58.6701 122.244 63.8591 123.036 62.6748 124.472C61.4904 125.909 56.8936 124.399 56.8936 124.399L58.6701 122.244Z" fill="#FFB9B9"/>
<path opacity="0.1" d="M52.3197 117.602C52.2025 119.686 51.3678 122.096 51.0684 123.849C52.7214 125.288 54.2933 126.558 54.8858 126.579C56.1097 126.622 58.0776 126.467 58.8025 126.718C59.5274 126.97 59.9526 122.7 59.9526 122.7C59.9526 122.7 59.52 121.332 57.59 120.586C56.2874 120.082 53.7904 118.715 52.3197 117.602Z" fill="black"/>
<path d="M49.3299 101.349C49.3299 101.349 45.1873 100.75 45.4111 107.073C45.6349 113.395 44.9744 117.43 46.6406 118.617C48.3067 119.804 53.7187 125.184 54.9427 125.228C56.1667 125.271 58.1346 125.116 58.8595 125.367C59.5844 125.619 60.0095 121.349 60.0095 121.349C60.0095 121.349 59.5769 119.981 57.647 119.235C55.7171 118.49 51.1703 115.847 51.2083 114.947C51.2463 114.046 52.3584 110.929 52.3584 110.929C52.3584 110.929 53.9051 103.316 49.3299 101.349Z" fill="#575A89"/>
<path d="M59.5205 97.1987C62.4971 97.1987 64.9101 94.9792 64.9101 92.2413C64.9101 89.5033 62.4971 87.2838 59.5205 87.2838C56.5439 87.2838 54.1309 89.5033 54.1309 92.2413C54.1309 94.9792 56.5439 97.1987 59.5205 97.1987Z" fill="#FFB9B9"/>
<path d="M63.15 85.1358C63.28 85.2389 63.4356 85.3107 63.6031 85.345C63.6872 85.3588 63.7738 85.3414 63.844 85.2967C63.9142 85.252 63.9624 85.1835 63.9779 85.1062C64.1012 85.3415 64.2403 85.5922 64.4921 85.7129C64.7438 85.8336 65.1331 85.7323 65.1694 85.4733C65.2062 85.67 65.3008 85.8536 65.4429 86.0044C65.5991 86.1414 65.8824 86.1759 66.0188 86.0221C65.9085 86.5763 65.9766 87.1462 65.9419 87.7087C65.9073 88.2713 65.7442 88.8676 65.2822 89.2375C64.6084 89.7769 63.5951 89.6438 62.7087 89.5416C62.5747 89.5157 62.4356 89.5227 62.3054 89.5619C61.9735 89.692 61.9886 90.1169 61.9841 90.4487C61.957 91.0309 61.7065 91.5854 61.2771 92.0138C60.8477 92.4422 60.2671 92.7167 59.6384 92.7886C59.2866 92.8386 58.9276 92.758 58.6404 92.5646C58.3887 92.3684 58.2601 92.0486 57.9718 91.9012C57.5027 91.6614 56.9338 92.0111 56.5908 92.3907C56.2478 92.7704 55.9098 93.2374 55.3785 93.3069C54.6759 93.3988 54.1407 92.7401 53.8781 92.1336C53.5158 91.2835 53.3423 90.3754 53.3677 89.4626C53.393 88.5499 53.6169 87.651 54.0259 86.8191C55.4931 83.8773 60.5051 83.412 63.15 85.1358Z" fill="#2F2E41"/>
<path d="M192.528 163.962C194.426 166.94 198.255 168.118 198.255 168.118C198.255 168.118 199.005 164.47 197.107 161.492C195.209 158.515 191.381 157.336 191.381 157.336C191.381 157.336 190.63 160.985 192.528 163.962Z" fill="#F2F2F2"/>
<path d="M193.713 162.923C196.996 164.595 198.371 168.086 198.371 168.086C198.371 168.086 194.424 168.866 191.141 167.194C187.859 165.522 186.483 162.031 186.483 162.031C186.483 162.031 190.43 161.251 193.713 162.923Z" fill="#15CEFF"/>
</svg>
