<svg width="258" height="258" viewBox="0 0 258 258" fill="none" xmlns="http://www.w3.org/2000/svg">
<rect x="1" y="1" width="256" height="256" rx="8" stroke="#15CEFF" stroke-width="2" stroke-linecap="round" stroke-dasharray="5 12"/>
<path d="M72.7563 113.86L73.6646 121.395L85.2642 121.579L83.8642 112.565L72.7563 113.86Z" fill="#FFB7B7"/>
<path d="M91.1118 169.672L93.4789 169.084L92.139 160.406L88.6455 161.274L91.1118 169.672Z" fill="#FFB7B7"/>
<path d="M90.2988 169.111L94.9604 167.953L94.9606 167.953C95.7485 167.757 96.5886 167.857 97.2962 168.231C98.0038 168.605 98.5209 169.222 98.7337 169.947L98.7598 170.036L91.1274 171.932L90.2988 169.111Z" fill="#2F2E41"/>
<path d="M60.6254 169.786L63.0773 169.786L64.2438 161.087L60.625 161.087L60.6254 169.786Z" fill="#FFB7B7"/>
<path d="M60 169.049L64.8287 169.049H64.8289C65.645 169.049 66.4276 169.348 67.0047 169.878C67.5818 170.409 67.906 171.129 67.9061 171.88V171.972L60.0001 171.972L60 169.049Z" fill="#2F2E41"/>
<path d="M73.4809 117.01L71.8294 119.745C71.1897 120.371 70.599 121.038 70.0615 121.741C69.9087 121.937 69.4747 121.902 69.3118 122.123C69.1953 122.282 69.3519 122.692 69.2316 122.864C69.1028 123.048 68.9725 123.24 68.8408 123.44C68.7925 123.513 68.4426 123.189 68.6956 123.663C68.7367 123.739 68.6004 123.811 68.5527 123.887C66.8788 126.541 65.1409 130.355 64.8929 134.986L64.0967 136.781L64.3674 138.326L64.0967 139.446L64.0013 140.654L63.8517 141.604L62.8911 147.71C61.1735 153.626 60.2168 159.708 60.0405 165.829H63.807L69.4588 149.192L75.6756 136.837L81.8035 144.769L82.0599 145.842L82.9552 146.259L83.2188 147.174L84.1497 147.806L85.3504 149.36C86.1475 154.916 86.0757 159.727 88.7236 163.697L93.0696 163.164L91.0696 145.647L85.6646 127.963L85.1173 118.335L73.4809 117.01Z" fill="#2F2E41"/>
<path d="M72.4984 118.126L71.2819 111.832L70.8352 107.041C70.5823 104.323 70.167 105.137 71.9189 102.936L76.2648 100.271H79.7416L81.48 102.936L84.9937 105.866C87.2697 107.97 85.4878 109.986 85.2394 110.245L85.5362 120.791C87.8893 125.905 84.1045 124.304 82.6389 124.522C78.2929 123.989 66.7038 121.857 71.9189 119.458C71.7153 118.735 71.9236 118.302 72.4984 118.126Z" fill="#E6E6E6"/>
<path d="M102 106.192C101.759 106.072 101.493 106.002 101.219 105.987C100.945 105.972 100.671 106.012 100.416 106.105C100.162 106.198 99.932 106.341 99.7438 106.524C99.5556 106.708 99.4134 106.927 99.3272 107.166L95.0532 107.455L94.6108 109.887L100.64 109.401C101.087 109.507 101.561 109.459 101.972 109.266C102.383 109.073 102.702 108.748 102.87 108.352C103.038 107.956 103.042 107.518 102.882 107.12C102.721 106.722 102.408 106.391 102 106.192Z" fill="#FFB7B7"/>
<path d="M99.3811 109.784L98.144 110.285C97.513 110.54 96.8162 110.626 96.1342 110.533L94.7085 110.337L94.0356 110.633C93.2381 110.983 92.3297 111.055 91.4787 110.836L91.1684 110.756L90.7475 110.959C90.3019 111.175 89.8128 111.303 89.3109 111.336C88.809 111.369 88.305 111.306 87.8307 111.151L85.2076 111.462L77.6819 107.037C77.2986 106.965 76.939 106.811 76.6326 106.588C76.2206 106.282 75.9295 105.859 75.8043 105.386C75.679 104.912 75.7266 104.414 75.9396 103.968C76.1526 103.522 76.5192 103.153 76.9829 102.917C77.4467 102.682 77.9817 102.593 78.5056 102.665L85.2011 106.102L85.5082 105.984C86.2075 105.717 86.9656 105.605 87.7209 105.658C88.4762 105.71 89.2073 105.926 89.8548 106.287L89.9503 106.341L90.2499 106.223C90.8591 105.983 91.5156 105.862 92.1782 105.867C92.8408 105.871 93.4953 106.001 94.1006 106.249L94.9372 106.592C95.9603 106.248 97.0796 106.234 98.1125 106.552L98.8884 106.79L99.3811 109.784Z" fill="#E6E6E6"/>
<path d="M87.4337 133.398C87.4946 133.152 87.4962 132.897 87.4384 132.651C87.3805 132.404 87.2646 132.172 87.0987 131.972C86.9329 131.771 86.7213 131.606 86.4786 131.488C86.236 131.371 85.9684 131.304 85.6945 131.292L84.2426 127.583L81.5771 127.845L83.7075 133.056C83.7161 133.48 83.8937 133.887 84.2066 134.199C84.5195 134.512 84.946 134.707 85.4053 134.749C85.8646 134.792 86.3248 134.677 86.6986 134.428C87.0725 134.179 87.334 133.813 87.4337 133.398Z" fill="#FFB7B7"/>
<path d="M82.9679 132.044L82.1107 131.082C81.6735 130.592 81.3961 129.998 81.3108 129.368L81.1324 128.053L80.642 127.536C80.0608 126.924 79.7409 126.138 79.7415 125.325L79.7417 125.029L79.4157 124.711C79.0706 124.374 78.805 123.975 78.6354 123.539C78.4659 123.103 78.3962 122.64 78.4306 122.178L77.4001 119.938L76.6844 108.884L76.5439 106.607C76.5161 106.248 76.5807 105.888 76.7325 105.556C76.9424 105.109 77.3064 104.738 77.7685 104.499C78.2306 104.261 78.765 104.169 79.2894 104.238C79.8138 104.307 80.299 104.532 80.6703 104.88C81.0416 105.228 81.2783 105.678 81.3439 106.161L83.011 118.491L83.2165 118.731C83.6847 119.279 84.0058 119.921 84.1537 120.604C84.3016 121.287 84.2722 121.993 84.0679 122.664L84.0377 122.763L84.2416 122.996C84.6563 123.472 84.9599 124.021 85.1333 124.609C85.3067 125.197 85.3463 125.812 85.2496 126.415L85.1159 127.248C85.7502 128.062 86.0658 129.05 86.0112 130.051L85.9701 130.802L82.9679 132.044Z" fill="#E6E6E6"/>
<path d="M78.5303 99.4747C81.1405 99.4747 83.2565 97.5284 83.2565 95.1276C83.2565 92.7267 81.1405 90.7804 78.5303 90.7804C75.9202 90.7804 73.8042 92.7267 73.8042 95.1276C73.8042 97.5284 75.9202 99.4747 78.5303 99.4747Z" fill="#FFB8B8"/>
<path d="M81.7699 98.4053L80.75 93.9121C81.6453 94.2479 83.8299 93.8082 84.3774 93.0753C84.925 92.3425 83.7777 91.3911 83.1171 90.7435C82.642 90.2798 81.9553 90.0533 81.2802 89.92C80.5603 89.7951 79.8327 89.7114 79.1015 89.6695C78.1772 89.6002 77.2414 89.5309 76.3317 89.6988C75.1218 89.9256 74.0488 90.5626 73.3259 91.4834C72.6029 92.4041 72.2828 93.5412 72.429 94.669C72.5478 95.5724 72.9592 96.4891 72.6753 97.3606C72.3856 98.2454 71.4584 98.821 70.9804 99.6338C70.5632 100.348 70.5197 101.211 70.6994 102.006C70.9108 102.795 71.2383 103.555 71.6729 104.263C72.3508 105.465 73.1244 106.672 74.3181 107.461C74.8183 107.79 75.38 108.032 75.9753 108.175C76.6201 107.042 76.8919 105.76 76.7576 104.487C77.7357 105.545 78.388 106.825 78.6466 108.194C78.9475 108.124 79.2398 108.026 79.5187 107.901C80.3392 107.524 81.0281 106.942 81.507 106.223C81.986 105.503 82.2356 104.675 82.2276 103.831C82.1871 102.627 83.4639 105.806 84.6672 105.334C86.9039 104.457 86.1315 105.962 81.7699 98.4053Z" fill="#2F2E41"/>
<path d="M180.761 127.92C179.088 125.534 172.87 123.612 165.827 123.305L165.415 123.136C168.259 125.024 169.614 127.178 169.294 129.303C169.111 130.527 168.387 131.733 168.043 132.952C167.854 133.623 168.092 134.473 169.916 134.708C171.149 134.867 172.51 134.646 173.595 134.388C179.45 133 182.433 130.306 180.761 127.92Z" fill="#F2F2F2"/>
<path d="M174.991 135.746H125.7C123.728 135.746 121.836 135.025 120.441 133.742C119.046 132.459 118.263 130.719 118.263 128.905C118.263 127.09 119.046 125.35 120.441 124.067C121.836 122.784 123.728 122.063 125.7 122.063H174.991C176.964 122.063 178.855 122.784 180.25 124.067C181.645 125.35 182.429 127.09 182.429 128.905C182.429 130.719 181.645 132.459 180.25 133.742C178.855 135.025 176.964 135.746 174.991 135.746ZM125.7 122.421C123.831 122.421 122.038 123.104 120.716 124.32C119.394 125.536 118.652 127.185 118.652 128.905C118.652 130.624 119.394 132.273 120.716 133.489C122.038 134.705 123.831 135.388 125.7 135.388H174.991C176.861 135.388 178.653 134.705 179.975 133.489C181.297 132.273 182.04 130.624 182.04 128.905C182.04 127.185 181.297 125.536 179.975 124.32C178.653 123.104 176.861 122.421 174.991 122.421H125.7Z" fill="#3F3D56"/>
<path d="M125.262 131.095C124.902 131.095 124.556 130.963 124.3 130.728C124.045 130.494 123.902 130.175 123.901 129.843V126.624C123.901 126.292 124.045 125.974 124.3 125.739C124.555 125.504 124.901 125.372 125.262 125.372C125.623 125.372 125.97 125.504 126.225 125.739C126.48 125.974 126.624 126.292 126.624 126.624V129.843C126.623 130.175 126.48 130.494 126.224 130.728C125.969 130.963 125.623 131.095 125.262 131.095Z" fill="#15CEFF"/>
<path d="M129.151 131.095C128.79 131.095 128.444 130.963 128.189 130.728C127.934 130.494 127.79 130.175 127.79 129.843V126.624C127.79 126.292 127.933 125.974 128.189 125.739C128.444 125.504 128.79 125.372 129.151 125.372C129.512 125.372 129.858 125.504 130.114 125.739C130.369 125.974 130.512 126.292 130.512 126.624V129.843C130.512 130.175 130.368 130.494 130.113 130.728C129.858 130.963 129.512 131.095 129.151 131.095Z" fill="#15CEFF"/>
<path d="M133.04 131.095C132.679 131.095 132.333 130.963 132.078 130.728C131.823 130.494 131.68 130.175 131.679 129.843V126.624C131.679 126.292 131.823 125.974 132.078 125.739C132.333 125.504 132.679 125.372 133.04 125.372C133.401 125.372 133.747 125.504 134.003 125.739C134.258 125.974 134.401 126.292 134.401 126.624V129.843C134.401 130.175 134.257 130.494 134.002 130.728C133.747 130.963 133.401 131.095 133.04 131.095Z" fill="#FF6584"/>
<path d="M136.929 131.095C136.568 131.095 136.222 130.963 135.967 130.728C135.712 130.494 135.568 130.175 135.568 129.843V126.624C135.568 126.292 135.711 125.974 135.967 125.739C136.222 125.504 136.568 125.372 136.929 125.372C137.29 125.372 137.636 125.504 137.891 125.739C138.147 125.974 138.29 126.292 138.29 126.624V129.843C138.29 130.175 138.146 130.494 137.891 130.728C137.636 130.963 137.29 131.095 136.929 131.095Z" fill="#15CEFF"/>
<path d="M138.484 122.242H138.095V108.821H110.357V108.463H138.484V122.242Z" fill="#3F3D56"/>
<path d="M106.023 112.57C109.006 112.57 111.425 110.346 111.425 107.602C111.425 104.858 109.006 102.633 106.023 102.633C103.04 102.633 100.622 104.858 100.622 107.602C100.622 110.346 103.04 112.57 106.023 112.57Z" fill="#15CEFF"/>
<path d="M105.286 110.187C105.192 110.187 105.101 110.167 105.017 110.129C104.934 110.091 104.861 110.035 104.805 109.966L103.332 108.159C103.284 108.101 103.25 108.035 103.23 107.964C103.21 107.894 103.206 107.821 103.217 107.749C103.228 107.677 103.254 107.608 103.295 107.545C103.335 107.483 103.388 107.428 103.451 107.385C103.514 107.341 103.586 107.309 103.663 107.291C103.739 107.273 103.819 107.269 103.897 107.28C103.975 107.29 104.05 107.314 104.118 107.352C104.186 107.389 104.246 107.438 104.293 107.496L105.257 108.678L107.733 105.262C107.822 105.14 107.959 105.055 108.115 105.027C108.271 104.998 108.434 105.028 108.566 105.109C108.699 105.19 108.791 105.316 108.822 105.46C108.853 105.604 108.821 105.753 108.733 105.875L105.786 109.941C105.732 110.015 105.661 110.076 105.577 110.118C105.493 110.161 105.399 110.185 105.302 110.187C105.297 110.187 105.291 110.187 105.286 110.187Z" fill="white"/>
<path d="M161.547 122.242H161.158V108.463H189.285V108.821H161.547V122.242Z" fill="#3F3D56"/>
<path d="M193.598 112.57C196.582 112.57 199 110.346 199 107.602C199 104.858 196.582 102.633 193.598 102.633C190.615 102.633 188.197 104.858 188.197 107.602C188.197 110.346 190.615 112.57 193.598 112.57Z" fill="#15CEFF"/>
<path d="M192.861 110.187C192.768 110.187 192.676 110.167 192.593 110.129C192.509 110.091 192.437 110.035 192.381 109.966L190.907 108.159C190.86 108.101 190.825 108.035 190.806 107.964C190.786 107.894 190.781 107.821 190.793 107.749C190.804 107.677 190.83 107.608 190.87 107.545C190.911 107.483 190.964 107.428 191.027 107.385C191.09 107.341 191.162 107.309 191.239 107.291C191.315 107.273 191.395 107.269 191.473 107.28C191.551 107.29 191.626 107.314 191.694 107.352C191.762 107.389 191.821 107.438 191.869 107.496L192.833 108.678L195.309 105.262C195.397 105.14 195.535 105.055 195.691 105.027C195.847 104.998 196.009 105.028 196.142 105.109C196.274 105.19 196.366 105.316 196.398 105.46C196.429 105.604 196.397 105.753 196.309 105.875L193.361 109.941C193.308 110.015 193.236 110.076 193.152 110.118C193.068 110.161 192.974 110.185 192.878 110.187C192.873 110.187 192.867 110.187 192.861 110.187Z" fill="white"/>
<path d="M150.015 93.6714H149.626V122.242H150.015V93.6714Z" fill="#3F3D56"/>
<path d="M150.356 95.9369C153.339 95.9369 155.757 93.7125 155.757 90.9685C155.757 88.2245 153.339 86 150.356 86C147.372 86 144.954 88.2245 144.954 90.9685C144.954 93.7125 147.372 95.9369 150.356 95.9369Z" fill="#15CEFF"/>
<path d="M149.619 93.5543C149.526 93.5543 149.434 93.5343 149.35 93.496C149.267 93.4576 149.194 93.4019 149.138 93.3332L147.665 91.5259C147.617 91.4678 147.583 91.4017 147.563 91.3314C147.543 91.2611 147.539 91.1878 147.55 91.1159C147.561 91.044 147.587 90.9748 147.628 90.9123C147.668 90.8498 147.721 90.7952 147.784 90.7517C147.847 90.7081 147.919 90.6764 147.996 90.6584C148.072 90.6404 148.152 90.6364 148.23 90.6467C148.308 90.6571 148.383 90.6814 148.451 90.7185C148.519 90.7556 148.579 90.8046 148.626 90.8627L149.59 92.045L152.066 88.6286C152.155 88.5068 152.292 88.4223 152.448 88.3936C152.604 88.365 152.767 88.3945 152.899 88.4758C153.032 88.557 153.124 88.6834 153.155 88.827C153.186 88.9706 153.154 89.1198 153.066 89.2418L150.119 93.3082C150.065 93.3817 149.994 93.4425 149.91 93.4853C149.826 93.528 149.732 93.5517 149.636 93.5541C149.63 93.5542 149.624 93.5543 149.619 93.5543Z" fill="white"/>
<path d="M143.767 126.539C147.967 126.335 152.17 126.227 156.378 126.214C160.567 126.201 164.755 126.284 168.942 126.462C171.308 126.563 173.673 126.694 176.035 126.856C176.41 126.881 176.408 126.344 176.035 126.319C171.841 126.033 167.641 125.842 163.435 125.746C159.246 125.652 155.057 125.653 150.867 125.748C148.499 125.803 146.132 125.887 143.767 126.002C143.393 126.021 143.391 126.557 143.767 126.539Z" fill="#3F3D56"/>
<path d="M143.767 128.864C147.967 128.66 152.17 128.552 156.378 128.539C160.567 128.526 164.755 128.609 168.942 128.787C171.308 128.888 173.673 129.019 176.035 129.181C176.41 129.206 176.408 128.669 176.035 128.644C171.841 128.358 167.641 128.167 163.435 128.072C159.246 127.977 155.057 127.978 150.867 128.074C148.499 128.128 146.132 128.212 143.767 128.328C143.393 128.346 143.391 128.882 143.767 128.864Z" fill="#3F3D56"/>
<path d="M143.767 131.189C147.967 130.985 152.17 130.877 156.378 130.864C160.567 130.852 164.755 130.934 168.942 131.112C171.308 131.213 173.673 131.344 176.035 131.506C176.41 131.531 176.408 130.995 176.035 130.969C171.841 130.683 167.641 130.492 163.435 130.397C159.246 130.302 155.057 130.303 150.867 130.399C148.499 130.453 146.132 130.537 143.767 130.653C143.393 130.671 143.391 131.207 143.767 131.189Z" fill="#3F3D56"/>
<path opacity="0.2" d="M77.1378 109.007L76.5391 120.606L78.4423 123.852L77.7211 119.56L77.1378 109.007Z" fill="black"/>
</svg>
