<svg xmlns="http://www.w3.org/2000/svg" width="52" height="52" viewBox="0 0 52 52" fill="none">
  <g filter="url(#filter0_d_393_10)">
    <circle cx="26" cy="26" r="24" fill="white"/>
  </g>
  <path d="M14.6668 31.277C14.6668 31.277 9.57475 30.0919 11.3919 24.7042C11.3919 24.7042 12.6833 21.4554 16.983 22.1636C16.983 22.1636 17.0839 19.1532 19.6455 18.0769C20.4135 17.7765 21.2397 17.6602 22.0595 17.737C22.8793 17.8137 23.6704 18.0816 24.3708 18.5195C24.6959 17.264 25.4122 16.148 26.4135 15.3371C27.4148 14.5261 28.6477 14.0634 29.9294 14.0175C34.6285 13.6433 35.5872 19.3984 35.5872 19.3984C35.5872 19.3984 41.3114 19.6706 41.9037 25.2219C41.9037 25.2219 42.4361 30.194 36.9448 31.2767L14.6668 31.277Z" fill="url(#paint0_linear_393_10)"/>
  <path d="M30.4883 28.1096V38.3262" stroke="#EFEFEF" stroke-width="3" stroke-miterlimit="10" stroke-linecap="round"/>
  <path d="M30.4551 24.6019L27.7056 29.472H33.1969L30.4551 24.6019Z" fill="#EFEFEF"/>
  <path d="M23.832 34.2396V24.0229" stroke="#EFEFEF" stroke-width="3" stroke-miterlimit="10" stroke-linecap="round"/>
  <path d="M23.7993 37.7476L26.5412 32.8776H21.0498L23.7993 37.7476Z" fill="#EFEFEF"/>
  <defs>
    <filter id="filter0_d_393_10" x="0" y="0" width="52" height="52" filterUnits="userSpaceOnUse" color-interpolation-filters="sRGB">
      <feFlood flood-opacity="0" result="BackgroundImageFix"/>
      <feColorMatrix in="SourceAlpha" type="matrix" values="0 0 0 0 0 0 0 0 0 0 0 0 0 0 0 0 0 0 127 0" result="hardAlpha"/>
      <feOffset/>
      <feGaussianBlur stdDeviation="1"/>
      <feComposite in2="hardAlpha" operator="out"/>
      <feColorMatrix type="matrix" values="0 0 0 0 0.0823529 0 0 0 0 0.807843 0 0 0 0 1 0 0 0 1 0"/>
      <feBlend mode="normal" in2="BackgroundImageFix" result="effect1_dropShadow_393_10"/>
      <feBlend mode="normal" in="SourceGraphic" in2="effect1_dropShadow_393_10" result="shape"/>
    </filter>
    <linearGradient id="paint0_linear_393_10" x1="11" y1="22.6385" x2="41.9487" y2="22.6385" gradientUnits="userSpaceOnUse">
      <stop stop-color="#41D692"/>
      <stop offset="1" stop-color="#15CEFF"/>
    </linearGradient>
  </defs>
</svg>