<svg width="417" height="465" viewBox="0 0 417 465" fill="none" xmlns="http://www.w3.org/2000/svg">
<g filter="url(#filter0_d_669_1978)">
<path d="M409.844 319.88C409.844 328.489 407.576 336.946 403.267 344.4C398.959 351.854 392.762 358.041 385.302 362.339L233.359 449.863C225.92 454.148 217.486 456.403 208.901 456.403C200.316 456.403 191.882 454.148 184.443 449.863L32.4992 362.339C25.039 358.041 18.8427 351.854 14.5342 344.4C10.2258 336.946 7.95734 328.489 7.95724 319.88V145.024C7.95734 136.414 10.2258 127.957 14.5342 120.503C18.8427 113.049 25.039 106.862 32.4992 102.565L184.444 15.0405C191.883 10.7555 200.317 8.5 208.902 8.5C217.487 8.5 225.921 10.7555 233.36 15.0405L385.302 102.565C392.763 106.862 398.959 113.049 403.267 120.503C407.576 127.957 409.844 136.415 409.844 145.025V319.88Z" fill="white"/>
</g>
<path d="M415.907 323.63C415.907 332.239 413.639 340.696 409.33 348.15C405.022 355.604 398.825 361.791 391.365 366.089L232.907 457.363C225.468 461.648 217.034 463.903 208.449 463.903C199.864 463.903 191.43 461.648 183.991 457.363L25.5422 366.089C18.082 361.791 11.8857 355.604 7.57721 348.15C3.26877 340.696 1.0003 332.239 1.00021 323.63V141.274C1.0003 132.664 3.26877 124.207 7.57721 116.753C11.8857 109.299 18.082 103.112 25.5422 98.8145L183.996 7.54053C191.435 3.25546 199.869 1 208.454 1C217.039 1 225.473 3.25546 232.912 7.54053L391.365 98.8145C398.825 103.112 405.022 109.299 409.33 116.753C413.639 124.207 415.907 132.664 415.907 141.274V323.63Z" stroke="#15CEFF" stroke-width="2" stroke-linecap="round" stroke-linejoin="round" stroke-dasharray="3 10"/>
<path d="M138.769 238.429H195.383C204.974 238.429 212.749 245.581 212.749 254.403V296.175C212.749 304.997 204.974 312.149 195.383 312.149H138.769C129.178 312.149 121.403 304.997 121.403 296.175V254.403C121.403 245.581 129.178 238.429 138.769 238.429Z" fill="white"/>
<path d="M120.992 296.175V254.403C120.992 245.387 128.967 238.051 138.77 238.051H195.384C205.186 238.051 213.161 245.387 213.161 254.403V296.175C213.161 305.192 205.186 312.527 195.384 312.527H138.77C128.967 312.527 120.992 305.192 120.992 296.175ZM138.77 238.808C129.421 238.808 121.815 245.804 121.815 254.403V296.175C121.815 304.775 129.421 311.771 138.77 311.771H195.384C204.733 311.771 212.339 304.775 212.339 296.175V254.403C212.339 245.804 204.733 238.808 195.384 238.808H138.77Z" fill="#3F3D56"/>
<path d="M159.936 256.719H172.617L159.453 292.594C159.176 293.35 158.405 293.859 157.538 293.859H147.669C146.554 293.859 145.651 293.028 145.65 292.003C145.65 291.801 145.686 291.6 145.756 291.409L158.021 257.984C158.298 257.228 159.069 256.719 159.936 256.719L159.936 256.719Z" fill="url(#paint0_linear_669_1978)"/>
<path d="M178.363 280.781H158.255C157.741 280.781 157.324 281.164 157.323 281.637C157.323 281.874 157.43 282.102 157.619 282.264L170.541 293.357C170.917 293.68 171.412 293.859 171.927 293.859H183.313L178.363 280.781Z" fill="#0078D4"/>
<path d="M159.936 256.719C159.058 256.716 158.28 257.238 158.016 258.009L145.771 291.378C145.395 292.343 145.94 293.404 146.988 293.75C147.208 293.823 147.441 293.86 147.675 293.859H157.798C158.565 293.733 159.2 293.237 159.459 292.56L161.9 285.941L170.623 293.424C170.988 293.702 171.447 293.856 171.921 293.859H183.265L178.29 280.782L163.786 280.785L172.663 256.719L159.936 256.719Z" fill="url(#paint1_linear_669_1978)"/>
<path d="M176.133 257.982C175.856 257.227 175.086 256.719 174.22 256.719H160.087C160.954 256.719 161.723 257.227 162 257.982L174.265 291.408C174.622 292.38 174.054 293.434 172.998 293.762C172.79 293.826 172.572 293.859 172.352 293.859H186.485C187.6 293.859 188.504 293.027 188.503 292.002C188.503 291.8 188.468 291.599 188.397 291.408L176.133 257.982Z" fill="url(#paint2_linear_669_1978)"/>
<path d="M87.7769 145.378H144.391C153.982 145.378 161.757 152.53 161.757 161.352V203.124C161.757 211.946 153.982 219.098 144.391 219.098H87.7769C78.1858 219.098 70.4106 211.946 70.4106 203.124V161.352C70.4106 152.53 78.1858 145.378 87.7769 145.378Z" fill="white"/>
<path d="M70 203.124V161.352C70 152.336 77.975 145 87.7775 145H144.391C154.194 145 162.169 152.336 162.169 161.352V203.124C162.169 212.14 154.194 219.476 144.391 219.476H87.7775C77.975 219.476 70 212.14 70 203.124ZM87.7775 145.757C78.4284 145.757 70.8225 152.753 70.8225 161.352V203.124C70.8225 211.723 78.4284 218.719 87.7775 218.719H144.391C153.741 218.719 161.346 211.723 161.346 203.124V161.352C161.346 152.753 153.74 145.757 144.391 145.757L87.7775 145.757Z" fill="#3F3D56"/>
<path d="M104.778 182.877C104.778 183.464 104.847 183.939 104.967 184.288C105.105 184.637 105.277 185.017 105.519 185.43C105.605 185.556 105.639 185.683 105.639 185.794C105.639 185.953 105.536 186.111 105.312 186.27L104.226 186.936C104.071 187.031 103.916 187.078 103.778 187.078C103.606 187.078 103.433 186.999 103.261 186.856C103.02 186.619 102.813 186.365 102.64 186.111C102.468 185.842 102.296 185.541 102.106 185.176C100.762 186.634 99.0727 187.364 97.0389 187.364C95.5911 187.364 94.4364 186.983 93.5918 186.222C92.7473 185.461 92.3164 184.447 92.3164 183.178C92.3164 181.831 92.8335 180.737 93.8848 179.913C94.9362 179.088 96.3323 178.676 98.1075 178.676C98.6935 178.676 99.2968 178.724 99.9345 178.803C100.572 178.882 101.227 179.009 101.917 179.152V177.994C101.917 176.789 101.641 175.949 101.106 175.458C100.555 174.966 99.6242 174.729 98.2971 174.729C97.6939 174.729 97.0734 174.792 96.4357 174.935C95.798 175.077 95.1775 175.252 94.5742 175.474C94.2985 175.585 94.0916 175.648 93.971 175.68C93.8504 175.711 93.7642 175.727 93.6952 175.727C93.4539 175.727 93.3333 175.569 93.3333 175.236V174.459C93.3333 174.205 93.3678 174.015 93.4539 173.904C93.5401 173.793 93.6952 173.682 93.9365 173.571C94.5398 173.286 95.2637 173.048 96.1082 172.858C96.9527 172.652 97.849 172.557 98.7969 172.557C100.848 172.557 102.347 172.985 103.313 173.841C104.261 174.697 104.743 175.997 104.743 177.741V182.877L104.778 182.877ZM97.78 185.287C98.3488 185.287 98.9348 185.192 99.5553 185.002C100.176 184.811 100.727 184.463 101.193 183.987C101.468 183.686 101.675 183.353 101.779 182.972C101.882 182.592 101.951 182.132 101.951 181.593V180.927C101.451 180.816 100.917 180.721 100.365 180.658C99.8138 180.594 99.2795 180.563 98.7452 180.563C97.5904 180.563 96.7459 180.769 96.1771 181.197C95.6084 181.625 95.3326 182.227 95.3326 183.02C95.3326 183.765 95.5394 184.32 95.9703 184.7C96.384 185.097 96.9872 185.287 97.78 185.287ZM111.62 186.999C111.31 186.999 111.103 186.951 110.965 186.841C110.827 186.745 110.707 186.523 110.603 186.222L106.553 173.968C106.449 173.65 106.398 173.444 106.398 173.333C106.398 173.08 106.536 172.937 106.811 172.937H108.5C108.828 172.937 109.052 172.985 109.173 173.096C109.311 173.191 109.414 173.413 109.517 173.714L112.413 184.209L115.102 173.714C115.188 173.397 115.291 173.191 115.429 173.096C115.567 173.001 115.808 172.937 116.119 172.937H117.497C117.825 172.937 118.049 172.985 118.187 173.096C118.325 173.191 118.445 173.413 118.514 173.714L121.237 184.336L124.219 173.714C124.323 173.397 124.443 173.191 124.564 173.096C124.702 173.001 124.926 172.937 125.236 172.937H126.839C127.115 172.937 127.27 173.064 127.27 173.333C127.27 173.413 127.253 173.492 127.235 173.587C127.218 173.682 127.184 173.809 127.115 173.983L122.961 186.238C122.858 186.555 122.737 186.761 122.599 186.856C122.461 186.951 122.237 187.015 121.944 187.015H120.462C120.134 187.015 119.91 186.967 119.772 186.856C119.635 186.745 119.514 186.539 119.445 186.222L116.773 175.997L114.119 186.206C114.033 186.523 113.93 186.73 113.792 186.84C113.654 186.951 113.413 186.999 113.102 186.999L111.62 186.999ZM133.768 187.427C132.871 187.427 131.975 187.332 131.113 187.142C130.252 186.951 129.579 186.745 129.131 186.508C128.856 186.365 128.666 186.206 128.597 186.064C128.528 185.921 128.494 185.762 128.494 185.62V184.811C128.494 184.478 128.631 184.32 128.89 184.32C128.993 184.32 129.097 184.336 129.2 184.367C129.304 184.399 129.459 184.462 129.631 184.526C130.217 184.764 130.855 184.954 131.527 185.081C132.216 185.208 132.889 185.271 133.578 185.271C134.664 185.271 135.508 185.097 136.094 184.748C136.68 184.399 136.991 183.892 136.991 183.242C136.991 182.798 136.836 182.433 136.525 182.132C136.215 181.831 135.629 181.561 134.784 181.308L132.285 180.594C131.027 180.23 130.096 179.691 129.528 178.977C128.959 178.28 128.666 177.503 128.666 176.678C128.666 176.013 128.821 175.426 129.131 174.919C129.442 174.411 129.855 173.968 130.372 173.619C130.889 173.254 131.475 172.985 132.165 172.794C132.854 172.604 133.578 172.525 134.336 172.525C134.716 172.525 135.112 172.541 135.491 172.588C135.888 172.636 136.25 172.699 136.611 172.763C136.956 172.842 137.284 172.921 137.594 173.016C137.904 173.111 138.145 173.207 138.318 173.302C138.559 173.429 138.731 173.555 138.835 173.698C138.938 173.825 138.99 173.999 138.99 174.221V174.966C138.99 175.299 138.852 175.474 138.594 175.474C138.456 175.474 138.232 175.41 137.939 175.283C136.956 174.871 135.853 174.665 134.629 174.665C133.647 174.665 132.871 174.808 132.337 175.109C131.803 175.41 131.527 175.87 131.527 176.52C131.527 176.964 131.699 177.344 132.044 177.646C132.389 177.947 133.027 178.248 133.94 178.517L136.387 179.231C137.628 179.596 138.525 180.103 139.059 180.753C139.593 181.403 139.852 182.148 139.852 182.972C139.852 183.654 139.697 184.272 139.404 184.811C139.093 185.35 138.68 185.826 138.145 186.206C137.611 186.603 136.973 186.888 136.232 187.094C135.457 187.316 134.647 187.427 133.768 187.427Z" fill="#252F3E"/>
<path fill-rule="evenodd" clip-rule="evenodd" d="M137.025 195.132C131.355 198.984 123.116 201.029 116.032 201.029C106.105 201.029 97.1597 197.653 90.4034 192.04C89.8691 191.597 90.3517 190.994 90.9894 191.343C98.2972 195.243 107.311 197.605 116.636 197.605C122.927 197.605 129.838 196.4 136.198 193.927C137.146 193.531 137.956 194.498 137.025 195.132Z" fill="#FF9900"/>
<path fill-rule="evenodd" clip-rule="evenodd" d="M139.387 192.659C138.663 191.803 134.595 192.247 132.751 192.453C132.199 192.516 132.113 192.072 132.613 191.739C135.853 189.647 141.179 190.249 141.799 190.947C142.42 191.66 141.627 196.559 138.594 198.905C138.128 199.27 137.68 199.079 137.887 198.604C138.576 197.034 140.11 193.499 139.387 192.659Z" fill="#FF9900"/>
<path d="M245.82 172.945C245.409 172.565 242.129 164.583 242.129 164.583L234.337 164.203L230.772 171.993L245.82 172.945Z" fill="#FFB6B6"/>
<path d="M235.128 167.846C241.033 167.846 245.819 163.606 245.819 158.375C245.819 153.145 241.033 148.905 235.128 148.905C229.223 148.905 224.436 153.145 224.436 158.375C224.436 163.606 229.223 167.846 235.128 167.846Z" fill="#FFB6B6"/>
<path d="M254.795 225.772L258.491 237.072L248.635 302.613H241.963L238.369 253.269L234.262 270.219L255.206 294.703L249.867 300.353L219.684 273.421L220.3 231.798L222.764 225.395L254.795 225.772Z" fill="#2F2E41"/>
<path d="M244.22 166.352L243.399 166.389C243.399 166.389 242.664 160.44 242.233 160.086C241.802 159.731 241.021 160.514 241.021 160.514C241.021 160.514 237.635 158.796 237.534 156.932C237.432 155.067 237.351 153.575 236.119 153.63C234.887 153.685 227.986 155.49 226.344 155.563C224.701 155.636 222.095 153.136 224.848 150.77C227.602 148.404 230.026 147.548 230.416 147.157C230.807 146.765 233.377 145.155 235.623 146.55C237.869 147.945 240.744 147.816 240.744 147.816C240.744 147.816 246.144 148.696 245.444 150.97C244.744 153.245 247.451 157.609 246.34 159.902C245.23 162.195 244.22 166.352 244.22 166.352Z" fill="#2F2E41"/>
<path d="M241.52 301.885L248.953 302.625L249.779 314.847C249.779 314.847 249.366 320.773 242.346 320.033C235.326 319.292 237.391 313.366 237.391 313.366L241.52 301.885Z" fill="#2F2E41"/>
<path d="M251.539 292.589C251.539 292.589 256.947 290.326 257.779 292.966L259.442 298.245C259.442 298.245 259.442 303.524 259.858 303.901C260.274 304.278 268.178 314.083 261.106 319.362C261.106 319.362 257.363 319.739 255.283 314.46C253.203 309.181 246.964 303.901 246.964 303.901C246.964 303.901 245.755 301.262 247.815 301.45C249.875 301.639 252.787 297.114 251.955 295.605C251.123 294.097 251.539 292.589 251.539 292.589Z" fill="#2F2E41"/>
<path d="M183.555 243.427C181.617 242.681 181.086 239.817 182.369 237.031C182.865 235.911 183.646 234.916 184.649 234.13L186.146 230.989L186.092 230.956L190.397 215.263C191.397 211.615 194.153 208.537 197.938 207.064C200.189 206.189 202.325 206.03 202.946 208.129C203.977 211.611 197.263 222.826 193.215 229.137L190.062 236.215C190.147 237.421 189.915 238.628 189.386 239.735C188.104 242.521 185.493 244.174 183.555 243.427Z" fill="#FFB6B6"/>
<path d="M231.656 170.76L245.28 171.139L258.491 176.459L256.427 207.995C256.427 207.995 258.904 215.214 257.665 216.354C256.427 217.494 257.665 222.604 256.84 222.708C256.014 222.813 256.84 228.309 256.84 228.309C256.84 228.309 245.28 224.713 235.372 226.993C225.464 229.272 222.161 225.473 222.161 225.473C222.161 225.473 219.684 216.354 219.684 214.454V175.606L231.656 170.76Z" fill="#15CEFF"/>
<path d="M222.06 175.432C222.06 175.432 216.275 173.907 213.383 177.719C210.49 181.531 208.837 181.531 208.837 186.488C208.837 186.488 191.896 208.6 192.722 210.887L188.797 216.797L198.714 221.753C198.714 221.753 202.226 218.512 202.226 215.462C202.226 212.412 212.143 204.025 212.143 204.025C212.143 204.025 220.82 193.731 221.234 189.919C221.647 186.106 222.06 175.432 222.06 175.432Z" fill="#15CEFF"/>
<path d="M272.421 245.238H329.035C338.626 245.238 346.401 252.39 346.401 261.212V302.984C346.401 311.806 338.626 318.958 329.035 318.958H272.421C262.83 318.958 255.055 311.806 255.055 302.984V261.212C255.055 252.39 262.83 245.238 272.421 245.238Z" fill="white"/>
<path d="M254.232 302.606V260.834C254.232 251.817 262.207 244.482 272.009 244.482H328.623C338.426 244.482 346.401 251.817 346.401 260.834V302.606C346.401 311.622 338.426 318.957 328.623 318.957H272.009C262.207 318.957 254.232 311.622 254.232 302.606ZM272.009 245.238C262.66 245.238 255.054 252.234 255.054 260.834V302.606C255.054 311.205 262.66 318.201 272.009 318.201H328.623C337.972 318.201 345.578 311.205 345.578 302.606V260.834C345.578 252.234 337.972 245.238 328.623 245.238H272.009Z" fill="#3F3D56"/>
<path d="M307.934 274.444H309.331L313.313 270.782L313.509 269.227C306.098 263.211 294.789 263.859 288.249 270.675C286.432 272.568 285.113 274.821 284.395 277.258C284.838 277.091 285.329 277.064 285.792 277.181L293.755 275.973C293.755 275.973 294.16 275.356 294.369 275.395C297.911 271.816 303.873 271.399 307.962 274.444L307.934 274.444Z" fill="#EA4335"/>
<path d="M318.985 277.258C318.07 274.158 316.191 271.372 313.578 269.24L307.99 274.38C310.35 276.153 311.694 278.825 311.636 281.627V282.54C314.383 282.54 316.61 284.588 316.61 287.114C316.61 289.641 314.383 291.689 311.636 291.689H301.69L300.698 292.614V298.101L301.69 299.013H311.636C318.781 299.064 324.618 293.779 324.673 287.207C324.707 283.224 322.572 279.49 318.985 277.258Z" fill="#4285F4"/>
<path d="M291.728 298.962H301.675V291.637H291.728C291.02 291.637 290.319 291.497 289.675 291.226L288.278 291.624L284.268 295.287L283.919 296.572C286.167 298.133 288.911 298.973 291.728 298.962Z" fill="#34A853"/>
<path d="M291.728 275.202C284.584 275.241 278.827 280.6 278.869 287.172C278.893 290.842 280.757 294.296 283.919 296.533L289.689 291.226C287.186 290.186 286.073 287.476 287.204 285.174C288.335 282.871 291.281 281.848 293.784 282.888C294.887 283.347 295.77 284.159 296.269 285.174L302.038 279.867C299.584 276.915 295.769 275.189 291.728 275.202Z" fill="#FBBC05"/>
<path d="M266.369 251.869C268.442 251.769 269.984 249.259 269.813 246.261C269.763 245.063 269.401 243.893 268.759 242.85L268.519 239.456L268.581 239.441L270.331 223.462C270.738 219.746 269.307 216.023 266.332 213.482C264.562 211.97 262.636 211.164 261.291 212.932C259.059 215.865 261.185 228.407 262.632 235.547L262.968 243.129C262.447 244.229 262.22 245.427 262.306 246.624C262.477 249.621 264.296 251.969 266.369 251.869Z" fill="#FFB6B6"/>
<path d="M255.511 176.343C255.511 176.343 261.485 176.717 262.797 181.174C264.109 185.631 265.656 186.144 263.842 190.77C263.842 190.77 271.606 216.67 269.995 218.548L271.507 225.283L260.409 226.827C260.409 226.827 258.307 222.711 259.424 219.865C260.54 217.019 254.327 206.11 254.327 206.11C254.327 206.11 249.972 193.807 250.981 190.121C251.99 186.434 255.511 176.343 255.511 176.343Z" fill="#15CEFF"/>
<defs>
<filter id="filter0_d_669_1978" x="1.95703" y="2.5" width="413.887" height="459.903" filterUnits="userSpaceOnUse" color-interpolation-filters="sRGB">
<feFlood flood-opacity="0" result="BackgroundImageFix"/>
<feColorMatrix in="SourceAlpha" type="matrix" values="0 0 0 0 0 0 0 0 0 0 0 0 0 0 0 0 0 0 127 0" result="hardAlpha"/>
<feOffset/>
<feGaussianBlur stdDeviation="3"/>
<feColorMatrix type="matrix" values="0 0 0 0 0 0 0 0 0 0 0 0 0 0 0 0 0 0 0.161 0"/>
<feBlend mode="normal" in2="BackgroundImageFix" result="effect1_dropShadow_669_1978"/>
<feBlend mode="normal" in="SourceGraphic" in2="effect1_dropShadow_669_1978" result="shape"/>
</filter>
<linearGradient id="paint0_linear_669_1978" x1="164.558" y1="259.471" x2="153.237" y2="295.832" gradientUnits="userSpaceOnUse">
<stop stop-color="#114A8B"/>
<stop offset="1" stop-color="#0669BC"/>
</linearGradient>
<linearGradient id="paint1_linear_669_1978" x1="168.671" y1="276.148" x2="165.681" y2="277.247" gradientUnits="userSpaceOnUse">
<stop stop-opacity="0.3"/>
<stop offset="0.071" stop-opacity="0.2"/>
<stop offset="0.321" stop-opacity="0.1"/>
<stop offset="0.623" stop-opacity="0.05"/>
<stop offset="1" stop-opacity="0"/>
</linearGradient>
<linearGradient id="paint2_linear_669_1978" x1="167.091" y1="258.395" x2="179.559" y2="294.506" gradientUnits="userSpaceOnUse">
<stop stop-color="#3CCBF4"/>
<stop offset="1" stop-color="#2892DF"/>
</linearGradient>
</defs>
</svg>
