<svg xmlns="http://www.w3.org/2000/svg" width="105.307" height="36.692" viewBox="0 0 105.307 36.692">
  <defs>
    <style>
      .cls-1 {
        fill-rule: evenodd;
      }
    </style>
  </defs>
  <g id="django" transform="translate(115.079 -357.729)">
    <path id="path2838" class="cls-1" d="M-109.3,375.678c-.018,3.48,2.534,5.555,6.606,4.612v-9.224c-4.124-1.256-6.589,1.285-6.606,4.612m6.731-17.949h5.609v26.55c-5.377.879-10.526,1.437-14.21-.623-4.743-2.652-5.125-11.079-1.371-14.833,1.9-1.9,5.734-3.242,9.847-2.368V358.1c-.011-.177-.021-.353.125-.374" transform="translate(0 0)"/>
    <path id="path2840" class="cls-1" d="M-58.582,363.587h-5.609v-5.858h5.609Z" transform="translate(-29.283 0)"/>
    <path id="path2844" class="cls-1" d="M96.474,391.926c6.115,2.376,6.791-10.945.623-9.723-3.83.759-3.707,8.524-.623,9.723m.249-14.334c4.67-.5,8.192,1.561,9.6,4.737,2.4,5.418-.132,11.634-3.989,13.462a11.421,11.421,0,0,1-5.983.872c-5.845-.51-9.531-6.466-7.479-13.088a9,9,0,0,1,.873-1.994c1.271-2.16,3.416-3.608,6.98-3.989" transform="translate(-117.029 -11.387)"/>
    <path id="path2848" class="cls-1" d="M-40.123,389.781c-1.551,2.607,2.347,3.232,4.861,2.493V388.41c-1.932.27-4.131.144-4.861,1.371m9.847,6.108c-4.633.267-11.675,1.845-14.21-1.246a6.291,6.291,0,0,1,0-6.98c1.718-2.2,5.467-2.675,8.85-2.991a3.2,3.2,0,0,0-.249-2.493c-3.095-.788-6.169.433-8.351,1.371v-4.363c3.3-1.514,10.929-3.108,13.212.374,1.2,1.829.748,5.019.748,7.853v8.476Z" transform="translate(-40.012 -11.361)"/>
    <path id="path2852" class="cls-1" d="M14,396.228H8.387V389c0-2.38.385-5.4-.873-6.357-.985-.751-3.322-.374-4.736,0v13.587H-2.832V378.9C2.9,377.412,13.252,375.815,14,383.015c.367,3.55-.272,8.875,0,13.213" transform="translate(-64.59 -11.451)"/>
    <path id="path2856" class="cls-1" d="M47.612,390.293c.944,1.527,3.5,2.1,5.609,1.122q-.174-4.376-.125-8.975c-4.848-1.281-7.736,4.21-5.484,7.853M61.7,378.451a36.622,36.622,0,0,1-1.87,4.113c-.578.13-1.079-.23-1.371,0-.128,6.076,1.294,14.313-1.122,18.7-1.455,2.639-4.133,4.333-8.227,4.612a16.749,16.749,0,0,1-7.479-1.122v-5.235c2.559,1.494,9.024,2.712,10.844-.374a9.418,9.418,0,0,0,.748-3.241c-1.172.062-2.309.6-3.739.623-5.879.078-9.515-4.6-8.1-11.094a8.836,8.836,0,0,1,3.989-5.734c4.094-2.495,10.386-2.306,16.329-1.246" transform="translate(-89.856 -11.499)"/>
    <path id="path2860" class="cls-1" d="M-66.184,378.514c-.006,4.13-.005,7.1-.006,12.116-.238,4.931-.183,8.858-1.988,11.218a10.486,10.486,0,0,1-1.745,1.621,6.039,6.039,0,0,1-2.119,1.246,10.08,10.08,0,0,1-2.742-1.122,20.076,20.076,0,0,0-2.617-1.246c2.134-1.322,4.159-2.313,4.986-4.986.719-2.324.623-5.692.623-8.975,0-3.241.014-7.009.014-9.871h5.595Z" transform="translate(-21.68 -11.961)"/>
  </g>
</svg>
