<svg xmlns="http://www.w3.org/2000/svg" xmlns:xlink="http://www.w3.org/1999/xlink" width="419.887" height="481" viewBox="0 0 419.887 481">
  <defs>
    <style>
      .cls-1 {
        fill: #fff;
      }

      .cls-2 {
        fill: none;
        stroke: #15ceff;
        stroke-linecap: round;
        stroke-linejoin: round;
        stroke-width: 2px;
        stroke-dasharray: 3 10;
      }

      .cls-3 {
        fill: #15ceff;
      }

      .cls-4 {
        fill: #e6e6e6;
      }

      .cls-5 {
        fill: #ffb6b6;
      }

      .cls-6 {
        fill: #3f3d56;
      }

      .cls-7 {
        fill: #e4e4e4;
      }

      .cls-8 {
        fill: #2f2e41;
      }

      .cls-9 {
        fill: #ffb8b8;
      }

      .cls-10 {
        fill: #9e616a;
      }

      .cls-11 {
        filter: url(#Polygon_1);
      }
    </style>
    <filter id="Polygon_1" x="0" y="0" width="419.887" height="481" filterUnits="userSpaceOnUse">
      <feOffset input="SourceAlpha"/>
      <feGaussianBlur stdDeviation="3" result="blur"/>
      <feFlood flood-opacity="0.161"/>
      <feComposite operator="in" in2="blur"/>
      <feComposite in="SourceGraphic"/>
    </filter>
  </defs>
  <g id="Group_541" data-name="Group 541" transform="translate(-703.047 -98.5)">
    <g id="Group_379" data-name="Group 379" transform="translate(-103.953 -51.5)">
      <g class="cls-11" transform="matrix(1, 0, 0, 1, 807, 150)">
        <path id="Polygon_1-2" data-name="Polygon 1" class="cls-1" d="M318.928,0a49,49,0,0,1,42.459,24.542l87.524,151.943a49,49,0,0,1,0,48.916L361.387,377.345a49,49,0,0,1-42.459,24.542H144.072a49,49,0,0,1-42.459-24.542L14.089,225.4a49,49,0,0,1,0-48.916L101.613,24.542A49,49,0,0,1,144.073,0Z" transform="translate(410.89 9) rotate(90)"/>
      </g>
      <path id="Polygon_2" data-name="Polygon 2" class="cls-2" d="M330.178,0a49,49,0,0,1,42.459,24.542L463.911,183a49,49,0,0,1,0,48.916L372.637,390.365a49,49,0,0,1-42.459,24.542H147.822a49,49,0,0,1-42.459-24.542L14.089,231.911a49,49,0,0,1,0-48.916L105.363,24.542A49,49,0,0,1,147.822,0Z" transform="translate(1223.953 151.5) rotate(90)"/>
    </g>
    <g id="undraw_team_spirit_re_yl1v" transform="translate(763.787 238.398)">
      <path id="Path_528" data-name="Path 528" class="cls-3" d="M183.673,524.284c-1.413,0-2.828.058-4.211.176l-.2.017c-9.17.811-15.878,5.514-15.6,10.94l.053.981c.035.62.073,1.287.1,2.027.017.365.515.645,1.134.645H390.515c15.9-.1,31.749-.218,47.095-.361a80.135,80.135,0,0,0,8.616-.447c4.264-.5,7.224-1.505,9.05-3.059h0c2.27-1.926,2.341-4.352,2.2-7.093-.28-5.534-.557-11.348-.834-17.143-.244-5.108-.488-10.2-.731-15.08-.15-2.894-.485-5.449-3.062-7.4-2.794-2.112-7.889-3.182-15.145-3.182h-.263c-22.738.081-45.268,7.9-56.063,19.455-1.243,1.331-2.4,2.755-3.521,4.133a56.011,56.011,0,0,1-5.408,6.022,25.416,25.416,0,0,1-3.573,2.785c-.088.061-.188.126-.294.187-.243.158-.5.311-.744.446a25.829,25.829,0,0,1-4.556,2.072l-.16.054c-.12.043-.25.086-.381.125-.914.293-1.863.547-2.814.752a45.315,45.315,0,0,1-13.906.646,67.2,67.2,0,0,1-13.827-2.818c-4.734-1.5-9.165-3.362-13.451-5.165-1.882-.793-3.829-1.612-5.774-2.388-.366-.146-.725-.289-1.09-.432-2.375-.925-4.528-1.69-6.582-2.337a64.966,64.966,0,0,0-15.685-2.905,38.653,38.653,0,0,0-14.809,1.732,25.431,25.431,0,0,0-3.35,1.443c-4.939,2.565-7.984,6.35-10.928,10.011-3.663,4.553-7.45,9.262-14.929,11.7-8.63,2.819-21.226,1.648-30.138-.389-2.8-.641-5.6-1.377-8.307-2.09q-1.64-.432-3.282-.858c-2.151-.555-3.911-.981-5.54-1.34l-.515-.115c-.287-.062-.573-.125-.865-.184-1.935-.406-3.736-.726-5.51-.977l-.42-.061c-.841-.111-1.628-.2-2.4-.281l-.308-.031C186.805,524.356,185.241,524.284,183.673,524.284Z" transform="translate(-163.651 -372.666)"/>
      <path id="Path_529" data-name="Path 529" class="cls-4" d="M882.295,604.411c6.347-5.719,15.788-8.6,23.706-5.388a39.366,39.366,0,0,0-17.689,20.433c-1.261,3.354-2.314,7.216-5.414,9.012a8.8,8.8,0,0,1-6.493.633,26.136,26.136,0,0,1-6.1-2.691l-.556-.013C872.244,618.225,875.948,610.13,882.295,604.411Z" transform="translate(-629.025 -446.736)"/>
      <path id="Path_530" data-name="Path 530" class="cls-1" d="M906.129,601.381a33.646,33.646,0,0,0-18.719,8.84,14.491,14.491,0,0,0-2.845,3.538,8.31,8.31,0,0,0-.961,4.267,17.2,17.2,0,0,1-.073,4.163,5.089,5.089,0,0,1-2.531,3.3,13.22,13.22,0,0,1-5.075,1.386,12.982,12.982,0,0,0-5.64,1.543c-.2.132-.4-.192-.193-.323,2.922-1.894,6.62-1.2,9.763-2.469a5.153,5.153,0,0,0,3.223-3.19,13.347,13.347,0,0,0,.155-4.225,8.868,8.868,0,0,1,.784-4.207,13.4,13.4,0,0,1,2.7-3.634,32.642,32.642,0,0,1,8.3-5.939A34.243,34.243,0,0,1,906.125,601c.24-.031.242.346,0,.377Z" transform="translate(-629.197 -448.921)"/>
      <path id="Path_531" data-name="Path 531" class="cls-1" d="M923.846,610.486a5.048,5.048,0,0,1,.557-6.513c.173-.17.445.09.272.26a4.674,4.674,0,0,0-.505,6.059C924.31,610.49,923.986,610.682,923.846,610.486Z" transform="translate(-664.064 -450.843)"/>
      <path id="Path_532" data-name="Path 532" class="cls-1" d="M909.124,646.133a9.73,9.73,0,0,0,6.953-1.392c.2-.131.4.192.193.323a10.12,10.12,0,0,1-7.238,1.434C908.793,646.456,908.887,646.091,909.124,646.133Z" transform="translate(-654.826 -477.728)"/>
      <path id="Path_533" data-name="Path 533" class="cls-1" d="M952.984,607.164a2.858,2.858,0,0,0,2.137,1.669c.239.04.146.4-.092.365a3.2,3.2,0,0,1-2.368-1.841.2.2,0,0,1,.065-.258A.189.189,0,0,1,952.984,607.164Z" transform="translate(-683.656 -452.922)"/>
      <path id="Path_534" data-name="Path 534" class="cls-4" d="M913.847,663.037c-.15-.021-.3-.042-.453-.06a37.629,37.629,0,0,0-6.1-.31c-.158,0-.317.007-.474.014a39.671,39.671,0,0,0-14.233,3.276,38.531,38.531,0,0,0-5.169,2.746c-2.28,1.444-4.637,3.19-7.186,3.779a6.6,6.6,0,0,1-.805.143l-10.53-9.118c-.014-.033-.029-.063-.043-.1l-.437-.345.248-.18c.047-.035.1-.068.144-.1.032-.023.064-.045.092-.068l.03-.02c.028-.022.056-.04.081-.06q.717-.508,1.444-1.007s0,0,.007,0a56.647,56.647,0,0,1,11.8-6.341c.125-.047.252-.1.382-.14a36.762,36.762,0,0,1,5.775-1.625,32.481,32.481,0,0,1,3.257-.455,27.026,27.026,0,0,1,8.429.6c5.5,1.276,10.538,4.3,13.519,9.011C913.7,662.8,913.773,662.914,913.847,663.037Z" transform="translate(-628.151 -483.169)"/>
      <path id="Path_535" data-name="Path 535" class="cls-1" d="M914.149,673.572a33.646,33.646,0,0,0-20.268-4.211,14.489,14.489,0,0,0-4.4,1.112,8.31,8.31,0,0,0-3.336,2.829,17.2,17.2,0,0,1-2.565,3.28,5.088,5.088,0,0,1-4.01,1.113,13.22,13.22,0,0,1-4.886-1.949,12.98,12.98,0,0,0-5.432-2.164c-.242-.017-.2-.392.041-.374,3.474.248,6.011,3.024,9.281,3.907a5.153,5.153,0,0,0,4.494-.607,13.343,13.343,0,0,0,2.667-3.28,8.868,8.868,0,0,1,3.159-2.887,13.4,13.4,0,0,1,4.343-1.277,32.644,32.644,0,0,1,10.2.253,34.245,34.245,0,0,1,10.938,3.953C914.583,673.389,914.358,673.691,914.149,673.572Z" transform="translate(-628.592 -493.591)"/>
      <path id="Path_536" data-name="Path 536" class="cls-1" d="M948.408,659.967a5.048,5.048,0,0,1,4.365-4.865c.24-.032.3.34.061.372a4.674,4.674,0,0,0-4.052,4.534C948.777,660.25,948.4,660.208,948.408,659.967Z" transform="translate(-680.87 -484.576)"/>
      <path id="Path_537" data-name="Path 537" class="cls-1" d="M919.431,680.09a9.73,9.73,0,0,0,6.389,3.074c.242.018.2.392-.041.374a10.12,10.12,0,0,1-6.642-3.213C918.973,680.148,919.267,679.913,919.431,680.09Z" transform="translate(-661.546 -501.005)"/>
      <path id="Path_538" data-name="Path 538" class="cls-1" d="M979.425,673.182a2.857,2.857,0,0,0,.7,2.619c.167.176-.128.411-.293.236a3.2,3.2,0,0,1-.783-2.9.2.2,0,0,1,.207-.167A.189.189,0,0,1,979.425,673.182Z" transform="translate(-701.014 -496.356)"/>
      <path id="Path_539" data-name="Path 539" class="cls-4" d="M405.07,609.88c5.2-7.883,14.494-13.585,23.856-12.358A43.5,43.5,0,0,0,415.691,624.3c-.415,3.938-.467,8.361-3.284,11.145a9.724,9.724,0,0,1-6.768,2.483,28.884,28.884,0,0,1-7.275-1.181l-.6.141C398.164,627.451,399.873,617.763,405.07,609.88Z" transform="translate(-317.951 -446.518)"/>
      <path id="Path_540" data-name="Path 540" class="cls-1" d="M428.921,597.617A37.183,37.183,0,0,0,411.36,612.28a16.012,16.012,0,0,0-2.059,4.575,9.184,9.184,0,0,0,.16,4.831,19.006,19.006,0,0,1,1.08,4.472,5.623,5.623,0,0,1-1.788,4.237,14.61,14.61,0,0,1-5.042,2.894c-2.009.794-4.109,1.587-5.6,3.219-.181.2-.477-.095-.3-.292,2.6-2.838,6.746-3.13,9.755-5.356a5.7,5.7,0,0,0,2.56-4.308,14.746,14.746,0,0,0-1.01-4.561,9.8,9.8,0,0,1-.332-4.718,14.8,14.8,0,0,1,1.875-4.637,36.076,36.076,0,0,1,7.22-8.659,37.843,37.843,0,0,1,10.933-6.76c.248-.1.355.3.109.4Z" transform="translate(-317.945 -446.415)"/>
      <path id="Path_541" data-name="Path 541" class="cls-1" d="M437.37,621a5.579,5.579,0,0,1-1.217-7.121c.137-.23.5-.027.363.2a5.166,5.166,0,0,0,1.145,6.621C437.868,620.87,437.575,621.166,437.37,621Z" transform="translate(-342.739 -457.339)"/>
      <path id="Path_542" data-name="Path 542" class="cls-1" d="M430.792,660.174a10.752,10.752,0,0,0,7.049-3.423c.182-.2.478.1.3.292a11.184,11.184,0,0,1-7.342,3.547C430.528,660.611,430.526,660.195,430.792,660.174Z" transform="translate(-339.588 -485.621)"/>
      <path id="Path_543" data-name="Path 543" class="cls-1" d="M466.089,610.107a3.158,3.158,0,0,0,2.75,1.19c.267-.024.268.393,0,.416a3.539,3.539,0,0,1-3.045-1.31.215.215,0,0,1,0-.294A.209.209,0,0,1,466.089,610.107Z" transform="translate(-362.751 -454.883)"/>
      <path id="Path_544" data-name="Path 544" class="cls-4" d="M445.119,665.248c-.166.02-.333.039-.5.062a41.581,41.581,0,0,0-6.606,1.365c-.168.046-.337.1-.5.147a43.842,43.842,0,0,0-14.312,7.464,42.571,42.571,0,0,0-4.765,4.375c-2.037,2.178-4.072,4.7-6.634,6.041a7.3,7.3,0,0,1-.821.378l-13.8-6.822c-.024-.031-.049-.059-.073-.091l-.563-.247c.07-.087.145-.175.216-.262.041-.05.084-.1.125-.15.028-.033.056-.066.08-.1l.027-.03c.023-.031.048-.058.07-.087q.626-.743,1.264-1.479s0,0,.006,0a62.6,62.6,0,0,1,10.852-10.063c.121-.085.243-.174.37-.256a40.631,40.631,0,0,1,5.724-3.345,35.952,35.952,0,0,1,3.357-1.393,29.867,29.867,0,0,1,9.181-1.706c6.241-.166,12.466,1.665,16.966,5.877C444.894,665.031,445.006,665.137,445.119,665.248Z" transform="translate(-317.145 -487.17)"/>
      <path id="Path_545" data-name="Path 545" class="cls-1" d="M445.413,674.465a37.183,37.183,0,0,0-22.849,1.134,16.012,16.012,0,0,0-4.4,2.413,9.183,9.183,0,0,0-2.781,3.953,19.01,19.01,0,0,1-1.83,4.221,5.623,5.623,0,0,1-3.979,2.306,14.61,14.61,0,0,1-5.768-.725c-2.082-.576-4.236-1.206-6.411-.8-.264.049-.324-.363-.061-.412,3.784-.7,7.271,1.562,11.014,1.6a5.694,5.694,0,0,0,4.638-1.9,14.746,14.746,0,0,0,1.94-4.25,9.8,9.8,0,0,1,2.575-3.967,14.8,14.8,0,0,1,4.289-2.574,36.075,36.075,0,0,1,10.979-2.567,37.844,37.844,0,0,1,12.8,1.185C445.827,674.148,445.67,674.534,445.413,674.465Z" transform="translate(-317.556 -496.227)"/>
      <path id="Path_546" data-name="Path 546" class="cls-1" d="M478.135,665.591a5.579,5.579,0,0,1,3.316-6.418c.248-.1.416.28.168.381a5.166,5.166,0,0,0-3.072,5.976C478.609,665.791,478.2,665.85,478.135,665.591Z" transform="translate(-370.827 -487.249)"/>
      <path id="Path_547" data-name="Path 547" class="cls-1" d="M450.492,697.43a10.753,10.753,0,0,0,7.689,1.511c.264-.048.324.364.061.412a11.184,11.184,0,0,1-8-1.588C450.018,697.619,450.268,697.286,450.492,697.43Z" transform="translate(-352.481 -512.451)"/>
      <path id="Path_548" data-name="Path 548" class="cls-1" d="M512.9,673.315a3.158,3.158,0,0,0,1.479,2.606c.228.142-.022.475-.248.334a3.538,3.538,0,0,1-1.643-2.879.215.215,0,0,1,.175-.236.209.209,0,0,1,.236.175Z" transform="translate(-393.562 -496.464)"/>
      <path id="Path_549" data-name="Path 549" class="cls-5" d="M516.63,400.091a3.328,3.328,0,0,0-.437-5.084l5.432-26.287-5.86,1.849L511.395,396a3.345,3.345,0,0,0,5.235,4.091Z" transform="translate(-392.523 -295.828)"/>
      <path id="Path_550" data-name="Path 550" class="cls-4" d="M531.511,249.329l-3.63-2.74s-3.2-.227-3.769,5.548-4.118,27.938-4.118,27.938L514.439,305.8l7.689,1.688,5.949-27.764,5.955-19.154Z" transform="translate(-394.849 -215.333)"/>
      <path id="Path_551" data-name="Path 551" class="cls-6" d="M521.774,334.146l-17.412-13.539a1.3,1.3,0,0,1-.228-1.82l11.847-15.237a1.3,1.3,0,0,1,1.82-.228l17.412,13.539a1.3,1.3,0,0,1,.228,1.82l-11.847,15.237A1.3,1.3,0,0,1,521.774,334.146Z" transform="translate(-387.877 -252.546)"/>
      <path id="Path_552" data-name="Path 552" class="cls-1" d="M524.457,335.512l-15.935-12.391a1.153,1.153,0,0,1-.2-1.616l10.74-13.813a1.153,1.153,0,0,1,1.616-.2l15.935,12.391a1.153,1.153,0,0,1,.2,1.616l-10.74,13.813A1.153,1.153,0,0,1,524.457,335.512Z" transform="translate(-390.656 -255.314)"/>
      <path id="Path_553" data-name="Path 553" class="cls-7" d="M515.294,338.31a.288.288,0,0,1-.051-.4l5.418-6.968a.288.288,0,0,1,.455.353L515.7,338.26A.288.288,0,0,1,515.294,338.31Z" transform="translate(-395.339 -270.853)"/>
      <path id="Path_554" data-name="Path 554" class="cls-7" d="M517.928,340.358a.288.288,0,0,1-.051-.4l5.418-6.968a.288.288,0,0,1,.455.353l-5.418,6.968A.288.288,0,0,1,517.928,340.358Z" transform="translate(-397.075 -272.203)"/>
      <path id="Path_555" data-name="Path 555" class="cls-7" d="M529.565,338.459a.288.288,0,0,1-.051-.4l2.349-3.021a.288.288,0,0,1,.455.353l-2.349,3.021A.288.288,0,0,1,529.565,338.459Z" transform="translate(-404.745 -273.553)"/>
      <path id="Path_556" data-name="Path 556" class="cls-7" d="M533.117,340.418a.288.288,0,0,1-.051-.4l8.553-11a.288.288,0,1,1,.454.353l-8.553,11A.288.288,0,0,1,533.117,340.418Z" transform="translate(-407.086 -269.585)"/>
      <path id="Path_557" data-name="Path 557" class="cls-7" d="M535.751,342.466a.288.288,0,0,1-.05-.4l8.553-11a.288.288,0,0,1,.455.353l-8.553,11A.288.288,0,0,1,535.751,342.466Z" transform="translate(-408.822 -270.935)"/>
      <path id="Path_558" data-name="Path 558" class="cls-7" d="M541.73,347.115a.288.288,0,0,1-.051-.4l8.553-11a.288.288,0,0,1,.455.353l-8.553,11a.288.288,0,0,1-.4.051Z" transform="translate(-412.763 -273.999)"/>
      <path id="Path_559" data-name="Path 559" class="cls-7" d="M544.364,349.163a.288.288,0,0,1-.051-.4l8.553-11a.288.288,0,0,1,.455.353l-8.553,11A.288.288,0,0,1,544.364,349.163Z" transform="translate(-414.499 -275.349)"/>
      <path id="Path_560" data-name="Path 560" class="cls-7" d="M550.343,353.813a.288.288,0,0,1-.051-.4l8.553-11a.288.288,0,1,1,.455.353l-8.553,11A.288.288,0,0,1,550.343,353.813Z" transform="translate(-418.439 -278.413)"/>
      <path id="Path_561" data-name="Path 561" class="cls-7" d="M552.977,355.86a.288.288,0,0,1-.051-.4l8.553-11a.288.288,0,0,1,.455.353l-8.553,11A.288.288,0,0,1,552.977,355.86Z" transform="translate(-420.175 -279.763)"/>
      <circle id="Ellipse_113" data-name="Ellipse 113" class="cls-1" cx="0.118" cy="0.118" r="0.118" transform="translate(118.388 88.637)"/>
      <path id="Path_562" data-name="Path 562" class="cls-8" d="M555.687,162.34a28.462,28.462,0,0,1-2.031,6.481c-5.343,11.3,9.873,7.619,15.311,7.619,5.946,0,11.634,3.126,10.765-10.765-.371-5.934-4.82-10.765-10.765-10.765C563.89,154.909,556.749,157.167,555.687,162.34Z" transform="translate(-419.959 -154.909)"/>
      <path id="Path_563" data-name="Path 563" class="cls-5" d="M438.886,470.311h-5.066l-2.411-19.539h7.476Z" transform="translate(-284.334 -297.096)"/>
      <path id="Path_564" data-name="Path 564" class="cls-8" d="M590.531,664.13H586.9l-.648-3.43-1.661,3.43h-9.635a2.166,2.166,0,0,1-1.231-3.948l7.694-5.314V651.4l8.093.483Z" transform="translate(-433.306 -482.138)"/>
      <path id="Path_565" data-name="Path 565" class="cls-5" d="M507.479,459.021l-4.065,3.023L489.82,447.8l6-4.462Z" transform="translate(-322.831 -292.199)"/>
      <path id="Path_566" data-name="Path 566" class="cls-8" d="M696.072,642.4l-2.915,2.168L690.59,642.2l.714,3.743-7.732,5.749a2.166,2.166,0,0,1-3.344-2.434l3-8.855-2.069-2.782,6.782-4.442Z" transform="translate(-504.042 -470.13)"/>
      <path id="Path_567" data-name="Path 567" class="cls-5" d="M404.675,209.26l24.047-3.745-4.782-14.386H404.675Z" transform="translate(-266.714 -125.97)"/>
      <path id="Path_568" data-name="Path 568" class="cls-8" d="M588.121,367.291s9.611,8.3,5.177,31.976l-5.414,23.195,14.75,25.608-7.5,4.091L576.957,426.9l-8.318-19.511-4.4-34.195Z" transform="translate(-427.672 -294.886)"/>
      <path id="Path_569" data-name="Path 569" class="cls-8" d="M425.824,346.3l-.578,8.953,1.692,26.512,8.4,2.893,1.591-27.164Z" transform="translate(-280.272 -228.241)"/>
      <path id="Path_570" data-name="Path 570" class="cls-4" d="M561.9,226.8l9.3.363,3.7,6.149,8.452,1.65-5.046,25.526.928,14.529-8.416-.051a24.617,24.617,0,0,0-16.471,6.188h0l.252-18.86-3.62-14.078.814-14.762,6.8-.85Z" transform="translate(-418.933 -202.294)"/>
      <circle id="Ellipse_114" data-name="Ellipse 114" class="cls-5" cx="8.748" cy="8.748" r="8.748" transform="translate(139.371 4.032)"/>
      <path id="Path_571" data-name="Path 571" class="cls-8" d="M571.416,163.408a10.021,10.021,0,0,1,15.235,8.745c-4.458,1.119-9.141,1.976-13.894.268l-1.123-2.748-.662,2.75c-1.448.592-2.9,1.092-4.351-.006a10.232,10.232,0,0,1,4.794-9.01Z" transform="translate(-429.238 -159.545)"/>
      <path id="Path_572" data-name="Path 572" class="cls-3" d="M641.082,416.7l1.179,10.7a1.306,1.306,0,0,0,1.249.922h5.436a1.306,1.306,0,0,0,1.249-.922l.977-8.2a1.984,1.984,0,1,0,.512-3.732,1.3,1.3,0,0,0-.991-.458H642.33a1.306,1.306,0,0,0-1.249,1.691Zm10.26,1.945.6-1.945a1.293,1.293,0,0,0,.02-.691c.026,0,.05-.008.075-.008a1.417,1.417,0,1,1,0,2.833A1.4,1.4,0,0,1,651.342,418.647Z" transform="translate(-478.279 -326.338)"/>
      <path id="Path_573" data-name="Path 573" class="cls-5" d="M655.89,393.395a3.327,3.327,0,0,1,.463-5.081L651.055,362l5.851,1.878,4.241,25.453a3.345,3.345,0,0,1-5.256,4.065Z" transform="translate(-484.89 -291.398)"/>
      <path id="Path_574" data-name="Path 574" class="cls-4" d="M630.416,253.484l3.63-2.74s3.2-.227,3.769,5.548,4.118,27.938,4.118,27.938l5.555,25.727-7.689,1.688-5.949-27.764-5.955-19.154Z" transform="translate(-469.625 -218.071)"/>
      <circle id="Ellipse_115" data-name="Ellipse 115" class="cls-3" cx="2.055" cy="2.055" r="2.055" transform="translate(127.407 55.257)"/>
      <path id="Path_575" data-name="Path 575" class="cls-5" d="M187.544,546.074h4.282l2.037-16.517h-6.32Z" transform="translate(-123.606 -349.021)"/>
      <path id="Path_576" data-name="Path 576" class="cls-8" d="M347.992,725.114H349.2L353.9,723.2l2.522,1.913h0a5.375,5.375,0,0,1,5.374,5.374v.175H347.992Z" transform="translate(-285.147 -529.459)"/>
      <path id="Path_577" data-name="Path 577" class="cls-5" d="M236.221,538.943l4.177.943,5.626-15.663-6.165-1.392Z" transform="translate(-155.689 -344.588)"/>
      <path id="Path_578" data-name="Path 578" class="cls-8" d="M395.287,719.2l1.176.265,5.012-.83,2.039,2.422h0a5.375,5.375,0,0,1,4.059,6.426l-.039.17-13.469-3.041Z" transform="translate(-315.513 -526.452)"/>
      <path id="Path_579" data-name="Path 579" class="cls-8" d="M328.2,469.456l3.872,43.385s-1.451,26.046,3.231,35.212h6.79l3.362-37.591.422-25.231,14.557,21.287-9.272,40.921,8.357.747,15.046-44.408-16.53-41.689Z" transform="translate(-272.102 -357.365)"/>
      <circle id="Ellipse_116" data-name="Ellipse 116" class="cls-9" cx="9.987" cy="9.987" r="9.987" transform="translate(50.167 23.028)"/>
      <path id="Path_580" data-name="Path 580" class="cls-6" d="M327.126,293.981l-8.193-3.515-3.988-4.23-9.963,1.607-2.643,4.533-8.557,7.957,10.026,45.333-.3,9.9s6.417,2.889,34.246-3.762c.334-.08-.365-.429-.365-.429Z" transform="translate(-249.417 -241.464)"/>
      <path id="Path_581" data-name="Path 581" class="cls-8" d="M309.081,267.814q-.1-.142-.207-.287c-.027.058-.049.118-.081.175Z" transform="translate(-259.312 -229.133)"/>
      <path id="Path_582" data-name="Path 582" class="cls-8" d="M328.809,221.038a6.372,6.372,0,0,0-3.334-3.221,6.084,6.084,0,0,0-4.561,0,9.187,9.187,0,0,0-4.332-1.577,4.845,4.845,0,0,0-4.13,1.753,6.748,6.748,0,0,1-.722.937,3.521,3.521,0,0,1-2.945.462l1.369,1.173L308.5,221l1.933,1.173a6.07,6.07,0,0,0-2.5,5.8,12.266,12.266,0,0,0,2.446,5.748,7.834,7.834,0,0,0,.373-3.4c-.008-1.219.207-2.6,1.184-3.283a3.908,3.908,0,0,1,2.3-.476,105.666,105.666,0,0,1,11.986.748,3.375,3.375,0,0,1,1.535.445c.88.6,1.051,1.839,1.139,2.925a21.2,21.2,0,0,0,.677-5.495A10.128,10.128,0,0,0,328.809,221.038Z" transform="translate(-258.721 -195.328)"/>
      <circle id="Ellipse_117" data-name="Ellipse 117" class="cls-1" cx="15.718" cy="15.718" r="15.718" transform="translate(57.479 111.068)"/>
      <path id="Path_583" data-name="Path 583" class="cls-6" d="M347.292,479.674a16.146,16.146,0,0,0-2.412.181c-.411.06-.809.137-1.2.231a16.059,16.059,0,0,0-6.808,27.873c.269.227.541.447.824.657a16.064,16.064,0,1,0,9.6-28.942Zm0,31.436a15.28,15.28,0,0,1-9.082-2.979c-.286-.21-.562-.426-.831-.657a15.36,15.36,0,0,1,6.853-26.794c.391-.08.782-.143,1.181-.192a15.2,15.2,0,0,1,1.879-.115,15.369,15.369,0,1,1,0,30.738Z" transform="translate(-274.095 -368.956)"/>
      <rect id="Rectangle_201" data-name="Rectangle 201" class="cls-3" width="17.465" height="2.096" rx="1.048" transform="translate(81.929 123.642) rotate(180)"/>
      <rect id="Rectangle_202" data-name="Rectangle 202" class="cls-3" width="17.465" height="2.096" rx="1.048" transform="translate(81.929 127.834) rotate(180)"/>
      <rect id="Rectangle_203" data-name="Rectangle 203" class="cls-3" width="17.465" height="2.096" rx="1.048" transform="translate(81.929 132.025) rotate(180)"/>
      <path id="Path_584" data-name="Path 584" class="cls-10" d="M717.709,542.959h-4.49l-2.136-17.319h6.627Z" transform="translate(-468.662 -346.439)"/>
      <path id="Path_585" data-name="Path 585" class="cls-10" d="M655.4,542.959h-4.49l-2.136-17.319H655.4Z" transform="translate(-427.594 -346.439)"/>
      <path id="Path_586" data-name="Path 586" class="cls-8" d="M805.63,730.663H791.822v-.175a5.375,5.375,0,0,1,5.374-5.374h0l2.522-1.913,4.706,1.914h1.205Z" transform="translate(-577.667 -529.459)"/>
      <path id="Path_587" data-name="Path 587" class="cls-8" d="M869.63,730.663H855.822v-.175a5.375,5.375,0,0,1,5.374-5.374h0l2.522-1.913,4.706,1.914h1.205Z" transform="translate(-619.848 -529.459)"/>
      <path id="Path_588" data-name="Path 588" class="cls-8" d="M804.627,425.146,797.8,466.7l1.857,6.192-2.437,4.385L800.8,515.79l-1.453,3.2,4.059,2.5h8.259l.438-34.867,2.04-5.119v-2.821l4.153-21.261.765,29.775,1.208,5.127-1.015,3.651,1.326,2.558,3.522,23.718h9.261l-.716-5.518h0a4.078,4.078,0,0,0,2.141-4.513l-.531-2.419,1.209-7.151,2.2-39.9-.621-32.191-10.834-8.284Z" transform="translate(-581.227 -331.128)"/>
      <circle id="Ellipse_219" data-name="Ellipse 219" class="cls-10" cx="8.604" cy="8.604" r="8.604" transform="translate(230.44 23.451)"/>
      <path id="Path_589" data-name="Path 589" class="cls-10" d="M797.35,443.735a3.683,3.683,0,0,0-.59-5.617l3.346-12.653-6.446,2.168-2.189,11.683a3.7,3.7,0,0,0,5.879,4.418Z" transform="translate(-577.105 -333.228)"/>
      <path id="Path_1101" data-name="Path 1101" class="cls-4" d="M800.9,300.305l-1.384-.287-1.18.653s-3.3,4.4-3.3,8.424-4.029,42.852-4.029,42.852l7.325,3.3,5.86-30.4Z" transform="translate(-577.131 -250.548)"/>
      <path id="Path_1104" data-name="Path 1104" class="cls-8" d="M852.7,217.627s2.25-4.3-2.7-4.693c0,0-4.221-3.829-8.523-.7a4.321,4.321,0,0,0-3.63,2.655,1.61,1.61,0,0,0-2.251,1.173,12.234,12.234,0,0,0,0,7.431c1.35,3.52,1.8,3.911,1.8,3.911s-2.219-7.38,3.182-7.771,11.446-3.767,11.9.535,1.128,5.362,1.128,5.362S857.88,219.387,852.7,217.627Z" transform="translate(-606.124 -191.88)"/>
      <path id="Path_590" data-name="Path 590" class="cls-1" d="M923.668,492.3a2.633,2.633,0,0,1-1.76-.672l-26.04-23.18a2.655,2.655,0,0,1-.218-3.745l16.681-18.74a2.655,2.655,0,0,1,3.745-.218l26.04,23.18a2.652,2.652,0,0,1,.218,3.744l-16.681,18.74a2.634,2.634,0,0,1-1.827.885C923.773,492.3,923.72,492.3,923.668,492.3Z" transform="translate(-645.657 -346.156)"/>
      <path id="Path_591" data-name="Path 591" class="cls-6" d="M923.338,492.146a2.8,2.8,0,0,1-1.873-.714l-26.04-23.18a2.827,2.827,0,0,1-.232-3.986l16.681-18.74a2.827,2.827,0,0,1,3.986-.232l26.04,23.18a2.823,2.823,0,0,1,.231,3.986L925.451,491.2a2.805,2.805,0,0,1-1.945.942C923.45,492.144,923.394,492.146,923.338,492.146Zm-9.353-46.882a2.136,2.136,0,0,0-1.6.717L895.7,464.719a2.144,2.144,0,0,0,.176,3.023l26.04,23.18a2.141,2.141,0,0,0,3.023-.176l16.681-18.74a2.141,2.141,0,0,0-.176-3.023l-26.04-23.18a2.132,2.132,0,0,0-1.422-.541Z" transform="translate(-645.328 -345.827)"/>
      <path id="Path_592" data-name="Path 592" class="cls-3" d="M965.091,491.928a1.143,1.143,0,0,1-.763-.29l-20.44-18.2a1.148,1.148,0,0,1,1.526-1.715l20.44,18.2a1.147,1.147,0,0,1-.764,2Z" transform="translate(-677.638 -363.527)"/>
      <path id="Path_593" data-name="Path 593" class="cls-3" d="M953.656,504.775a1.143,1.143,0,0,1-.763-.29l-20.44-18.2a1.148,1.148,0,0,1,1.526-1.714l20.44,18.2a1.147,1.147,0,0,1-.764,2Z" transform="translate(-670.101 -371.995)"/>
      <path id="Path_594" data-name="Path 594" class="cls-3" d="M942.219,517.623a1.142,1.142,0,0,1-.763-.29l-20.44-18.195a1.148,1.148,0,0,1,1.526-1.715l20.44,18.2a1.147,1.147,0,0,1-.764,2Z" transform="translate(-662.563 -380.463)"/>
      <path id="Path_595" data-name="Path 595" class="cls-10" d="M914.486,445.744a3.683,3.683,0,0,1,2.015-5.276l.022-13.088,5.672,3.754-.891,11.853a3.7,3.7,0,0,1-6.818,2.757Z" transform="translate(-658.205 -334.49)"/>
      <path id="Path_1100" data-name="Path 1100" class="cls-4" d="M911.969,306.659l2.534-2.442,1.861,1.343s1.831,2.2,3.3,8.79,0,42.852,0,42.852l-8.058-1.1,1.1-19.045-3.3-16.115Z" transform="translate(-655.164 -253.315)"/>
      <path id="Path_596" data-name="Path 596" class="cls-6" d="M855.525,287.536l-8.536-4.078-5.8-5.376L830.625,278l-3.409,4.432-9,3.057,1.5,31.035-1.023,2.386s.713.644,1.038,1-.45,3.374-.45,3.374l-.437,3.279,1.213.866L818.48,329.3l-.391,2.935s27.517-6.839,32.717,4.491c.275.6-.4-5.252-.4-5.252l-.676-4.283.671-3.844,1.023-1.023-1.715-1.715,1.1-8.139Z" transform="translate(-594.979 -236.039)"/>
      <path id="Path_597" data-name="Path 597" class="cls-9" d="M340.161,470.56a3.954,3.954,0,0,0-2.9-5.326l-1.9-13.924-5.5,4.806,2.644,12.486a3.976,3.976,0,0,0,7.65,1.958Z" transform="translate(-273.201 -350.261)"/>
      <path id="Path_1101-2" data-name="Path 1101" class="cls-6" d="M291.109,326.838l-1.49.285-.9,1.134s-1.457,5.716.2,9.711,13.663,44.148,13.663,44.148l8.621.25-6.716-32.556Z" transform="translate(-245.69 -268.224)"/>
      <path id="Path_598" data-name="Path 598" class="cls-9" d="M391.293,463.8a3.954,3.954,0,0,1,.7-6.023l-3.432-13.627,6.894,2.41,2.2,12.571a3.976,3.976,0,0,1-6.368,4.669Z" transform="translate(-311.888 -345.54)"/>
      <path id="Path_1101-3" data-name="Path 1101" class="cls-6" d="M380.291,309.773l1.489-.291,1.259.716s3.483,4.76,3.432,9.086,3.783,46.059,3.783,46.059l-7.906,3.446-5.907-32.712Z" transform="translate(-303.897 -256.785)"/>
    </g>
  </g>
</svg>
