<svg xmlns="http://www.w3.org/2000/svg" xmlns:xlink="http://www.w3.org/1999/xlink" width="419.887" height="481" viewBox="0 0 419.887 481">
  <defs>
    <style>
      .cls-1 {
        fill: #fff;
      }

      .cls-2 {
        fill: none;
        stroke: #2e2e2e;
        stroke-linecap: round;
        stroke-width: 2px;
        stroke-dasharray: 3 10;
      }

      .cls-3 {
        fill: #15ceff;
      }

      .cls-4 {
        fill: #f2f2f2;
      }

      .cls-5 {
        fill: #e6e6e6;
      }

      .cls-6 {
        fill: #3f3d56;
      }

      .cls-7 {
        fill: #ffb6b6;
      }

      .cls-8 {
        fill: #2f2e41;
      }

      .cls-9 {
        fill: #ccc;
      }

      .cls-10 {
        fill: #cacaca;
      }

      .cls-11 {
        fill: #9e616a;
      }

      .cls-12 {
        filter: url(#Polygon_1);
      }
    </style>
    <filter id="Polygon_1" x="0" y="0" width="419.887" height="481" filterUnits="userSpaceOnUse">
      <feOffset input="SourceAlpha"/>
      <feGaussianBlur stdDeviation="3" result="blur"/>
      <feFlood flood-opacity="0.161"/>
      <feComposite operator="in" in2="blur"/>
      <feComposite in="SourceGraphic"/>
    </filter>
  </defs>
  <g id="Group_384" data-name="Group 384" transform="translate(-243.954 -687)">
    <g id="Group_378" data-name="Group 378" transform="translate(-563.046 537)">
      <g class="cls-12" transform="matrix(1, 0, 0, 1, 807, 150)">
        <path id="Polygon_1-2" data-name="Polygon 1" class="cls-1" d="M318.928,0a49,49,0,0,1,42.459,24.542l87.524,151.943a49,49,0,0,1,0,48.916L361.387,377.345a49,49,0,0,1-42.459,24.542H144.072a49,49,0,0,1-42.459-24.542L14.089,225.4a49,49,0,0,1,0-48.916L101.613,24.542A49,49,0,0,1,144.073,0Z" transform="translate(410.89 9) rotate(90)"/>
      </g>
      <path id="Path_326" data-name="Path 326" class="cls-2" d="M330.178,0a49,49,0,0,1,42.459,24.542L463.911,183a49,49,0,0,1,0,48.916L372.637,390.365a49,49,0,0,1-42.459,24.542H147.822a49,49,0,0,1-42.459-24.542L14.089,231.911a49,49,0,0,1,0-48.916L105.363,24.542A49,49,0,0,1,147.822,0Z" transform="translate(1223.953 151.5) rotate(90)"/>
    </g>
    <g id="undraw_team_collaboration_re_ow29" transform="translate(305.582 844.683)">
      <path id="Path_351" data-name="Path 351" class="cls-3" d="M164.329,614.465l-.922,4.628c-.07.354-.142.714-.221,1.071a4.513,4.513,0,0,0-2.319.129,21.642,21.642,0,0,1,1.592,2.663A9.8,9.8,0,0,1,159.6,627.6a7.178,7.178,0,0,1-6.934,1.219l.041-.183c-1.535-2.979-.7-6.735,1.207-9.487a18.445,18.445,0,0,1,3.428-3.624c1.289-1.074,2.682-2.038,4.063-2.989a1.892,1.892,0,0,1,2.929,1.927Z" transform="translate(-145.596 -481.144)"/>
      <path id="a4b268fa-75d0-4ac1-9d87-14bdca948464-2189" class="cls-4" d="M154.03,660.262a37.124,37.124,0,0,1-.515-8.552,13.45,13.45,0,0,1,2.593-7.052,11.732,11.732,0,0,1,3.01-2.727c.3-.19.578.287.278.476a11.152,11.152,0,0,0-4.411,5.322,17.855,17.855,0,0,0-.948,7.7c.1,1.569.312,3.128.526,4.685a.284.284,0,0,1-.193.339.277.277,0,0,1-.339-.193Z" transform="translate(-146.635 -501.45)"/>
      <path id="Path_352" data-name="Path 352" class="cls-3" d="M164.9,248.486q20.3-.353,40.6-.1t40.589,1.113q11.384.483,22.759,1.157c.609.036.607-.912,0-.948q-20.267-1.2-40.564-1.795t-40.6-.58q-11.394.008-22.788.207A.474.474,0,0,0,164.9,248.486Z" transform="translate(-154.169 -231.542)"/>
      <path id="Path_353" data-name="Path 353" class="cls-5" d="M463.436,229.166l5.918-.44c.6-.045.609-.993,0-.948l-5.918.44C462.832,228.263,462.827,229.211,463.436,229.166Z" transform="translate(-358.396 -218.165)"/>
      <path id="Path_354" data-name="Path 354" class="cls-5" d="M463.436,247.166l5.918-.44c.6-.045.609-.993,0-.948l-5.918.44C462.832,246.263,462.827,247.211,463.436,247.166Z" transform="translate(-358.396 -230.478)"/>
      <path id="Path_355" data-name="Path 355" class="cls-5" d="M462.03,239.9l8.414.764c.607.055.6-.893,0-.948l-8.414-.764C461.423,238.895,461.427,239.843,462.03,239.9Z" transform="translate(-357.435 -225.807)"/>
      <path id="Path_356" data-name="Path 356" class="cls-5" d="M172.355,228.141a2.1,2.1,0,0,0-1.938,1.265,1.887,1.887,0,0,0,.434,2.242,2.244,2.244,0,0,0,2.126.432,1.9,1.9,0,0,0,1.271-1.783,2.119,2.119,0,0,0-1.32-2.044.476.476,0,0,0-.583.331.487.487,0,0,0,.331.583c.083.032-.075-.041,0,0,.032.017.064.033.1.051s.052.033.078.05c.088.058-.043-.042.013.01s.1.089.142.139c.017.019.083.071.032.035s-.015-.021,0,0l.035.051a1.69,1.69,0,0,1,.1.174l.02.042c.013.026.033.033,0,0s-.011-.029,0,0,.015.039.021.059a1.828,1.828,0,0,1,.056.2c.007.03.013.061.018.092.021.109,0-.068,0,.013s.009.134.008.2q0,.047,0,.093c0,.015,0,.031,0,.046,0,.074-.005-.027.005-.034a.876.876,0,0,0-.043.195c-.008.029-.019.058-.028.087-.033.1.031-.055,0,.014a1.732,1.732,0,0,1-.1.174c-.015.023-.074.076-.026.04s-.027.029-.044.047-.044.045-.067.066a.536.536,0,0,1-.047.041s.079-.055.035-.027-.11.074-.169.106c-.007,0-.083.039-.082.04s.1-.035.028-.013l-.043.015a1.547,1.547,0,0,1-.192.051c-.015,0-.031,0-.045.008-.049.013.047-.007.05-.006a.413.413,0,0,0-.108.01,1.761,1.761,0,0,1-.2,0l-.047,0c-.036,0-.063-.028-.015,0s.034.006,0,0l-.046-.008a1.836,1.836,0,0,1-.2-.048c-.035-.011-.069-.023-.1-.035a.276.276,0,0,1-.044-.017s.089.042.042.017-.12-.059-.178-.094c-.031-.019-.06-.039-.09-.059a.292.292,0,0,1-.038-.027s.073.063.035.027-.1-.087-.145-.136l-.031-.034-.01-.011q-.039-.047,0,0c.025.007.024.035,0,0l-.026-.038a.991.991,0,0,1-.1-.175s.041.114.011.027l-.017-.049q-.016-.049-.029-.1c-.008-.033-.012-.068-.021-.1-.014-.056.008.044.006.042s0-.056-.005-.068c0-.074,0-.147.006-.22,0-.057,0,.045-.006.042a.161.161,0,0,1,.009-.05c.009-.039.017-.078.027-.116s.026-.088.042-.131c.006-.016.013-.032.018-.048.02-.06-.039.072-.007.018.045-.074.079-.154.127-.227.011-.017.08-.114.044-.065s.037-.043.051-.059c.058-.065.126-.118.187-.18.036-.037-.025.018-.028.021l.056-.04q.049-.034.1-.064c.039-.023.083-.04.121-.064s-.034.012-.035.013a.351.351,0,0,1,.063-.024c.037-.013.2-.082.23-.06,0,0-.121.01-.024,0l.069,0c.046,0,.092,0,.139,0a.477.477,0,0,0,.474-.474.484.484,0,0,0-.474-.474Z" transform="translate(-158.126 -218.414)"/>
      <path id="Path_357" data-name="Path 357" class="cls-5" d="M193.355,228.141a2.1,2.1,0,0,0-1.938,1.265,1.887,1.887,0,0,0,.434,2.242,2.244,2.244,0,0,0,2.126.432,1.9,1.9,0,0,0,1.271-1.783,2.119,2.119,0,0,0-1.32-2.044.476.476,0,0,0-.583.331.487.487,0,0,0,.331.583c.083.032-.075-.041,0,0,.032.017.064.033.1.051s.052.033.078.05c.088.058-.043-.042.013.01s.1.089.142.139c.017.019.083.071.032.035s-.015-.021,0,0l.035.051a1.686,1.686,0,0,1,.1.174l.02.042c.013.026.033.033,0,0s-.011-.029,0,0,.015.039.021.059a1.828,1.828,0,0,1,.056.2c.007.03.013.061.018.092.021.109,0-.068,0,.013s.009.134.008.2q0,.047,0,.093c0,.015,0,.031,0,.046,0,.074-.005-.027.005-.034a.876.876,0,0,0-.043.195c-.008.029-.019.058-.028.087-.033.1.031-.055,0,.014a1.735,1.735,0,0,1-.1.174c-.015.023-.074.076-.026.04s-.027.029-.044.047-.044.045-.067.066a.539.539,0,0,1-.047.041s.079-.055.035-.027-.11.074-.169.106c-.007,0-.083.039-.082.04s.1-.035.028-.013l-.043.015a1.548,1.548,0,0,1-.193.051c-.015,0-.031,0-.045.008-.049.013.047-.007.05-.006a.413.413,0,0,0-.108.01,1.761,1.761,0,0,1-.2,0l-.047,0c-.036,0-.063-.028-.015,0s.034.006,0,0l-.046-.008a1.837,1.837,0,0,1-.2-.048c-.035-.011-.069-.023-.1-.035a.276.276,0,0,1-.044-.017s.089.042.042.017-.12-.059-.178-.094c-.031-.019-.06-.039-.09-.059a.292.292,0,0,1-.038-.027s.073.063.035.027-.1-.087-.145-.136l-.031-.034-.01-.011q-.039-.047,0,0c.025.007.024.035,0,0l-.026-.038a.991.991,0,0,1-.1-.175s.041.114.011.027l-.017-.049q-.016-.049-.029-.1c-.008-.033-.012-.068-.021-.1-.014-.056.008.044.006.042s0-.056-.005-.068c0-.074,0-.147.006-.22,0-.057,0,.045-.006.042a.161.161,0,0,1,.009-.05c.009-.039.017-.078.027-.116s.026-.088.042-.131c.006-.016.013-.032.018-.048.02-.06-.039.072-.007.018.045-.074.079-.154.127-.227.011-.017.08-.114.044-.065s.037-.043.051-.059c.058-.065.126-.118.187-.18.036-.037-.025.018-.028.021l.056-.04q.049-.034.1-.064c.039-.023.083-.04.121-.064s-.034.012-.035.013a.351.351,0,0,1,.063-.024c.037-.013.2-.082.23-.06,0,0-.121.01-.024,0l.069,0c.046,0,.092,0,.139,0a.477.477,0,0,0,.474-.474.484.484,0,0,0-.474-.474Z" transform="translate(-172.492 -218.414)"/>
      <path id="Path_358" data-name="Path 358" class="cls-5" d="M214.355,228.141a2.1,2.1,0,0,0-1.938,1.265,1.887,1.887,0,0,0,.434,2.242,2.244,2.244,0,0,0,2.126.432,1.9,1.9,0,0,0,1.271-1.783,2.119,2.119,0,0,0-1.32-2.044.476.476,0,0,0-.583.331.487.487,0,0,0,.331.583c.083.032-.075-.041,0,0,.032.017.064.033.1.051s.052.033.078.05c.088.058-.043-.042.013.01s.1.089.142.139c.017.019.083.071.032.035s-.015-.021,0,0l.035.051a1.693,1.693,0,0,1,.1.174l.02.042c.013.026.033.033,0,0s-.011-.029,0,0,.015.039.021.059a1.821,1.821,0,0,1,.056.2c.007.03.013.061.019.092.021.109,0-.068,0,.013s.009.134.008.2q0,.047,0,.093c0,.015,0,.031,0,.046,0,.074-.005-.027.005-.034a.876.876,0,0,0-.043.195c-.008.029-.019.058-.028.087-.033.1.031-.055,0,.014a1.734,1.734,0,0,1-.1.174c-.015.023-.074.076-.026.04s-.027.029-.044.047-.044.045-.067.066a.542.542,0,0,1-.047.041s.079-.055.035-.027-.11.074-.169.106c-.007,0-.083.039-.082.04s.1-.035.028-.013l-.043.015a1.548,1.548,0,0,1-.193.051c-.015,0-.031,0-.045.008-.049.013.047-.007.05-.006a.413.413,0,0,0-.108.01,1.761,1.761,0,0,1-.2,0l-.047,0c-.036,0-.063-.028-.015,0s.034.006,0,0l-.046-.008a1.838,1.838,0,0,1-.2-.048c-.035-.011-.069-.023-.1-.035a.277.277,0,0,1-.044-.017s.089.042.042.017-.12-.059-.178-.094c-.031-.019-.06-.039-.09-.059a.291.291,0,0,1-.038-.027s.073.063.035.027-.1-.087-.145-.136l-.031-.034-.01-.011q-.039-.047,0,0c.025.007.024.035,0,0l-.026-.038a.99.99,0,0,1-.1-.175s.041.114.011.027c-.006-.017-.012-.033-.017-.049q-.016-.049-.029-.1c-.008-.033-.012-.068-.021-.1-.014-.056.008.044.006.042s0-.056-.005-.068c0-.074,0-.147.006-.22,0-.057,0,.045-.006.042a.161.161,0,0,1,.009-.05c.009-.039.017-.078.027-.116s.026-.088.042-.131c.006-.016.013-.032.018-.048.02-.06-.039.072-.007.018.045-.074.079-.154.127-.227.011-.017.08-.114.044-.065s.037-.043.051-.059c.058-.065.126-.118.187-.18.036-.037-.025.018-.028.021l.056-.04q.049-.034.1-.064c.039-.023.083-.04.121-.064s-.034.012-.035.013a.351.351,0,0,1,.063-.024c.037-.013.2-.082.23-.06,0,0-.121.01-.024,0l.069,0c.046,0,.092,0,.139,0a.477.477,0,0,0,.474-.474.484.484,0,0,0-.474-.474Z" transform="translate(-186.858 -218.414)"/>
      <path id="Path_359" data-name="Path 359" class="cls-3" d="M258.666,312.031H142.436a5.55,5.55,0,0,1-5.544-5.543V202.9a5.55,5.55,0,0,1,5.544-5.544H258.666a5.55,5.55,0,0,1,5.544,5.544V306.488A5.55,5.55,0,0,1,258.666,312.031ZM142.436,197.984a4.917,4.917,0,0,0-4.912,4.912V306.488a4.917,4.917,0,0,0,4.912,4.912H258.666a4.917,4.917,0,0,0,4.912-4.912V202.9a4.917,4.917,0,0,0-4.912-4.912Z" transform="translate(-135.326 -197.352)"/>
      <path id="Path_360" data-name="Path 360" class="cls-5" d="M152.839,417.718l40.874-.124,40.665-.124,22.939-.07a.474.474,0,0,0,0-.948l-40.874.124-40.665.124-22.939.07a.474.474,0,0,0,0,.948Z" transform="translate(-145.922 -347.234)"/>
      <path id="Path_361" data-name="Path 361" class="cls-5" d="M217.048,384.721,217.3,369.8a.474.474,0,0,0-.948,0l-.253,14.923A.474.474,0,0,0,217.048,384.721Z" transform="translate(-189.51 -315.006)"/>
      <path id="Path_362" data-name="Path 362" class="cls-5" d="M278.883,365.325l.616-18.758.176-5.359c.02-.61-.928-.609-.948,0l-.616,18.758-.176,5.359C277.915,365.935,278.863,365.935,278.883,365.325Z" transform="translate(-231.81 -295.448)"/>
      <path id="Path_363" data-name="Path 363" class="cls-5" d="M339.5,313.065c-.372,6.644-1.059,26.24-1.43,32.884-.034.609.914.607.948,0,.371-6.644,1.059-26.24,1.43-32.884C340.487,312.456,339.539,312.458,339.5,313.065Z" transform="translate(-272.95 -276.197)"/>
      <path id="Path_364" data-name="Path 364" class="cls-5" d="M403.724,387.573l-.116,6.386a.474.474,0,0,0,.948,0c.137-7.542.489-7.3.528-9.425a.474.474,0,0,0-.948,0S403.861,380.031,403.724,387.573Z" transform="translate(-317.78 -324.487)"/>
      <path id="Path_365" data-name="Path 365" class="cls-5" d="M464.088,342.95l.107,17.915.031,5.13a.474.474,0,0,0,.948,0l-.107-17.915-.031-5.13a.474.474,0,0,0-.948,0Z" transform="translate(-359.153 -296.639)"/>
      <path id="Path_366" data-name="Path 366" class="cls-3" d="M151.6,349.79c-.785-2.156.984-4.229,2.8-5.161,2.177-1.116,4.681-1.369,6.881-2.445,3.28-1.6,5.669-4.483,7.795-7.365,2.188-2.966,4.19-6.15,6.97-8.614a13.962,13.962,0,0,1,5.076-2.938,17.5,17.5,0,0,1,7.333-.492c5.061.616,9.752,2.706,14.635,4.035,4.6,1.253,9.676,1.957,14.195.009,2.3-.99,4.173-2.649,6.19-4.085a20.629,20.629,0,0,1,6.447-3.11,19.173,19.173,0,0,1,13.713,1.208,18.4,18.4,0,0,1,8.678,9.159c2,4.783,1.741,10.127,1.087,15.161-.169,1.3-.37,2.6-.574,3.894-.094.6.819.854.914.252.814-5.191,1.626-10.546.613-15.77a19.1,19.1,0,0,0-7.055-11.492,19.6,19.6,0,0,0-12.925-4.079,21.191,21.191,0,0,0-7.1,1.579,29.362,29.362,0,0,0-6.345,3.919,16.646,16.646,0,0,1-6.783,3.348,20.21,20.21,0,0,1-7.578-.157c-5.128-.958-9.908-3.155-14.993-4.28-4.711-1.043-9.794-1.147-14.013,1.514-3.245,2.047-5.538,5.225-7.738,8.294-2.181,3.042-4.39,6.295-7.58,8.373-1.946,1.268-4.133,1.735-6.309,2.448s-4.277,1.92-5.167,4.156a4.042,4.042,0,0,0-.083,2.892c.207.569,1.123.323.914-.252Z" transform="translate(-144.606 -279.84)"/>
      <path id="Path_367" data-name="Path 367" class="cls-5" d="M86.168,166.9h0Z" transform="translate(-58.945 -114.176)"/>
      <path id="Path_368" data-name="Path 368" class="cls-5" d="M215.656,359.424a1.883,1.883,0,0,0-2.282-.845,1.658,1.658,0,0,0-.944.879c-.018.043-.029.088-.044.132s-.045.063-.064.1a1.882,1.882,0,0,0,2.935,2.249A2.027,2.027,0,0,0,215.656,359.424Zm-1.187.8C214.473,360.253,214.471,360.275,214.469,360.229Zm-.121-.274Zm-.532.214Zm.126.107C213.972,360.285,213.96,360.283,213.942,360.275Zm.056.027.012-.006-.009,0h.006s.005,0,.006,0c.056-.026.018-.013-.014,0h0a.215.215,0,0,0-.065-.021l-.006,0c-.018-.013-.11-.085-.025-.009-.019-.016-.037-.032-.054-.05a.247.247,0,0,1-.028-.034l-.032-.058,0-.011c0-.009,0-.012,0-.018s0-.011,0-.017a.2.2,0,0,0,.012-.053l0,0c.014-.019.026-.041.039-.061-.069.1.027-.012.034-.026s0,0,0,0l.005,0c.021-.013.041-.027.063-.038s.127-.043.022-.013c.024-.007.047-.015.071-.022l.059-.01h.058c-.017,0,.06.019.083.023l.01.008c.019.014.043.027.064.04-.092-.059,0,0,.019.022l.03.033a.254.254,0,0,1,.024.033c.015.028.031.055.047.082l0,.007a.026.026,0,0,0,0,0,.747.747,0,0,0,.036.129.105.105,0,0,1,0,.011c0,.024,0,.048,0,.072v0A.519.519,0,0,0,214,360.3Z" transform="translate(-186.789 -307.567)"/>
      <path id="Path_369" data-name="Path 369" class="cls-5" d="M218.114,364.255s0,0,0,0Z" transform="translate(-190.888 -311.527)"/>
      <path id="Path_370" data-name="Path 370" class="cls-5" d="M218.113,364.255h0Z" transform="translate(-190.888 -311.527)"/>
      <path id="Path_371" data-name="Path 371" class="cls-5" d="M218.111,364.257h0Z" transform="translate(-190.885 -311.528)"/>
      <path id="Path_372" data-name="Path 372" class="cls-5" d="M86.177,166.9Z" transform="translate(-58.952 -114.174)"/>
      <path id="Path_373" data-name="Path 373" class="cls-5" d="M150.168,138.9h0Z" transform="translate(-102.726 -95.022)"/>
      <path id="Path_374" data-name="Path 374" class="cls-5" d="M279.656,331.424a1.883,1.883,0,0,0-2.282-.845,1.657,1.657,0,0,0-.944.879c-.018.043-.029.088-.044.132s-.045.063-.064.1a1.882,1.882,0,0,0,2.935,2.249A2.027,2.027,0,0,0,279.656,331.424Zm-1.187.8C278.472,332.253,278.471,332.275,278.469,332.229Zm-.121-.274Zm-.532.214Zm.126.107C277.972,332.285,277.96,332.283,277.942,332.275Zm.056.027.012-.006-.009,0h.006s.005,0,.006,0c.056-.026.018-.013-.014,0h0a.215.215,0,0,0-.065-.021l-.006,0c-.018-.013-.11-.085-.025-.009-.019-.016-.037-.032-.054-.05a.245.245,0,0,1-.028-.034l-.032-.058,0-.01c0-.009,0-.012,0-.018s0-.011,0-.017a.205.205,0,0,0,.012-.053l0,0c.014-.019.026-.041.039-.061-.069.1.027-.012.034-.026s0,0,0,0l.005,0c.021-.013.041-.026.063-.038s.127-.043.022-.013c.024-.007.047-.015.071-.022l.059-.01h.058c-.017,0,.06.019.083.023l.01.008c.019.014.043.027.064.04-.092-.059,0,0,.019.022l.03.033a.252.252,0,0,1,.024.033c.015.028.031.055.047.082l0,.007v0a.75.75,0,0,0,.036.129.106.106,0,0,1,0,.011c0,.024,0,.048,0,.072v0a.519.519,0,0,0-.473,0Z" transform="translate(-230.57 -288.413)"/>
      <path id="Path_375" data-name="Path 375" class="cls-5" d="M282.111,336.257h0Z" transform="translate(-234.666 -292.374)"/>
      <path id="Path_376" data-name="Path 376" class="cls-5" d="M150.177,138.9Z" transform="translate(-102.733 -95.02)"/>
      <path id="Path_377" data-name="Path 377" class="cls-5" d="M282.114,336.255s0,0,0,0Z" transform="translate(-234.669 -292.373)"/>
      <path id="Path_378" data-name="Path 378" class="cls-5" d="M282.113,336.255h0Z" transform="translate(-234.669 -292.372)"/>
      <path id="Path_379" data-name="Path 379" class="cls-5" d="M212.177,152.9Z" transform="translate(-145.146 -104.597)"/>
      <path id="Path_380" data-name="Path 380" class="cls-5" d="M341.656,303.424a1.883,1.883,0,0,0-2.282-.845,1.658,1.658,0,0,0-.944.879c-.018.043-.029.088-.044.132s-.045.063-.064.1a1.882,1.882,0,0,0,2.935,2.249A2.027,2.027,0,0,0,341.656,303.424Zm-1.187.8C340.472,304.253,340.471,304.275,340.469,304.229Zm-.121-.274Zm-.532.214Zm.126.107C339.972,304.285,339.96,304.283,339.942,304.275Zm.056.027.012-.006-.009,0h.006s.005,0,.006,0c.056-.026.018-.013-.014,0h0a.215.215,0,0,0-.065-.021l-.006,0c-.018-.013-.11-.085-.025-.009-.019-.016-.037-.032-.054-.05a.249.249,0,0,1-.028-.034l-.032-.058,0-.01c0-.009,0-.012,0-.018s0-.011,0-.017a.2.2,0,0,0,.012-.053l0,0c.014-.019.026-.041.039-.061-.069.1.027-.012.034-.026s0,0,0,0l.005,0c.021-.013.041-.026.063-.038s.127-.043.022-.013c.024-.007.047-.015.071-.022l.059-.01h.058c-.017,0,.06.019.083.023l.01.008c.019.014.043.027.064.04-.092-.059,0,0,.019.022l.03.033a.257.257,0,0,1,.024.033c.015.028.031.055.047.082l0,.007a.02.02,0,0,0,0,0,.751.751,0,0,0,.036.129.106.106,0,0,1,0,.011c0,.024,0,.048,0,.072v0a.519.519,0,0,0-.473,0Z" transform="translate(-272.983 -269.259)"/>
      <path id="Path_381" data-name="Path 381" class="cls-5" d="M212.168,152.9h0Z" transform="translate(-145.139 -104.599)"/>
      <path id="Path_382" data-name="Path 382" class="cls-5" d="M344.113,350.255h0Z" transform="translate(-277.082 -301.95)"/>
      <path id="Path_383" data-name="Path 383" class="cls-5" d="M344.111,350.257h0Z" transform="translate(-277.079 -301.951)"/>
      <path id="Path_384" data-name="Path 384" class="cls-5" d="M344.114,350.255s0,0,0,0Z" transform="translate(-277.082 -301.95)"/>
      <path id="Path_385" data-name="Path 385" class="cls-5" d="M404.656,380.424a1.884,1.884,0,0,0-2.282-.845,1.658,1.658,0,0,0-.944.879c-.018.043-.029.088-.044.132s-.045.063-.064.1a1.882,1.882,0,0,0,2.935,2.249,2.027,2.027,0,0,0,.4-2.514Zm-1.187.8C403.473,381.253,403.471,381.275,403.469,381.229Zm-.121-.274Zm-.532.214Zm.126.107C402.972,381.285,402.96,381.283,402.942,381.275Zm.056.027.012-.006-.009,0h.006s.005,0,.006,0c.056-.026.018-.013-.014,0h0a.215.215,0,0,0-.065-.021l-.006,0c-.018-.013-.11-.085-.025-.009-.018-.016-.037-.032-.054-.05a.247.247,0,0,1-.028-.034l-.032-.058,0-.01c0-.009,0-.012,0-.018s0-.011,0-.017a.2.2,0,0,0,.012-.053l0,0c.014-.019.026-.041.039-.061-.069.1.027-.012.034-.026s0,0,0,0l.005,0c.021-.013.041-.026.063-.038s.127-.043.022-.013c.024-.007.047-.015.071-.022l.059-.01h.058c-.017,0,.06.019.083.023l.01.008c.019.014.043.027.064.04-.092-.059,0,0,.019.022l.03.033a.26.26,0,0,1,.024.033c.015.028.031.055.047.082l0,.007v0a.752.752,0,0,0,.036.129s0,.007,0,.011c0,.024,0,.048,0,.072v0A.519.519,0,0,0,403,381.3Z" transform="translate(-316.08 -321.933)"/>
      <path id="Path_386" data-name="Path 386" class="cls-5" d="M275.168,121.9h0Z" transform="translate(-188.236 -83.393)"/>
      <path id="Path_387" data-name="Path 387" class="cls-5" d="M407.113,319.255h0Z" transform="translate(-320.179 -280.743)"/>
      <path id="Path_388" data-name="Path 388" class="cls-5" d="M407.111,319.257h0Z" transform="translate(-320.176 -280.744)"/>
      <path id="Path_389" data-name="Path 389" class="cls-5" d="M407.114,319.255s0,0,0,0Z" transform="translate(-320.179 -280.743)"/>
      <path id="Path_390" data-name="Path 390" class="cls-5" d="M275.177,121.9Z" transform="translate(-188.243 -83.391)"/>
      <path id="Path_391" data-name="Path 391" class="cls-5" d="M466.113,339.255h0Z" transform="translate(-360.539 -294.425)"/>
      <path id="Path_392" data-name="Path 392" class="cls-5" d="M463.656,334.424a1.883,1.883,0,0,0-2.282-.845,1.658,1.658,0,0,0-.944.879c-.018.043-.029.088-.044.132s-.045.063-.064.1a1.882,1.882,0,0,0,2.935,2.249,2.027,2.027,0,0,0,.4-2.514Zm-1.187.8C462.473,335.253,462.471,335.275,462.469,335.229Zm-.121-.274Zm-.532.214Zm.126.107C461.972,335.285,461.96,335.283,461.942,335.275Zm.056.027.013-.006-.009,0h.006s.005,0,.006,0c.056-.026.018-.013-.014,0h0a.215.215,0,0,0-.065-.021l-.006,0c-.018-.013-.11-.085-.025-.009-.018-.016-.037-.032-.054-.05a.249.249,0,0,1-.028-.034l-.032-.058,0-.01c0-.009,0-.012,0-.018s0-.011,0-.017a.2.2,0,0,0,.012-.053l0,0c.014-.019.026-.041.039-.061-.069.1.027-.011.034-.026s0,0,0,0l.005,0c.021-.013.041-.026.063-.038s.127-.043.022-.013c.024-.007.047-.015.071-.022l.059-.01h.058c-.017,0,.06.019.083.023l.01.008c.019.014.043.027.064.04-.092-.059,0,0,.019.022l.03.033a.258.258,0,0,1,.024.033c.015.028.031.055.047.082l0,.007a.02.02,0,0,0,0,0,.747.747,0,0,0,.036.129.1.1,0,0,1,0,.011c0,.024,0,.048,0,.072v0A.519.519,0,0,0,462,335.3Z" transform="translate(-356.441 -290.465)"/>
      <path id="Path_393" data-name="Path 393" class="cls-5" d="M334.168,141.9h0Z" transform="translate(-228.597 -97.074)"/>
      <path id="Path_394" data-name="Path 394" class="cls-5" d="M334.177,141.9Z" transform="translate(-228.603 -97.072)"/>
      <path id="Path_395" data-name="Path 395" class="cls-5" d="M466.114,339.255s0,0,0,0Z" transform="translate(-360.539 -294.425)"/>
      <path id="Path_396" data-name="Path 396" class="cls-5" d="M466.111,339.257h0Z" transform="translate(-360.536 -294.426)"/>
      <path id="Path_397" data-name="Path 397" class="cls-6" d="M417.39,380.171l-14.689.816a.324.324,0,0,1-.07-.643l15.014-2.443Z" transform="translate(-316.926 -320.862)"/>
      <path id="Path_398" data-name="Path 398" class="cls-7" d="M504.854,468.436l5.535-9.313,4.091,1.932s-7.05,8.805-7.274,9.059a2.166,2.166,0,1,1-2.352-1.678Z" transform="translate(-385.722 -376.424)"/>
      <path id="Path_399" data-name="Path 399" class="cls-3" d="M514.127,420.126,523.1,424.8a4.965,4.965,0,0,1,.84,7.291l-6.183,7.092-2.693-3.65,2.076-4.341-4.02-1.06Z" transform="translate(-392.693 -349.747)"/>
      <path id="Path_400" data-name="Path 400" class="cls-7" d="M423.435,376.885l-1.01,10.787-4.525.008s2.6-10.977,2.69-11.3a2.166,2.166,0,1,1,2.844.508Z" transform="translate(-327.557 -317.424)"/>
      <path id="Path_401" data-name="Path 401" class="cls-3" d="M429.307,418.156l-10.414-1.91c-4.385-.527-6.185-3.413-5.394-6.227l2.547-9.058,4,2.143-.015,4.812,5.6-.765Z" transform="translate(-324.422 -336.637)"/>
      <path id="Path_402" data-name="Path 402" class="cls-7" d="M309.351,470.075h-2.864l-1.362-11.045h4.226Z" transform="translate(-208.73 -314.013)"/>
      <path id="Path_403" data-name="Path 403" class="cls-8" d="M431.687,690.495h-8.806v-.111a3.428,3.428,0,0,1,3.427-3.427h0l1.608-1.22,3,1.22h.769Z" transform="translate(-330.965 -531.444)"/>
      <path id="Path_404" data-name="Path 404" class="cls-7" d="M382.635,470.075H385.5l1.362-11.045h-4.226Z" transform="translate(-261.752 -314.013)"/>
      <path id="Path_405" data-name="Path 405" class="cls-8" d="M514.251,690.495h8.806v-.111a3.428,3.428,0,0,0-3.427-3.427h0l-1.609-1.22-3,1.22h-.769Z" transform="translate(-393.469 -531.444)"/>
      <path id="Path_406" data-name="Path 406" class="cls-8" d="M436.649,552.193c.042-.63.379-4.116.379-4.116l.805-7.392,1.42-19.594,1.265-5.15,6.263,2.44,5.082-2.436,6.041,1.931,4.7,1.764s.008.755.044,1.667a12.484,12.484,0,0,0,.334,3.038c.336.673.252,4.283.252,4.283s.334,7.346.755,8.151a5.6,5.6,0,0,1,.379,2.819c-.127.336.421,9.158.421,9.158s1.406,15.611.524,17.965-4.215.812-4.215.812.161-.628-.805-.924-3.91-22.431-3.91-22.431a43.006,43.006,0,0,0-1.051-5.839,33.281,33.281,0,0,1-.966-4.955s-3.109-6.049-3.149-7.394c0,0-.407-1.258-.791.127s-1.518,4.7-1.518,4.7l-1.105,4.075-1.3,6.089-.842,5.127s-1.26,6.8-1.462,7.1,0,6.51,0,6.51-.975,5.294-2.352,6.218-5.026.015-5.026.015S436.606,552.823,436.649,552.193Z" transform="translate(-340.379 -415.292)"/>
      <path id="Path_407" data-name="Path 407" class="cls-3" d="M442.836,426.485l-.8,10.368-1.2,1.244a1.16,1.16,0,0,0,.061,1.67h0l-.662,1.136L440,444.482a1.945,1.945,0,0,0,1.8,2.4l20.735.974a1.945,1.945,0,0,0,2.02-2.2l-1.763-13.273v-.992L462,429.473l.406-6.421.944-10.191-5.485-1.417L454.89,409.4l-5.167.082-3.135,2.575-4.18.655-3.161.628-.4.875.805-.175,2.919,11.386Z" transform="translate(-341.884 -342.408)"/>
      <circle id="Ellipse_100" data-name="Ellipse 100" class="cls-7" cx="6.087" cy="6.087" r="6.087" transform="translate(104.22 53.427)"/>
      <path id="Path_408" data-name="Path 408" class="cls-8" d="M461.406,375.419l4.4-.224a1.814,1.814,0,0,0,2.087-1.294c.407-.944.813-1.889,1.209-2.837a8.692,8.692,0,0,0,.946-4.113,2.618,2.618,0,0,0-.761-1.716,1.453,1.453,0,0,0-1.766-.179,2.986,2.986,0,0,0-1.482-2.152,4.576,4.576,0,0,0-2.61-.553,6.3,6.3,0,0,0-3.588,1.414,7.787,7.787,0,0,1-.915.725,1.437,1.437,0,0,1-1.117.207.808.808,0,0,1-.593-.881,1.556,1.556,0,0,0-.4,2.053,1.435,1.435,0,0,1-1.4-.166,1.715,1.715,0,1,0,1.8,2.9,2.015,2.015,0,0,1,.133,1.34c-.035.458.088,1.027.53,1.154.6.171,1.08-.633,1.7-.624a.934.934,0,0,1,.74.477,2.756,2.756,0,0,1,.3.865l.795,3.577" transform="translate(-352.567 -310.212)"/>
      <path id="Path_409" data-name="Path 409" class="cls-3" d="M782.543,562.265c0-.942-.317-1.707-.705-1.709H675.9c-.39,0-.705.767-.707,1.709v38.8a.352.352,0,0,1-.318.351q-.426.041-.853.076l-.021,0c-.155.014-.31.025-.464.037h0q-.119-.221-.236-.445a.354.354,0,0,1-.04-.163V560.048c0-.26.011-.522.028-.781a10,10,0,0,1,.132-1.059c.3-1.634.969-2.74,1.732-2.743H782.586a.823.823,0,0,1,.323.069,1.261,1.261,0,0,1,.4.28,2.473,2.473,0,0,1,.392.536,7.059,7.059,0,0,1,.74,2.8c0,.011,0,.021,0,.032.025.285.037.575.035.865l.025,3.768.016,2.247.047,7.051.018,2.5.077,25.708h0a.352.352,0,0,1-.352.352H782.9a.352.352,0,0,1-.352-.352Z" transform="translate(-502.24 -442.33)"/>
      <path id="Path_410" data-name="Path 410" class="cls-9" d="M902.032,499.652H890.617a.609.609,0,0,0-.608.61v18.033h12.633V500.262a.609.609,0,0,0-.61-.61ZM896.363,509.9a1.354,1.354,0,0,1-1.348-1.348v-2.08a1.348,1.348,0,0,1,2.7,0v2.08A1.354,1.354,0,0,1,896.363,509.9Z" transform="translate(-650.517 -404.149)"/>
      <path id="Path_411" data-name="Path 411" class="cls-6" d="M889.885,556.837v1.74a.341.341,0,0,0,.34.34h12.031a.342.342,0,0,0,.34-.34v-1.74Z" transform="translate(-650.432 -443.268)"/>
      <path id="Path_412" data-name="Path 412" class="cls-5" d="M878.816,410.571h-48.8a1.584,1.584,0,0,0-1.582,1.581V445.08a1.583,1.583,0,0,0,1.582,1.582h48.8a1.583,1.583,0,0,0,1.582-1.582V412.152A1.584,1.584,0,0,0,878.816,410.571Z" transform="translate(-608.397 -343.21)"/>
      <path id="Path_413" data-name="Path 413" class="cls-1" d="M880.884,414.186H832.9a.848.848,0,0,0-.846.848v32.112a.847.847,0,0,0,.846.846h47.982a.847.847,0,0,0,.846-.846V415.034a.848.848,0,0,0-.846-.848Z" transform="translate(-610.873 -345.684)"/>
      <path id="Path_414" data-name="Path 414" class="cls-9" d="M894.079,558.508H865.533a.525.525,0,0,1-.514-.633l.443-2.1a.527.527,0,0,1,.514-.417h27.661a.527.527,0,0,1,.514.417l.443,2.1a.525.525,0,0,1-.514.633Z" transform="translate(-633.414 -442.254)"/>
      <rect id="Rectangle_160" data-name="Rectangle 160" class="cls-5" width="0.879" height="0.528" rx="0.264" transform="translate(232.764 113.479)"/>
      <rect id="Rectangle_161" data-name="Rectangle 161" class="cls-5" width="0.879" height="0.528" rx="0.264" transform="translate(234.523 113.479)"/>
      <rect id="Rectangle_162" data-name="Rectangle 162" class="cls-5" width="0.879" height="0.528" rx="0.264" transform="translate(236.281 113.479)"/>
      <rect id="Rectangle_163" data-name="Rectangle 163" class="cls-5" width="0.879" height="0.528" rx="0.264" transform="translate(238.039 113.479)"/>
      <rect id="Rectangle_164" data-name="Rectangle 164" class="cls-5" width="0.879" height="0.528" rx="0.264" transform="translate(239.798 113.479)"/>
      <rect id="Rectangle_165" data-name="Rectangle 165" class="cls-5" width="0.879" height="0.528" rx="0.264" transform="translate(241.556 113.479)"/>
      <rect id="Rectangle_166" data-name="Rectangle 166" class="cls-5" width="0.879" height="0.528" rx="0.264" transform="translate(243.315 113.479)"/>
      <rect id="Rectangle_167" data-name="Rectangle 167" class="cls-5" width="0.879" height="0.528" rx="0.264" transform="translate(245.073 113.479)"/>
      <rect id="Rectangle_168" data-name="Rectangle 168" class="cls-5" width="0.879" height="0.528" rx="0.264" transform="translate(246.831 113.479)"/>
      <rect id="Rectangle_169" data-name="Rectangle 169" class="cls-5" width="0.879" height="0.528" rx="0.264" transform="translate(248.59 113.479)"/>
      <rect id="Rectangle_170" data-name="Rectangle 170" class="cls-5" width="0.879" height="0.528" rx="0.264" transform="translate(250.348 113.479)"/>
      <rect id="Rectangle_171" data-name="Rectangle 171" class="cls-5" width="0.879" height="0.528" rx="0.264" transform="translate(252.107 113.479)"/>
      <rect id="Rectangle_172" data-name="Rectangle 172" class="cls-5" width="0.879" height="0.528" rx="0.264" transform="translate(253.865 113.479)"/>
      <rect id="Rectangle_173" data-name="Rectangle 173" class="cls-5" width="0.879" height="0.528" rx="0.264" transform="translate(255.624 113.479)"/>
      <rect id="Rectangle_174" data-name="Rectangle 174" class="cls-5" width="0.879" height="0.528" rx="0.264" transform="translate(257.382 113.479)"/>
      <rect id="Rectangle_175" data-name="Rectangle 175" class="cls-5" width="0.879" height="0.528" rx="0.264" transform="translate(259.14 113.479)"/>
      <rect id="Rectangle_176" data-name="Rectangle 176" class="cls-5" width="0.879" height="0.528" rx="0.264" transform="translate(232.743 114.358)"/>
      <rect id="Rectangle_177" data-name="Rectangle 177" class="cls-5" width="0.879" height="0.528" rx="0.264" transform="translate(234.502 114.358)"/>
      <rect id="Rectangle_178" data-name="Rectangle 178" class="cls-5" width="0.879" height="0.528" rx="0.264" transform="translate(236.26 114.358)"/>
      <rect id="Rectangle_179" data-name="Rectangle 179" class="cls-5" width="0.879" height="0.528" rx="0.264" transform="translate(238.019 114.358)"/>
      <rect id="Rectangle_180" data-name="Rectangle 180" class="cls-5" width="0.879" height="0.528" rx="0.264" transform="translate(239.777 114.358)"/>
      <rect id="Rectangle_181" data-name="Rectangle 181" class="cls-5" width="0.879" height="0.528" rx="0.264" transform="translate(241.535 114.358)"/>
      <rect id="Rectangle_182" data-name="Rectangle 182" class="cls-5" width="0.879" height="0.528" rx="0.264" transform="translate(243.294 114.358)"/>
      <rect id="Rectangle_183" data-name="Rectangle 183" class="cls-5" width="0.879" height="0.528" rx="0.264" transform="translate(245.052 114.358)"/>
      <rect id="Rectangle_184" data-name="Rectangle 184" class="cls-5" width="0.879" height="0.528" rx="0.264" transform="translate(246.811 114.358)"/>
      <rect id="Rectangle_185" data-name="Rectangle 185" class="cls-5" width="0.879" height="0.528" rx="0.264" transform="translate(248.569 114.358)"/>
      <rect id="Rectangle_186" data-name="Rectangle 186" class="cls-5" width="0.879" height="0.528" rx="0.264" transform="translate(250.328 114.358)"/>
      <rect id="Rectangle_187" data-name="Rectangle 187" class="cls-5" width="0.879" height="0.528" rx="0.264" transform="translate(252.086 114.358)"/>
      <rect id="Rectangle_188" data-name="Rectangle 188" class="cls-5" width="0.879" height="0.528" rx="0.264" transform="translate(253.844 114.358)"/>
      <rect id="Rectangle_189" data-name="Rectangle 189" class="cls-5" width="0.879" height="0.528" rx="0.264" transform="translate(255.603 114.358)"/>
      <rect id="Rectangle_190" data-name="Rectangle 190" class="cls-5" width="0.879" height="0.528" rx="0.264" transform="translate(257.361 114.358)"/>
      <rect id="Rectangle_191" data-name="Rectangle 191" class="cls-5" width="0.879" height="0.528" rx="0.264" transform="translate(259.12 114.358)"/>
      <rect id="Rectangle_192" data-name="Rectangle 192" class="cls-5" width="7.034" height="0.528" rx="0.264" transform="translate(241.184 115.414)"/>
      <path id="Path_415" data-name="Path 415" class="cls-10" d="M881.375,427.418h-44.9a.179.179,0,1,1,0-.357h44.9a.179.179,0,1,1,0,.357Z" transform="translate(-613.776 -354.491)"/>
      <ellipse id="Ellipse_101" data-name="Ellipse 101" class="cls-9" cx="1.046" cy="1.07" rx="1.046" ry="1.07" transform="translate(224.713 69.519)"/>
      <ellipse id="Ellipse_102" data-name="Ellipse 102" class="cls-9" cx="1.046" cy="1.07" rx="1.046" ry="1.07" transform="translate(228.327 69.519)"/>
      <ellipse id="Ellipse_103" data-name="Ellipse 103" class="cls-9" cx="1.046" cy="1.07" rx="1.046" ry="1.07" transform="translate(231.942 69.519)"/>
      <path id="Path_416" data-name="Path 416" class="cls-9" d="M966.109,418.243h-2.568a.194.194,0,1,0,0,.389h2.568a.194.194,0,1,0,0-.389Z" transform="translate(-700.686 -348.459)"/>
      <path id="Path_417" data-name="Path 417" class="cls-9" d="M966.109,420.553h-2.568a.194.194,0,1,0,0,.389h2.568a.194.194,0,1,0,0-.389Z" transform="translate(-700.686 -350.039)"/>
      <path id="Path_418" data-name="Path 418" class="cls-9" d="M966.109,422.86h-2.568a.194.194,0,1,0,0,.389h2.568a.194.194,0,1,0,0-.389Z" transform="translate(-700.686 -351.617)"/>
      <rect id="Rectangle_193" data-name="Rectangle 193" class="cls-3" width="7.136" height="1.526" rx="0.763" transform="translate(242.403 82.654)"/>
      <rect id="Rectangle_194" data-name="Rectangle 194" class="cls-5" width="14.384" height="1.526" rx="0.763" transform="translate(238.779 85.706)"/>
      <rect id="Rectangle_195" data-name="Rectangle 195" class="cls-5" width="14.384" height="1.526" rx="0.763" transform="translate(238.779 88.758)"/>
      <path id="Path_419" data-name="Path 419" class="cls-7" d="M519.126,405.361l-2.586-1.237,3.553-10.81,3.817,1.825Z" transform="translate(-353.354 -269.058)"/>
      <path id="Path_420" data-name="Path 420" class="cls-7" d="M697.2,601.189c-.188.118-.376.234-.566.35-.378.232-.76.46-1.142.684l-.578.334v.006l-.011,0,0,0-.293.072-.42-1.109-.194-.511-.274-.724-.5-1.324L690.581,592l4.105-1.013.154.629h0l.076.312,1.434,5.817.293,1.189.01.036.177.711.152.615.169.688Z" transform="translate(-514.093 -466.629)"/>
      <path id="Path_421" data-name="Path 421" class="cls-8" d="M715.079,518.784c-.26.418-.526.834-.794,1.246q-.747,1.151-1.533,2.268s0,0,0,0a5.365,5.365,0,0,1-1.007.735c-.015.011-.032.019-.047.029a3.714,3.714,0,0,1-.847.34l-.321.08c-.384.091-.764.169-1.142.237q-1.009.18-2,.258c-.053.006-.106.009-.16.013a30.91,30.91,0,0,1-8.127-.648c-1.364-.258-2.756-.568-4.2-.889-.471-.106-.944-.211-1.423-.315l-.112-.025c-.684-.15-1.379-.3-2.091-.445-.9-.184-1.822-.363-2.783-.532l.068,1.354a10.2,10.2,0,0,0,.642,3.045,5.255,5.255,0,0,1,.049,4.128l-.331.957a3.27,3.27,0,0,1-.336,2.893l-.066.1,2.756,6.974.179.452h-1.411l-1.736,0h-2.943l-4.246-8.518-.2-.406V532.1l.439-16.369c.006-.144.017-.291.036-.435a4.977,4.977,0,0,1,1.894-3.351,4.793,4.793,0,0,1,3.569-.976l1.453.188,2.969.384,2.092.272.042.006,6.168.8.443-1.8.082-.03,2.6-.952,8.982-3.292.023-.008.591-.217.07.114c.021.034.042.068.061.1a17.6,17.6,0,0,1,1.419,3.294,51.718,51.718,0,0,1,1.491,5.693q.026.125.046.228l.006.021c.006.032.01.053.011.059A5.314,5.314,0,0,1,715.079,518.784Z" transform="translate(-507.479 -408.707)"/>
      <path id="Path_422" data-name="Path 422" class="cls-8" d="M697.768,507.2c-.029-.122-.065-.245-.1-.365a26,26,0,0,0-1.052-2.663c-.448-.988-.986-2.046-1.626-3.191q-.464-.832-1-1.731-.268-.45-.557-.918a.482.482,0,0,0-.025-.042l-.055-.091-8.887,1.189-3.309.443-.2,1.649-.047.408s0,0,0,0L680.777,503v0l-.177,1.47-.015,0-4.911-.636-5.061-.655-2.718-.351a4.79,4.79,0,0,0-3.569.976,4.979,4.979,0,0,0-1.894,3.351c-.017.133-.029.27-.034.4l-2.565,6.077a39.208,39.208,0,0,0-2.9,11.406l-1.881,6.012.268.025,3.985.37,1.052.1,2.318-3.383c.264-.386.515-.783.748-1.189a18.06,18.06,0,0,0,1.024-2.059l5.013-11.93q.581.1,1.151.19,2.636.428,5.061.7a59.63,59.63,0,0,0,13.86.135q1.707-.208,3.3-.547.584-.123,1.153-.264c.089-.021.177-.042.264-.065a4.848,4.848,0,0,0,3.391-3.169,4.946,4.946,0,0,0,.125-2.768Z" transform="translate(-489.789 -403.155)"/>
      <path id="Path_423" data-name="Path 423" class="cls-8" d="M638.176,619.851l-2.8-1.341-.439-.211-.7,1.721-4.893,1.077a1.161,1.161,0,0,0-.19,2.209l4.781,1.951,1.518-1.366-.372,1.833,1.8.735,1.974-6.282Z" transform="translate(-471.578 -485.313)"/>
      <path id="Path_424" data-name="Path 424" class="cls-8" d="M581.774,417.469l.179.452h-.179Z" transform="translate(-397.979 -285.582)"/>
      <path id="Path_425" data-name="Path 425" class="cls-8" d="M698.53,616.024,695.6,617.04l-.46.159.713,1.716-2.719,4.208a1.161,1.161,0,0,0,1.42,1.7l4.77-1.978.117-2.039,1.025,1.565,1.8-.745-3.018-5.853Z" transform="translate(-515.71 -483.588)"/>
      <path id="Path_426" data-name="Path 426" class="cls-7" d="M653.78,410.971a2.082,2.082,0,0,0,3.114.706l6.165,4.093.012-3.846-5.857-3.3a2.094,2.094,0,0,0-3.435,2.344Z" transform="translate(-488.755 -341.39)"/>
      <path id="Path_427" data-name="Path 427" class="cls-9" d="M668.874,416.141l2.877-3.273,11.713,6.953,15.526-1.422a5.25,5.25,0,0,1,5.707,5.712h0a5.256,5.256,0,0,1-5.712,4.744L681.5,427.238Z" transform="translate(-499.243 -344.782)"/>
      <path id="Path_428" data-name="Path 428" class="cls-9" d="M750.931,423.195l-.027-.034h0a11.344,11.344,0,0,0-10.979,5.689l-1.318,2.321c-4.262,5.211-1.165,8.8-.98,9.338l-1.479,6.821.332,2.283.166.678,16.887,8.824c.961-4.619.032-8.556-3.471-11.563l3.389-10.545a14.855,14.855,0,0,0-2.52-13.812Z" transform="translate(-545.264 -351.785)"/>
      <path id="Path_429" data-name="Path 429" class="cls-3" d="M725.514,563.635H720.1a1.237,1.237,0,0,1-1.224-1.064,27.543,27.543,0,0,1,0-7.418,1.238,1.238,0,0,1,1.2-1.064,6.777,6.777,0,0,1,5.456,0,1.223,1.223,0,0,1,.931.449,1.251,1.251,0,0,1,.258,1.043,16.652,16.652,0,0,0,0,6.561,1.251,1.251,0,0,1-.258,1.043A1.223,1.223,0,0,1,725.514,563.635Z" transform="translate(-533.275 -440.997)"/>
      <path id="Path_430" data-name="Path 430" class="cls-1" d="M728.153,563.048h-4.559a.285.285,0,1,1,0-.57h4.559a.285.285,0,1,1,0,.57Z" transform="translate(-536.481 -447.127)"/>
      <path id="Path_431" data-name="Path 431" class="cls-1" d="M728.153,570.264h-4.559a.285.285,0,1,1,0-.57h4.559a.285.285,0,0,1,0,.57Z" transform="translate(-536.481 -452.063)"/>
      <path id="Path_432" data-name="Path 432" class="cls-1" d="M728.153,577.48h-4.559a.285.285,0,1,1,0-.57h4.559a.285.285,0,1,1,0,.57Z" transform="translate(-536.481 -456.999)"/>
      <path id="Path_433" data-name="Path 433" class="cls-3" d="M642.514,401.635H637.1a1.238,1.238,0,0,1-1.224-1.064,27.543,27.543,0,0,1,0-7.418,1.238,1.238,0,0,1,1.2-1.064,6.777,6.777,0,0,1,5.456,0,1.223,1.223,0,0,1,.931.449,1.251,1.251,0,0,1,.258,1.043,16.65,16.65,0,0,0,0,6.561,1.251,1.251,0,0,1-.258,1.043A1.223,1.223,0,0,1,642.514,401.635Z" transform="translate(-476.497 -330.176)"/>
      <path id="Path_434" data-name="Path 434" class="cls-1" d="M645.153,401.048h-4.559a.285.285,0,1,1,0-.57h4.559a.285.285,0,1,1,0,.57Z" transform="translate(-479.702 -336.306)"/>
      <path id="Path_435" data-name="Path 435" class="cls-1" d="M645.153,408.264h-4.559a.285.285,0,1,1,0-.57h4.559a.285.285,0,0,1,0,.57Z" transform="translate(-479.702 -341.243)"/>
      <path id="Path_436" data-name="Path 436" class="cls-1" d="M645.153,415.48h-4.559a.285.285,0,1,1,0-.57h4.559a.285.285,0,1,1,0,.57Z" transform="translate(-479.702 -346.179)"/>
      <path id="Path_437" data-name="Path 437" class="cls-3" d="M341.514,445.635H336.1a1.237,1.237,0,0,1-1.224-1.064,27.543,27.543,0,0,1,0-7.418,1.238,1.238,0,0,1,1.2-1.064,6.777,6.777,0,0,1,5.456,0,1.223,1.223,0,0,1,.931.449,1.251,1.251,0,0,1,.258,1.043,16.652,16.652,0,0,0,0,6.561,1.251,1.251,0,0,1-.258,1.043A1.223,1.223,0,0,1,341.514,445.635Z" transform="translate(-270.589 -360.276)"/>
      <path id="Path_438" data-name="Path 438" class="cls-1" d="M344.153,445.048h-4.559a.285.285,0,0,1,0-.57h4.559a.285.285,0,1,1,0,.57Z" transform="translate(-273.795 -366.406)"/>
      <path id="Path_439" data-name="Path 439" class="cls-1" d="M344.153,452.264h-4.559a.285.285,0,0,1,0-.57h4.559a.285.285,0,1,1,0,.57Z" transform="translate(-273.795 -371.342)"/>
      <path id="Path_440" data-name="Path 440" class="cls-1" d="M344.153,459.48h-4.559a.285.285,0,0,1,0-.57h4.559a.285.285,0,1,1,0,.57Z" transform="translate(-273.795 -376.278)"/>
      <path id="Path_441" data-name="Path 441" class="cls-7" d="M738.6,542.951a2.082,2.082,0,0,0,.52-3.151l3.72-6.4L739,533.62l-2.944,6.042a2.094,2.094,0,0,0,2.544,3.29Z" transform="translate(-544.77 -427.238)"/>
      <path id="Path_442" data-name="Path 442" class="cls-9" d="M742.77,470.278l-3.437-2.677,6.246-12.1-2.34-15.414a5.25,5.25,0,0,1,5.364-6.035h0a5.256,5.256,0,0,1,5.074,5.42l-.578,17.552Z" transform="translate(-547.442 -359.268)"/>
      <path id="Path_443" data-name="Path 443" class="cls-11" d="M216.487,495.372a2.1,2.1,0,0,0-.292-3.206l3.343-16.6-3.692,1.185-2.676,16.061a2.111,2.111,0,0,0,3.317,2.565Z" transform="translate(-187.3 -387.669)"/>
      <path id="Path_444" data-name="Path 444" class="cls-9" d="M219.879,423.321l-2.291-1.729s-2.021-.143-2.379,3.5-1.093,10.746-1.093,10.746l-3.505,16.234,4.852,1.065,3.754-17.519,2.252-5.2Z" transform="translate(-185.756 -350.749)"/>
      <path id="Path_445" data-name="Path 445" class="cls-11" d="M96.057,294.058l12.908-.215,1.076-8.82H96.057Z" transform="translate(-65.711 -194.978)"/>
      <path id="Path_446" data-name="Path 446" class="cls-11" d="M132.827,460.54h2.98l1.418-11.494h-4.4Z" transform="translate(-90.863 -307.183)"/>
      <path id="Path_447" data-name="Path 447" class="cls-11" d="M73.738,461.347l2.98-.021,1.337-11.5-3.875.889Z" transform="translate(-50.443 -307.714)"/>
      <path id="Path_448" data-name="Path 448" class="cls-7" d="M101.776,258.056l-.675,1.755.135,1.756,13.214,4.577-.656-7.683-1.485-1.756Z" transform="translate(-69.161 -175.606)"/>
      <circle id="Ellipse_104" data-name="Ellipse 104" class="cls-11" cx="4.72" cy="4.72" r="4.72" transform="translate(33.565 57.213)"/>
      <path id="Path_449" data-name="Path 449" class="cls-8" d="M261.137,677.518l4.71-.281v2.018l4.478,3.093a1.261,1.261,0,0,1-.716,2.3H264l-.967-2-.377,2h-2.114Z" transform="translate(-219.913 -525.631)"/>
      <path id="Path_450" data-name="Path 450" class="cls-8" d="M201.268,678.342l4.708-.314.014,2.018,4.5,3.061a1.261,1.261,0,0,1-.7,2.3l-5.608.039-.981-1.99-.363,2-2.114.015Z" transform="translate(-178.992 -526.172)"/>
      <path id="Path_451" data-name="Path 451" class="cls-8" d="M201.267,547.4l2.17-17.343,2.582-18.286c-1.89-3.511,2.366-14.413,2.366-14.413l.6.029,13.6,2.566,0-.013c2.782,7.587,3.7,11.335,3.551,19.415l-.548,29.044h.172a1.076,1.076,0,0,1,0,2.151H220.38a1.076,1.076,0,1,1,0-2.151h.139l-4.937-34.583L211.4,528.335l-4.733,18.931c1.721-.43,1.454.567,1.454,1.131a1.076,1.076,0,0,1-1.076,1.076h-5.378a1.075,1.075,0,0,1-.4-2.074Z" transform="translate(-178.899 -402.579)"/>
      <path id="Path_452" data-name="Path 452" class="cls-9" d="M221.909,442.119l.43-4.3a.858.858,0,0,1,.776-.644c.179-2.05.934-10.892.979-11.277l0-.016.343-7.327a1.083,1.083,0,0,1,1.012-1.031l1.812-.118a.1.1,0,0,0,.093-.1,1.523,1.523,0,0,1,1.523-1.523h5.363a1.426,1.426,0,0,1,1.415,1.249.1.1,0,0,0,.1.085h0a2.548,2.548,0,0,1,2.563,2.113c.733,4.266,2.2,13.949,1.476,19.332-.253,1.874.292.39.388,1.958a1.154,1.154,0,0,1-.287.837.832.832,0,0,1,.5,1.058l.094-.023a.86.86,0,0,1-1.045.624l-14.032,1.9C224.95,444.8,221.792,442.58,221.909,442.119Z" transform="translate(-193.482 -346.777)"/>
      <path id="Path_453" data-name="Path 453" class="cls-11" d="M320.891,437.863a2.1,2.1,0,0,1-2.957,1.274l-5.425,4.951-.72-3.81,5.265-4.1a2.111,2.111,0,0,1,3.837,1.691Z" transform="translate(-254.969 -360.014)"/>
      <path id="Path_454" data-name="Path 454" class="cls-9" d="M268.375,424.136s-1.892-4.275-4.281-3.425-1.156,5-1.156,5l8.976,13.525s12.946-8.3,11.372-8.363-2.045-2.922-2.045-2.922l-6.842,3.419-.232-1.217-.371.371-.958-.754Z" transform="translate(-221.334 -350.071)"/>
      <circle id="Ellipse_105" data-name="Ellipse 105" class="cls-7" cx="6.589" cy="6.589" r="6.589" transform="translate(195.184 56.191)"/>
      <path id="Path_455" data-name="Path 455" class="cls-8" d="M774.834,385.642a5.714,5.714,0,0,1-3.141,2.211,6.571,6.571,0,0,1-1.564.266,5.91,5.91,0,0,0-.465-1.737,4.881,4.881,0,0,1-.241,1.733,5.809,5.809,0,0,1-2.286-.612,5.037,5.037,0,0,1-2.7-3.615c-.279-1.8.538-3.572.833-5.372s-.26-4.079-2.022-4.552c-1.341-.36-1.191-.2-2.306.623,1.16,1.715-3.125,8-4.878,7.453-.991-.31-1.626-1.22-1.831-1.22-1.378,2.374,1.217,6.374-1.4,7.2l.216-.215c1.579-1.942-1.721-6.052-.142-7.994a2.466,2.466,0,0,0,.779-1.874c-.123-.653-1.16-1-1.463-.462a2.467,2.467,0,0,0-1.595-3.241c-1.186-.286-1.164.066-2.354.22a5.906,5.906,0,0,0-.432-1.492,4.84,4.84,0,0,1-.178,1.52,1.909,1.909,0,0,1-1.154-.417,2.348,2.348,0,0,1,.092-3.32,5.958,5.958,0,0,1,3.385-1.427c.357-2.488,7.222-2.748,8.132-.262.388-1.856,2.712-2.82,4.518-2.244a6.376,6.376,0,0,1,3.72,4.041,40.83,40.83,0,0,1,1.251,5.54,9.16,9.16,0,0,0,2.508,5c1.415,1.26,3.72,1.678,5.21.507A4.173,4.173,0,0,1,774.834,385.642Z" transform="translate(-551.914 -313.166)"/>
      <path id="Path_456" data-name="Path 456" class="cls-3" d="M1006.328,469.465l-.922,4.628c-.069.354-.142.714-.221,1.071a4.514,4.514,0,0,0-2.319.13,21.637,21.637,0,0,1,1.592,2.663,9.8,9.8,0,0,1-2.862,4.644,7.178,7.178,0,0,1-6.934,1.219l.041-.183c-1.535-2.979-.7-6.735,1.207-9.487a18.444,18.444,0,0,1,3.428-3.624c1.289-1.074,2.682-2.038,4.063-2.989a1.892,1.892,0,0,1,2.929,1.927Z" transform="translate(-721.59 -381.953)"/>
      <path id="a4b268fa-75d0-4ac1-9d87-14bdca948464-2189-2" data-name="a4b268fa-75d0-4ac1-9d87-14bdca948464-2189" class="cls-4" d="M996.03,515.262a37.122,37.122,0,0,1-.515-8.552,13.449,13.449,0,0,1,2.593-7.052,11.731,11.731,0,0,1,3.01-2.727c.3-.19.578.287.278.476a11.152,11.152,0,0,0-4.411,5.322,17.857,17.857,0,0,0-.948,7.7c.1,1.569.312,3.128.526,4.685a.284.284,0,0,1-.193.339.277.277,0,0,1-.339-.193Z" transform="translate(-722.63 -402.258)"/>
      <path id="Path_457" data-name="Path 457" class="cls-3" d="M427.3,700.712l-294.992.1a.376.376,0,1,1,0-.752l294.992-.1a.376.376,0,1,1,0,.752Z" transform="translate(-131.934 -541.175)"/>
      <path id="Path_458" data-name="Path 458" class="cls-8" d="M190.9,371.551c-.724.347-1.534-.175-2.159-.693l.224.193a7.35,7.35,0,0,0-1.873,4.142c-.253,1.52-.281,3.075-.6,4.584a6.5,6.5,0,0,1-2.212,3.946c-1.652,1.237-3.93,1.158-5.958.778l-.079-.015a12.377,12.377,0,0,0,.652-4.907,11.254,11.254,0,0,1-2.7,4.428,25.837,25.837,0,0,1-3.923-1.43,3.121,3.121,0,0,1-1.93-1.767,2.354,2.354,0,0,1,1.01-2.324,12.967,12.967,0,0,1,2.384-1.223,3.609,3.609,0,0,0,1.925-1.777c.744-1.922-1.375-4.128-.549-6.017a4.049,4.049,0,0,1,2.342-1.824,34.385,34.385,0,0,1,4.4-1.484,9.618,9.618,0,0,1,4.028-.389,4,4,0,0,1,3.135,2.315,4.339,4.339,0,0,1,2.175,1.256A1.5,1.5,0,0,1,190.9,371.551Z" transform="translate(-158.173 -312.509)"/>
      <path id="Path_459" data-name="Path 459" class="cls-8" d="M237.3,374.671c-2.071-1.635-3.745-1.356-5.036-.34-.217-.242-1.141.423-1.454.328l-1.132,2.124a4.718,4.718,0,0,0-.727,2.667c-1.071,3,1.469,5.032,4.473,6.1a5.732,5.732,0,0,0,3.717.054l.037-.512.227.419s2.746,5.654,3.395,5.908c-.394-1.021-1.432-5.876-1.722-6.888a12.82,12.82,0,0,1,.108-4.905,7.6,7.6,0,0,0,.023-2.5l-.006-.036.642,1.3,1.442-.906C240.736,375.878,240.725,373.958,237.3,374.671Z" transform="translate(-198.131 -317.856)"/>
    </g>
  </g>
</svg>
