<svg id="JS" xmlns="http://www.w3.org/2000/svg" width="74" height="74" viewBox="0 0 74 74">
  <defs>
    <style>
      .cls-1 {
        fill: #f7df1e;
      }
    </style>
  </defs>
  <rect id="Rectangle_237" data-name="Rectangle 237" class="cls-1" width="74" height="74"/>
  <path id="Path_782" data-name="Path 782" d="M196.23,310.222c1.5,2.444,3.444,4.24,6.888,4.24,2.893,0,4.741-1.446,4.741-3.444,0-2.394-1.9-3.242-5.083-4.635l-1.746-.749c-5.039-2.147-8.386-4.836-8.386-10.521,0-5.237,3.99-9.223,10.226-9.223,4.439,0,7.631,1.545,9.931,5.591l-5.437,3.491c-1.2-2.147-2.489-2.992-4.494-2.992a3.038,3.038,0,0,0-3.341,2.992c0,2.095,1.3,2.943,4.293,4.24l1.746.748c5.933,2.544,9.282,5.138,9.282,10.969,0,6.286-4.938,9.73-11.57,9.73-6.485,0-10.674-3.09-12.724-7.14Zm-24.666.605c1.1,1.946,2.095,3.591,4.494,3.591,2.294,0,3.741-.9,3.741-4.388V286.289h6.982v23.837c0,7.23-4.239,10.521-10.426,10.521-5.591,0-8.828-2.893-10.475-6.378Z" transform="translate(-146.315 -252.171)"/>
</svg>
