<svg xmlns="http://www.w3.org/2000/svg" xmlns:xlink="http://www.w3.org/1999/xlink" viewBox="0 0 174.6 174.6"><defs><style>.cls-1{fill:url(#linear-gradient);}.cls-2,.cls-3{fill:none;stroke:#fff;stroke-linecap:round;stroke-miterlimit:10;}.cls-2{stroke-width:3px;}.cls-3{stroke-width:2px;}</style><linearGradient id="linear-gradient" y1="87.3" x2="174.6" y2="87.3" gradientUnits="userSpaceOnUse"><stop offset="0" stop-color="#41d692"/><stop offset="1" stop-color="#15ceff"/></linearGradient></defs><g id="BG"><circle class="cls-1" cx="87.3" cy="87.3" r="87.3"/></g><g id="Gloriosa"><path class="cls-2" d="M57.47,37.48,51.39,41A28.37,28.37,0,0,0,37.21,65.54V95.65a27.84,27.84,0,0,0,17,25.8L87.3,135.93l33.05-14.48a27.84,27.84,0,0,0,17-25.8V65.54A28.37,28.37,0,0,0,123.21,41l-6.08-3.51"/><path class="cls-2" d="M68.4,52.75a28.38,28.38,0,0,0-9.75,21.4v24A28.34,28.34,0,0,0,68.4,119.5l18.9,16.43,18.9-16.43A28.34,28.34,0,0,0,116,98.11v-24a28.38,28.38,0,0,0-9.75-21.4"/><line class="cls-2" x1="87.3" y1="135.93" x2="87.3" y2="33.63"/><line class="cls-2" x1="58.35" y1="136.27" x2="115.95" y2="136.27"/><polyline class="cls-2" points="103.17 149.28 87.3 136.62 71.43 149.28"/><circle class="cls-3" cx="87.3" cy="28.81" r="3.48"/><circle class="cls-3" cx="61.13" cy="35.77" r="3.48"/><circle class="cls-3" cx="51.03" cy="68.37" r="3.48"/><circle class="cls-3" cx="72.46" cy="80.71" r="3.48"/><circle class="cls-3" cx="71.46" cy="49.94" r="3.48"/><circle class="cls-3" cx="103.46" cy="49.94" r="3.48"/><circle class="cls-3" cx="113.13" cy="35.77" r="3.48"/><line class="cls-2" x1="59.65" y1="104.65" x2="70.53" y2="84.33"/><circle class="cls-3" cx="96.21" cy="94.74" r="3.48"/><line class="cls-2" x1="87.73" y1="110.59" x2="94.28" y2="98.35"/><line class="cls-2" x1="37.46" y1="93.7" x2="49.09" y2="71.97"/><circle class="cls-3" cx="123.38" cy="68.37" r="3.48"/><circle class="cls-3" cx="101.94" cy="80.71" r="3.48"/><line class="cls-2" x1="114.76" y1="104.65" x2="103.88" y2="84.33"/><line class="cls-2" x1="136.94" y1="93.7" x2="125.31" y2="71.97"/><circle class="cls-3" cx="78.24" cy="64.66" r="3.48"/><line class="cls-2" x1="86.73" y1="80.51" x2="80.18" y2="68.28"/></g></svg>