<svg id="Layer_1" data-name="Layer 1" xmlns="http://www.w3.org/2000/svg" xmlns:xlink="http://www.w3.org/1999/xlink" viewBox="0 0 500.52 51.23"><defs><style>.cls-1{fill:url(#linear-gradient);}.cls-2{fill:url(#linear-gradient-2);}.cls-3{fill:url(#linear-gradient-3);}.cls-4{fill:url(#linear-gradient-4);}.cls-5{fill:url(#linear-gradient-5);}.cls-6{fill:url(#linear-gradient-6);}.cls-7{fill:url(#linear-gradient-7);}.cls-8{fill:url(#linear-gradient-8);}.cls-9{fill:url(#linear-gradient-9);}</style><linearGradient id="linear-gradient" x1="25.27" y1="137.18" x2="534.79" y2="137.18" gradientUnits="userSpaceOnUse"><stop offset="0" stop-color="#41d692"/><stop offset="1" stop-color="#15ceff"/></linearGradient><linearGradient id="linear-gradient-2" x1="25.79" y1="137.18" x2="535.31" y2="137.18" xlink:href="#linear-gradient"/><linearGradient id="linear-gradient-3" x1="30.42" y1="137.18" x2="539.94" y2="137.18" xlink:href="#linear-gradient"/><linearGradient id="linear-gradient-4" x1="29.6" y1="137.18" x2="539.12" y2="137.18" xlink:href="#linear-gradient"/><linearGradient id="linear-gradient-5" x1="24.21" y1="137.18" x2="533.73" y2="137.18" xlink:href="#linear-gradient"/><linearGradient id="linear-gradient-6" x1="17.24" y1="137.18" x2="526.76" y2="137.18" xlink:href="#linear-gradient"/><linearGradient id="linear-gradient-7" x1="17.92" y1="137.18" x2="527.44" y2="137.18" xlink:href="#linear-gradient"/><linearGradient id="linear-gradient-8" x1="18.39" y1="137.18" x2="527.92" y2="137.18" xlink:href="#linear-gradient"/><linearGradient id="linear-gradient-9" x1="14.86" y1="137.18" x2="524.38" y2="137.18" xlink:href="#linear-gradient"/></defs><path class="cls-1" d="M38.68,162.79v-7.21L44,154.45V121.13H36.11l-.31,5.53H26.47v-15.1H74.08v15.1H64.65l-.28-5.53h-8v33.32l5.35,1.13v7.21Z" transform="translate(-26.47 -111.56)"/><path class="cls-2" d="M79.48,162.79v-7.21l5.31-1.13V119.94l-5.31-1.13v-7.25h23v7.25l-5.31,1.13v12.94h18.65V119.94l-5.32-1.13v-7.25h22.94v7.25l-5.31,1.13v34.51l5.31,1.13v7.21H110.47v-7.21l5.32-1.13v-12.1H97.14v12.1l5.31,1.13v7.21Z" transform="translate(-26.47 -111.56)"/><path class="cls-3" d="M139.06,162.79v-7.21l3.59-.53,15.27-43.49h13.37l15.3,43.49,3.59.53v7.21H171v-7.21l3.34-.64-1.55-5.56H156.37l-1.48,5.56,3.34.64v7.21ZM159,140.73h11.22l-5-15.52-.56-1.79h-.22l-.59,2Z" transform="translate(-26.47 -111.56)"/><path class="cls-4" d="M195.23,162.79v-7.21l3.59-.53,15.27-43.49h13.37l15.3,43.49,3.59.53v7.21H227.21v-7.21l3.34-.64L229,149.38H212.54l-1.48,5.56,3.34.64v7.21Zm19.91-22.06h11.23l-5-15.52-.56-1.79h-.21l-.6,2Z" transform="translate(-26.47 -111.56)"/><path class="cls-5" d="M252.53,162.79v-7.21l5.31-1.13V145.9L243,119.55l-5.35-.74v-7.25h22.17v7.25l-3.17.56,7,14,.81,1.8h.32l.84-1.69,8.23-14.15-5.35-.56v-7.25h21.75v7.25l-5.42.74-14.71,25.37v9.53l5.35,1.13v7.21Z" transform="translate(-26.47 -111.56)"/><path class="cls-6" d="M281.57,162.79v-7.21l3.59-.53,15.27-43.49H313.8l15.31,43.49,3.58.53v7.21H313.55v-7.21l3.35-.64-1.55-5.56H298.88l-1.48,5.56,3.35.64v7.21Zm19.92-22.06h11.22l-5-15.52-.56-1.79h-.21l-.6,2Z" transform="translate(-26.47 -111.56)"/><path class="cls-7" d="M338.44,162.79v-7.21l5.31-1.13V119.94l-5.31-1.13v-7.25H361v7.25l-4.86,1.13v34.51l4.86,1.13v7.21Zm14.46-11.15-6.29-7.22,25.54-25.15,0-.07-5.8-.39v-7.25H390.3v7.25l-4.82,1Zm14.57,11.15v-7.21l5.14-.39h.07l-12.32-16.85L369,130.7l17.95,24,5.24.88v7.21Z" transform="translate(-26.47 -111.56)"/><path class="cls-8" d="M397.92,162.79v-7.21l3.58-.53,15.27-43.49h13.37l15.31,43.49,3.59.53v7.21H429.9v-7.21l3.34-.64-1.55-5.56H415.23l-1.48,5.56,3.34.64v7.21Zm19.91-22.06h11.22l-5-15.52-.57-1.79h-.21l-.59,2Z" transform="translate(-26.47 -111.56)"/><path class="cls-9" d="M454.3,162.79v-7.21l5.28-1.13V119.94l-5.28-1.13v-7.25h24.17l12.39,33.74h.21l12-33.74H527v7.25l-5.31,1.13v34.51l5.31,1.13v7.21H504.05v-7.21l5.53-1.13v-6.68l.28-24.1-.21,0-14.5,39.16h-9.71l-14.71-38.7-.24,0,.84,22v8.37l5.95,1.13v7.21Z" transform="translate(-26.47 -111.56)"/></svg>