<svg width="417" height="465" viewBox="0 0 417 465" fill="none" xmlns="http://www.w3.org/2000/svg">
<g filter="url(#filter0_d_660_1213)">
<path d="M409.844 319.88C409.844 328.489 407.576 336.946 403.267 344.4C398.959 351.854 392.762 358.041 385.302 362.339L233.359 449.863C225.92 454.148 217.486 456.403 208.901 456.403C200.316 456.403 191.882 454.148 184.443 449.863L32.4992 362.339C25.039 358.041 18.8427 351.854 14.5342 344.4C10.2258 336.946 7.95734 328.489 7.95724 319.88V145.024C7.95734 136.414 10.2258 127.957 14.5342 120.503C18.8427 113.049 25.039 106.862 32.4992 102.565L184.444 15.0405C191.883 10.7555 200.317 8.5 208.902 8.5C217.487 8.5 225.921 10.7555 233.36 15.0405L385.302 102.565C392.763 106.862 398.959 113.049 403.267 120.503C407.576 127.957 409.844 136.415 409.844 145.025V319.88Z" fill="white"/>
</g>
<path d="M415.907 323.63C415.907 332.239 413.639 340.696 409.33 348.15C405.022 355.604 398.825 361.791 391.365 366.089L232.907 457.363C225.468 461.648 217.034 463.903 208.449 463.903C199.864 463.903 191.43 461.648 183.991 457.363L25.5422 366.089C18.082 361.791 11.8857 355.604 7.57721 348.15C3.26877 340.696 1.0003 332.239 1.00021 323.63V141.274C1.0003 132.664 3.26877 124.207 7.57721 116.753C11.8857 109.299 18.082 103.112 25.5422 98.8145L183.996 7.54053C191.435 3.25546 199.869 1 208.454 1C217.039 1 225.473 3.25546 232.912 7.54053L391.365 98.8145C398.825 103.112 405.022 109.299 409.33 116.753C413.639 124.207 415.907 132.664 415.907 141.274V323.63Z" stroke="#15CEFF" stroke-width="2" stroke-linecap="round" stroke-linejoin="round" stroke-dasharray="3 10"/>
<g clip-path="url(#clip0_660_1213)">
<path d="M243.412 126H169.023C157.453 126 148.074 135.348 148.074 146.878V316.294C148.074 327.824 157.453 337.172 169.023 337.172H243.412C254.982 337.172 264.361 327.824 264.361 316.294V146.878C264.361 135.348 254.982 126 243.412 126Z" fill="#3F3D56"/>
<path d="M262.399 146.88V316.294C262.393 321.311 260.391 326.121 256.831 329.668C253.272 333.216 248.446 335.212 243.412 335.217H169.023C163.989 335.212 159.163 333.216 155.603 329.668C152.044 326.121 150.041 321.311 150.036 316.294V146.88C150.041 141.863 152.044 137.053 155.603 133.505C159.163 129.957 163.989 127.962 169.023 127.956H178.751V131.305C178.751 132.821 179.355 134.275 180.431 135.347C181.507 136.419 182.965 137.021 184.487 137.022H227.948C229.469 137.021 230.928 136.419 232.004 135.347C233.08 134.275 233.684 132.821 233.684 131.305V127.956H243.412C248.446 127.962 253.272 129.957 256.831 133.505C260.391 137.053 262.393 141.863 262.399 146.88Z" fill="white"/>
<path d="M147.539 168.839C147.16 168.838 146.798 168.688 146.53 168.422C146.263 168.155 146.112 167.794 146.112 167.417V164.573C146.112 164.196 146.262 163.834 146.53 163.567C146.797 163.3 147.16 163.151 147.539 163.151C147.917 163.151 148.28 163.3 148.548 163.567C148.815 163.834 148.965 164.196 148.965 164.573V167.417C148.965 167.794 148.815 168.155 148.547 168.422C148.28 168.688 147.917 168.838 147.539 168.839Z" fill="#3F3D56"/>
<path d="M147.539 183.422C147.16 183.422 146.798 183.272 146.53 183.005C146.263 182.739 146.112 182.377 146.112 182V174.171C146.112 173.794 146.262 173.432 146.53 173.166C146.797 172.899 147.16 172.749 147.539 172.749C147.917 172.749 148.28 172.899 148.548 173.166C148.815 173.432 148.965 173.794 148.965 174.171V182C148.965 182.377 148.815 182.739 148.547 183.005C148.28 183.272 147.917 183.422 147.539 183.422Z" fill="#3F3D56"/>
<path d="M147.539 195.146C147.16 195.146 146.798 194.996 146.53 194.729C146.263 194.463 146.112 194.101 146.112 193.724V185.895C146.112 185.518 146.262 185.157 146.53 184.89C146.797 184.623 147.16 184.473 147.539 184.473C147.917 184.473 148.28 184.623 148.548 184.89C148.815 185.157 148.965 185.518 148.965 185.895V193.724C148.965 194.101 148.815 194.463 148.547 194.729C148.28 194.996 147.917 195.146 147.539 195.146Z" fill="#3F3D56"/>
<path d="M264.54 188.747C264.161 188.747 263.799 188.597 263.531 188.33C263.264 188.064 263.113 187.702 263.113 187.325V168.223C263.113 167.845 263.263 167.484 263.531 167.217C263.798 166.95 264.161 166.801 264.54 166.801C264.918 166.801 265.281 166.95 265.549 167.217C265.816 167.484 265.966 167.845 265.966 168.223V187.325C265.966 187.702 265.816 188.064 265.548 188.33C265.281 188.597 264.918 188.747 264.54 188.747Z" fill="#3F3D56"/>
<path d="M209.282 132.522H198.224C197.988 132.522 197.761 132.429 197.594 132.262C197.426 132.095 197.333 131.869 197.333 131.633C197.333 131.398 197.426 131.172 197.594 131.005C197.761 130.838 197.988 130.745 198.224 130.745H209.282C209.519 130.745 209.746 130.838 209.913 131.005C210.08 131.172 210.174 131.398 210.174 131.633C210.174 131.869 210.08 132.095 209.913 132.262C209.746 132.429 209.519 132.522 209.282 132.522Z" fill="white"/>
<path d="M214.99 132.344C215.384 132.344 215.703 132.026 215.703 131.633C215.703 131.241 215.384 130.922 214.99 130.922C214.596 130.922 214.276 131.241 214.276 131.633C214.276 132.026 214.596 132.344 214.99 132.344Z" fill="white"/>
<path d="M300.709 328.29C300.969 328.3 301.226 328.229 301.445 328.088C301.664 327.947 301.834 327.743 301.932 327.502C302.031 327.261 302.052 326.996 301.995 326.743C301.937 326.49 301.802 326.26 301.609 326.086C301.576 325.959 301.552 325.868 301.519 325.742C301.762 325.108 302.189 324.562 302.746 324.172C303.303 323.783 303.964 323.568 304.644 323.555C305.324 323.542 305.992 323.732 306.564 324.1C307.135 324.468 307.583 324.998 307.85 325.622C309.39 329.122 311.374 332.742 310.442 336.622C316.718 323.032 314.379 306.224 304.802 294.743C302.172 293.332 300.027 290.8 299.446 287.841C300.745 288.266 302.35 287.201 301.363 285.851C300.936 285.336 300.505 284.824 300.078 284.309C304.947 279.041 310.887 287.191 305.54 294.289C307.332 296.485 308.889 298.863 310.185 301.382C309.866 298.697 310.191 295.975 311.133 293.439C312.09 291.075 313.906 289.075 315.503 287.024C317.445 284.526 321.5 285.631 321.795 288.776C319.987 289.387 319.776 292.001 321.854 292.338C321.367 298.198 317.58 303.615 312.319 306.233C314.323 311.674 315.141 317.477 314.718 323.257C315.586 316.498 322.84 314.791 327.896 312.06C328.217 311.851 328.593 311.739 328.977 311.738C329.362 311.738 329.738 311.848 330.06 312.057C330.382 312.266 330.636 312.564 330.791 312.914C330.946 313.264 330.996 313.652 330.934 314.03C330.235 314.321 329.567 314.68 328.94 315.103C328.646 315.304 328.422 315.59 328.298 315.923C328.174 316.256 328.156 316.62 328.247 316.963C328.338 317.306 328.534 317.613 328.807 317.842C329.08 318.07 329.418 318.209 329.773 318.238C327.272 324.581 320.69 328.886 313.889 328.926C313.262 331.763 312.342 334.527 311.142 337.175L301.047 337.27C301.01 337.159 300.977 337.044 300.943 336.932C301.878 336.982 302.815 336.917 303.734 336.74C301.235 333.847 299.309 332.376 300.709 328.29Z" fill="#F2F2F2"/>
<path d="M174.501 136.336H164.869C164.396 136.336 163.943 136.148 163.608 135.815C163.274 135.482 163.086 135.029 163.086 134.558C163.086 134.087 163.274 133.634 163.608 133.301C163.943 132.968 164.396 132.781 164.869 132.781H174.501C174.974 132.781 175.427 132.968 175.762 133.301C176.096 133.634 176.284 134.087 176.284 134.558C176.284 135.029 176.096 135.482 175.762 135.815C175.427 136.148 174.974 136.336 174.501 136.336Z" fill="#E6E6E6"/>
<path d="M237.638 136.158C238.525 136.158 239.244 135.442 239.244 134.558C239.244 133.675 238.525 132.958 237.638 132.958C236.752 132.958 236.033 133.675 236.033 134.558C236.033 135.442 236.752 136.158 237.638 136.158Z" fill="#E6E6E6"/>
<path d="M242.633 136.158C243.519 136.158 244.238 135.442 244.238 134.558C244.238 133.675 243.519 132.958 242.633 132.958C241.746 132.958 241.027 133.675 241.027 134.558C241.027 135.442 241.746 136.158 242.633 136.158Z" fill="#E6E6E6"/>
<path d="M247.626 136.158C248.513 136.158 249.231 135.442 249.231 134.558C249.231 133.675 248.513 132.958 247.626 132.958C246.74 132.958 246.021 133.675 246.021 134.558C246.021 135.442 246.74 136.158 247.626 136.158Z" fill="#E6E6E6"/>
<path d="M236.516 161.18H175.983C174.81 161.182 173.686 161.647 172.857 162.473C172.028 163.299 171.561 164.42 171.56 165.588V204.805C171.561 205.973 172.028 207.094 172.857 207.92C173.686 208.746 174.81 209.211 175.983 209.213H236.516C237.689 209.212 238.814 208.747 239.643 207.921C240.472 207.094 240.939 205.973 240.94 204.805V165.588C240.939 164.42 240.472 163.299 239.643 162.472C238.814 161.646 237.689 161.181 236.516 161.18Z" fill="#F2F2F2"/>
<path d="M217.565 177.922C212.095 187.561 206.058 196.87 199.487 205.8H189.994C196.211 198.251 202.434 190.702 208.661 183.152C210.447 180.979 212.386 178.701 215.066 177.818L217.565 177.922Z" fill="#3F3D56"/>
<path d="M204.95 176.376C203.959 177.404 203.011 178.474 202.118 179.585C200.151 181.945 198.212 184.325 196.267 186.699C195.055 188.176 193.843 189.653 192.646 191.13C192.265 190.886 191.904 190.614 191.565 190.315C189.652 188.66 188.465 186.324 188.26 183.808C188.054 181.291 188.845 178.794 190.464 176.852C192.083 174.91 194.401 173.678 196.921 173.418C199.441 173.159 201.963 173.894 203.946 175.465C204.303 175.743 204.639 176.047 204.95 176.376Z" fill="#15CEFF"/>
<path d="M240.939 175.255V176.687L240.297 176.453L231.262 173.161C228.319 172.091 225.383 170.868 222.344 170.096C219.7 169.342 216.892 169.378 214.268 170.199C211.929 171.062 209.789 172.386 207.976 174.092C207.173 174.831 206.396 175.589 205.643 176.374C205.397 176.634 205.151 176.893 204.908 177.153C204.181 177.942 203.478 178.749 202.811 179.585C200.845 181.945 198.905 184.327 196.961 186.698C195.748 188.177 194.535 189.653 193.337 191.128C189.334 196.009 185.356 200.9 181.401 205.8C180.868 205.794 180.338 205.727 179.821 205.601C183.855 200.606 187.909 195.624 191.981 190.655C192.074 190.541 192.167 190.428 192.259 190.314C192.737 189.72 193.226 189.123 193.711 188.529C195.741 186.051 197.772 183.576 199.804 181.103C201.28 179.304 202.747 177.498 204.337 175.791C204.434 175.681 204.534 175.575 204.637 175.464C204.79 175.301 204.944 175.141 205.101 174.974C208.557 171.415 212.87 168.269 218.035 168.183C221.074 168.137 224.01 169.097 226.835 170.11C229.878 171.209 232.91 172.325 235.949 173.434L240.939 175.255Z" fill="#3F3D56"/>
<path d="M242.363 295.797H170.072C168.9 295.796 167.776 295.331 166.946 294.505C166.117 293.678 165.651 292.558 165.649 291.389V281.679C165.651 280.511 166.117 279.39 166.946 278.564C167.776 277.737 168.9 277.273 170.072 277.271H242.363C243.535 277.273 244.659 277.737 245.489 278.564C246.318 279.39 246.784 280.511 246.786 281.679V291.389C246.784 292.558 246.318 293.678 245.489 294.505C244.659 295.331 243.535 295.796 242.363 295.797Z" fill="#F2F2F2"/>
<path d="M242.363 246.026H170.072C168.9 246.025 167.776 245.56 166.946 244.734C166.117 243.907 165.651 242.787 165.649 241.618V231.908C165.651 230.74 166.117 229.619 166.946 228.793C167.776 227.966 168.9 227.502 170.072 227.5H242.363C243.535 227.502 244.659 227.966 245.489 228.793C246.318 229.619 246.784 230.74 246.786 231.908V241.618C246.784 242.787 246.318 243.907 245.489 244.734C244.659 245.56 243.535 246.025 242.363 246.026Z" fill="#F2F2F2"/>
<path d="M242.363 270.912H170.072C168.9 270.91 167.776 270.445 166.946 269.619C166.117 268.793 165.651 267.672 165.649 266.504V256.794C165.651 255.625 166.117 254.505 166.946 253.678C167.776 252.852 168.9 252.387 170.072 252.386H242.363C243.535 252.387 244.659 252.852 245.489 253.678C246.318 254.505 246.784 255.625 246.786 256.794V266.504C246.784 267.672 246.318 268.793 245.489 269.619C244.659 270.445 243.535 270.91 242.363 270.912Z" fill="#F2F2F2"/>
<path d="M215 284.872H193.7C193.448 284.872 193.205 284.772 193.027 284.594C192.848 284.416 192.748 284.175 192.748 283.923C192.748 283.671 192.848 283.429 193.027 283.251C193.205 283.073 193.448 282.973 193.7 282.973H215C215.253 282.973 215.495 283.073 215.674 283.251C215.853 283.429 215.953 283.671 215.953 283.923C215.953 284.175 215.853 284.416 215.674 284.594C215.495 284.772 215.253 284.872 215 284.872Z" fill="white"/>
<path d="M235.486 290.095H193.462C193.209 290.095 192.967 289.995 192.788 289.817C192.61 289.639 192.509 289.398 192.509 289.146C192.509 288.894 192.61 288.652 192.788 288.474C192.967 288.296 193.209 288.196 193.462 288.196H235.486C235.739 288.196 235.981 288.296 236.16 288.474C236.338 288.652 236.439 288.894 236.439 289.146C236.439 289.398 236.338 289.639 236.16 289.817C235.981 289.995 235.739 290.095 235.486 290.095Z" fill="white"/>
<path d="M182.385 292.901C185.913 292.901 188.773 290.051 188.773 286.534C188.773 283.018 185.913 280.167 182.385 280.167C178.856 280.167 175.996 283.018 175.996 286.534C175.996 290.051 178.856 292.901 182.385 292.901Z" fill="white"/>
<path d="M180.961 295.135C180.309 294.831 179.564 294.793 178.885 295.028C178.205 295.264 177.644 295.754 177.322 296.396C177.258 296.527 177.206 296.663 177.165 296.803L167.545 297.376L166.119 302.344L179.212 300.139C179.808 300.263 180.428 300.187 180.976 299.923C181.523 299.659 181.968 299.221 182.24 298.679C182.392 298.369 182.481 298.032 182.502 297.688C182.523 297.343 182.476 296.998 182.363 296.672C182.251 296.346 182.075 296.045 181.845 295.786C181.616 295.528 181.338 295.317 181.027 295.165C181.005 295.155 180.983 295.145 180.961 295.135Z" fill="#FFB6B6"/>
<path d="M159.727 270.633C159.093 270.374 158.41 270.255 157.726 270.283C157.042 270.311 156.371 270.485 155.761 270.794C155.15 271.103 154.613 271.539 154.187 272.074C153.76 272.608 153.455 273.228 153.29 273.89L150.645 284.535L151.143 303.158C151.143 303.158 164.948 305.798 167.266 304.101C169.583 302.404 169.365 301.141 169.583 302.404C169.801 303.667 170.795 304.197 170.809 303.695C170.823 303.192 170.936 303.278 171.513 303.127C172.091 302.975 174.64 302.039 174.64 302.039L174.754 296.73C174.754 296.73 170.54 295.137 169.517 295.612C168.495 296.087 169.735 296.876 168.495 296.087C167.255 295.299 167.12 292.811 166.908 295.053C166.696 297.296 166.075 297.713 165.145 296.716C164.216 295.719 159.909 296.356 159.909 296.356L162.649 275.655C162.787 274.614 162.575 273.556 162.046 272.648C161.518 271.739 160.702 271.031 159.727 270.633Z" fill="#15CEFF"/>
<path d="M252.698 325.859L252.843 321.938L237.736 319.513L237.521 325.301L252.698 325.859Z" fill="#FFB6B6"/>
<path d="M249.955 327.04L249.812 320.761L252.505 320.86L256.853 315.056C257.068 314.769 257.369 314.558 257.712 314.454C258.056 314.35 258.423 314.358 258.762 314.477C259.101 314.596 259.392 314.82 259.594 315.116C259.796 315.411 259.898 315.764 259.884 316.121L259.608 323.58L256.897 324.767L259.542 325.367L259.438 328.179L249.955 327.04Z" fill="#2F2E41"/>
<path d="M167.672 334.851L215.523 329.306C215.523 329.306 236.186 330.495 241.034 327.352L246.146 326.709L246.424 319.224C246.424 319.224 243.297 319.247 241.5 318.413C239.702 317.578 240.952 316.557 239.238 317.561C237.524 318.565 237.705 318.686 236.38 318.224C235.055 317.763 174.295 315.288 174.295 315.288L167.672 334.851Z" fill="#2F2E41"/>
<path d="M230.726 331.604L233.509 328.827L224.088 316.81L219.981 320.907L230.726 331.604Z" fill="#FFB6B6"/>
<path d="M227.91 330.61L232.09 325.91L233.997 327.809L241.145 326.501C241.498 326.436 241.863 326.485 242.185 326.642C242.508 326.798 242.772 327.054 242.939 327.37C243.106 327.687 243.167 328.049 243.113 328.402C243.06 328.756 242.894 329.083 242.64 329.336L237.348 334.617L234.55 333.65L236.08 335.883L234.084 337.874L227.91 330.61Z" fill="#2F2E41"/>
<path d="M148.794 308.734L149.27 319.754C149.83 332.728 164.166 340.58 175.282 333.806C175.487 333.682 175.693 333.552 175.899 333.418C175.899 333.418 180.113 332.291 179.985 330.504C179.857 328.718 180.887 327.849 181.798 328.336C182.709 328.823 194.638 311.95 194.638 311.95C194.638 311.95 219.423 324.272 224.89 327.172L230.66 325.606C230.66 325.606 232.831 326.628 232.049 325.15C231.267 323.671 231.126 324.379 230.886 322.769C230.646 321.158 230.031 319.162 229.658 319.246C229.286 319.33 198.997 298.201 198.997 298.201C198.997 298.201 194.062 293.224 187.941 296.51C187.814 296.993 187.923 297.01 187.923 297.01L167.703 313.43L164.846 308.023L148.794 308.734Z" fill="#2F2E41"/>
<path d="M162.385 268.24L153.715 264.191L151.12 268.692C151.12 268.692 144.149 278.606 144.048 285.758C143.947 292.91 145.184 295.037 145.184 295.037C145.184 295.037 142.178 297.276 143.681 298.645C145.184 300.014 148.511 300.605 145.955 301.198C143.4 301.792 144.048 307.799 146.901 308.866C149.755 309.933 165.081 309.923 165.081 309.923C164.943 309.457 164.933 308.963 165.052 308.492C165.17 308.021 165.413 307.59 165.755 307.245C166.943 306.058 168.013 306.909 166.943 305.062C165.873 303.214 164.089 304.28 165.516 301.792C166.943 299.303 166.943 298.559 166.943 298.559C166.943 298.559 169.851 293.042 165.47 287.057C165.203 286.692 165.428 286.678 165.428 286.678L161.89 274.863L162.385 268.24Z" fill="#15CEFF"/>
<path d="M148.413 251.214C148.486 253.039 147.332 255.625 146.764 257.184C146.156 258.851 148.79 261.063 150.475 261.548C150.563 260.971 150.852 260.442 151.292 260.056C151.17 260.606 151.16 261.175 151.261 261.73L165.511 264.963C168.074 262.004 170.652 257.751 170.089 252.621C170.224 251.647 170.067 250.655 169.638 249.769C169.209 248.884 168.527 248.144 167.678 247.644L160.474 243.402C157.41 242.707 153.551 242.287 151.338 244.177C150.349 245.054 149.572 246.142 149.065 247.361C148.559 248.58 148.336 249.897 148.413 251.214Z" fill="#2F2E41"/>
<path d="M161.151 263.4C165.682 263.4 169.355 259.739 169.355 255.223C169.355 250.707 165.682 247.046 161.151 247.046C156.619 247.046 152.946 250.707 152.946 255.223C152.946 259.739 156.619 263.4 161.151 263.4Z" fill="#FFB6B6"/>
<path d="M151.539 250.855L151.143 252.588L158.065 254.158C158.071 253.808 158.149 253.462 158.296 253.144C158.442 252.825 158.653 252.54 158.916 252.306C158.766 252.986 158.783 253.691 158.965 254.363C162.698 256.45 166.063 257.19 169.079 256.658C169.488 256.75 169.917 256.677 170.272 256.455C170.627 256.232 170.878 255.879 170.971 255.471C172.185 250.157 169.005 244.726 163.699 243.407C162.41 243.086 161.069 243.024 159.755 243.226C158.441 243.428 157.181 243.889 156.048 244.583C154.916 245.277 153.933 246.189 153.159 247.266C152.385 248.343 151.834 249.563 151.539 250.855Z" fill="#2F2E41"/>
<path d="M155.586 239.42C156.498 239.222 157.464 239.27 158.289 238.654L157.748 239.892C159.249 239.482 160.848 239.642 162.238 240.339C162.651 240.524 163.003 240.821 163.254 241.196C163.389 241.423 163.471 241.678 163.494 241.94C163.517 242.203 163.481 242.467 163.388 242.714C163.299 242.926 163.167 243.117 163 243.275C162.833 243.433 162.635 243.555 162.418 243.632C162.034 243.747 161.631 243.789 161.232 243.756C159.547 243.717 157.863 243.677 156.178 243.638C155.536 243.678 154.895 243.554 154.315 243.277C154.006 243.088 153.76 242.812 153.606 242.485C153.453 242.157 153.399 241.792 153.45 241.435C153.611 240.309 154.673 239.617 155.586 239.42Z" fill="#2F2E41"/>
<path d="M200.09 303.504C200.071 303.481 200.048 303.46 200.023 303.442C199.962 303.371 199.887 303.313 199.803 303.271L199.203 302.951L195.217 298.541C194.987 298.421 194.718 298.395 194.469 298.469L194.459 298.472L192.751 298.999L191.283 299.453L189.232 300.086L175.261 304.398L166.077 307.232C165.829 307.31 165.622 307.482 165.5 307.712C165.378 307.941 165.351 308.209 165.425 308.457C165.468 308.594 165.539 308.721 165.635 308.829L165.927 309.153L166.54 309.833L167.96 312.766L168.354 313.205C168.479 313.344 168.642 313.445 168.823 313.496C169.004 313.547 169.196 313.545 169.376 313.491L199.63 305.106C199.788 305.055 199.93 304.967 200.045 304.849C200.159 304.73 200.243 304.585 200.289 304.427C200.334 304.269 200.34 304.102 200.305 303.941C200.271 303.78 200.197 303.63 200.09 303.504Z" fill="#CCCCCC"/>
<path d="M198.294 259.881L197.708 259.976C197.548 260.002 197.404 260.091 197.309 260.223L197.051 260.582L194.722 266.385C194.628 266.518 194.59 266.682 194.617 266.843L194.889 268.496L193.858 298.005C193.884 298.158 193.967 298.295 194.089 298.391L198.61 304.417L198.715 304.501L198.943 304.679C199.06 304.768 199.204 304.814 199.352 304.808L199.736 304.79C199.823 304.786 199.909 304.763 199.986 304.724C200.064 304.684 200.133 304.628 200.187 304.561C200.243 304.493 200.283 304.415 200.305 304.331C200.327 304.247 200.331 304.159 200.316 304.074L199.004 260.386C198.978 260.225 198.888 260.082 198.756 259.987C198.623 259.892 198.458 259.854 198.297 259.88L198.294 259.881Z" fill="#CCCCCC"/>
<path d="M197.313 262.174L195.251 268.435L194.453 293.447L197.663 296.291L197.313 262.174Z" fill="#15CEFF"/>
<path d="M181.364 300.326C180.712 300.022 179.967 299.984 179.287 300.22C178.607 300.455 178.047 300.946 177.724 301.587C177.661 301.718 177.608 301.855 177.567 301.995L167.947 302.568L166.521 307.535L179.615 305.33C180.21 305.454 180.83 305.378 181.378 305.114C181.926 304.85 182.37 304.412 182.642 303.87C182.949 303.244 182.993 302.522 182.766 301.863C182.538 301.204 182.057 300.662 181.429 300.357C181.407 300.346 181.386 300.336 181.364 300.326Z" fill="#FFB6B6"/>
<path d="M160.129 275.824C159.495 275.566 158.813 275.446 158.128 275.474C157.444 275.502 156.774 275.676 156.163 275.985C155.552 276.294 155.015 276.731 154.589 277.265C154.163 277.799 153.857 278.419 153.692 279.082L151.047 289.727L151.545 308.349C151.545 308.349 165.35 310.99 167.668 309.293C169.985 307.595 169.768 306.332 169.985 307.595C170.203 308.859 171.198 309.389 171.212 308.886C171.225 308.384 171.338 308.47 171.915 308.318C172.493 308.167 175.042 307.231 175.042 307.231L175.156 301.921C175.156 301.921 170.942 300.329 169.92 300.804C168.897 301.279 170.137 302.067 168.897 301.279C167.657 300.491 167.522 298.003 167.31 300.245C167.098 302.487 166.477 302.905 165.548 301.908C164.618 300.911 160.311 301.547 160.311 301.547L163.052 280.846C163.19 279.805 162.978 278.748 162.449 277.839C161.92 276.931 161.104 276.222 160.129 275.824Z" fill="#15CEFF"/>
<path d="M300.15 246.026H227.859C226.687 246.025 225.563 245.56 224.733 244.734C223.904 243.907 223.438 242.787 223.437 241.618V231.908C223.438 230.74 223.904 229.619 224.733 228.793C225.563 227.966 226.687 227.502 227.859 227.5H300.15C301.322 227.502 302.447 227.966 303.276 228.793C304.105 229.619 304.571 230.74 304.573 231.908V241.618C304.571 242.787 304.105 243.907 303.276 244.734C302.447 245.56 301.322 246.025 300.15 246.026Z" fill="#E6E6E6"/>
<path d="M272.787 235.101H251.487C251.235 235.101 250.992 235.001 250.814 234.823C250.635 234.645 250.535 234.404 250.535 234.152C250.535 233.9 250.635 233.658 250.814 233.48C250.992 233.302 251.235 233.202 251.487 233.202H272.787C273.04 233.202 273.282 233.302 273.461 233.48C273.64 233.658 273.74 233.9 273.74 234.152C273.74 234.404 273.64 234.645 273.461 234.823C273.282 235.001 273.04 235.101 272.787 235.101Z" fill="white"/>
<path d="M293.273 240.324H251.249C250.997 240.324 250.754 240.224 250.575 240.046C250.397 239.868 250.296 239.627 250.296 239.375C250.296 239.123 250.397 238.881 250.575 238.703C250.754 238.525 250.997 238.425 251.249 238.425H293.273C293.526 238.425 293.768 238.525 293.947 238.703C294.126 238.881 294.226 239.123 294.226 239.375C294.226 239.627 294.126 239.868 293.947 240.046C293.768 240.224 293.526 240.324 293.273 240.324Z" fill="white"/>
<path d="M240.172 243.13C243.7 243.13 246.56 240.28 246.56 236.763C246.56 233.247 243.7 230.396 240.172 230.396C236.643 230.396 233.783 233.247 233.783 236.763C233.783 240.28 236.643 243.13 240.172 243.13Z" fill="white"/>
<path d="M276.964 270.912H204.673C203.501 270.91 202.377 270.445 201.547 269.619C200.718 268.793 200.252 267.672 200.25 266.504V256.794C200.252 255.625 200.718 254.505 201.547 253.678C202.377 252.852 203.501 252.387 204.673 252.386H276.964C278.136 252.387 279.261 252.852 280.09 253.678C280.919 254.505 281.385 255.625 281.387 256.794V266.504C281.385 267.672 280.919 268.793 280.09 269.619C279.261 270.445 278.136 270.91 276.964 270.912Z" fill="#E6E6E6"/>
<path d="M249.601 259.987H228.301C228.049 259.987 227.806 259.887 227.628 259.709C227.449 259.531 227.349 259.289 227.349 259.037C227.349 258.785 227.449 258.544 227.628 258.366C227.806 258.188 228.049 258.088 228.301 258.088H249.601C249.854 258.088 250.096 258.188 250.275 258.366C250.454 258.544 250.554 258.785 250.554 259.037C250.554 259.289 250.454 259.531 250.275 259.709C250.096 259.887 249.854 259.987 249.601 259.987Z" fill="white"/>
<path d="M270.087 265.21H228.063C227.81 265.21 227.568 265.11 227.389 264.932C227.211 264.754 227.11 264.512 227.11 264.26C227.11 264.008 227.211 263.767 227.389 263.589C227.568 263.411 227.81 263.311 228.063 263.311H270.087C270.34 263.311 270.582 263.411 270.761 263.589C270.939 263.767 271.04 264.008 271.04 264.26C271.04 264.512 270.939 264.754 270.761 264.932C270.582 265.11 270.34 265.21 270.087 265.21Z" fill="white"/>
<path d="M216.986 268.016C220.514 268.016 223.374 265.165 223.374 261.649C223.374 258.132 220.514 255.282 216.986 255.282C213.457 255.282 210.597 258.132 210.597 261.649C210.597 265.165 213.457 268.016 216.986 268.016Z" fill="white"/>
</g>
<path d="M292.932 296.989H288.318L286.123 280.595L292.933 280.595L292.932 296.989Z" fill="#FFB6B6"/>
<path d="M279.419 300.935L293.92 300.936L293.921 295.775L284.338 295.774C283.034 295.774 281.783 296.252 280.86 297.102C279.937 297.951 279.419 299.104 279.419 300.306L279.419 300.935Z" fill="#2F2E41"/>
<path d="M339.07 291.481L335.027 293.528L324.528 280.137L330.496 277.115L339.07 291.481Z" fill="#FFB6B6"/>
<path d="M329.292 300.936L342 294.5L339.301 289.978L330.904 294.23C329.761 294.809 328.914 295.783 328.55 296.937C328.186 298.091 328.335 299.331 328.963 300.384L329.292 300.936Z" fill="#2F2E41"/>
<path d="M293.147 287.89C293.558 287.889 293.955 287.751 294.264 287.501C294.573 287.251 294.772 286.906 294.825 286.53L300.595 245.57C300.621 245.389 300.708 245.22 300.844 245.087C300.98 244.954 301.158 244.864 301.353 244.83C301.548 244.796 301.75 244.819 301.929 244.897C302.109 244.975 302.257 245.103 302.352 245.263L326.401 285.454C326.6 285.782 326.919 286.034 327.302 286.163C327.685 286.293 328.105 286.291 328.487 286.159L333.729 284.32C333.94 284.246 334.133 284.134 334.296 283.99C334.459 283.847 334.589 283.675 334.679 283.484C334.769 283.293 334.817 283.088 334.82 282.88C334.822 282.673 334.78 282.466 334.695 282.274L318.036 244.576C317.994 244.48 317.965 244.38 317.951 244.278C315.694 228.19 309.953 220.009 308.247 217.885C308.123 217.729 308.041 217.548 308.008 217.356C307.976 217.165 307.994 216.969 308.061 216.785L308.295 216.137C308.389 215.88 308.408 215.605 308.351 215.339C308.294 215.073 308.162 214.825 307.969 214.62C301.823 208.171 291.11 211.69 291.003 211.726L290.949 211.744L290.915 211.787C278.903 226.962 283.344 276.251 284.357 285.977C284.394 286.343 284.571 286.684 284.856 286.941C285.141 287.198 285.515 287.354 285.912 287.381L293.016 287.885C293.06 287.888 293.104 287.89 293.147 287.89Z" fill="#2F2E41"/>
<path d="M296.404 174.076C290.733 174.076 286.135 169.841 286.135 164.617C286.135 159.393 290.733 155.158 296.404 155.158C302.075 155.158 306.672 159.393 306.672 164.617C306.672 169.841 302.075 174.076 296.404 174.076Z" fill="#FFB8B8"/>
<path d="M312.279 224.806L282.064 227.339C284.698 218.902 287.112 210.493 285.144 202.116C282.646 194.636 282.414 190.493 289.004 186.97L293.454 177.827L301.507 177.557L305.434 176.566C308.606 181.264 309.904 186.834 309.104 192.318C307.397 204.243 307.858 215.31 312.279 224.806Z" fill="#15CEFF"/>
<path d="M307.693 182.597L310.732 169.747C311.366 166.705 311.207 163.568 310.268 160.594C310.166 160.29 310.042 159.991 309.899 159.701C309.058 158.012 307.735 156.565 306.071 155.513C304.408 154.462 302.466 153.846 300.453 153.73C293.546 153.291 292.532 153.962 292.282 154.293C288.379 154.147 285.352 155.536 283.971 158.107C283.836 158.362 283.763 158.641 283.758 158.925C283.752 159.209 283.815 159.491 283.94 159.75C284.066 160.009 284.252 160.24 284.484 160.426C284.717 160.612 284.992 160.749 285.288 160.827C287.217 161.339 289.928 161.908 291.962 161.741C296.038 166.244 294.371 174.496 290.236 179.412L290.074 179.605L294.171 180.378L298.932 174.271C299.026 174.15 299.162 174.063 299.318 174.023C299.474 173.984 299.64 173.995 299.788 174.055C299.936 174.114 300.057 174.219 300.131 174.351C300.205 174.483 300.228 174.635 300.195 174.781L298.75 181.249L307.693 182.597Z" fill="#2F2E41"/>
<path d="M249 217.197L323.733 265.879L341.642 242.551L266.909 193.869L249 217.197Z" fill="white"/>
<path d="M316.416 250.706C313.49 248.8 312.795 245.07 314.864 242.374C316.933 239.679 320.983 239.039 323.909 240.945C326.835 242.851 327.529 246.581 325.46 249.277C323.391 251.972 319.342 252.612 316.416 250.706Z" fill="#15CEFF"/>
<path d="M310.423 234.602C310.657 234.754 310.816 234.986 310.865 235.247C310.913 235.507 310.847 235.774 310.682 235.99C310.516 236.206 310.264 236.352 309.982 236.397C309.699 236.442 309.409 236.381 309.174 236.228L267.547 209.112C267.314 208.96 267.156 208.728 267.108 208.468C267.06 208.208 267.126 207.941 267.291 207.725C267.456 207.51 267.708 207.364 267.99 207.319C268.272 207.274 268.562 207.334 268.796 207.486L310.423 234.602Z" fill="#E6E6E6"/>
<path d="M306.677 239.482C306.911 239.634 307.07 239.866 307.119 240.126C307.168 240.386 307.103 240.654 306.938 240.869C306.773 241.085 306.522 241.232 306.239 241.277C305.957 241.323 305.667 241.263 305.432 241.111L305.428 241.109L272.677 219.774C272.443 219.622 272.284 219.39 272.236 219.129C272.187 218.869 272.253 218.602 272.419 218.386C272.501 218.279 272.605 218.188 272.725 218.118C272.845 218.049 272.979 218.001 273.119 217.979C273.402 217.935 273.692 217.995 273.926 218.148L306.677 239.482Z" fill="#E6E6E6"/>
<path d="M249 217.197L323.733 265.879L341.642 242.551L266.909 193.869L249 217.197ZM323.297 263.536L251.543 216.796L267.345 196.212L339.099 242.953L323.297 263.536Z" fill="#E6E6E6"/>
<path d="M288.464 232.285L293.323 207.813L292.981 192.679L303.934 192.363L301.88 209.389L294.798 232.999C295.386 233.657 295.746 234.462 295.832 235.311C295.919 236.16 295.727 237.012 295.281 237.76C294.836 238.507 294.158 239.114 293.335 239.502C292.511 239.891 291.58 240.043 290.662 239.94C289.744 239.837 288.88 239.482 288.182 238.922C287.485 238.362 286.986 237.622 286.749 236.798C286.513 235.974 286.549 235.104 286.855 234.3C287.161 233.495 287.721 232.793 288.464 232.285Z" fill="#FFB8B8"/>
<path d="M304.619 193.94C300.65 192.547 296.265 192.547 292.296 193.94L292.981 181.328C292.981 180.665 293.123 180.009 293.398 179.397C293.673 178.785 294.077 178.229 294.585 177.761C295.094 177.292 295.697 176.92 296.362 176.667C297.026 176.413 297.738 176.283 298.458 176.283C299.177 176.283 299.889 176.413 300.553 176.667C301.218 176.92 301.822 177.292 302.33 177.761C302.839 178.229 303.242 178.785 303.517 179.397C303.792 180.009 303.934 180.665 303.934 181.328L304.619 193.94Z" fill="#15CEFF"/>
<defs>
<filter id="filter0_d_660_1213" x="1.95703" y="2.5" width="413.887" height="459.903" filterUnits="userSpaceOnUse" color-interpolation-filters="sRGB">
<feFlood flood-opacity="0" result="BackgroundImageFix"/>
<feColorMatrix in="SourceAlpha" type="matrix" values="0 0 0 0 0 0 0 0 0 0 0 0 0 0 0 0 0 0 127 0" result="hardAlpha"/>
<feOffset/>
<feGaussianBlur stdDeviation="3"/>
<feColorMatrix type="matrix" values="0 0 0 0 0 0 0 0 0 0 0 0 0 0 0 0 0 0 0.161 0"/>
<feBlend mode="normal" in2="BackgroundImageFix" result="effect1_dropShadow_660_1213"/>
<feBlend mode="normal" in="SourceGraphic" in2="effect1_dropShadow_660_1213" result="shape"/>
</filter>
<clipPath id="clip0_660_1213">
<rect width="256" height="212" fill="white" transform="translate(75 126)"/>
</clipPath>
</defs>
</svg>
