<svg width="258" height="258" viewBox="0 0 258 258" fill="none" xmlns="http://www.w3.org/2000/svg">
<g id="img_iOS">
<rect id="Rectangle 327" x="1" y="1" width="256" height="256" rx="8" stroke="#15CEFF" stroke-width="2" stroke-linecap="round" stroke-dasharray="5 12"/>
<g id="Group 615">
<path id="Vector" d="M78.8403 192.046H81.0195L82.0566 184.314H78.8403V192.046Z" fill="#A0616A"/>
<path id="Vector_2" d="M78.1285 190.673L81.61 190.482V191.854L84.92 193.957C85.0835 194.061 85.2067 194.21 85.2714 194.382C85.3362 194.555 85.3393 194.743 85.2802 194.917C85.221 195.091 85.1028 195.244 84.9428 195.352C84.7827 195.461 84.5892 195.519 84.3906 195.519H80.2456L79.5312 194.162L79.2522 195.519H77.6895L78.1285 190.673Z" fill="#2F2E41"/>
<path id="Vector_3" d="M96.269 192.046H98.4482L99.4855 184.314H96.269V192.046Z" fill="#A0616A"/>
<path id="Vector_4" d="M95.5576 190.673L99.0392 190.482V191.854L102.349 193.957C102.513 194.061 102.636 194.21 102.701 194.382C102.765 194.555 102.768 194.743 102.709 194.917C102.65 195.091 102.532 195.244 102.372 195.352C102.212 195.461 102.018 195.519 101.82 195.519H97.6748L96.9604 194.162L96.6814 195.519H95.1187L95.5576 190.673Z" fill="#2F2E41"/>
<path id="Vector_5" d="M80.5645 144.824L92.1506 145.091V133.573L82.6335 133.616L80.5645 144.824Z" fill="#A0616A"/>
<path id="Vector_6" d="M92.2101 136.531L93.7589 141.278L96.974 147.504L103.766 183.465L102.727 188.439L92.659 188.05L88.1748 157.217L88.1027 161.474L88.0678 163.534C88.0678 163.534 89.7033 176.934 87.7968 179.535C85.8903 182.135 87.758 181.829 87.758 181.829L87.6671 187.194L75.7373 187.272L78.3692 171.827C78.3692 171.827 79.7056 170.857 78.9906 169.881C78.2756 168.905 79.6836 167.71 79.6836 167.71L79.0521 155.653C79.0521 155.653 79.7513 153.571 78.9288 153.3C78.1063 153.029 78.8208 151.238 78.8208 151.238L78.6986 148.904L81.4049 139.492L92.2101 136.531Z" fill="#2F2E41"/>
<path id="Vector_7" d="M80.9828 133.573L79.7983 130.304L78.9522 129.215L78.6138 126.102C78.6138 117.697 80.652 119.097 80.652 119.097L83.3106 116.141L86.3353 116.054L88.7256 115.985L90.7128 119.02L93.5895 119.954L94.716 125.338L92.6588 131.083L92.7495 130.656C93.7179 132.3 93.4716 132.548 92.6697 133.782L92.6298 134.228C92.5356 135.282 93.3342 135.464 92.2099 135.685C82.5542 137.589 81.6346 141.395 80.4851 139.915C80.2291 139.585 81.3154 135.651 80.9449 135.685C79.93 135.779 80.9828 133.573 80.9828 133.573Z" fill="#E6E6E6"/>
<path id="Vector_8" d="M86.9002 114.94C89.6726 114.94 91.9201 112.873 91.9201 110.323C91.9201 107.773 89.6726 105.705 86.9002 105.705C84.1278 105.705 81.8804 107.773 81.8804 110.323C81.8804 112.873 84.1278 114.94 86.9002 114.94Z" fill="#A0616A"/>
<path id="Vector_9" d="M76.3114 143.266L76.8254 127L80.1735 128.348L78.5043 143.207C78.7667 143.405 78.957 143.672 79.0498 143.973C79.1426 144.273 79.1334 144.593 79.0236 144.888C78.9137 145.184 78.7084 145.442 78.435 145.627C78.1617 145.813 77.8333 145.917 77.4938 145.926C77.1543 145.935 76.8199 145.849 76.5351 145.679C76.2504 145.508 76.029 145.262 75.9005 144.973C75.7719 144.684 75.7424 144.365 75.8158 144.06C75.8893 143.755 76.0621 143.478 76.3114 143.266Z" fill="#A0616A"/>
<path id="Vector_10" d="M80.592 119.012L80.2027 119.126C79.1623 119.428 78.2537 120.027 77.6088 120.836C76.9639 121.646 76.6162 122.623 76.6162 123.627L75.8838 126.711C76.9448 128.386 78.5131 129.215 80.6966 129.021L80.592 119.012Z" fill="#E6E6E6"/>
<path id="Vector_11" d="M103.478 124.627C103.479 124.399 103.423 124.174 103.317 123.968C103.211 123.762 103.056 123.581 102.864 123.437C102.672 123.293 102.447 123.19 102.206 123.136C101.965 123.082 101.715 123.078 101.472 123.125C101.229 123.171 101.001 123.267 100.804 123.405C100.606 123.542 100.445 123.719 100.331 123.921C100.217 124.124 100.154 124.347 100.145 124.575C100.137 124.803 100.184 125.029 100.283 125.238L97.0002 129.996V127.142L93.2969 127.511L93.8153 132.597C93.8568 133.004 94.0385 133.388 94.334 133.694C94.6295 133.999 95.0233 134.21 95.458 134.295C95.8928 134.381 96.3458 134.336 96.7511 134.168C97.1564 134 97.4928 133.717 97.7113 133.361L102.149 126.129C102.525 126.057 102.862 125.869 103.104 125.595C103.346 125.322 103.478 124.98 103.478 124.627Z" fill="#A0616A"/>
<path id="Vector_12" d="M92.9966 119.777L93.369 119.885C94.3643 120.174 95.2334 120.748 95.8504 121.522C96.4673 122.296 96.8 123.231 96.8 124.191L97.5006 127.142C96.4856 128.744 94.9853 129.538 92.8965 129.352L92.9966 119.777Z" fill="#E6E6E6"/>
<path id="Vector_13" d="M80.4567 111.354C80.7371 110.372 80.8425 109.345 81.2475 108.401C81.6496 107.464 82.3308 106.65 83.213 106.052C84.0951 105.455 85.1425 105.098 86.235 105.024C87.3274 104.949 88.4206 105.159 89.3892 105.63C90.3578 106.1 91.1625 106.813 91.7111 107.685C92.1918 108.392 92.3945 109.23 92.2853 110.059C92.1255 110.96 91.4766 111.817 91.6798 112.71C91.8157 113.308 92.3067 113.773 92.6965 114.267C93.0863 114.762 93.3941 115.416 93.1132 115.969C92.8082 116.57 91.9609 116.748 91.2423 116.692C90.5237 116.635 89.804 116.422 89.0946 116.541L89.4324 115.324C88.5916 116.068 87.7507 116.813 86.9099 117.557C87.003 116.782 86.6116 116.039 86.3417 115.3C86.0718 114.561 85.946 113.671 86.4807 113.066C86.8005 112.704 87.2933 112.522 87.7331 112.29C88.1729 112.058 88.6094 111.712 88.6542 111.247C88.7096 110.673 88.1503 110.212 87.6011 109.935C87.0519 109.657 86.4194 109.425 86.1111 108.923C86.3324 109.36 86.5537 109.796 86.7749 110.233C86.0391 110.186 85.33 109.96 84.7192 109.58C84.1085 109.199 83.6175 108.677 83.2961 108.067L82.9929 108.249C80.4721 110.849 83.7002 114.745 81.8078 116.108C82.6389 114.745 80.025 112.865 80.4567 111.354Z" fill="#2F2E41"/>
<path id="Vector_14" d="M146.079 62.4513L100.024 74.7067C92.8614 76.6128 88.7346 83.4991 90.8068 90.0876L121.253 186.889C123.325 193.478 130.812 197.274 137.975 195.368L184.03 183.112C191.193 181.206 195.32 174.32 193.248 167.732L162.801 70.9297C160.729 64.3411 153.242 60.5452 146.079 62.4513Z" fill="#3F3D56"/>
<path id="Vector_15" d="M146.432 63.5685L140.409 65.1712L141.011 67.085C141.283 67.9512 141.17 68.8815 140.697 69.6712C140.224 70.4609 139.429 71.0454 138.487 71.296L111.579 78.4563C110.638 78.7069 109.626 78.6031 108.768 78.1678C107.909 77.7325 107.274 77.0013 107.001 76.1351L106.399 74.2213L100.377 75.8239C97.261 76.6565 94.6317 78.5918 93.0655 81.2053C91.4993 83.8187 91.1241 86.8969 92.0222 89.7645L122.468 186.566C123.374 189.432 125.478 191.85 128.319 193.291C131.16 194.732 134.507 195.077 137.624 194.251L183.679 181.995C186.795 181.163 189.424 179.227 190.99 176.614C192.557 174.001 192.932 170.922 192.034 168.055L161.587 71.253C160.682 68.3872 158.578 65.9688 155.737 64.5282C152.896 63.0876 149.549 62.7425 146.432 63.5685Z" fill="white"/>
<path id="Vector_16" d="M94.4226 102.724C94.1883 102.786 93.9368 102.76 93.7233 102.652C93.5098 102.543 93.3517 102.362 93.2837 102.146L92.7726 100.521C92.739 100.415 92.7286 100.303 92.742 100.192C92.7554 100.082 92.7923 99.9751 92.8506 99.8778C92.9089 99.7805 92.9874 99.6948 93.0818 99.6254C93.1761 99.5561 93.2844 99.5045 93.4004 99.4736C93.5164 99.4428 93.6378 99.4332 93.7579 99.4455C93.8779 99.4578 93.9941 99.4918 94.0998 99.5454C94.2056 99.599 94.2988 99.6713 94.3742 99.758C94.4496 99.8448 94.5057 99.9444 94.5393 100.051L95.0504 101.676C95.1179 101.892 95.0897 102.123 94.972 102.319C94.8543 102.516 94.6567 102.661 94.4226 102.724Z" fill="#3F3D56"/>
<path id="Vector_17" d="M97.0435 111.057C96.8093 111.119 96.5578 111.093 96.3443 110.984C96.1307 110.876 95.9726 110.694 95.9046 110.479L94.4976 106.006C94.4641 105.899 94.4537 105.787 94.4671 105.677C94.4805 105.567 94.5174 105.46 94.5757 105.362C94.634 105.265 94.7125 105.179 94.8069 105.11C94.9012 105.041 95.0095 104.989 95.1255 104.958C95.2415 104.927 95.3629 104.918 95.483 104.93C95.603 104.942 95.7192 104.976 95.8249 105.03C95.9307 105.084 96.0239 105.156 96.0993 105.243C96.1747 105.329 96.2308 105.429 96.2644 105.536L97.6713 110.009C97.7388 110.225 97.7106 110.456 97.5929 110.652C97.4752 110.849 97.2777 110.994 97.0435 111.057Z" fill="#3F3D56"/>
<path id="Vector_18" d="M99.15 117.756C98.9157 117.818 98.6642 117.792 98.4507 117.683C98.2372 117.575 98.0791 117.393 98.011 117.178L96.6041 112.705C96.5363 112.489 96.5644 112.258 96.6821 112.061C96.7999 111.865 96.9976 111.72 97.2319 111.657C97.4662 111.595 97.7178 111.621 97.9314 111.729C98.145 111.837 98.3031 112.019 98.3708 112.235L99.7778 116.708C99.8453 116.923 99.8171 117.155 99.6994 117.351C99.5817 117.548 99.3841 117.693 99.15 117.756Z" fill="#3F3D56"/>
<path id="Vector_19" d="M170.436 94.8237C170.202 94.8858 169.951 94.8598 169.737 94.7516C169.524 94.6433 169.365 94.4616 169.297 94.2462L165.864 83.3312C165.797 83.1157 165.825 82.8842 165.942 82.6878C166.06 82.4913 166.258 82.3459 166.492 82.2836C166.726 82.2212 166.978 82.247 167.192 82.3553C167.405 82.4636 167.563 82.6455 167.631 82.861L171.064 93.7761C171.132 93.9916 171.103 94.2229 170.986 94.4193C170.868 94.6157 170.67 94.7611 170.436 94.8237Z" fill="#3F3D56"/>
<path id="Vector_20" d="M111.867 100.769C111.786 100.791 111.698 100.784 111.622 100.75L107.161 98.7731C107.12 98.755 107.084 98.7298 107.053 98.6987C107.023 98.6676 107 98.6314 106.985 98.5921C106.97 98.5527 106.964 98.5111 106.966 98.4695C106.969 98.4279 106.98 98.3872 107 98.3497L109.149 94.2464C109.169 94.2089 109.196 94.1753 109.23 94.1475C109.264 94.1198 109.303 94.0984 109.346 94.0847C109.389 94.0709 109.434 94.0651 109.479 94.0674C109.524 94.0697 109.569 94.0803 109.609 94.0983C109.65 94.1164 109.687 94.1417 109.717 94.1728C109.747 94.2038 109.77 94.2401 109.785 94.2794C109.8 94.3187 109.807 94.3603 109.804 94.4019C109.801 94.4435 109.79 94.4842 109.77 94.5218L107.771 98.3393L111.921 100.178C111.984 100.206 112.036 100.251 112.071 100.307C112.106 100.363 112.121 100.427 112.115 100.491C112.109 100.555 112.083 100.615 112.038 100.665C111.994 100.715 111.934 100.751 111.867 100.769Z" fill="#15CEFF"/>
<path id="Vector_21" d="M114.402 100.085C114.334 100.103 114.262 100.102 114.195 100.081C114.128 100.06 114.069 100.02 114.028 99.9673C113.986 99.9146 113.963 99.8514 113.962 99.7862C113.96 99.721 113.981 99.657 114.021 99.603L116.601 96.0926L112.785 93.7192C112.747 93.6959 112.715 93.666 112.69 93.6313C112.665 93.5965 112.647 93.5575 112.639 93.5166C112.63 93.4756 112.63 93.4335 112.639 93.3926C112.648 93.3518 112.666 93.313 112.692 93.2784C112.717 93.2439 112.749 93.2142 112.787 93.1913C112.825 93.1683 112.868 93.1525 112.912 93.1446C112.957 93.1367 113.002 93.137 113.047 93.1455C113.091 93.1539 113.133 93.1703 113.171 93.1938L117.273 95.7448C117.311 95.7681 117.343 95.798 117.368 95.8328C117.393 95.8676 117.41 95.9065 117.418 95.9474C117.427 95.9883 117.427 96.0303 117.418 96.0711C117.409 96.112 117.391 96.1507 117.365 96.1852L114.592 99.9584C114.547 100.02 114.48 100.065 114.402 100.085Z" fill="#15CEFF"/>
<path id="Vector_22" d="M159.581 92.5393L106.958 106.542C106.146 106.758 105.275 106.668 104.535 106.293C103.795 105.918 103.248 105.288 103.012 104.542L100.055 95.1401C99.821 94.3935 99.9187 93.5921 100.326 92.9117C100.734 92.2313 101.419 91.7274 102.23 91.5106L154.853 77.5075C155.664 77.2924 156.536 77.3823 157.276 77.7573C158.015 78.1324 158.563 78.7621 158.799 79.5082L161.756 88.9098C161.99 89.6564 161.892 90.4579 161.484 91.1383C161.076 91.8187 160.392 92.3226 159.581 92.5393ZM102.358 91.9169C101.664 92.1024 101.078 92.5335 100.729 93.1158C100.38 93.698 100.296 94.3837 100.497 95.0226L103.454 104.424C103.655 105.063 104.124 105.601 104.757 105.922C105.39 106.243 106.135 106.32 106.83 106.136L159.453 92.1331C160.147 91.9476 160.733 91.5164 161.082 90.9342C161.431 90.352 161.514 89.6662 161.314 89.0274L158.357 79.6257C158.155 78.9873 157.687 78.4485 157.054 78.1276C156.421 77.8066 155.675 77.7297 154.981 77.9137L102.358 91.9169Z" fill="#3F3D56"/>
<path id="Vector_23" d="M132.194 90.1409L123.36 92.4916C123.126 92.5539 122.874 92.5281 122.661 92.4198C122.447 92.3115 122.289 92.1296 122.221 91.9141C122.154 91.6986 122.182 91.4672 122.299 91.2707C122.417 91.0743 122.615 90.9289 122.849 90.8665L131.683 88.5159C131.917 88.4535 132.169 88.4793 132.382 88.5876C132.596 88.6959 132.754 88.8778 132.822 89.0933C132.889 89.3088 132.861 89.5403 132.744 89.7367C132.626 89.9332 132.428 90.0786 132.194 90.1409Z" fill="#E6E6E6"/>
<path id="Vector_24" d="M152.592 89.556L124.545 97.0194C124.311 97.0817 124.059 97.0559 123.846 96.9476C123.632 96.8393 123.474 96.6574 123.406 96.4419C123.339 96.2264 123.367 95.995 123.484 95.7985C123.602 95.602 123.8 95.4566 124.034 95.3943L152.081 87.9309C152.315 87.8686 152.567 87.8944 152.781 88.0027C152.994 88.111 153.152 88.2929 153.22 88.5084C153.288 88.7239 153.26 88.9553 153.142 89.1518C153.024 89.3482 152.826 89.4936 152.592 89.556Z" fill="#E6E6E6"/>
<path id="Vector_25" d="M131.814 165.051C131.732 165.072 131.645 165.066 131.568 165.032L127.107 163.055C127.066 163.037 127.03 163.011 127 162.98C126.97 162.949 126.946 162.913 126.931 162.874C126.916 162.834 126.91 162.793 126.913 162.751C126.915 162.71 126.927 162.669 126.946 162.631L129.095 158.528C129.135 158.452 129.206 158.394 129.292 158.366C129.378 158.339 129.473 158.344 129.556 158.38C129.638 158.417 129.701 158.482 129.732 158.561C129.762 158.641 129.756 158.728 129.717 158.804L127.717 162.621L131.868 164.46C131.931 164.488 131.983 164.533 132.017 164.588C132.052 164.644 132.067 164.708 132.062 164.772C132.056 164.836 132.029 164.897 131.985 164.947C131.94 164.997 131.881 165.033 131.814 165.051Z" fill="#15CEFF"/>
<path id="Vector_26" d="M134.349 164.367C134.281 164.385 134.209 164.384 134.142 164.363C134.075 164.342 134.016 164.302 133.974 164.249C133.933 164.197 133.91 164.133 133.908 164.068C133.907 164.003 133.928 163.939 133.967 163.885L136.548 160.374L132.731 158.001C132.656 157.954 132.604 157.881 132.586 157.798C132.569 157.716 132.588 157.63 132.639 157.561C132.69 157.491 132.77 157.443 132.859 157.427C132.949 157.411 133.042 157.428 133.118 157.475L137.22 160.027C137.296 160.074 137.348 160.147 137.365 160.229C137.383 160.312 137.364 160.397 137.312 160.467L134.539 164.24C134.494 164.302 134.427 164.347 134.349 164.367Z" fill="#15CEFF"/>
<path id="Vector_27" d="M183.731 169.324L131.108 183.327C130.296 183.542 129.425 183.452 128.685 183.077C127.946 182.702 127.398 182.072 127.162 181.326L119.541 157.096C119.307 156.349 119.405 155.548 119.813 154.867C120.221 154.187 120.905 153.683 121.716 153.466L174.339 139.463C175.151 139.248 176.022 139.338 176.762 139.713C177.502 140.088 178.049 140.718 178.285 141.464L185.906 165.694C186.14 166.441 186.042 167.242 185.634 167.923C185.227 168.603 184.542 169.107 183.731 169.324ZM121.844 153.873C121.15 154.058 120.564 154.489 120.215 155.071C119.866 155.654 119.783 156.339 119.983 156.978L127.604 181.209C127.805 181.847 128.274 182.386 128.907 182.707C129.54 183.028 130.286 183.105 130.98 182.921L183.603 168.918C184.297 168.732 184.883 168.301 185.232 167.719C185.581 167.136 185.664 166.451 185.464 165.812L177.843 141.581C177.642 140.943 177.173 140.404 176.54 140.083C175.907 139.762 175.161 139.685 174.467 139.869L121.844 153.873Z" fill="#3F3D56"/>
<path id="Vector_28" d="M152.14 154.423L143.307 156.773C143.191 156.804 143.069 156.814 142.949 156.802C142.829 156.79 142.713 156.756 142.607 156.702C142.501 156.649 142.407 156.576 142.332 156.49C142.256 156.403 142.2 156.303 142.167 156.196C142.133 156.089 142.123 155.978 142.136 155.867C142.15 155.757 142.187 155.65 142.245 155.552C142.303 155.455 142.382 155.369 142.477 155.3C142.571 155.231 142.68 155.179 142.796 155.148L151.629 152.798C151.863 152.736 152.115 152.762 152.328 152.87C152.541 152.978 152.699 153.16 152.767 153.375C152.835 153.591 152.807 153.822 152.689 154.018C152.572 154.215 152.374 154.36 152.14 154.423Z" fill="#E6E6E6"/>
<path id="Vector_29" d="M172.538 153.838L144.491 161.301C144.375 161.332 144.253 161.342 144.133 161.33C144.013 161.317 143.897 161.283 143.791 161.23C143.685 161.176 143.592 161.104 143.516 161.017C143.441 160.93 143.385 160.831 143.351 160.724C143.318 160.617 143.307 160.505 143.321 160.395C143.334 160.284 143.371 160.177 143.429 160.08C143.488 159.983 143.567 159.897 143.661 159.828C143.755 159.758 143.864 159.707 143.98 159.676L172.027 152.213C172.261 152.15 172.513 152.176 172.726 152.284C172.94 152.393 173.098 152.575 173.166 152.79C173.234 153.006 173.206 153.237 173.088 153.434C172.97 153.63 172.772 153.775 172.538 153.838Z" fill="#E6E6E6"/>
<path id="Vector_30" d="M111.174 118.659L108.596 119.345C108.245 119.438 108.043 119.776 108.145 120.099L108.359 120.782C108.461 121.106 108.828 121.292 109.18 121.198L111.757 120.513C112.109 120.419 112.311 120.081 112.209 119.758L111.994 119.075C111.893 118.751 111.525 118.565 111.174 118.659Z" fill="#E6E6E6"/>
<path id="Vector_31" d="M132.16 113.074L129.583 113.76C129.232 113.854 129.029 114.191 129.131 114.515L129.346 115.198C129.447 115.521 129.815 115.707 130.166 115.614L132.744 114.928C133.095 114.835 133.297 114.497 133.196 114.174L132.981 113.49C132.879 113.167 132.512 112.981 132.16 113.074Z" fill="#15CEFF"/>
<path id="Vector_32" d="M138.106 111.492L135.529 112.178C135.177 112.271 134.975 112.609 135.077 112.932L135.292 113.616C135.393 113.939 135.76 114.125 136.112 114.032L138.689 113.346C139.041 113.252 139.243 112.914 139.141 112.591L138.926 111.908C138.825 111.585 138.458 111.398 138.106 111.492Z" fill="#E6E6E6"/>
<path id="Vector_33" d="M126.404 114.439L114.256 117.671C113.905 117.765 113.703 118.102 113.804 118.426L114.019 119.109C114.121 119.432 114.488 119.618 114.839 119.525L126.987 116.292C127.338 116.199 127.54 115.861 127.439 115.538L127.224 114.855C127.122 114.531 126.755 114.345 126.404 114.439Z" fill="#E6E6E6"/>
<path id="Vector_34" d="M154.385 106.993L142.238 110.225C141.886 110.319 141.684 110.656 141.786 110.98L142.001 111.663C142.102 111.986 142.469 112.172 142.821 112.079L154.968 108.846C155.32 108.753 155.522 108.415 155.42 108.092L155.205 107.409C155.104 107.085 154.736 106.899 154.385 106.993Z" fill="#F2F2F2"/>
<path id="Vector_35" d="M112.564 122.821L109.987 123.507C109.635 123.6 109.433 123.938 109.535 124.262L109.75 124.945C109.851 125.268 110.218 125.454 110.57 125.361L113.147 124.675C113.499 124.582 113.701 124.244 113.599 123.92L113.384 123.237C113.283 122.914 112.916 122.728 112.564 122.821Z" fill="#E6E6E6"/>
<path id="Vector_36" d="M133.551 117.236L130.973 117.922C130.622 118.016 130.42 118.354 130.521 118.677L130.736 119.36C130.838 119.684 131.205 119.87 131.557 119.776L134.134 119.09C134.485 118.997 134.688 118.659 134.586 118.336L134.371 117.653C134.27 117.329 133.902 117.143 133.551 117.236Z" fill="#15CEFF"/>
<path id="Vector_37" d="M139.497 115.654L136.92 116.34C136.568 116.434 136.366 116.771 136.468 117.095L136.683 117.778C136.784 118.101 137.152 118.288 137.503 118.194L140.08 117.508C140.432 117.415 140.634 117.077 140.532 116.754L140.318 116.07C140.216 115.747 139.849 115.561 139.497 115.654Z" fill="#E6E6E6"/>
<path id="Vector_38" d="M127.794 118.601L115.646 121.833C115.295 121.927 115.093 122.265 115.194 122.588L115.409 123.271C115.511 123.595 115.878 123.781 116.229 123.687L128.377 120.455C128.728 120.361 128.931 120.024 128.829 119.7L128.614 119.017C128.512 118.694 128.145 118.507 127.794 118.601Z" fill="#E6E6E6"/>
<path id="Vector_39" d="M155.777 111.154L143.629 114.387C143.278 114.48 143.076 114.818 143.177 115.141L143.392 115.825C143.494 116.148 143.861 116.334 144.212 116.241L156.36 113.008C156.711 112.915 156.914 112.577 156.812 112.254L156.597 111.57C156.495 111.247 156.128 111.061 155.777 111.154Z" fill="#F2F2F2"/>
<path id="Vector_40" d="M124.997 124.045L122.42 124.731C122.068 124.824 121.866 125.162 121.968 125.486L122.183 126.169C122.284 126.492 122.652 126.678 123.003 126.585L125.58 125.899C125.932 125.806 126.134 125.468 126.032 125.144L125.818 124.461C125.716 124.138 125.349 123.952 124.997 124.045Z" fill="#E6E6E6"/>
<path id="Vector_41" d="M145.983 118.461L143.406 119.147C143.054 119.24 142.852 119.578 142.954 119.901L143.169 120.584C143.27 120.908 143.637 121.094 143.989 121L146.566 120.315C146.918 120.221 147.12 119.883 147.018 119.56L146.803 118.877C146.702 118.553 146.335 118.367 145.983 118.461Z" fill="#15CEFF"/>
<path id="Vector_42" d="M151.93 116.878L149.352 117.564C149.001 117.658 148.799 117.995 148.9 118.319L149.115 119.002C149.217 119.325 149.584 119.512 149.935 119.418L152.513 118.732C152.864 118.639 153.067 118.301 152.965 117.978L152.75 117.294C152.648 116.971 152.281 116.785 151.93 116.878Z" fill="#E6E6E6"/>
<path id="Vector_43" d="M140.227 119.825L128.079 123.058C127.728 123.151 127.526 123.489 127.627 123.812L127.842 124.495C127.944 124.819 128.311 125.005 128.662 124.911L140.81 121.679C141.161 121.585 141.364 121.248 141.262 120.924L141.047 120.241C140.945 119.918 140.578 119.732 140.227 119.825Z" fill="#E6E6E6"/>
<path id="Vector_44" d="M168.21 112.378L156.062 115.611C155.711 115.704 155.509 116.042 155.61 116.365L155.825 117.049C155.927 117.372 156.294 117.558 156.645 117.465L168.793 114.232C169.144 114.139 169.347 113.801 169.245 113.478L169.03 112.794C168.928 112.471 168.561 112.285 168.21 112.378Z" fill="#F2F2F2"/>
<path id="Vector_45" d="M117.667 139.28L115.089 139.966C114.738 140.06 114.536 140.397 114.637 140.721L114.852 141.404C114.954 141.727 115.321 141.913 115.672 141.82L118.25 141.134C118.601 141.041 118.804 140.703 118.702 140.38L118.487 139.696C118.385 139.373 118.018 139.187 117.667 139.28Z" fill="#15CEFF"/>
<path id="Vector_46" d="M123.613 137.698L121.035 138.384C120.684 138.477 120.481 138.815 120.583 139.138L120.798 139.822C120.9 140.145 121.267 140.331 121.618 140.238L124.196 139.552C124.547 139.458 124.749 139.121 124.648 138.797L124.433 138.114C124.331 137.791 123.964 137.604 123.613 137.698Z" fill="#E6E6E6"/>
<path id="Vector_47" d="M139.989 133.508L127.841 136.74C127.49 136.834 127.287 137.171 127.389 137.495L127.604 138.178C127.706 138.501 128.073 138.687 128.424 138.594L140.572 135.361C140.923 135.268 141.125 134.93 141.024 134.607L140.809 133.924C140.707 133.6 140.34 133.414 139.989 133.508Z" fill="#F2F2F2"/>
<path id="Vector_48" d="M131.664 131.023L129.087 131.709C128.735 131.802 128.533 132.14 128.635 132.463L128.85 133.147C128.951 133.47 129.319 133.656 129.67 133.563L132.247 132.877C132.599 132.783 132.801 132.445 132.699 132.122L132.485 131.439C132.383 131.116 132.016 130.929 131.664 131.023Z" fill="#15CEFF"/>
<path id="Vector_49" d="M137.611 129.44L135.033 130.126C134.682 130.219 134.48 130.557 134.582 130.88L134.796 131.564C134.898 131.887 135.265 132.073 135.617 131.98L138.194 131.294C138.546 131.2 138.748 130.863 138.646 130.539L138.431 129.856C138.33 129.533 137.962 129.346 137.611 129.44Z" fill="#15CEFF"/>
<path id="Vector_50" d="M126.005 132.696L113.858 135.929C113.506 136.022 113.304 136.36 113.406 136.683L113.621 137.367C113.722 137.69 114.09 137.876 114.441 137.783L126.588 134.55C126.94 134.457 127.142 134.119 127.04 133.796L126.825 133.112C126.724 132.789 126.357 132.603 126.005 132.696Z" fill="#E6E6E6"/>
<path id="Vector_51" d="M153.987 125.25L141.84 128.482C141.488 128.576 141.286 128.913 141.388 129.237L141.603 129.92C141.704 130.243 142.071 130.429 142.423 130.336L154.57 127.103C154.922 127.01 155.124 126.672 155.022 126.349L154.807 125.666C154.706 125.342 154.339 125.156 153.987 125.25Z" fill="#F2F2F2"/>
<path id="Vector_52" d="M126.222 127.939L123.644 128.624C123.293 128.718 123.091 129.056 123.192 129.379L123.407 130.062C123.509 130.386 123.876 130.572 124.227 130.478L126.805 129.792C127.156 129.699 127.359 129.361 127.257 129.038L127.042 128.355C126.94 128.031 126.573 127.845 126.222 127.939Z" fill="#E6E6E6"/>
<path id="Vector_53" d="M147.208 122.354L144.631 123.04C144.279 123.133 144.077 123.471 144.179 123.794L144.394 124.478C144.495 124.801 144.862 124.987 145.214 124.894L147.791 124.208C148.143 124.114 148.345 123.777 148.243 123.453L148.028 122.77C147.927 122.447 147.56 122.261 147.208 122.354Z" fill="#15CEFF"/>
<path id="Vector_54" d="M153.154 120.772L150.576 121.458C150.225 121.551 150.023 121.889 150.125 122.212L150.339 122.895C150.441 123.219 150.808 123.405 151.16 123.311L153.737 122.626C154.088 122.532 154.291 122.194 154.189 121.871L153.974 121.188C153.873 120.864 153.505 120.678 153.154 120.772Z" fill="#E6E6E6"/>
<path id="Vector_55" d="M141.549 124.027L129.402 127.26C129.05 127.353 128.848 127.691 128.95 128.014L129.165 128.698C129.266 129.021 129.633 129.207 129.985 129.114L142.132 125.881C142.484 125.788 142.686 125.45 142.584 125.127L142.369 124.443C142.268 124.12 141.901 123.934 141.549 124.027Z" fill="#E6E6E6"/>
<path id="Vector_56" d="M169.53 116.581L157.383 119.814C157.031 119.907 156.829 120.245 156.931 120.568L157.146 121.252C157.247 121.575 157.614 121.761 157.966 121.668L170.113 118.435C170.465 118.342 170.667 118.004 170.565 117.681L170.35 116.997C170.249 116.674 169.882 116.488 169.53 116.581Z" fill="#F2F2F2"/>
<path id="Vector_57" d="M119.912 131.454C120.483 131.454 120.947 131.028 120.947 130.502C120.947 129.977 120.483 129.55 119.912 129.55C119.341 129.55 118.877 129.977 118.877 130.502C118.877 131.028 119.341 131.454 119.912 131.454Z" fill="#15CEFF"/>
<path id="Vector_58" d="M118.698 127.595C119.269 127.595 119.733 127.169 119.733 126.643C119.733 126.117 119.269 125.691 118.698 125.691C118.127 125.691 117.664 126.117 117.664 126.643C117.664 127.169 118.127 127.595 118.698 127.595Z" fill="#15CEFF"/>
<path id="Vector_59" d="M126.122 71.8007L119.276 73.6225C119.13 73.6608 118.973 73.6443 118.84 73.5766C118.707 73.5088 118.608 73.3954 118.566 73.261C118.524 73.1267 118.541 72.9824 118.614 72.8598C118.687 72.7372 118.81 72.6463 118.956 72.6069L125.802 70.7851C125.875 70.7655 125.951 70.7592 126.026 70.7668C126.102 70.7743 126.174 70.7954 126.241 70.8288C126.307 70.8623 126.366 70.9075 126.413 70.9618C126.46 71.0162 126.495 71.0786 126.516 71.1454C126.537 71.2123 126.544 71.2823 126.535 71.3515C126.527 71.4206 126.504 71.4876 126.467 71.5485C126.43 71.6093 126.381 71.663 126.322 71.7063C126.263 71.7496 126.195 71.7817 126.122 71.8007Z" fill="white"/>
<path id="Vector_60" d="M129.495 70.7759C129.749 70.7759 129.955 70.5865 129.955 70.3528C129.955 70.1191 129.749 69.9297 129.495 69.9297C129.242 69.9297 129.036 70.1191 129.036 70.3528C129.036 70.5865 129.242 70.7759 129.495 70.7759Z" fill="white"/>
<path id="Vector_61" d="M61.1478 195.574C61.0852 195.414 61.0417 195.249 61.0183 195.081C61.0157 195.069 61.0147 195.056 61.0153 195.044C60.8982 194.02 61.4728 193.071 62.1239 192.107L63.0165 190.788C63.0997 190.665 63.2208 190.568 63.3644 190.509C63.508 190.449 63.6675 190.431 63.8226 190.456C63.9776 190.48 64.1212 190.547 64.2348 190.647C64.3485 190.747 64.427 190.876 64.4605 191.018C64.509 191.223 64.5575 191.43 64.6038 191.637C65.0844 191.27 65.5862 190.929 66.0255 190.635C67.1858 189.861 68.3457 189.086 69.5053 188.309C69.6324 188.224 69.7843 188.176 69.9415 188.171C70.0986 188.165 70.2539 188.203 70.3875 188.28C70.5211 188.356 70.6269 188.467 70.6913 188.599C70.7557 188.731 70.7758 188.878 70.7491 189.02L70.5284 190.197C70.2353 191.759 69.9031 193.529 69.1172 195.077C69.0292 195.254 68.935 195.426 68.8375 195.589L68.8047 195.644H61.1752L61.1478 195.574Z" fill="#F0F0F0"/>
<path id="Vector_62" d="M151.269 172.014C150.523 172.213 149.73 172.204 148.99 171.987C148.249 171.771 147.596 171.358 147.111 170.8C146.626 170.242 146.332 169.565 146.266 168.853C146.2 168.141 146.364 167.427 146.739 166.802C147.114 166.176 147.682 165.667 148.372 165.339C149.061 165.01 149.841 164.877 150.613 164.956C151.385 165.035 152.114 165.323 152.708 165.783C153.301 166.244 153.734 166.855 153.949 167.542C154.239 168.462 154.119 169.45 153.616 170.289C153.114 171.128 152.269 171.748 151.269 172.014Z" fill="#E6E6E6"/>
<path id="Vector_63" d="M151.559 167.807L150.443 168.104L150.12 167.077C150.106 167.032 150.082 166.991 150.05 166.954C150.018 166.917 149.979 166.887 149.935 166.864C149.845 166.819 149.739 166.808 149.64 166.834C149.541 166.86 149.458 166.922 149.408 167.004C149.359 167.087 149.347 167.185 149.376 167.275L149.698 168.302L148.582 168.599C148.484 168.626 148.401 168.687 148.351 168.769C148.302 168.852 148.29 168.95 148.318 169.04C148.347 169.131 148.413 169.207 148.503 169.253C148.593 169.299 148.699 169.31 148.798 169.284L149.914 168.987L150.237 170.013C150.251 170.058 150.274 170.1 150.306 170.137C150.338 170.173 150.377 170.204 150.422 170.226C150.466 170.249 150.515 170.263 150.566 170.268C150.616 170.273 150.667 170.269 150.716 170.256C150.765 170.243 150.811 170.222 150.85 170.192C150.89 170.163 150.923 170.127 150.948 170.086C150.972 170.045 150.988 170 150.994 169.954C150.999 169.907 150.995 169.86 150.981 169.815L150.658 168.789L151.774 168.492C151.873 168.465 151.956 168.404 152.005 168.321C152.055 168.238 152.066 168.141 152.038 168.05C152.009 167.96 151.943 167.883 151.853 167.838C151.763 167.792 151.657 167.781 151.559 167.807Z" fill="white"/>
<path id="Vector_64" d="M162.304 169.078C161.558 169.277 160.765 169.267 160.025 169.051C159.285 168.835 158.631 168.422 158.146 167.864C157.661 167.306 157.367 166.628 157.301 165.916C157.235 165.205 157.4 164.491 157.774 163.865C158.149 163.24 158.717 162.731 159.407 162.402C160.096 162.074 160.876 161.941 161.648 162.02C162.42 162.099 163.149 162.387 163.743 162.847C164.337 163.307 164.769 163.919 164.985 164.605C165.274 165.525 165.154 166.514 164.651 167.352C164.149 168.191 163.304 168.812 162.304 169.078Z" fill="#E6E6E6"/>
<path id="Vector_65" d="M162.593 164.871L161.477 165.168L160.733 165.366L159.617 165.663C159.518 165.689 159.435 165.751 159.386 165.833C159.336 165.916 159.324 166.014 159.353 166.105C159.381 166.195 159.448 166.272 159.538 166.318C159.628 166.363 159.734 166.374 159.832 166.348L160.949 166.051L161.693 165.853L162.809 165.555C162.858 165.542 162.903 165.521 162.943 165.492C162.983 165.462 163.016 165.426 163.041 165.385C163.065 165.344 163.081 165.299 163.087 165.253C163.092 165.206 163.088 165.159 163.074 165.114C163.06 165.069 163.036 165.027 163.004 164.99C162.972 164.954 162.933 164.923 162.888 164.901C162.844 164.878 162.795 164.864 162.744 164.859C162.694 164.854 162.642 164.858 162.593 164.871Z" fill="white"/>
<path id="Vector_66" d="M173.339 166.142C172.593 166.34 171.8 166.331 171.059 166.115C170.319 165.899 169.665 165.485 169.181 164.927C168.696 164.369 168.402 163.692 168.336 162.98C168.269 162.268 168.434 161.555 168.809 160.929C169.184 160.304 169.752 159.794 170.442 159.466C171.131 159.137 171.911 159.004 172.683 159.083C173.455 159.162 174.184 159.45 174.777 159.911C175.371 160.371 175.803 160.983 176.019 161.669C176.309 162.589 176.189 163.577 175.686 164.416C175.183 165.255 174.339 165.876 173.339 166.142Z" fill="#E6E6E6"/>
<path id="Vector_67" d="M174.318 161.943L172.797 160.792C172.763 160.767 172.725 160.748 172.683 160.736C172.642 160.724 172.598 160.72 172.555 160.724C172.512 160.728 172.47 160.74 172.432 160.759C172.394 160.777 172.36 160.803 172.332 160.834C172.305 160.864 172.284 160.9 172.271 160.938C172.259 160.976 172.254 161.016 172.259 161.056C172.263 161.096 172.275 161.134 172.296 161.169C172.316 161.205 172.344 161.236 172.377 161.261L173.361 162.005L172.512 162.231L171.768 162.429L170.652 162.726C170.553 162.753 170.47 162.814 170.42 162.897C170.371 162.979 170.359 163.077 170.387 163.168C170.416 163.258 170.482 163.335 170.572 163.381C170.662 163.426 170.768 163.437 170.867 163.411L171.983 163.114L172.727 162.916L173.61 162.681L173.191 163.848C173.164 163.924 173.171 164.008 173.21 164.079C173.249 164.151 173.318 164.206 173.401 164.231C173.484 164.256 173.575 164.25 173.653 164.214C173.731 164.178 173.79 164.115 173.818 164.038L174.436 162.318C174.452 162.252 174.45 162.182 174.43 162.117C174.409 162.051 174.37 161.991 174.318 161.943Z" fill="white"/>
</g>
</g>
</svg>
