<svg width="258" height="258" viewBox="0 0 258 258" fill="none" xmlns="http://www.w3.org/2000/svg">
<rect x="1" y="1" width="256" height="256" rx="8" stroke="#15CEFF" stroke-width="2" stroke-linecap="round" stroke-dasharray="5 12"/>
<g opacity="0.1">
<path d="M153.13 157.495C153.13 157.495 158.026 146.397 167.169 142.28C171.017 140.578 174.161 137.773 176.129 134.287C177.048 132.624 177.799 130.887 178.374 129.097" stroke="#535461" stroke-width="2" stroke-miterlimit="10"/>
<path d="M184.118 126.47C183.165 127.572 178.233 129.185 178.233 129.185C178.233 129.185 178.827 124.394 179.78 123.301C180.253 122.817 180.909 122.517 181.614 122.463C182.319 122.409 183.02 122.605 183.574 123.01C184.127 123.415 184.492 123.999 184.594 124.643C184.695 125.287 184.526 125.942 184.12 126.475L184.118 126.47Z" fill="#15CEFF"/>
<path d="M182.426 135.199C180.975 135.648 175.884 134.532 175.884 134.532C175.884 134.532 179.209 130.814 180.66 130.365C181.342 130.199 182.068 130.277 182.689 130.585C183.31 130.893 183.781 131.406 184.006 132.021C184.23 132.636 184.192 133.307 183.899 133.897C183.605 134.488 183.079 134.953 182.426 135.199Z" fill="#15CEFF"/>
<path d="M173.249 145.515C171.75 145.229 167.967 141.901 167.967 141.901C167.967 141.901 172.877 140.236 174.377 140.522C175.056 140.696 175.637 141.1 176.004 141.654C176.37 142.208 176.494 142.868 176.351 143.503C176.207 144.138 175.807 144.698 175.231 145.072C174.655 145.445 173.946 145.603 173.249 145.514V145.515Z" fill="#15CEFF"/>
<path d="M164.394 151.884C162.865 151.834 158.524 149.143 158.524 149.143C158.524 149.143 163.059 146.743 164.589 146.788C164.969 146.777 165.347 146.838 165.701 146.967C166.054 147.096 166.375 147.291 166.643 147.538C166.912 147.786 167.122 148.082 167.261 148.408C167.4 148.733 167.465 149.082 167.452 149.431C167.438 149.781 167.347 150.124 167.183 150.44C167.02 150.756 166.788 151.037 166.501 151.267C166.214 151.497 165.88 151.671 165.517 151.777C165.155 151.883 164.773 151.919 164.394 151.884Z" fill="#15CEFF"/>
<path d="M171.144 131.413C171.34 132.81 174.655 136.534 174.655 136.534C174.655 136.534 176.837 132.159 176.642 130.761C176.507 130.125 176.113 129.559 175.541 129.18C174.969 128.801 174.261 128.636 173.562 128.718C172.862 128.801 172.223 129.126 171.774 129.626C171.325 130.127 171.1 130.765 171.144 131.413Z" fill="#15CEFF"/>
<path d="M160.891 138.981C161.532 140.258 165.907 142.901 165.907 142.901C165.907 142.901 166.566 138.125 165.926 136.847C165.789 136.521 165.581 136.224 165.315 135.975C165.049 135.726 164.73 135.529 164.378 135.398C164.026 135.266 163.649 135.203 163.269 135.211C162.889 135.219 162.515 135.299 162.17 135.445C161.825 135.591 161.517 135.801 161.264 136.061C161.01 136.322 160.818 136.627 160.698 136.959C160.578 137.29 160.533 137.641 160.566 137.989C160.6 138.337 160.71 138.675 160.891 138.982V138.981Z" fill="#15CEFF"/>
<path d="M152.023 147.594C152.419 148.955 156.247 152.238 156.247 152.238C156.247 152.238 157.774 147.634 157.377 146.274C157.15 145.66 156.677 145.149 156.055 144.844C155.434 144.538 154.709 144.462 154.028 144.63C153.347 144.798 152.761 145.197 152.389 145.748C152.017 146.298 151.886 146.958 152.023 147.594Z" fill="#15CEFF"/>
<path opacity="0.25" d="M184.118 126.47C183.165 127.572 178.233 129.185 178.233 129.185C178.233 129.185 178.827 124.394 179.78 123.301C180.253 122.817 180.909 122.517 181.614 122.463C182.319 122.409 183.02 122.605 183.574 123.01C184.127 123.415 184.492 123.999 184.594 124.643C184.695 125.287 184.526 125.942 184.12 126.475L184.118 126.47Z" fill="black"/>
<path opacity="0.25" d="M182.426 135.199C180.975 135.648 175.884 134.532 175.884 134.532C175.884 134.532 179.209 130.814 180.66 130.365C181.342 130.199 182.068 130.277 182.689 130.585C183.31 130.893 183.781 131.406 184.006 132.021C184.23 132.636 184.192 133.307 183.899 133.897C183.605 134.488 183.079 134.953 182.426 135.199Z" fill="black"/>
<path opacity="0.25" d="M173.249 145.515C171.75 145.229 167.967 141.901 167.967 141.901C167.967 141.901 172.877 140.236 174.377 140.522C175.056 140.696 175.637 141.1 176.004 141.654C176.37 142.208 176.494 142.868 176.351 143.503C176.207 144.138 175.807 144.698 175.231 145.072C174.655 145.445 173.946 145.603 173.249 145.514V145.515Z" fill="black"/>
<path opacity="0.25" d="M164.394 151.884C162.865 151.834 158.524 149.143 158.524 149.143C158.524 149.143 163.059 146.743 164.589 146.788C164.969 146.777 165.347 146.838 165.701 146.967C166.054 147.096 166.375 147.291 166.643 147.538C166.912 147.786 167.122 148.082 167.261 148.408C167.4 148.733 167.465 149.082 167.452 149.431C167.438 149.781 167.347 150.124 167.183 150.44C167.02 150.756 166.788 151.037 166.501 151.267C166.214 151.497 165.88 151.671 165.517 151.777C165.155 151.883 164.773 151.919 164.394 151.884Z" fill="black"/>
<path opacity="0.25" d="M171.144 131.413C171.34 132.81 174.655 136.534 174.655 136.534C174.655 136.534 176.837 132.159 176.642 130.761C176.507 130.125 176.113 129.559 175.541 129.18C174.969 128.801 174.261 128.636 173.562 128.718C172.862 128.801 172.223 129.126 171.774 129.626C171.325 130.127 171.1 130.765 171.144 131.413Z" fill="black"/>
<path opacity="0.25" d="M160.891 138.981C161.532 140.258 165.907 142.901 165.907 142.901C165.907 142.901 166.566 138.125 165.926 136.847C165.789 136.521 165.581 136.224 165.315 135.975C165.049 135.726 164.73 135.529 164.378 135.398C164.026 135.266 163.649 135.203 163.269 135.211C162.889 135.219 162.515 135.299 162.17 135.445C161.825 135.591 161.517 135.801 161.264 136.061C161.01 136.322 160.818 136.627 160.698 136.959C160.578 137.29 160.533 137.641 160.566 137.989C160.6 138.337 160.71 138.675 160.891 138.982V138.981Z" fill="black"/>
<path opacity="0.25" d="M152.023 147.594C152.419 148.955 156.247 152.238 156.247 152.238C156.247 152.238 157.774 147.634 157.377 146.274C157.15 145.66 156.677 145.149 156.055 144.844C155.434 144.538 154.709 144.462 154.028 144.63C153.347 144.798 152.761 145.197 152.389 145.748C152.017 146.298 151.886 146.958 152.023 147.594Z" fill="black"/>
</g>
<g opacity="0.1">
<path d="M149.658 141.267C149.658 141.267 150.276 129.303 157.417 122.63C160.428 119.848 162.378 116.242 162.972 112.354C163.24 110.506 163.323 108.639 163.221 106.777" stroke="#535461" stroke-width="2" stroke-miterlimit="10"/>
<path d="M167.714 102.547C167.212 103.877 163.139 106.9 163.139 106.9C163.139 106.9 161.976 102.207 162.478 100.877C162.577 100.538 162.751 100.223 162.989 99.9487C163.227 99.6749 163.524 99.4491 163.861 99.2852C164.198 99.1214 164.567 99.023 164.947 98.9963C165.327 98.9696 165.709 99.0151 166.069 99.1299C166.429 99.2448 166.76 99.4266 167.04 99.6639C167.321 99.9013 167.545 100.189 167.699 100.51C167.853 100.83 167.934 101.177 167.937 101.527C167.939 101.878 167.863 102.225 167.714 102.547Z" fill="#15CEFF"/>
<path d="M169.256 111.292C168.04 112.157 162.842 112.659 162.842 112.659C162.842 112.659 164.639 108.136 165.846 107.271C166.13 107.039 166.462 106.863 166.823 106.753C167.184 106.644 167.565 106.604 167.943 106.636C168.322 106.667 168.689 106.77 169.022 106.938C169.356 107.105 169.648 107.333 169.882 107.609C170.115 107.884 170.285 108.201 170.38 108.539C170.476 108.877 170.495 109.23 170.436 109.575C170.377 109.92 170.242 110.251 170.039 110.546C169.836 110.841 169.569 111.095 169.256 111.292Z" fill="#15CEFF"/>
<path d="M164.316 123.831C162.799 124.018 158.032 122.033 158.032 122.033C158.032 122.033 162.065 118.963 163.587 118.777C163.96 118.708 164.344 118.71 164.715 118.783C165.087 118.856 165.438 118.999 165.747 119.202C166.057 119.405 166.317 119.664 166.513 119.964C166.709 120.263 166.837 120.596 166.887 120.942C166.937 121.289 166.91 121.641 166.807 121.977C166.703 122.314 166.526 122.627 166.286 122.898C166.045 123.168 165.747 123.391 165.41 123.551C165.072 123.712 164.702 123.807 164.323 123.831H164.316Z" fill="#15CEFF"/>
<path d="M158.259 132.539C156.797 132.959 151.733 131.74 151.733 131.74C151.733 131.74 155.143 128.088 156.604 127.668C157.29 127.514 158.014 127.606 158.629 127.926C159.244 128.245 159.703 128.768 159.914 129.388C160.125 130.008 160.071 130.678 159.764 131.263C159.456 131.848 158.918 132.303 158.259 132.536V132.539Z" fill="#15CEFF"/>
<path d="M157.247 111.167C157.941 112.426 162.407 114.928 162.407 114.928C162.407 114.928 162.888 110.137 162.2 108.876C161.843 108.315 161.268 107.9 160.591 107.716C159.914 107.532 159.185 107.592 158.555 107.884C157.924 108.176 157.437 108.678 157.194 109.288C156.951 109.897 156.97 110.57 157.247 111.167Z" fill="#15CEFF"/>
<path d="M150.303 121.435C151.369 122.446 156.448 123.604 156.448 123.604C156.448 123.604 155.349 118.898 154.283 117.887C153.761 117.45 153.077 117.212 152.37 117.223C151.664 117.233 150.988 117.491 150.481 117.943C149.974 118.395 149.673 119.008 149.64 119.657C149.607 120.307 149.844 120.943 150.303 121.437V121.435Z" fill="#15CEFF"/>
<path d="M145.042 132.266C145.91 133.428 150.702 135.359 150.702 135.359C150.702 135.359 150.483 130.549 149.618 129.386C149.181 128.883 148.553 128.55 147.86 128.454C147.166 128.358 146.46 128.507 145.881 128.871C145.302 129.235 144.894 129.786 144.739 130.415C144.584 131.043 144.693 131.703 145.044 132.261L145.042 132.266Z" fill="#15CEFF"/>
</g>
<path opacity="0.1" d="M87.5381 181.845C94.3645 183.956 102.693 182.672 110.437 182.821C111.498 182.841 112.62 182.902 113.47 183.266C114.321 183.63 114.74 184.224 115.323 184.727C117.493 186.61 121.939 187.215 125.826 186.896C129.714 186.576 133.278 185.519 136.938 184.714C143.278 183.322 150.526 182.69 156.78 184.207C157.354 184.346 157.958 184.505 158.573 184.451C159.945 184.326 160.353 183.317 161.311 182.741C163.047 181.699 166.802 181.982 167.561 180.61C168.007 179.812 166.981 178.982 165.865 178.432C161.59 176.331 155.476 175.984 149.882 176.308C144.288 176.633 138.788 177.527 133.165 177.53C126.16 177.53 119.391 176.158 112.453 175.596C107.648 175.206 102.403 175.254 97.8975 176.395C93.0277 177.643 91.9513 180.428 87.5381 181.845Z" fill="#15CEFF"/>
<path d="M100.172 87.49H98.9565V103.299H100.172V87.49Z" fill="#535461"/>
<path d="M100.172 108.729H98.9565V117.671H100.172V108.729Z" fill="#535461"/>
<path d="M146.335 72H108.002C103.486 72 99.8247 75.3675 99.8247 79.5214V173.707C99.8247 177.861 103.486 181.228 108.002 181.228H146.335C150.851 181.228 154.512 177.861 154.512 173.707V79.5214C154.512 75.3675 150.851 72 146.335 72Z" fill="#535461"/>
<path d="M146.335 77.1101H108.002C103.486 77.1101 99.8247 80.4776 99.8247 84.6315V169.076C99.8247 173.23 103.486 176.597 108.002 176.597H146.335C150.851 176.597 154.512 173.23 154.512 169.076V84.6315C154.512 80.4776 150.851 77.1101 146.335 77.1101Z" fill="white"/>
<path d="M131.161 74.3954H123.349C123.013 74.3954 122.741 74.6458 122.741 74.9547C122.741 75.2636 123.013 75.514 123.349 75.514H131.161C131.497 75.514 131.769 75.2636 131.769 74.9547C131.769 74.6458 131.497 74.3954 131.161 74.3954Z" fill="#EAEAF3"/>
<path d="M134.894 75.8332C135.373 75.8332 135.762 75.4756 135.762 75.0344C135.762 74.5932 135.373 74.2356 134.894 74.2356C134.415 74.2356 134.026 74.5932 134.026 75.0344C134.026 75.4756 134.415 75.8332 134.894 75.8332Z" fill="#EAEAF3"/>
<path d="M112.985 121.217V132.874C112.989 133.24 112.914 133.602 112.765 133.941C112.616 134.28 112.394 134.588 112.114 134.847C111.835 135.107 111.501 135.312 111.134 135.452C110.767 135.592 110.373 135.664 109.976 135.662C108.302 135.662 106.677 134.415 106.677 132.874V121.217C106.677 119.696 108.297 118.449 109.976 118.449C110.773 118.452 111.536 118.745 112.1 119.263C112.663 119.781 112.981 120.484 112.985 121.217ZM114.167 137.016C114.166 137.408 114.249 137.795 114.411 138.157C114.574 138.519 114.812 138.847 115.113 139.124C115.414 139.401 115.771 139.62 116.165 139.77C116.558 139.919 116.979 139.995 117.405 139.995H119.582L119.615 146.144C119.615 149.857 125.655 149.828 125.655 146.144V139.996H129.724V146.146C129.724 149.84 135.801 149.849 135.801 146.146V139.996H138.011C138.435 139.995 138.854 139.917 139.245 139.767C139.636 139.616 139.991 139.396 140.29 139.12C140.589 138.843 140.825 138.515 140.986 138.155C141.147 137.794 141.229 137.408 141.228 137.018V118.957H114.167V137.016ZM141.301 117.986H114.044C114.044 113.674 116.844 109.934 121.002 107.983L118.919 104.43C118.613 103.936 119.389 103.631 119.651 104.048L121.775 107.632C123.643 106.88 125.66 106.492 127.699 106.492C129.738 106.492 131.755 106.88 133.624 107.632L135.735 104.059C136.009 103.627 136.776 103.949 136.467 104.441L134.384 107.983C138.5 109.934 141.301 113.679 141.301 117.986ZM122.623 112.397C122.623 112.117 122.502 111.848 122.287 111.649C122.071 111.451 121.779 111.34 121.474 111.34C121.177 111.35 120.896 111.466 120.691 111.663C120.485 111.86 120.37 112.123 120.37 112.396C120.37 112.669 120.485 112.932 120.691 113.129C120.896 113.326 121.177 113.442 121.474 113.452C121.778 113.452 122.07 113.342 122.285 113.145C122.5 112.947 122.622 112.68 122.623 112.4V112.397ZM135.032 112.397C135.028 112.191 134.958 111.991 134.831 111.821C134.704 111.652 134.525 111.521 134.317 111.445C134.109 111.369 133.881 111.352 133.662 111.395C133.444 111.438 133.244 111.54 133.088 111.688C132.932 111.835 132.827 112.022 132.786 112.225C132.746 112.427 132.772 112.636 132.86 112.825C132.949 113.014 133.096 113.175 133.284 113.287C133.472 113.399 133.691 113.457 133.915 113.454C134.214 113.448 134.499 113.334 134.707 113.137C134.916 112.94 135.033 112.675 135.032 112.4V112.397ZM145.403 118.446C145.008 118.445 144.616 118.516 144.25 118.654C143.885 118.793 143.553 118.997 143.273 119.254C142.993 119.511 142.772 119.817 142.621 120.153C142.47 120.489 142.393 120.85 142.394 121.213V132.871C142.393 133.236 142.469 133.597 142.62 133.935C142.77 134.272 142.991 134.579 143.271 134.838C143.55 135.097 143.882 135.303 144.248 135.444C144.614 135.585 145.006 135.658 145.403 135.659C147.089 135.659 148.702 134.412 148.702 132.871V121.213C148.696 119.668 147.077 118.449 145.403 118.449V118.446Z" fill="#15CEFF"/>
<path d="M125.606 148.901H114.321V149.38H125.606V148.901Z" fill="#535461"/>
<path d="M137.238 148.901H129.772V149.38H137.238V148.901Z" fill="#535461"/>
<path d="M111.891 148.901H104.425V149.38H111.891V148.901Z" fill="#535461"/>
<path d="M149.043 148.901H141.578V149.38H149.043V148.901Z" fill="#535461"/>
<path d="M86.317 131.573C86.3186 131.292 86.253 131.013 86.1247 130.757C85.9965 130.501 85.8088 130.274 85.5748 130.092C85.3409 129.91 85.0663 129.777 84.7706 129.703C84.4749 129.629 84.1651 129.616 83.8631 129.664L80.2561 123.668L78.4604 126.823L82.161 132.033C82.2825 132.494 82.5837 132.898 83.0075 133.169C83.4314 133.439 83.9484 133.558 84.4607 133.501C84.973 133.444 85.4449 133.217 85.787 132.862C86.1292 132.506 86.3178 132.048 86.317 131.573Z" fill="#9E616A"/>
<path d="M83.9863 107.357L80.277 107.118C80.277 107.118 79.8202 107.061 78.5636 108.893C77.3071 110.726 73 120.02 73 120.02L80.5459 130.094L82.9967 127.85L78.6151 119.744L82.8149 114.318L83.9863 107.357Z" fill="#CACACA"/>
<path d="M124.878 118.248C124.63 118.336 124.363 118.372 124.098 118.354C123.833 118.336 123.575 118.265 123.342 118.146C123.11 118.027 122.909 117.862 122.753 117.663C122.598 117.465 122.491 117.237 122.442 116.997L116.043 116.13L118.283 113.825L124.015 115.001C124.46 114.951 124.909 115.053 125.277 115.287C125.646 115.522 125.908 115.872 126.015 116.272C126.121 116.673 126.064 117.095 125.855 117.459C125.645 117.823 125.298 118.104 124.878 118.248Z" fill="#9E616A"/>
<path d="M100.283 182.715H103.017L104.318 173.015L100.283 173.015L100.283 182.715Z" fill="#9E616A"/>
<path d="M99.5859 181.894L100.356 181.894L103.36 180.77L104.971 181.894H104.971C105.881 181.894 106.754 182.226 107.397 182.818C108.041 183.41 108.402 184.213 108.402 185.05V185.153L99.5861 185.153L99.5859 181.894Z" fill="#2F2E41"/>
<path d="M83.7899 182.715H86.5241L87.8248 173.015L83.7896 173.015L83.7899 182.715Z" fill="#9E616A"/>
<path d="M83.0928 181.894L83.8624 181.894L86.867 180.77L88.4773 181.894H88.4776C89.3876 181.894 90.2604 182.226 90.9039 182.818C91.5474 183.41 91.909 184.213 91.909 185.05V185.153L83.0929 185.153L83.0928 181.894Z" fill="#2F2E41"/>
<path d="M84.8447 134.947L83.0376 144.967L83.6452 177.175H88.093L94.9264 143.106L99.8418 176.615L104.314 176.437L106.546 142.613L104.54 133.979L84.8447 134.947Z" fill="#2F2E41"/>
<path d="M101.187 105.149L96.4267 104.504L95.4145 102.087L88.7079 102.079L87.201 105.235L80.3477 107.138L86.0256 125.079C86.0256 125.079 82.8965 131.746 83.6661 131.775C84.4357 131.803 84.8148 132.816 84.278 133.347C83.7412 133.879 82.6641 133.541 83.2027 134.349C83.5112 134.786 83.7178 135.277 83.8096 135.792C83.8096 135.792 106.518 140.251 105.26 134.501C105.104 133.786 103.206 123.883 103.206 123.883C103.206 123.883 104.858 122.201 104.152 121.533C103.446 120.865 103.819 113.806 103.819 113.806L101.187 105.149Z" fill="#CACACA"/>
<path d="M100.408 105.934L101.187 105.15L111.772 110.859L120.729 114.144L120.902 117.019L109.27 115.741L101.038 112.038L100.408 105.934Z" fill="#CACACA"/>
<path d="M97.4647 95.1549C97.4647 95.8317 97.3197 96.5019 97.0382 97.1272C96.7566 97.7525 96.3438 98.3207 95.8235 98.7993C95.3032 99.2779 94.6855 99.6575 94.0057 99.9165C93.3259 100.176 92.5972 100.309 91.8614 100.309C91.4201 100.308 90.9804 100.261 90.5509 100.168C89.5275 99.9418 88.5939 99.4554 87.857 98.7642C87.1201 98.073 86.6097 97.2049 86.3841 96.2593C86.1586 95.3137 86.227 94.3287 86.5816 93.4172C86.9362 92.5057 87.5626 91.7045 88.3892 91.1052C89.2158 90.5059 90.2091 90.1327 91.2554 90.0284C92.3018 89.9241 93.3589 90.0929 94.3059 90.5155C95.2528 90.938 96.0513 91.5972 96.6099 92.4177C97.1686 93.2382 97.4648 94.1868 97.4647 95.1549Z" fill="#9E616A"/>
<path d="M93.362 99.3343L89.3375 100.048C88.9625 100.141 88.5697 100.156 88.1876 100.092C87.589 99.9471 87.1878 99.439 86.8815 98.9441C85.4606 96.6265 85.0131 93.91 85.6238 91.3093C85.7613 90.7352 86.0551 90.0774 86.6815 89.9605C86.8634 89.9265 87.0692 89.9399 87.2132 89.8322C87.4253 89.6734 87.3555 89.337 87.1472 89.1741C86.9208 89.0305 86.6538 88.9507 86.3789 88.9444C86.5565 88.7524 86.7763 88.5971 87.0239 88.4888C87.2714 88.3805 87.5411 88.3216 87.8151 88.3161L86.7387 87.7658C87.2572 87.4349 87.9538 87.4652 88.5655 87.6081C89.1771 87.7511 89.7658 87.9932 90.3942 88.0474C91.1831 88.1155 91.9615 87.8823 92.7478 87.7922C93.9211 87.6751 95.1062 87.87 96.1627 88.3537C97.2191 88.8374 98.1027 89.5895 98.7085 90.5211C98.9221 90.8318 99.0574 91.1824 99.1045 91.5474C99.1261 91.73 99.1012 91.9146 99.0317 92.0867C98.9621 92.2588 98.8499 92.4136 98.7039 92.5388C98.2632 92.8798 97.569 92.8297 97.1421 93.1852C96.8131 93.4591 96.7312 93.9016 96.7126 94.3095C96.694 94.7174 96.7151 95.1436 96.525 95.5126C96.335 95.8815 95.839 96.1589 95.4425 95.9755C95.425 95.4702 94.7918 95.1125 94.254 95.2168C93.7162 95.3211 93.3191 95.771 93.1643 96.2561C93.0096 96.7412 93.0555 97.2596 93.1229 97.7613C93.1903 98.263 93.2779 98.7707 93.2023 99.2714" fill="#2F2E41"/>
</svg>
