<svg xmlns="http://www.w3.org/2000/svg" width="102.711" height="29.004" viewBox="0 0 102.711 29.004">
  <defs>
    <style>
      .cls-1 {
        fill: #83cd29;
      }

      .cls-2 {
        fill: #404137;
      }
    </style>
  </defs>
  <g id="nodejs" transform="translate(-0.857 -0.383)">
    <g id="Group_467" data-name="Group 467" transform="translate(87.115 10.677)">
      <path id="Path_777" data-name="Path 777" class="cls-1" d="M438.338,51.611a1.424,1.424,0,0,0-.708.173l-6.81,3.933a1.435,1.435,0,0,0-.708,1.244v7.851a1.436,1.436,0,0,0,.708,1.243l1.778,1.027a2.908,2.908,0,0,0,1.576.419,1.884,1.884,0,0,0,2.01-2.125v-7.75a.194.194,0,0,0-.2-.188h-.853a.193.193,0,0,0-.2.188v7.75c0,.6-.623,1.2-1.634.694l-1.851-1.084a.2.2,0,0,1-.116-.173V56.96a.229.229,0,0,1,.116-.188l6.8-3.918a.2.2,0,0,1,.2,0l6.8,3.918a.231.231,0,0,1,.116.188v7.851a.218.218,0,0,1-.1.188l-6.81,3.918a.209.209,0,0,1-.2,0l-1.749-1.041a.182.182,0,0,0-.173,0,4.5,4.5,0,0,1-1.027.463c-.112.039-.281.1.058.289l2.284,1.344a1.429,1.429,0,0,0,1.417,0l6.81-3.918a1.438,1.438,0,0,0,.708-1.243V56.961a1.435,1.435,0,0,0-.708-1.243l-6.81-3.933a1.417,1.417,0,0,0-.708-.174Z" transform="translate(-430.111 -51.611)"/>
      <path id="Path_778" data-name="Path 778" class="cls-1" d="M466.893,79.528c-1.939,0-3.094.825-3.094,2.2,0,1.489,1.146,1.9,3.007,2.082,2.227.218,2.4.545,2.4.983,0,.76-.606,1.084-2.038,1.084-1.8,0-2.2-.449-2.328-1.345a.2.2,0,0,0-.188-.174h-.882a.207.207,0,0,0-.2.2c0,1.146.623,2.5,3.6,2.5,2.155,0,3.4-.846,3.4-2.328s-1-1.863-3.094-2.14c-2.112-.28-2.313-.416-2.313-.911,0-.408.171-.954,1.735-.954,1.4,0,1.914.3,2.125,1.244a.2.2,0,0,0,.188.159h.882a.213.213,0,0,0,.144-.072.189.189,0,0,0,.058-.144C470.154,80.291,469.073,79.528,466.893,79.528Z" transform="translate(-456.845 -73.918)"/>
    </g>
    <path id="Path_779" data-name="Path 779" class="cls-2" d="M55.307.383a.433.433,0,0,0-.434.434V11.877a.293.293,0,0,1-.144.26.3.3,0,0,1-.3,0L52.617,11.1a.866.866,0,0,0-.868,0L44.535,15.26a.888.888,0,0,0-.434.766v8.328a.865.865,0,0,0,.434.752L51.75,29.27a.864.864,0,0,0,.868,0l7.215-4.164a.866.866,0,0,0,.434-.752V3.592a.881.881,0,0,0-.448-.766L55.524.426a.422.422,0,0,0-.217-.043ZM8.9,10.778a.815.815,0,0,0-.39.1L1.291,15.043a.864.864,0,0,0-.434.752L.871,26.972a.427.427,0,0,0,.217.376.421.421,0,0,0,.434,0L5.8,24.889a.883.883,0,0,0,.448-.752V18.918a.863.863,0,0,1,.434-.752l1.822-1.055a.871.871,0,0,1,.867,0l1.822,1.055a.863.863,0,0,1,.434.752v5.219a.885.885,0,0,0,.448.752l4.28,2.458a.421.421,0,0,0,.434,0,.435.435,0,0,0,.217-.376l.014-11.176a.86.86,0,0,0-.434-.752L9.373,10.879a.81.81,0,0,0-.39-.1Zm64.831.1a.865.865,0,0,0-.434.116l-7.215,4.164a.865.865,0,0,0-.434.752v8.328a.871.871,0,0,0,.448.752l7.157,4.077a.868.868,0,0,0,.853.014l4.337-2.414a.438.438,0,0,0,.231-.376.427.427,0,0,0-.217-.376L71.2,21.752a.467.467,0,0,1-.231-.39v-2.6a.446.446,0,0,1,.231-.376l2.255-1.3a.433.433,0,0,1,.434,0l2.255,1.3a.432.432,0,0,1,.217.376v2.053a.434.434,0,0,0,.65.376l4.323-2.515a.869.869,0,0,0,.434-.752V15.911a.868.868,0,0,0-.434-.752L74.16,10.995a.86.86,0,0,0-.434-.116ZM52.155,17.1a.242.242,0,0,1,.116.029l2.472,1.431a.224.224,0,0,1,.116.188v2.863a.223.223,0,0,1-.116.188L52.27,23.226a.219.219,0,0,1-.217,0L49.581,21.8a.224.224,0,0,1-.116-.188V18.744a.225.225,0,0,1,.116-.188l2.472-1.431a.19.19,0,0,1,.1-.029h0Z" transform="translate(0 0)"/>
    <path id="Path_780" data-name="Path 780" class="cls-1" d="M116.576,52.4a.865.865,0,0,0-.434.116l-7.215,4.15a.888.888,0,0,0-.434.766v8.328a.865.865,0,0,0,.434.752l7.215,4.164a.863.863,0,0,0,.867,0l7.215-4.164a.866.866,0,0,0,.434-.752V57.434a.888.888,0,0,0-.434-.766l-7.215-4.15A.863.863,0,0,0,116.576,52.4Zm43.143,7.432a.177.177,0,0,0-.087.014l-1.388.81a.169.169,0,0,0-.087.145v1.59a.169.169,0,0,0,.087.145l1.388.8a.151.151,0,0,0,.159,0l1.388-.8a.17.17,0,0,0,.087-.144V60.8a.17.17,0,0,0-.087-.144l-1.388-.81a.12.12,0,0,0-.072-.014Z" transform="translate(-86.008 -41.566)"/>
  </g>
</svg>
