<svg id="selenium" xmlns="http://www.w3.org/2000/svg" width="70.4" height="73.772" viewBox="0 0 70.4 73.772">
  <defs>
    <style>
      .cls-1 {
        fill: #2cb134;
      }
    </style>
  </defs>
  <path id="Path_716" data-name="Path 716" class="cls-1" d="M64.392,0a.473.473,0,0,1,.422.738h0L46.582,25.5a.7.7,0,0,1-1.054,0h0L39.1,18.338a.746.746,0,0,0-1.159.105h0l-3.9,4.953a.825.825,0,0,0,.105.843h0L45.739,36.254a.7.7,0,0,0,1.054,0h0L69.556,10.645a.487.487,0,0,1,.843.316h0V73.244a.5.5,0,0,1-.527.527H.528A.5.5,0,0,1,0,73.244H0V.528A.5.5,0,0,1,.528,0H64.392ZM46.476,42.05a11.5,11.5,0,0,0-11.7,11.8c0,7.272,5.269,11.909,12.119,11.909a14.509,14.509,0,0,0,8.852-2.74.652.652,0,0,0,.105-.843h0l-1.9-2.845a.638.638,0,0,0-.843-.105A10.3,10.3,0,0,1,47.53,61.02c-3.689,0-6.007-2.318-6.429-5.059a.227.227,0,0,1,.211-.211H57.226a.68.68,0,0,0,.632-.632h0v-.632C57.858,47.109,53.221,42.05,46.476,42.05Zm-15.7-4a16.871,16.871,0,0,0-11.382-3.794c-7.166,0-11.592,4.215-11.592,9.274,0,11.487,17.494,7.8,17.494,13.173,0,1.686-1.686,3.372-5.269,3.372a13.243,13.243,0,0,1-9.169-3.583.7.7,0,0,0-1.054.105h0l-2.74,3.794a.652.652,0,0,0,.105.843c2.845,2.635,6.85,4.426,12.436,4.426,8.22,0,12.225-4.215,12.436-9.7,0-11.382-17.494-8.115-17.494-12.963,0-1.792,1.581-3.056,4.321-3.056a13.08,13.08,0,0,1,8.326,2.845.667.667,0,0,0,.948-.105h0l2.74-3.689a.667.667,0,0,0-.105-.948Zm15.808,8.642a5.308,5.308,0,0,1,5.585,4.848.227.227,0,0,1-.211.211H41.207A.227.227,0,0,1,41,51.535,5.539,5.539,0,0,1,46.582,46.687Z" transform="translate(0)"/>
</svg>
