<svg xmlns="http://www.w3.org/2000/svg" width="64.872" height="73.772" viewBox="0 0 64.872 73.772">
  <defs>
    <style>
      .cls-1 {
        fill: #95bf46;
      }

      .cls-2 {
        fill: #5e8e3e;
      }

      .cls-3 {
        fill: #fff;
      }
    </style>
  </defs>
  <g id="shopify" transform="translate(-0.037 -0.78)">
    <path id="Path_717" data-name="Path 717" class="cls-1" d="M56.855,15.143a.712.712,0,0,0-.644-.6c-.268-.023-5.938-.443-5.938-.443s-3.938-3.91-4.37-4.342a1.791,1.791,0,0,0-1.6-.2l-2.2.68c-1.316-3.785-3.637-7.264-7.721-7.264-.113,0-.229,0-.345.011a4.963,4.963,0,0,0-3.843-2.2C20.67.779,16.125,12.673,14.7,18.717c-3.7,1.146-6.323,1.96-6.659,2.065-2.064.647-2.129.712-2.4,2.657-.2,1.472-5.6,43.229-5.6,43.229l42.074,7.883,22.8-4.932s-8-54.106-8.053-54.477ZM39.768,10.955l-3.56,1.1c0-.251,0-.5,0-.767a17.464,17.464,0,0,0-.85-5.749c2.1.264,3.506,2.659,4.408,5.414ZM32.75,6.007a17.653,17.653,0,0,1,.965,6.409c0,.145,0,.278,0,.412L26.36,15.106c1.416-5.464,4.07-8.1,6.39-9.1ZM29.923,3.331a2.148,2.148,0,0,1,1.22.412c-3.049,1.435-6.317,5.049-7.7,12.265l-5.812,1.8C19.25,12.3,23.089,3.331,29.923,3.331Z" transform="translate(0)"/>
    <path id="Path_718" data-name="Path 718" class="cls-2" d="M179.822,40.106c-.268-.023-5.938-.443-5.938-.443s-3.938-3.91-4.37-4.342a1.078,1.078,0,0,0-.608-.279l-3.181,65.071,22.8-4.931s-8-54.106-8.053-54.477a.712.712,0,0,0-.644-.6" transform="translate(-123.611 -25.562)"/>
    <path id="Path_719" data-name="Path 719" class="cls-3" d="M63.606,101.348l-2.811,8.361a12.932,12.932,0,0,0-5.482-1.314c-4.426,0-4.649,2.778-4.649,3.478,0,3.819,9.955,5.282,9.955,14.227,0,7.038-4.464,11.569-10.483,11.569a14.583,14.583,0,0,1-10.916-4.5l1.934-6.389s3.8,3.259,7,3.259a2.824,2.824,0,0,0,2.945-2.852c0-4.982-8.167-5.2-8.167-13.389,0-6.889,4.945-13.557,14.927-13.557a12.279,12.279,0,0,1,5.746,1.1" transform="translate(-29.233 -74.207)"/>
  </g>
</svg>
