<svg xmlns="http://www.w3.org/2000/svg" width="78.321" height="78.246" viewBox="0 0 78.321 78.246">
  <defs>
    <style>
      .cls-1 {
        fill: #68bd45;
      }
    </style>
  </defs>
  <path id="springio-icon" class="cls-1" d="M71.471,4.066a36.263,36.263,0,0,1-4.2,7.453A39.445,39.445,0,1,0,12.181,67.992l1.461,1.284A39.43,39.43,0,0,0,78.38,41.924c1.075-10.042-1.873-22.751-6.908-37.857ZM17.8,68.217a3.373,3.373,0,1,1-.5-4.741,3.373,3.373,0,0,1,.5,4.741ZM71.309,56.405C61.574,69.373,40.79,65,27.464,65.626c0,0-2.362.139-4.741.529,0,0,.9-.381,2.044-.815,9.359-3.257,13.782-3.884,19.467-6.809,10.7-5.441,21.291-17.358,23.491-29.745C63.653,40.7,51.288,50.949,40.033,55.111c-7.714,2.843-21.65,5.612-21.65,5.612l-.562-.3C8.34,55.813,8.047,35.278,25.29,28.656c7.551-2.908,14.774-1.311,22.928-3.257C56.926,23.33,67,16.807,71.1,8.294c4.585,13.619,10.108,34.934.2,48.12Z" transform="translate(-0.279 -0.307)"/>
</svg>
