<svg width="339" height="375" viewBox="0 0 339 375" fill="none" xmlns="http://www.w3.org/2000/svg">
<g filter="url(#filter0_d_354_59253)">
<path d="M332.98 253.159C332.98 261.768 330.711 270.224 326.403 277.677C322.095 285.13 315.898 291.317 308.438 295.613L194.271 361.37C186.832 365.654 178.398 367.91 169.813 367.91C161.228 367.91 152.794 365.654 145.355 361.37L31.187 295.613C23.7267 291.317 17.5304 285.13 13.222 277.677C8.91354 270.224 6.64508 261.768 6.64499 253.159V121.84C6.64508 113.231 8.91354 104.775 13.222 97.3217C17.5304 89.8687 23.7267 83.6823 31.187 79.3855L145.355 13.6291C152.794 9.3445 161.228 7.08929 169.813 7.08929C178.398 7.08929 186.832 9.3445 194.271 13.6291L308.438 79.3855C315.898 83.6823 322.095 89.8687 326.403 97.3217C330.711 104.775 332.98 113.231 332.98 121.84V253.159Z" fill="white"/>
</g>
<path d="M337.907 256.204C337.907 264.813 335.638 273.269 331.33 280.722C327.022 288.175 320.825 294.361 313.365 298.658L193.907 367.46C186.468 371.745 178.034 374 169.449 374C160.864 374 152.43 371.745 144.991 367.46L25.542 298.658C18.0817 294.361 11.8854 288.175 7.57697 280.722C3.26852 273.269 1.00005 264.813 0.999969 256.204V118.795C1.0004 110.187 3.26906 101.731 7.57748 94.2782C11.8859 86.8256 18.082 80.6395 25.542 76.3428L144.995 7.53978C152.434 3.2552 160.868 1 169.453 1C178.038 1 186.472 3.2552 193.911 7.53978L313.365 76.3428C320.825 80.6395 327.021 86.8256 331.329 94.2782C335.638 101.731 337.907 110.187 337.907 118.795V256.204Z" stroke="#15CEFF" stroke-width="2" stroke-linecap="round" stroke-linejoin="round" stroke-dasharray="3 10"/>
<path d="M153.805 257.456H55.8219C54.5883 257.454 53.4057 256.964 52.5334 256.092C51.6611 255.219 51.1705 254.037 51.1691 252.803V119.803C51.1705 118.569 51.6611 117.387 52.5334 116.515C53.4057 115.642 54.5883 115.152 55.8219 115.15H153.805C155.039 115.152 156.221 115.642 157.093 116.515C157.966 117.387 158.456 118.569 158.458 119.803V252.803C158.456 254.037 157.966 255.219 157.093 256.092C156.221 256.964 155.039 257.454 153.805 257.456Z" fill="white"/>
<path d="M100.396 149.764C100.396 153.605 99.1811 157.348 96.9244 160.457C94.6677 163.565 91.4854 165.88 87.8328 167.071C87.7236 167.105 87.6144 167.14 87.5035 167.173C87.0304 167.319 86.5506 167.443 86.0625 167.549C85.1793 167.74 84.2828 167.865 83.3807 167.921C82.9887 167.947 82.5944 167.961 82.1978 167.961C80.149 167.963 78.1146 167.618 76.1807 166.942C76.1245 166.922 76.0683 166.902 76.0136 166.882C72.8803 165.751 70.1177 163.781 68.0268 161.188C65.9359 158.594 64.597 155.477 64.156 152.175C63.7149 148.874 64.1886 145.514 65.5255 142.463C66.8624 139.412 69.0111 136.786 71.7376 134.872C74.464 132.958 77.6636 131.829 80.9877 131.608C84.3118 131.387 87.6328 132.082 90.5888 133.618C93.5449 135.154 96.0226 137.472 97.752 140.319C99.4814 143.166 100.396 146.433 100.396 149.764Z" fill="white"/>
<path d="M81.7618 161.82C86.6519 161.82 90.6161 157.856 90.6161 152.967C90.6161 148.077 86.6519 144.114 81.7618 144.114C76.8717 144.114 72.9075 148.077 72.9075 152.967C72.9075 157.856 76.8717 161.82 81.7618 161.82Z" fill="#15CEFF"/>
<path d="M82.2787 157.738L82.2879 157.407C81.6724 157.389 81.1297 157.351 80.7219 157.053C80.6063 156.964 80.5112 156.851 80.4432 156.721C80.3753 156.592 80.3359 156.45 80.3279 156.304C80.3207 156.215 80.3342 156.125 80.3673 156.042C80.4004 155.959 80.4521 155.885 80.5186 155.825C80.6727 155.732 80.8491 155.681 81.0292 155.68C81.2094 155.678 81.3867 155.725 81.5424 155.816L81.8161 155.941L81.2911 152.105L80.9633 152.15L81.4099 155.413C81.2271 155.345 81.0302 155.324 80.8373 155.352C80.6443 155.38 80.4613 155.456 80.305 155.572C80.1999 155.664 80.1174 155.779 80.0641 155.908C80.0107 156.037 79.9878 156.176 79.9973 156.315C80.0069 156.511 80.0593 156.703 80.1508 156.876C80.2422 157.05 80.3705 157.201 80.5267 157.32C81.0507 157.703 81.7316 157.722 82.2787 157.738Z" fill="#2F2E41"/>
<path d="M79.3422 152.431H77.5601V152.762H79.3422V152.431Z" fill="#2F2E41"/>
<path d="M84.9671 152.431H83.1851V152.762H84.9671V152.431Z" fill="#2F2E41"/>
<path d="M84.2774 165.344C84.3009 165.235 84.3131 165.124 84.3138 165.013C84.3132 164.596 84.1474 164.197 83.8528 163.902C83.5581 163.608 83.1588 163.442 82.7421 163.441H80.4259C80.0092 163.442 79.6097 163.607 79.315 163.902C79.0203 164.197 78.8546 164.596 78.8543 165.013C78.8542 165.125 78.8663 165.236 78.8906 165.345C78.0162 165.621 77.1898 166.03 76.4405 166.558C76.2948 166.659 76.1509 166.768 76.0136 166.882C76.0682 166.902 76.1245 166.922 76.1807 166.942C78.1146 167.619 80.149 167.963 82.1978 167.961C82.5948 167.961 82.9891 167.948 83.3807 167.921C84.2827 167.865 85.1792 167.741 86.0625 167.549C86.5506 167.443 87.0303 167.319 87.5035 167.174C86.5674 166.346 85.4685 165.722 84.2774 165.344Z" fill="#2F2E41"/>
<path d="M83.9796 167.71C83.7649 167.726 83.5582 167.799 83.3807 167.92C84.2827 167.864 85.1792 167.74 86.0625 167.549L83.9796 167.71Z" fill="#2F2E41"/>
<path d="M89.7921 150.864L74.4104 145.237C74.2455 145.177 74.1114 145.054 74.0375 144.895C73.9636 144.735 73.9559 144.553 74.0162 144.389L74.0683 144.143C75.2696 140.859 79.2512 138.793 82.5349 139.994L87.2682 141.725C90.552 142.927 91.9791 146.814 90.7779 150.098L90.6409 150.47C90.5806 150.634 90.4573 150.769 90.2981 150.842C90.1389 150.916 89.9569 150.924 89.7921 150.864Z" fill="#2F2E41"/>
<path d="M90.6206 151.177C69.1815 151.968 67.3082 149.274 73.8405 145.038L75.2264 142.488L91.1087 148.279L90.6206 151.177Z" fill="#2F2E41"/>
<path d="M86.4169 141.321C86.5353 140.928 86.0283 140.427 85.2845 140.204C84.5407 139.98 83.8418 140.118 83.7234 140.512C83.6051 140.906 84.1121 141.406 84.8558 141.63C85.5996 141.853 86.2985 141.715 86.4169 141.321Z" fill="#2F2E41"/>
<path d="M82.1978 168.457C80.0931 168.459 78.0031 168.105 76.0166 167.41L75.8439 167.348C71.6827 165.845 68.1897 162.914 65.9862 159.078C63.7827 155.241 63.0114 150.748 63.8096 146.396C64.6078 142.045 66.9236 138.118 70.3453 135.313C73.767 132.508 78.0727 131.007 82.4967 131.078C86.9208 131.149 91.1763 132.786 94.5065 135.699C97.8368 138.612 100.026 142.611 100.684 146.986C101.343 151.361 100.428 155.827 98.1033 159.591C95.7782 163.355 92.1933 166.173 87.9862 167.543C87.8686 167.58 87.7579 167.615 87.6455 167.649C87.1756 167.793 86.677 167.923 86.1677 168.034C85.2598 168.23 84.3383 168.358 83.4112 168.416C83.0128 168.443 82.6036 168.457 82.1978 168.457ZM82.1978 132.064C78.0322 132.065 74.0002 133.534 70.8109 136.213C67.6216 138.893 65.4794 142.611 64.7609 146.713C64.0424 150.816 64.7938 155.041 66.8827 158.644C68.9717 162.248 72.2646 165 76.1822 166.415L76.3461 166.474C78.2268 167.132 80.2053 167.467 82.1978 167.464C82.5814 167.464 82.9681 167.451 83.3472 167.426C84.2252 167.371 85.0978 167.25 85.9575 167.064C86.4393 166.959 86.9104 166.836 87.3575 166.699C87.4682 166.666 87.5733 166.632 87.6785 166.599C91.6855 165.294 95.0956 162.603 97.2958 159.009C99.4959 155.415 100.342 151.154 99.6813 146.992C99.0208 142.831 96.8974 139.041 93.6926 136.305C90.4879 133.568 86.412 132.065 82.1978 132.064Z" fill="#CCCCCC"/>
<path d="M153.805 257.456H55.8219C54.5883 257.454 53.4057 256.964 52.5334 256.092C51.6611 255.219 51.1705 254.037 51.1691 252.803V119.803C51.1705 118.569 51.6611 117.387 52.5334 116.515C53.4057 115.642 54.5883 115.152 55.8219 115.15H153.805C155.039 115.152 156.221 115.642 157.093 116.515C157.966 117.387 158.456 118.569 158.458 119.803V252.803C158.456 254.037 157.966 255.219 157.093 256.092C156.221 256.964 155.039 257.454 153.805 257.456ZM55.8219 115.698C54.7334 115.699 53.6899 116.132 52.9203 116.901C52.1506 117.671 51.7177 118.714 51.7165 119.803V252.803C51.7177 253.892 52.1506 254.935 52.9203 255.705C53.6899 256.474 54.7334 256.907 55.8219 256.908H153.805C154.893 256.907 155.937 256.474 156.707 255.705C157.476 254.935 157.909 253.892 157.91 252.803V119.803C157.909 118.714 157.476 117.671 156.707 116.901C155.937 116.132 154.893 115.699 153.805 115.698H55.8219Z" fill="#CCCCCC"/>
<path d="M134.837 149.694H107.111C106.529 149.693 105.972 149.462 105.562 149.05C105.151 148.639 104.92 148.082 104.92 147.5C104.92 146.919 105.151 146.362 105.562 145.95C105.972 145.539 106.529 145.308 107.111 145.307H134.837C135.125 145.307 135.41 145.363 135.677 145.473C135.943 145.583 136.185 145.745 136.389 145.949C136.593 146.152 136.755 146.394 136.866 146.66C136.976 146.927 137.033 147.212 137.033 147.5C137.033 147.789 136.976 148.074 136.866 148.34C136.755 148.607 136.593 148.849 136.389 149.052C136.185 149.256 135.943 149.418 135.677 149.528C135.41 149.638 135.125 149.694 134.837 149.694Z" fill="#E6E6E6"/>
<path d="M143.884 157.096H107.111C106.529 157.095 105.972 156.864 105.562 156.452C105.151 156.041 104.92 155.484 104.92 154.902C104.92 154.321 105.151 153.764 105.562 153.352C105.972 152.941 106.529 152.71 107.111 152.709H143.884C144.466 152.71 145.023 152.941 145.434 153.352C145.844 153.764 146.075 154.321 146.075 154.902C146.075 155.484 145.844 156.041 145.434 156.452C145.023 156.864 144.466 157.095 143.884 157.096Z" fill="#E6E6E6"/>
<path d="M134.796 185.485H65.7424C65.4541 185.486 65.1686 185.429 64.9021 185.319C64.6357 185.209 64.3936 185.048 64.1896 184.844C63.9856 184.64 63.8238 184.398 63.7134 184.132C63.603 183.866 63.5462 183.58 63.5462 183.292C63.5462 183.004 63.603 182.718 63.7134 182.452C63.8238 182.186 63.9856 181.944 64.1896 181.74C64.3936 181.536 64.6357 181.375 64.9021 181.265C65.1686 181.155 65.4541 181.098 65.7424 181.099H134.796C135.377 181.099 135.935 181.331 136.345 181.742C136.756 182.153 136.987 182.711 136.987 183.292C136.987 183.873 136.756 184.431 136.345 184.842C135.935 185.253 135.377 185.485 134.796 185.485Z" fill="#E6E6E6"/>
<path d="M143.844 192.887H65.7424C65.4541 192.888 65.1686 192.831 64.9021 192.721C64.6357 192.611 64.3936 192.45 64.1896 192.246C63.9856 192.042 63.8238 191.8 63.7134 191.534C63.603 191.268 63.5462 190.982 63.5462 190.694C63.5462 190.406 63.603 190.12 63.7134 189.854C63.8238 189.588 63.9856 189.346 64.1896 189.142C64.3936 188.938 64.6357 188.777 64.9021 188.667C65.1686 188.557 65.4541 188.5 65.7424 188.501H143.844C144.132 188.5 144.418 188.557 144.684 188.667C144.951 188.777 145.193 188.938 145.397 189.142C145.601 189.346 145.763 189.588 145.873 189.854C145.983 190.12 146.04 190.406 146.04 190.694C146.04 190.982 145.983 191.268 145.873 191.534C145.763 191.8 145.601 192.042 145.397 192.246C145.193 192.45 144.951 192.611 144.684 192.721C144.418 192.831 144.132 192.888 143.844 192.887Z" fill="#E6E6E6"/>
<path d="M134.796 209.9H65.7423C65.1606 209.9 64.6027 209.669 64.1913 209.257C63.78 208.846 63.5489 208.288 63.5489 207.706C63.5489 207.125 63.78 206.567 64.1913 206.155C64.6027 205.744 65.1606 205.513 65.7423 205.513H134.796C135.378 205.513 135.936 205.744 136.347 206.155C136.759 206.567 136.99 207.125 136.99 207.706C136.99 208.288 136.759 208.846 136.347 209.257C135.936 209.669 135.378 209.9 134.796 209.9Z" fill="#E6E6E6"/>
<path d="M143.844 217.302H65.7423C65.1606 217.302 64.6027 217.071 64.1913 216.659C63.78 216.248 63.5489 215.69 63.5489 215.108C63.5489 214.527 63.78 213.969 64.1913 213.558C64.6027 213.146 65.1606 212.915 65.7423 212.915H143.844C144.426 212.915 144.984 213.146 145.395 213.558C145.806 213.969 146.037 214.527 146.037 215.108C146.037 215.69 145.806 216.248 145.395 216.659C144.984 217.071 144.426 217.302 143.844 217.302Z" fill="#E6E6E6"/>
<path d="M134.796 234.314H65.7423C65.1606 234.314 64.6027 234.083 64.1913 233.672C63.78 233.261 63.5489 232.703 63.5489 232.121C63.5489 231.539 63.78 230.981 64.1913 230.57C64.6027 230.159 65.1606 229.928 65.7423 229.928H134.796C135.378 229.928 135.936 230.159 136.347 230.57C136.759 230.981 136.99 231.539 136.99 232.121C136.99 232.703 136.759 233.261 136.347 233.672C135.936 234.083 135.378 234.314 134.796 234.314Z" fill="#E6E6E6"/>
<path d="M143.844 241.716H65.7423C65.1606 241.716 64.6027 241.485 64.1913 241.074C63.78 240.663 63.5489 240.105 63.5489 239.523C63.5489 238.941 63.78 238.383 64.1913 237.972C64.6027 237.561 65.1606 237.33 65.7423 237.33H143.844C144.426 237.33 144.984 237.561 145.395 237.972C145.806 238.383 146.037 238.941 146.037 239.523C146.037 240.105 145.806 240.663 145.395 241.074C144.984 241.485 144.426 241.716 143.844 241.716Z" fill="#E6E6E6"/>
<path d="M281.347 224.069L183.364 224.069C182.131 224.067 180.948 223.577 180.076 222.705C179.203 221.832 178.713 220.65 178.711 219.416L178.711 86.4157C178.713 85.1823 179.203 83.9997 180.075 83.1276C180.948 82.2554 182.13 81.7648 183.364 81.7634L281.347 81.7633C282.581 81.7647 283.763 82.2553 284.636 83.1275C285.508 83.9996 285.998 85.1822 286 86.4156L286 219.416C285.999 220.65 285.508 221.832 284.636 222.704C283.763 223.577 282.581 224.067 281.347 224.069Z" fill="white"/>
<path d="M281.347 224.069L183.364 224.069C182.131 224.067 180.948 223.577 180.076 222.705C179.203 221.832 178.713 220.65 178.711 219.416L178.711 86.4157C178.713 85.1823 179.203 83.9997 180.075 83.1276C180.948 82.2554 182.13 81.7648 183.364 81.7634L281.347 81.7633C282.581 81.7647 283.763 82.2553 284.636 83.1275C285.508 83.9996 285.998 85.1822 286 86.4156L286 219.416C285.999 220.65 285.508 221.832 284.636 222.704C283.763 223.577 282.581 224.067 281.347 224.069ZM183.364 82.3107C182.276 82.312 181.232 82.7448 180.462 83.5144C179.693 84.284 179.26 85.3274 179.259 86.4157L179.259 219.416C179.26 220.505 179.693 221.548 180.463 222.318C181.232 223.087 182.276 223.52 183.364 223.521L281.347 223.521C282.436 223.52 283.479 223.087 284.249 222.318C285.018 221.548 285.451 220.505 285.453 219.416L285.452 86.4156C285.451 85.3273 285.018 84.2839 284.249 83.5143C283.479 82.7448 282.435 82.3119 281.347 82.3106L183.364 82.3107Z" fill="#CCCCCC"/>
<path d="M227.985 116.196C227.985 119.795 226.917 123.313 224.918 126.305C222.918 129.298 220.076 131.63 216.75 133.007C213.425 134.385 209.766 134.745 206.236 134.043C202.705 133.341 199.463 131.608 196.918 129.063C194.373 126.518 192.639 123.276 191.937 119.746C191.235 116.216 191.595 112.557 192.973 109.232C194.35 105.908 196.683 103.066 199.675 101.066C202.668 99.0667 206.187 97.9995 209.786 97.9995C214.612 98.001 219.24 99.9186 222.653 103.331C226.065 106.743 227.983 111.37 227.985 116.196Z" fill="white"/>
<path d="M218.197 119.309C217.998 130.947 200.686 130.945 200.488 119.309C200.687 107.672 218 107.674 218.197 119.309Z" fill="#15CEFF"/>
<path d="M208.991 122.922L208.982 122.591C211.263 122.896 211.754 120.069 209.454 121.126L209.979 117.289L210.307 117.334L209.86 120.598C212.282 120.237 211.386 123.253 208.991 122.922Z" fill="#2F2E41"/>
<path d="M213.71 117.616H211.928V117.947H213.71V117.616Z" fill="#2F2E41"/>
<path d="M208.085 117.616H206.303V117.947H208.085V117.616Z" fill="#2F2E41"/>
<path d="M212.213 131.688C212.56 129.344 209.816 129.807 208.363 129.784C208.129 129.784 207.898 129.837 207.687 129.939C207.476 130.04 207.29 130.187 207.143 130.369C206.996 130.552 206.891 130.765 206.836 130.992C206.782 131.22 206.779 131.457 206.828 131.686C205.704 132.034 204.662 132.608 203.769 133.374C207.535 134.687 211.627 134.732 215.421 133.503C214.496 132.672 213.401 132.053 212.213 131.688Z" fill="#2F2E41"/>
<path d="M205.18 115.122C206.821 114.174 208.811 114.901 210.506 115.299C213.722 116.288 218.231 115.05 218.622 111.219C219.029 107.657 214.156 105.672 212.598 109.217L213.051 109.158C207.999 101.651 199.212 101.935 199.269 112.256C199.251 112.575 199.747 112.574 199.766 112.256C199.58 106.174 203.605 102.017 209.296 105.925C210.567 106.92 211.687 108.093 212.623 109.408C213.216 110.072 213.344 107.212 216.181 107.962C219.303 109.171 218.284 113.64 215.494 114.621C212.046 116.383 208.312 112.968 204.929 114.693C204.875 114.728 204.836 114.782 204.821 114.845C204.805 114.907 204.815 114.973 204.848 115.029C204.88 115.084 204.933 115.125 204.995 115.143C205.057 115.16 205.123 115.153 205.18 115.122Z" fill="#2F2E41"/>
<path d="M209.786 134.889C205.086 134.885 200.561 133.11 197.112 129.917C193.664 126.725 191.545 122.35 191.179 117.665C190.813 112.981 192.227 108.33 195.139 104.641C198.05 100.952 202.245 98.4966 206.887 97.7634C211.529 97.0302 216.277 98.0735 220.184 100.685C224.091 103.297 226.869 107.286 227.966 111.855C229.062 116.424 228.395 121.239 226.098 125.339C223.802 129.439 220.044 132.522 215.574 133.974C213.705 134.582 211.752 134.891 209.786 134.889ZM209.786 98.4957C206.284 98.4952 202.861 99.5331 199.949 101.478C197.037 103.423 194.767 106.188 193.427 109.423C192.087 112.658 191.736 116.217 192.419 119.651C193.102 123.086 194.788 126.24 197.264 128.716C199.741 131.192 202.895 132.878 206.33 133.561C209.765 134.244 213.325 133.893 216.56 132.553C219.795 131.213 222.56 128.943 224.505 126.032C226.451 123.12 227.489 119.697 227.488 116.196C227.483 111.503 225.616 107.004 222.297 103.686C218.979 100.368 214.479 98.501 209.786 98.4957Z" fill="#CCCCCC"/>
<path d="M262.379 116.307L234.653 116.307C234.071 116.307 233.513 116.076 233.102 115.664C232.691 115.253 232.459 114.695 232.459 114.113C232.459 113.532 232.691 112.974 233.102 112.562C233.513 112.151 234.071 111.92 234.653 111.92L262.379 111.92C262.96 111.92 263.518 112.151 263.93 112.562C264.341 112.974 264.572 113.532 264.572 114.113C264.572 114.695 264.341 115.253 263.93 115.664C263.518 116.076 262.96 116.307 262.379 116.307Z" fill="#E6E6E6"/>
<path d="M271.427 123.709L234.653 123.709C234.365 123.709 234.079 123.653 233.813 123.543C233.546 123.433 233.304 123.271 233.1 123.067C232.896 122.864 232.734 122.622 232.624 122.355C232.514 122.089 232.457 121.804 232.457 121.515C232.457 121.227 232.514 120.942 232.624 120.675C232.734 120.409 232.896 120.167 233.1 119.963C233.304 119.76 233.546 119.598 233.813 119.488C234.079 119.378 234.365 119.322 234.653 119.322L271.427 119.322C272.008 119.322 272.566 119.553 272.978 119.964C273.389 120.376 273.62 120.934 273.62 121.515C273.62 122.097 273.389 122.655 272.978 123.066C272.566 123.478 272.008 123.709 271.427 123.709Z" fill="#E6E6E6"/>
<path d="M262.338 152.098L193.284 152.098C192.703 152.098 192.146 151.866 191.735 151.455C191.324 151.044 191.094 150.486 191.094 149.905C191.094 149.324 191.324 148.766 191.735 148.355C192.146 147.944 192.703 147.712 193.284 147.712L262.338 147.712C262.92 147.712 263.478 147.943 263.889 148.354C264.301 148.765 264.532 149.323 264.532 149.905C264.532 150.487 264.301 151.045 263.889 151.456C263.478 151.867 262.92 152.098 262.338 152.098Z" fill="#E6E6E6"/>
<path d="M271.386 159.5L193.285 159.5C192.996 159.501 192.711 159.444 192.444 159.334C192.178 159.224 191.936 159.063 191.732 158.859C191.528 158.655 191.366 158.413 191.256 158.147C191.145 157.881 191.088 157.595 191.088 157.307C191.088 157.019 191.145 156.733 191.256 156.467C191.366 156.201 191.528 155.959 191.732 155.755C191.936 155.551 192.178 155.39 192.444 155.28C192.711 155.17 192.996 155.113 193.285 155.114L271.386 155.114C271.968 155.114 272.526 155.345 272.937 155.756C273.349 156.167 273.58 156.725 273.58 157.307C273.58 157.889 273.349 158.447 272.937 158.858C272.526 159.269 271.968 159.5 271.386 159.5Z" fill="#E6E6E6"/>
<path d="M262.338 176.513L193.285 176.513C192.703 176.512 192.146 176.281 191.735 175.869C191.325 175.458 191.094 174.901 191.094 174.319C191.094 173.738 191.325 173.181 191.735 172.769C192.146 172.358 192.703 172.127 193.285 172.126L262.338 172.126C262.92 172.126 263.478 172.357 263.889 172.768C264.301 173.18 264.532 173.738 264.532 174.319C264.532 174.901 264.301 175.459 263.889 175.87C263.478 176.282 262.92 176.513 262.338 176.513Z" fill="#E6E6E6"/>
<path d="M271.386 183.915L193.285 183.915C192.996 183.915 192.711 183.859 192.444 183.749C192.178 183.639 191.936 183.477 191.732 183.273C191.528 183.07 191.366 182.828 191.256 182.562C191.145 182.295 191.088 182.01 191.088 181.721C191.088 181.433 191.145 181.148 191.256 180.881C191.366 180.615 191.528 180.373 191.732 180.17C191.936 179.966 192.178 179.804 192.444 179.694C192.711 179.584 192.996 179.528 193.285 179.528L271.386 179.528C271.968 179.528 272.526 179.759 272.937 180.17C273.349 180.582 273.58 181.14 273.58 181.721C273.58 182.303 273.349 182.861 272.937 183.272C272.526 183.684 271.968 183.915 271.386 183.915Z" fill="#E6E6E6"/>
<path d="M262.338 200.927L193.285 200.927C192.703 200.927 192.145 200.696 191.734 200.285C191.322 199.874 191.091 199.316 191.091 198.734C191.091 198.152 191.322 197.594 191.734 197.183C192.145 196.772 192.703 196.541 193.285 196.541L262.338 196.541C262.92 196.541 263.478 196.772 263.889 197.183C264.301 197.594 264.532 198.152 264.532 198.734C264.532 199.316 264.301 199.874 263.889 200.285C263.478 200.696 262.92 200.927 262.338 200.927Z" fill="#E6E6E6"/>
<path d="M271.386 208.329L193.285 208.329C192.703 208.329 192.145 208.098 191.734 207.687C191.322 207.276 191.091 206.718 191.091 206.136C191.091 205.554 191.322 204.996 191.734 204.585C192.145 204.174 192.703 203.943 193.285 203.943L271.386 203.942C271.968 203.942 272.526 204.174 272.937 204.585C273.349 204.996 273.58 205.554 273.58 206.136C273.58 206.718 273.349 207.276 272.937 207.687C272.526 208.098 271.968 208.329 271.386 208.329Z" fill="#E6E6E6"/>
<path d="M222.229 281.264H124.246C123.012 281.263 121.83 280.772 120.957 279.9C120.085 279.028 119.594 277.846 119.593 276.612V143.611C119.594 142.378 120.085 141.195 120.957 140.323C121.83 139.451 123.012 138.96 124.246 138.959H222.229C223.462 138.96 224.645 139.451 225.517 140.323C226.39 141.195 226.88 142.378 226.882 143.611V276.612C226.88 277.846 226.39 279.028 225.517 279.9C224.645 280.772 223.462 281.263 222.229 281.264Z" fill="white"/>
<path d="M132.418 173.199C132.415 175.594 132.886 177.966 133.804 180.178C134.722 182.39 136.07 184.398 137.768 186.087C137.91 186.227 138.056 186.368 138.203 186.505C139.09 187.334 140.058 188.072 141.092 188.707C141.29 188.83 141.489 188.947 141.692 189.061C142.738 189.65 143.84 190.134 144.981 190.505C145.178 190.57 145.378 190.631 145.579 190.687C149.207 191.728 153.069 191.619 156.633 190.376C156.703 190.351 156.772 190.327 156.84 190.302C159.969 189.164 162.726 187.189 164.81 184.593C166.895 181.997 168.227 178.879 168.662 175.578C169.097 172.277 168.618 168.921 167.278 165.873C165.937 162.826 163.786 160.204 161.059 158.295C158.332 156.385 155.133 155.26 151.81 155.041C148.488 154.823 145.169 155.521 142.216 157.058C139.262 158.595 136.787 160.912 135.059 163.758C133.332 166.604 132.418 169.87 132.418 173.199Z" fill="white"/>
<path d="M146.773 182.118C146.782 183.528 146.262 184.89 145.317 185.935C144.381 186.962 142.988 187.643 141.582 187.362C140.288 187.102 139.236 185.971 139.367 184.602C139.389 184.306 139.475 184.018 139.62 183.758C139.764 183.498 139.964 183.273 140.204 183.098C140.444 182.923 140.72 182.803 141.012 182.746C141.303 182.689 141.604 182.696 141.893 182.767C143.122 183.086 143.612 184.858 142.588 185.69C142.342 185.889 141.989 185.54 142.237 185.339C142.39 185.199 142.505 185.023 142.573 184.827C142.64 184.63 142.657 184.421 142.622 184.216C142.587 184.012 142.502 183.819 142.374 183.656C142.245 183.494 142.078 183.366 141.887 183.284C141.662 183.212 141.424 183.192 141.19 183.226C140.956 183.26 140.733 183.346 140.538 183.479C140.342 183.612 140.179 183.787 140.062 183.992C139.944 184.197 139.874 184.426 139.858 184.661C139.777 185.815 140.661 186.684 141.745 186.889C142.918 187.11 144.08 186.51 144.875 185.682C145.786 184.72 146.288 183.442 146.277 182.118C146.279 182.053 146.306 181.992 146.352 181.948C146.399 181.903 146.461 181.878 146.525 181.878C146.589 181.878 146.651 181.903 146.698 181.948C146.744 181.992 146.771 182.053 146.773 182.118Z" fill="#2F2E41"/>
<path d="M151.62 185.273C156.51 185.273 160.474 181.309 160.474 176.419C160.474 171.53 156.51 167.566 151.62 167.566C146.73 167.566 142.765 171.53 142.765 176.419C142.765 181.309 146.73 185.273 151.62 185.273Z" fill="#15CEFF"/>
<path d="M151.167 180.197L151.157 179.866C151.773 179.849 152.316 179.811 152.723 179.513C152.839 179.424 152.934 179.31 153.002 179.181C153.07 179.052 153.109 178.91 153.117 178.764C153.125 178.675 153.111 178.585 153.078 178.502C153.045 178.419 152.993 178.345 152.927 178.285C152.773 178.191 152.596 178.141 152.416 178.14C152.236 178.138 152.059 178.185 151.903 178.276L151.629 178.401L152.154 174.565L152.482 174.61L152.036 177.873C152.218 177.805 152.415 177.784 152.608 177.812C152.801 177.84 152.984 177.915 153.14 178.032C153.245 178.124 153.328 178.239 153.381 178.368C153.435 178.497 153.458 178.636 153.448 178.775C153.438 178.971 153.386 179.163 153.295 179.336C153.203 179.51 153.075 179.661 152.919 179.78C152.395 180.163 151.714 180.182 151.167 180.197Z" fill="#2F2E41"/>
<path d="M155.885 174.891H154.103V175.222H155.885V174.891Z" fill="#2F2E41"/>
<path d="M150.26 174.891H148.478V175.222H150.26V174.891Z" fill="#2F2E41"/>
<path d="M145.579 190.688C149.207 191.728 153.069 191.62 156.634 190.377C156.703 190.352 156.772 190.327 156.84 190.302C156 189.654 155.05 189.163 154.036 188.853C154.108 188.599 154.107 188.329 154.033 188.075C153.932 187.754 153.731 187.473 153.458 187.275C153.185 187.077 152.856 186.973 152.519 186.977H150.362C150.025 186.972 149.696 187.077 149.424 187.274C149.152 187.472 148.951 187.752 148.851 188.074C148.777 188.328 148.776 188.598 148.848 188.853C147.954 189.126 147.11 189.54 146.346 190.079C146.192 190.186 146.044 190.299 145.9 190.416C145.79 190.504 145.683 190.595 145.579 190.688Z" fill="#2F2E41"/>
<path d="M158.556 175.48C158.556 176.973 159.291 178.21 160.245 178.425C160.342 178.447 160.442 178.458 160.541 178.458C161.635 178.458 162.527 177.123 162.527 175.48C162.551 174.633 162.281 173.804 161.762 173.134C161.601 172.939 161.402 172.778 161.178 172.66C160.982 172.557 160.763 172.503 160.541 172.502C160.237 172.506 159.941 172.606 159.696 172.787C159.022 173.263 158.556 174.291 158.556 175.48Z" fill="#3F3D56"/>
<path d="M140.854 175.48C140.854 176.764 141.396 177.859 142.157 178.278C142.366 178.395 142.6 178.457 142.839 178.458C142.892 178.458 142.945 178.455 142.998 178.448C144.017 178.328 144.824 177.044 144.824 175.48C144.824 174.228 144.306 173.154 143.575 172.716C143.354 172.579 143.099 172.505 142.839 172.502C142.617 172.503 142.399 172.557 142.202 172.66C141.977 172.778 141.778 172.94 141.616 173.136C141.099 173.806 140.83 174.634 140.854 175.48Z" fill="#3F3D56"/>
<path d="M142.281 177.992C142.321 177.992 142.359 177.982 142.394 177.964C142.43 177.946 142.46 177.92 142.483 177.888C142.506 177.856 142.521 177.819 142.527 177.78C142.532 177.741 142.529 177.702 142.516 177.664C142.042 176.254 141.899 174.753 142.099 173.279C142.299 171.805 142.837 170.396 143.67 169.163C144.503 167.93 145.609 166.906 146.902 166.17C148.195 165.434 149.64 165.006 151.126 164.919C152.611 164.833 154.097 165.09 155.467 165.67C156.837 166.251 158.055 167.14 159.025 168.268C159.996 169.395 160.693 170.732 161.064 172.173C161.434 173.614 161.467 175.121 161.16 176.577C161.146 176.641 161.159 176.708 161.195 176.763C161.231 176.818 161.287 176.857 161.351 176.87C161.416 176.884 161.483 176.871 161.538 176.836C161.593 176.8 161.631 176.743 161.645 176.679C161.968 175.149 161.934 173.564 161.545 172.049C161.156 170.534 160.423 169.128 159.402 167.943C158.382 166.757 157.101 165.822 155.661 165.212C154.22 164.601 152.659 164.331 151.097 164.422C149.535 164.513 148.015 164.963 146.655 165.737C145.296 166.511 144.133 167.589 143.257 168.885C142.382 170.181 141.817 171.662 141.607 173.212C141.397 174.763 141.547 176.34 142.046 177.823C142.063 177.872 142.094 177.915 142.136 177.945C142.179 177.976 142.229 177.992 142.281 177.992Z" fill="#3F3D56"/>
<path d="M156.068 170.683C156.214 170.923 156.276 171.206 156.241 171.485C156.206 171.764 156.077 172.023 155.876 172.219C155.395 172.756 154.629 172.79 153.963 172.69C153.216 172.579 152.424 172.229 151.668 172.464C151.024 172.665 150.564 173.25 149.894 173.397C149.3 173.527 148.59 173.355 148.382 172.722C148.282 172.418 148.761 172.287 148.861 172.59C148.996 172.999 149.577 172.991 149.91 172.878C150.444 172.696 150.855 172.254 151.38 172.043C152.006 171.849 152.675 171.851 153.3 172.048C153.893 172.182 154.577 172.38 155.168 172.13C155.606 171.945 155.954 171.363 155.639 170.934C155.45 170.676 155.881 170.428 156.068 170.683Z" fill="#2F2E41"/>
<path d="M150.616 191.892C148.866 191.893 147.124 191.648 145.441 191.164C145.243 191.109 145.036 191.045 144.827 190.977C143.655 190.596 142.523 190.099 141.449 189.494C141.248 189.381 141.045 189.262 140.831 189.13C139.77 188.477 138.776 187.719 137.864 186.868C137.714 186.728 137.565 186.584 137.419 186.44C134.554 183.583 132.693 179.874 132.116 175.869C131.539 171.865 132.277 167.781 134.219 164.232C136.162 160.682 139.204 157.859 142.888 156.186C146.572 154.513 150.7 154.08 154.651 154.953C158.602 155.826 162.164 157.957 164.8 161.027C167.436 164.096 169.005 167.938 169.271 171.976C169.537 176.013 168.485 180.028 166.274 183.416C164.063 186.805 160.813 189.385 157.01 190.768C156.942 190.793 156.871 190.819 156.8 190.844C154.813 191.54 152.722 191.894 150.616 191.892ZM150.616 155.499C147.113 155.499 143.688 156.539 140.776 158.486C137.863 160.434 135.595 163.201 134.256 166.439C132.918 169.676 132.571 173.238 133.258 176.673C133.946 180.108 135.637 183.262 138.119 185.736C138.256 185.871 138.398 186.008 138.542 186.143C139.405 186.948 140.346 187.666 141.352 188.285C141.555 188.409 141.745 188.522 141.935 188.628C142.953 189.201 144.024 189.672 145.135 190.033C145.331 190.098 145.525 190.157 145.713 190.21C149.243 191.223 153.001 191.117 156.469 189.908L156.67 189.836C160.581 188.412 163.866 185.657 165.947 182.053C168.028 178.448 168.772 174.226 168.05 170.128C167.327 166.03 165.184 162.317 161.996 159.641C158.807 156.966 154.779 155.499 150.616 155.499Z" fill="#CCCCCC"/>
<path d="M222.229 281.264H124.246C123.012 281.263 121.83 280.772 120.957 279.9C120.085 279.028 119.594 277.846 119.593 276.612V143.611C119.594 142.378 120.085 141.195 120.957 140.323C121.83 139.451 123.012 138.96 124.246 138.959H222.229C223.462 138.96 224.645 139.451 225.517 140.323C226.39 141.195 226.88 142.378 226.882 143.611V276.612C226.88 277.846 226.39 279.028 225.517 279.9C224.645 280.772 223.462 281.263 222.229 281.264ZM124.246 139.506C123.157 139.508 122.114 139.941 121.344 140.71C120.575 141.48 120.142 142.523 120.14 143.611V276.612C120.142 277.7 120.575 278.744 121.344 279.513C122.114 280.283 123.157 280.716 124.246 280.717H222.229C223.317 280.716 224.361 280.283 225.13 279.513C225.9 278.744 226.333 277.7 226.334 276.612V143.611C226.333 142.523 225.9 141.48 225.13 140.71C224.361 139.941 223.317 139.508 222.229 139.506H124.246Z" fill="#3F3D56"/>
<path d="M203.26 173.503H175.535C174.953 173.503 174.395 173.272 173.984 172.86C173.572 172.449 173.341 171.891 173.341 171.309C173.341 170.727 173.572 170.17 173.984 169.758C174.395 169.347 174.953 169.116 175.535 169.116H203.26C203.842 169.116 204.4 169.347 204.811 169.758C205.223 170.17 205.454 170.727 205.454 171.309C205.454 171.891 205.223 172.449 204.811 172.86C204.4 173.272 203.842 173.503 203.26 173.503Z" fill="#15CEFF"/>
<path d="M212.308 180.904H175.535C174.953 180.904 174.395 180.673 173.984 180.262C173.572 179.851 173.341 179.293 173.341 178.711C173.341 178.129 173.572 177.571 173.984 177.16C174.395 176.749 174.953 176.518 175.535 176.518H212.308C212.89 176.518 213.448 176.749 213.859 177.16C214.271 177.571 214.502 178.129 214.502 178.711C214.502 179.293 214.271 179.851 213.859 180.262C213.448 180.673 212.89 180.904 212.308 180.904Z" fill="#15CEFF"/>
<path d="M203.22 209.294H134.166C133.585 209.294 133.027 209.063 132.615 208.652C132.204 208.24 131.973 207.682 131.973 207.101C131.973 206.519 132.204 205.961 132.615 205.55C133.027 205.138 133.585 204.907 134.166 204.907H203.22C203.802 204.907 204.36 205.138 204.771 205.55C205.182 205.961 205.414 206.519 205.414 207.101C205.414 207.682 205.182 208.24 204.771 208.652C204.36 209.063 203.802 209.294 203.22 209.294Z" fill="#CCCCCC"/>
<path d="M212.268 216.696H134.166C133.585 216.696 133.027 216.465 132.615 216.054C132.204 215.642 131.973 215.085 131.973 214.503C131.973 213.921 132.204 213.363 132.615 212.952C133.027 212.54 133.585 212.309 134.166 212.309H212.268C212.85 212.309 213.408 212.54 213.819 212.952C214.23 213.363 214.461 213.921 214.461 214.503C214.461 215.085 214.23 215.642 213.819 216.054C213.408 216.465 212.85 216.696 212.268 216.696Z" fill="#CCCCCC"/>
<path d="M203.22 233.709H134.166C133.585 233.708 133.028 233.476 132.617 233.065C132.206 232.654 131.976 232.096 131.976 231.515C131.976 230.934 132.206 230.376 132.617 229.965C133.028 229.554 133.585 229.322 134.166 229.322H203.22C203.802 229.322 204.36 229.553 204.771 229.964C205.183 230.376 205.414 230.933 205.414 231.515C205.414 232.097 205.183 232.655 204.771 233.066C204.36 233.477 203.802 233.709 203.22 233.709Z" fill="#CCCCCC"/>
<path d="M212.268 241.111H134.166C133.585 241.11 133.028 240.878 132.617 240.467C132.206 240.056 131.976 239.498 131.976 238.917C131.976 238.336 132.206 237.778 132.617 237.367C133.028 236.956 133.585 236.725 134.166 236.724H212.268C212.85 236.724 213.408 236.955 213.819 237.366C214.23 237.778 214.462 238.335 214.462 238.917C214.462 239.499 214.23 240.057 213.819 240.468C213.408 240.88 212.85 241.111 212.268 241.111Z" fill="#CCCCCC"/>
<path d="M203.22 258.123H134.166C133.585 258.123 133.027 257.892 132.615 257.481C132.204 257.069 131.973 256.511 131.973 255.93C131.973 255.348 132.204 254.79 132.615 254.379C133.027 253.967 133.585 253.736 134.166 253.736H203.22C203.802 253.736 204.36 253.967 204.771 254.379C205.182 254.79 205.414 255.348 205.414 255.93C205.414 256.511 205.182 257.069 204.771 257.481C204.36 257.892 203.802 258.123 203.22 258.123Z" fill="#CCCCCC"/>
<path d="M212.268 265.525H134.166C133.585 265.525 133.027 265.294 132.615 264.883C132.204 264.471 131.973 263.914 131.973 263.332C131.973 262.75 132.204 262.192 132.615 261.781C133.027 261.369 133.585 261.138 134.166 261.138H212.268C212.85 261.138 213.408 261.369 213.819 261.781C214.23 262.192 214.461 262.75 214.461 263.332C214.461 263.914 214.23 264.471 213.819 264.883C213.408 265.294 212.85 265.525 212.268 265.525Z" fill="#CCCCCC"/>
<path d="M221.092 250.979C218.252 250.976 215.439 251.532 212.814 252.617C210.19 253.701 207.804 255.293 205.795 257.299C203.786 259.306 202.192 261.689 201.104 264.313C200.017 266.936 199.457 269.748 199.457 272.587C199.457 275.427 200.017 278.239 201.104 280.862C202.192 283.485 203.786 285.868 205.795 287.875C207.804 289.882 210.19 291.473 212.814 292.558C215.439 293.642 218.252 294.199 221.092 294.196C226.817 294.186 232.304 291.905 236.348 287.853C240.393 283.802 242.665 278.312 242.665 272.587C242.665 266.863 240.393 261.373 236.348 257.321C232.304 253.27 226.817 250.989 221.092 250.979Z" fill="#15CEFF"/>
<path d="M219.041 281.562C218.473 281.563 217.919 281.378 217.464 281.037L217.435 281.016L211.492 276.47C210.937 276.044 210.574 275.415 210.483 274.721C210.391 274.027 210.579 273.325 211.005 272.769C211.431 272.214 212.06 271.85 212.754 271.758C213.448 271.666 214.15 271.854 214.706 272.279L218.555 275.231L227.652 263.365C227.863 263.09 228.126 262.859 228.426 262.685C228.726 262.512 229.057 262.399 229.401 262.354C229.745 262.308 230.094 262.331 230.429 262.421C230.764 262.51 231.078 262.665 231.353 262.876L231.354 262.876L231.297 262.955L231.355 262.876C231.91 263.303 232.274 263.932 232.365 264.626C232.457 265.32 232.269 266.022 231.844 266.578L221.144 280.529C220.897 280.85 220.579 281.11 220.214 281.289C219.85 281.467 219.449 281.56 219.044 281.558L219.041 281.562Z" fill="white"/>
<defs>
<filter id="filter0_d_354_59253" x="0.64502" y="1.08929" width="338.335" height="372.82" filterUnits="userSpaceOnUse" color-interpolation-filters="sRGB">
<feFlood flood-opacity="0" result="BackgroundImageFix"/>
<feColorMatrix in="SourceAlpha" type="matrix" values="0 0 0 0 0 0 0 0 0 0 0 0 0 0 0 0 0 0 127 0" result="hardAlpha"/>
<feOffset/>
<feGaussianBlur stdDeviation="3"/>
<feColorMatrix type="matrix" values="0 0 0 0 0 0 0 0 0 0 0 0 0 0 0 0 0 0 0.161 0"/>
<feBlend mode="normal" in2="BackgroundImageFix" result="effect1_dropShadow_354_59253"/>
<feBlend mode="normal" in="SourceGraphic" in2="effect1_dropShadow_354_59253" result="shape"/>
</filter>
</defs>
</svg>
