<svg xmlns="http://www.w3.org/2000/svg" width="52" height="52" viewBox="0 0 52 52" fill="none">
  <g filter="url(#filter0_d_418_36)">
    <circle cx="26" cy="26" r="24" fill="white"/>
  </g>
  <path d="M41.1783 17H11.36C10.4663 17 9.7417 17.7246 9.7417 18.6183V34.2398C9.7417 35.1336 10.4663 35.8582 11.36 35.8582H41.1783C42.072 35.8582 42.7966 35.1336 42.7966 34.2398V18.6183C42.7966 17.7246 42.072 17 41.1783 17Z" fill="url(#paint0_linear_418_36)"/>
  <path d="M19.3105 24.2977L24.0315 21.865V22.567L20.0565 24.5604L24.0315 26.5523V27.2543L19.3105 24.8231V24.2977Z" fill="white"/>
  <path d="M24.6926 27.6792L27.5321 20.3138H28.2186L25.3706 27.6792H24.6926Z" fill="white"/>
  <path d="M33.575 24.8575L28.8625 27.2809V26.5789L32.863 24.587L28.8625 22.594V21.892L33.575 24.3162V24.8575Z" fill="white"/>
  <path d="M36.2277 18.1694C36.3587 18.1694 36.4649 18.0555 36.4649 17.9152C36.4649 17.7748 36.3587 17.6609 36.2277 17.6609C36.0967 17.6609 35.9905 17.7748 35.9905 17.9152C35.9905 18.0555 36.0967 18.1694 36.2277 18.1694Z" fill="white"/>
  <path d="M37.0756 18.1694C37.2066 18.1694 37.3128 18.0555 37.3128 17.9152C37.3128 17.7748 37.2066 17.6609 37.0756 17.6609C36.9446 17.6609 36.8384 17.7748 36.8384 17.9152C36.8384 18.0555 36.9446 18.1694 37.0756 18.1694Z" fill="white"/>
  <path d="M37.9232 18.1694C38.0543 18.1694 38.1605 18.0555 38.1605 17.9152C38.1605 17.7748 38.0543 17.6609 37.9232 17.6609C37.7922 17.6609 37.686 17.7748 37.686 17.9152C37.686 18.0555 37.7922 18.1694 37.9232 18.1694Z" fill="white"/>
  <defs>
    <filter id="filter0_d_418_36" x="0" y="0" width="52" height="52" filterUnits="userSpaceOnUse" color-interpolation-filters="sRGB">
      <feFlood flood-opacity="0" result="BackgroundImageFix"/>
      <feColorMatrix in="SourceAlpha" type="matrix" values="0 0 0 0 0 0 0 0 0 0 0 0 0 0 0 0 0 0 127 0" result="hardAlpha"/>
      <feOffset/>
      <feGaussianBlur stdDeviation="1"/>
      <feComposite in2="hardAlpha" operator="out"/>
      <feColorMatrix type="matrix" values="0 0 0 0 0.0823529 0 0 0 0 0.807843 0 0 0 0 1 0 0 0 1 0"/>
      <feBlend mode="normal" in2="BackgroundImageFix" result="effect1_dropShadow_418_36"/>
      <feBlend mode="normal" in="SourceGraphic" in2="effect1_dropShadow_418_36" result="shape"/>
    </filter>
    <linearGradient id="paint0_linear_418_36" x1="9.7417" y1="26.4291" x2="42.7966" y2="26.4291" gradientUnits="userSpaceOnUse">
      <stop stop-color="#41D692"/>
      <stop offset="1" stop-color="#15CEFF"/>
    </linearGradient>
  </defs>
</svg>