<svg width="417" height="465" viewBox="0 0 417 465" fill="none" xmlns="http://www.w3.org/2000/svg">
<g filter="url(#filter0_d_660_613)">
<path d="M409.844 319.88C409.844 328.489 407.576 336.946 403.267 344.4C398.959 351.854 392.762 358.041 385.302 362.339L233.359 449.863C225.92 454.148 217.486 456.403 208.901 456.403C200.316 456.403 191.882 454.148 184.443 449.863L32.4992 362.339C25.039 358.041 18.8427 351.854 14.5342 344.4C10.2258 336.946 7.95734 328.489 7.95724 319.88V145.024C7.95734 136.414 10.2258 127.957 14.5342 120.503C18.8427 113.049 25.039 106.862 32.4992 102.565L184.444 15.0405C191.883 10.7555 200.317 8.5 208.902 8.5C217.487 8.5 225.921 10.7555 233.36 15.0405L385.302 102.565C392.763 106.862 398.959 113.049 403.267 120.503C407.576 127.957 409.844 136.415 409.844 145.025V319.88Z" fill="white"/>
</g>
<path d="M415.907 323.63C415.907 332.239 413.639 340.696 409.33 348.15C405.022 355.604 398.825 361.791 391.365 366.089L232.907 457.363C225.468 461.648 217.034 463.903 208.449 463.903C199.864 463.903 191.43 461.648 183.991 457.363L25.5422 366.089C18.082 361.791 11.8857 355.604 7.57721 348.15C3.26877 340.696 1.0003 332.239 1.00021 323.63V141.274C1.0003 132.664 3.26877 124.207 7.57721 116.753C11.8857 109.299 18.082 103.112 25.5422 98.8145L183.996 7.54053C191.435 3.25546 199.869 1 208.454 1C217.039 1 225.473 3.25546 232.912 7.54053L391.365 98.8145C398.825 103.112 405.022 109.299 409.33 116.753C413.639 124.207 415.907 132.664 415.907 141.274V323.63Z" stroke="#15CEFF" stroke-width="2" stroke-linecap="round" stroke-linejoin="round" stroke-dasharray="3 10"/>
<path d="M230.07 136.396C232.497 141.562 227.354 143.025 221.462 145.793C215.57 148.562 211.161 151.588 208.734 146.422C206.307 141.257 204.338 131.005 212.672 127.088C221.294 123.037 227.643 131.231 230.07 136.396Z" fill="#2F2E41"/>
<path d="M218.049 146.555C222.43 146.555 225.981 143.004 225.981 138.623C225.981 134.243 222.43 130.692 218.049 130.692C213.669 130.692 210.118 134.243 210.118 138.623C210.118 143.004 213.669 146.555 218.049 146.555Z" fill="#FFB8B8"/>
<path d="M257.343 173.797C257.069 173.439 256.794 173.087 256.517 172.745C256.158 172.299 255.798 171.867 255.435 171.45C251.324 166.706 246.951 163.719 242.137 163.399H242.13L242.059 163.393L232.465 172.745L229.203 175.922L229.274 176.097L231.034 180.479H261.871C260.481 178.173 258.97 175.943 257.343 173.797Z" fill="#2F2E41"/>
<path d="M209.425 141.816L212.264 140.482L211.868 136.386L213.767 139.776L215.124 139.138L214.893 136.749L216.001 138.726L226.084 133.988C225.137 131.973 223.428 130.416 221.333 129.661C219.239 128.905 216.93 129.013 214.914 129.96L213.453 130.646C211.437 131.594 209.881 133.302 209.125 135.397C208.37 137.492 208.478 139.801 209.425 141.816Z" fill="#2F2E41"/>
<path d="M275.136 285.786H109.526C108.113 285.784 106.759 285.222 105.76 284.223C104.761 283.224 104.199 281.87 104.197 280.457V180.945C104.198 179.91 104.61 178.918 105.342 178.186C106.074 177.454 107.066 177.043 108.101 177.042H276.494C277.547 177.043 278.556 177.461 279.3 178.206C280.045 178.95 280.464 179.96 280.465 181.013V280.457C280.463 281.87 279.901 283.224 278.902 284.223C277.903 285.222 276.549 285.784 275.136 285.786Z" fill="#F2F2F2"/>
<path d="M114.693 280.457H269.97C271.34 280.457 272.654 279.913 273.623 278.944C274.592 277.975 275.137 276.661 275.137 275.291V190.829C275.137 189.459 274.592 188.144 273.623 187.175C272.654 186.206 271.34 185.662 269.97 185.662H114.693C113.322 185.662 112.008 186.206 111.039 187.175C110.07 188.144 109.526 189.459 109.526 190.829V275.291C109.526 276.661 110.07 277.975 111.039 278.944C112.008 279.913 113.322 280.457 114.693 280.457Z" fill="white"/>
<path d="M280.391 180.641H104.123V177.928C104.125 176.511 104.689 175.152 105.691 174.15C106.694 173.148 108.053 172.585 109.47 172.583H275.043C276.46 172.585 277.819 173.148 278.822 174.15C279.824 175.152 280.389 176.511 280.391 177.928V180.641Z" fill="#15CEFF"/>
<path d="M113.842 178.003C114.606 178.003 115.225 177.384 115.225 176.62C115.225 175.856 114.606 175.237 113.842 175.237C113.078 175.237 112.458 175.856 112.458 176.62C112.458 177.384 113.078 178.003 113.842 178.003Z" fill="white"/>
<path d="M119.092 178.003C119.856 178.003 120.475 177.384 120.475 176.62C120.475 175.856 119.856 175.237 119.092 175.237C118.328 175.237 117.709 175.856 117.709 176.62C117.709 177.384 118.328 178.003 119.092 178.003Z" fill="white"/>
<path d="M124.343 178.003C125.107 178.003 125.726 177.384 125.726 176.62C125.726 175.856 125.107 175.237 124.343 175.237C123.579 175.237 122.959 175.856 122.959 176.62C122.959 177.384 123.579 178.003 124.343 178.003Z" fill="white"/>
<path d="M197.177 262.141H183.291C182.478 262.14 181.698 261.816 181.123 261.241C180.548 260.666 180.224 259.886 180.223 259.073V245.187C180.224 244.373 180.548 243.594 181.123 243.018C181.698 242.443 182.478 242.12 183.291 242.119H197.177C197.99 242.12 198.77 242.443 199.345 243.018C199.92 243.594 200.244 244.373 200.245 245.187V259.073C200.244 259.886 199.92 260.666 199.345 261.241C198.77 261.816 197.99 262.14 197.177 262.141ZM183.291 242.765C182.649 242.765 182.033 243.021 181.579 243.475C181.125 243.929 180.87 244.545 180.869 245.187V259.073C180.87 259.715 181.125 260.33 181.579 260.785C182.033 261.239 182.649 261.494 183.291 261.495H197.177C197.819 261.494 198.435 261.239 198.889 260.785C199.343 260.33 199.598 259.715 199.599 259.073V245.187C199.598 244.545 199.343 243.929 198.889 243.475C198.435 243.021 197.819 242.765 197.177 242.765H183.291Z" fill="#CCCCCC"/>
<path d="M194.431 258.265H186.035C185.778 258.265 185.532 258.163 185.35 257.981C185.169 257.8 185.067 257.553 185.066 257.296V246.963C185.067 246.706 185.169 246.46 185.35 246.278C185.532 246.096 185.778 245.994 186.035 245.994H192.119C192.34 245.994 192.554 246.069 192.726 246.208L195.038 248.066C195.151 248.156 195.243 248.271 195.305 248.402C195.368 248.533 195.401 248.676 195.4 248.821V257.296C195.4 257.553 195.298 257.8 195.116 257.981C194.934 258.163 194.688 258.265 194.431 258.265ZM186.035 246.64C185.95 246.64 185.868 246.674 185.807 246.734C185.746 246.795 185.712 246.877 185.712 246.963V257.296C185.712 257.382 185.746 257.464 185.807 257.525C185.868 257.585 185.95 257.619 186.035 257.619H194.431C194.517 257.619 194.599 257.585 194.66 257.525C194.72 257.464 194.754 257.382 194.754 257.296V248.821C194.754 248.772 194.744 248.725 194.723 248.681C194.702 248.638 194.671 248.599 194.634 248.569L192.321 246.711C192.264 246.665 192.192 246.64 192.119 246.64H186.035Z" fill="#CCCCCC"/>
<path d="M192.817 250.515H187.65C187.564 250.515 187.482 250.481 187.422 250.42C187.361 250.36 187.327 250.278 187.327 250.192C187.327 250.106 187.361 250.024 187.422 249.964C187.482 249.903 187.564 249.869 187.65 249.869H192.817C192.903 249.869 192.985 249.903 193.045 249.964C193.106 250.024 193.14 250.106 193.14 250.192C193.14 250.278 193.106 250.36 193.045 250.42C192.985 250.481 192.903 250.515 192.817 250.515Z" fill="#CCCCCC"/>
<path d="M192.817 252.453H187.65C187.564 252.453 187.482 252.418 187.422 252.358C187.361 252.297 187.327 252.215 187.327 252.13C187.327 252.044 187.361 251.962 187.422 251.901C187.482 251.841 187.564 251.807 187.65 251.807H192.817C192.903 251.807 192.985 251.841 193.045 251.901C193.106 251.962 193.14 252.044 193.14 252.13C193.14 252.215 193.106 252.297 193.045 252.358C192.985 252.418 192.903 252.453 192.817 252.453Z" fill="#CCCCCC"/>
<path d="M192.817 254.39H187.65C187.564 254.39 187.482 254.356 187.422 254.296C187.361 254.235 187.327 254.153 187.327 254.067C187.327 253.982 187.361 253.9 187.422 253.839C187.482 253.778 187.564 253.744 187.65 253.744H192.817C192.903 253.744 192.985 253.778 193.045 253.839C193.106 253.9 193.14 253.982 193.14 254.067C193.14 254.153 193.106 254.235 193.045 254.296C192.985 254.356 192.903 254.39 192.817 254.39Z" fill="#CCCCCC"/>
<path d="M230.115 262.141H216.229C215.416 262.14 214.636 261.816 214.061 261.241C213.486 260.666 213.163 259.886 213.162 259.073V245.187C213.163 244.373 213.486 243.594 214.061 243.018C214.636 242.443 215.416 242.12 216.229 242.119H230.115C230.929 242.12 231.709 242.443 232.284 243.018C232.859 243.594 233.182 244.373 233.183 245.187V259.073C233.182 259.886 232.859 260.666 232.284 261.241C231.709 261.816 230.929 262.14 230.115 262.141ZM216.229 242.765C215.587 242.765 214.972 243.021 214.518 243.475C214.064 243.929 213.808 244.545 213.807 245.187V259.073C213.808 259.715 214.064 260.33 214.518 260.785C214.972 261.239 215.587 261.494 216.229 261.495H230.115C230.758 261.494 231.373 261.239 231.827 260.785C232.281 260.33 232.537 259.715 232.537 259.073V245.187C232.537 244.545 232.281 243.929 231.827 243.475C231.373 243.021 230.758 242.765 230.115 242.765H216.229Z" fill="#CCCCCC"/>
<path d="M227.693 255.682H218.651C218.394 255.682 218.148 255.579 217.966 255.398C217.785 255.216 217.682 254.97 217.682 254.713V249.546C217.682 249.289 217.785 249.043 217.966 248.861C218.148 248.68 218.394 248.578 218.651 248.577H227.693C227.95 248.578 228.196 248.68 228.378 248.861C228.559 249.043 228.661 249.289 228.662 249.546V254.713C228.661 254.97 228.559 255.216 228.378 255.398C228.196 255.579 227.95 255.682 227.693 255.682ZM218.651 249.223C218.565 249.223 218.483 249.257 218.423 249.318C218.362 249.378 218.328 249.461 218.328 249.546V254.713C218.328 254.799 218.362 254.881 218.423 254.941C218.483 255.002 218.565 255.036 218.651 255.036H227.693C227.779 255.036 227.861 255.002 227.921 254.941C227.982 254.881 228.016 254.799 228.016 254.713V249.546C228.016 249.461 227.982 249.378 227.921 249.318C227.861 249.257 227.779 249.223 227.693 249.223H218.651Z" fill="#CCCCCC"/>
<path d="M223.172 252.982C222.991 252.982 222.813 252.931 222.659 252.836L217.834 249.82C217.761 249.775 217.71 249.702 217.691 249.619C217.672 249.536 217.686 249.448 217.732 249.375C217.777 249.303 217.849 249.251 217.933 249.232C218.016 249.213 218.104 249.227 218.176 249.272L223.001 252.288C223.052 252.32 223.112 252.336 223.172 252.336C223.233 252.336 223.292 252.32 223.343 252.288L228.168 249.272C228.24 249.227 228.328 249.213 228.411 249.232C228.495 249.251 228.567 249.303 228.612 249.375C228.658 249.448 228.672 249.536 228.653 249.619C228.634 249.702 228.583 249.775 228.51 249.82L223.686 252.836C223.532 252.931 223.354 252.982 223.172 252.982Z" fill="#CCCCCC"/>
<path d="M164.238 262.141H150.352C149.538 262.14 148.758 261.816 148.183 261.241C147.608 260.666 147.285 259.886 147.284 259.073V245.187C147.285 244.373 147.608 243.594 148.183 243.018C148.758 242.443 149.538 242.12 150.352 242.119H164.238C165.051 242.12 165.831 242.443 166.406 243.018C166.981 243.594 167.304 244.373 167.305 245.187V259.073C167.304 259.886 166.981 260.666 166.406 261.241C165.831 261.816 165.051 262.14 164.238 262.141ZM150.352 242.765C149.709 242.765 149.094 243.021 148.64 243.475C148.186 243.929 147.93 244.545 147.93 245.187V259.073C147.93 259.715 148.186 260.33 148.64 260.785C149.094 261.239 149.709 261.494 150.352 261.495H164.238C164.88 261.494 165.495 261.239 165.949 260.785C166.403 260.33 166.659 259.715 166.659 259.073V245.187C166.659 244.545 166.403 243.929 165.949 243.475C165.495 243.021 164.88 242.765 164.238 242.765H150.352Z" fill="#CCCCCC"/>
<path d="M161.816 255.682H152.773C152.517 255.682 152.27 255.579 152.089 255.398C151.907 255.216 151.805 254.97 151.805 254.713V249.546C151.805 249.289 151.907 249.043 152.089 248.861C152.27 248.68 152.517 248.578 152.773 248.577H161.816C162.072 248.578 162.319 248.68 162.5 248.861C162.682 249.043 162.784 249.289 162.784 249.546V254.713C162.784 254.97 162.682 255.216 162.5 255.398C162.319 255.579 162.072 255.682 161.816 255.682ZM152.773 249.223C152.688 249.223 152.606 249.257 152.545 249.318C152.485 249.378 152.451 249.461 152.451 249.546V254.713C152.451 254.799 152.485 254.881 152.545 254.941C152.606 255.002 152.688 255.036 152.773 255.036H161.816C161.901 255.036 161.983 255.002 162.044 254.941C162.104 254.881 162.138 254.799 162.138 254.713V249.546C162.138 249.461 162.104 249.378 162.044 249.318C161.983 249.257 161.901 249.223 161.816 249.223H152.773Z" fill="#CCCCCC"/>
<path d="M160.382 255.682H153.884C153.77 255.682 153.659 255.652 153.561 255.596C153.463 255.539 153.381 255.457 153.324 255.359C153.268 255.261 153.238 255.15 153.238 255.036C153.238 254.923 153.268 254.811 153.324 254.713L155.282 251.322C155.339 251.224 155.42 251.143 155.518 251.086C155.616 251.029 155.728 251 155.841 251C155.955 251 156.066 251.029 156.164 251.086C156.262 251.143 156.344 251.224 156.401 251.322L157.665 253.512L158.397 252.244C158.454 252.145 158.536 252.064 158.634 252.007C158.732 251.951 158.843 251.921 158.957 251.921C159.07 251.921 159.181 251.951 159.28 252.007C159.378 252.064 159.459 252.145 159.516 252.244L160.942 254.713C160.998 254.811 161.028 254.923 161.028 255.036C161.028 255.15 160.998 255.261 160.942 255.359C160.885 255.457 160.804 255.539 160.705 255.596C160.607 255.652 160.496 255.682 160.382 255.682ZM160.382 255.036L158.957 252.567L157.945 254.32C157.916 254.369 157.876 254.41 157.826 254.438C157.777 254.466 157.722 254.481 157.665 254.481C157.608 254.481 157.553 254.466 157.503 254.438C157.454 254.41 157.414 254.369 157.385 254.32L155.841 251.645L153.884 255.036H160.382Z" fill="#CCCCCC"/>
<path d="M160.847 251.161C161.204 251.161 161.493 250.872 161.493 250.515C161.493 250.158 161.204 249.869 160.847 249.869C160.49 249.869 160.201 250.158 160.201 250.515C160.201 250.872 160.49 251.161 160.847 251.161Z" fill="#CCCCCC"/>
<path d="M315.277 335.307L311.317 335.307L309.434 320.036L315.277 320.036L315.277 335.307Z" fill="#FFB8B8"/>
<path d="M316.286 339.145L303.521 339.144V338.983C303.521 338.33 303.649 337.684 303.899 337.081C304.148 336.479 304.514 335.931 304.976 335.469C305.437 335.008 305.985 334.642 306.588 334.392C307.191 334.143 307.837 334.014 308.489 334.014H308.49L316.286 334.014L316.286 339.145Z" fill="#2F2E41"/>
<path d="M331.423 335.307L327.463 335.307L325.58 320.036L331.423 320.036L331.423 335.307Z" fill="#FFB8B8"/>
<path d="M332.433 339.145L319.667 339.144V338.983C319.667 338.33 319.795 337.684 320.045 337.081C320.295 336.479 320.661 335.931 321.122 335.469C321.584 335.008 322.131 334.642 322.734 334.392C323.337 334.143 323.983 334.014 324.636 334.014H324.636L332.433 334.014L332.433 339.145Z" fill="#2F2E41"/>
<path d="M330.236 328.687L326.569 327.572C326.296 327.489 326.053 327.327 325.871 327.107C325.69 326.887 325.577 326.618 325.547 326.334L322.129 293.935C322.126 293.896 322.108 293.86 322.08 293.833C322.051 293.806 322.013 293.791 321.974 293.791C321.935 293.787 321.896 293.799 321.865 293.824C321.834 293.848 321.814 293.884 321.809 293.923L316.083 325.312C316.048 325.502 315.976 325.684 315.87 325.846C315.764 326.008 315.627 326.147 315.466 326.255C315.306 326.364 315.126 326.439 314.936 326.476C314.746 326.514 314.55 326.513 314.361 326.474L309.674 325.509C309.331 325.437 309.024 325.243 308.812 324.964C308.6 324.684 308.495 324.338 308.518 323.987L312.001 272.54L335.619 269.992L332.109 327.385C332.087 327.754 331.924 328.101 331.655 328.354C331.386 328.608 331.031 328.749 330.661 328.75C330.517 328.75 330.374 328.729 330.236 328.687Z" fill="#2F2E41"/>
<path d="M330.214 227.738C334.594 227.738 338.145 224.187 338.145 219.807C338.145 215.427 334.594 211.875 330.214 211.875C325.833 211.875 322.282 215.427 322.282 219.807C322.282 224.187 325.833 227.738 330.214 227.738Z" fill="#FFB8B8"/>
<path d="M311.964 272.842L317.085 240.597C317.358 238.883 317.992 237.246 318.946 235.796C319.9 234.346 321.152 233.116 322.619 232.187C324.085 231.258 325.733 230.652 327.452 230.41C329.171 230.167 330.922 230.294 332.588 230.781C335.501 231.623 337.996 233.522 339.584 236.105C341.173 238.688 341.741 241.771 341.178 244.751L335.82 273.548L311.964 272.842Z" fill="#15CEFF"/>
<path d="M332.404 278.612C332.8 278.351 333.134 278.005 333.382 277.601C333.631 277.196 333.787 276.742 333.841 276.27C333.895 275.798 333.844 275.321 333.694 274.871C333.543 274.42 333.295 274.009 332.968 273.665L338.263 263.411L332.3 264.048L328.186 273.687C327.644 274.275 327.337 275.041 327.323 275.84C327.308 276.639 327.587 277.416 328.107 278.023C328.627 278.63 329.352 279.025 330.144 279.134C330.935 279.242 331.74 279.057 332.404 278.612Z" fill="#FFB8B8"/>
<path d="M333.537 271.856C333.244 271.815 332.971 271.685 332.754 271.484L330.728 269.613C330.509 269.409 330.358 269.144 330.295 268.852C330.232 268.56 330.26 268.256 330.375 267.98L334.424 258.384L333.849 239.421C333.932 238.812 334.134 238.224 334.444 237.693C334.753 237.161 335.165 236.696 335.654 236.324C336.144 235.951 336.702 235.679 337.297 235.522C337.892 235.366 338.512 235.328 339.121 235.411C339.731 235.494 340.318 235.697 340.849 236.007C341.38 236.317 341.845 236.729 342.217 237.219C342.589 237.709 342.861 238.267 343.017 238.862C343.173 239.457 343.21 240.077 343.126 240.687L344.108 252.607C344.407 256.224 343.381 259.827 341.222 262.746L334.908 271.281C334.787 271.445 334.632 271.582 334.454 271.682C334.276 271.783 334.08 271.845 333.876 271.864C333.763 271.875 333.649 271.872 333.537 271.856Z" fill="#15CEFF"/>
<path d="M284.538 215.486C284.625 215.952 284.813 216.394 285.088 216.781C285.364 217.167 285.721 217.489 286.135 217.722C286.548 217.955 287.008 218.095 287.481 218.132C287.954 218.169 288.43 218.101 288.874 217.934L296.252 226.807L297.991 221.068L290.718 213.522C290.388 212.794 289.802 212.212 289.072 211.887C288.342 211.563 287.518 211.517 286.756 211.759C285.994 212.001 285.348 212.514 284.939 213.201C284.53 213.888 284.388 214.701 284.538 215.486Z" fill="#FFB8B8"/>
<path d="M290.318 219.163C290.47 218.91 290.696 218.709 290.966 218.587L293.479 217.451C293.752 217.329 294.055 217.293 294.348 217.349C294.642 217.405 294.911 217.549 295.12 217.763L302.378 225.233L320.064 232.097C320.593 232.411 321.056 232.826 321.425 233.318C321.793 233.811 322.061 234.371 322.214 234.967C322.366 235.563 322.399 236.183 322.311 236.792C322.223 237.401 322.017 237.987 321.702 238.516C321.388 239.045 320.973 239.506 320.48 239.875C319.987 240.243 319.426 240.511 318.83 240.662C318.234 240.813 317.614 240.846 317.005 240.757C316.396 240.669 315.81 240.461 315.282 240.147L303.922 236.403C300.474 235.268 297.556 232.918 295.711 229.792L290.313 220.65C290.209 220.474 290.143 220.279 290.12 220.076C290.097 219.873 290.117 219.667 290.178 219.473C290.213 219.365 290.259 219.261 290.318 219.163Z" fill="#15CEFF"/>
<path opacity="0.1" d="M336.647 247.309L336.324 257.643L330.375 267.98L335.342 256.46L336.647 247.309Z" fill="black"/>
<path d="M329.305 221.297C328.807 221.362 328.302 221.244 327.885 220.965C327.467 220.685 327.165 220.264 327.035 219.779C326.909 219.221 326.634 218.707 326.238 218.293C325.843 217.879 325.342 217.581 324.79 217.43C323.335 217.098 321.557 217.783 320.491 216.68C320.263 216.429 320.097 216.126 320.009 215.798C319.921 215.47 319.911 215.126 319.982 214.793C320.178 213.722 320.945 212.913 321.779 212.266C323.534 210.91 325.657 210.116 327.871 209.989C329.017 209.956 330.164 210.013 331.301 210.16C332.491 210.235 333.669 210.45 334.809 210.801C336.108 211.291 337.262 212.101 338.166 213.155C339.069 214.209 339.692 215.474 339.976 216.833C340.237 218.196 340.197 219.599 339.859 220.945C339.521 222.291 338.894 223.547 338.02 224.625C336.975 225.927 335.627 226.954 334.093 227.615C333.728 227.788 333.31 227.809 332.929 227.674C331.974 227.295 332.13 226.112 332.565 225.323C333.031 224.478 333.748 223.661 333.374 222.633C333.186 222.157 332.825 221.768 332.364 221.546C331.414 221.062 330.353 221.176 329.332 221.294L329.305 221.297Z" fill="#2F2E41"/>
<path d="M281.888 225.776H183.718C182.305 225.775 180.95 225.213 179.952 224.214C178.953 223.215 178.391 221.861 178.389 220.448V199.457C178.391 198.045 178.953 196.69 179.952 195.692C180.95 194.693 182.305 194.131 183.718 194.129H281.888C283.301 194.131 284.655 194.693 285.654 195.692C286.653 196.69 287.215 198.045 287.216 199.457V220.448C287.215 221.861 286.653 223.215 285.654 224.214C284.655 225.213 283.301 225.775 281.888 225.776Z" fill="white"/>
<path d="M281.888 225.938H183.717C182.262 225.936 180.866 225.358 179.837 224.328C178.808 223.299 178.229 221.904 178.228 220.448V199.458C178.229 198.002 178.808 196.607 179.837 195.578C180.866 194.549 182.262 193.97 183.717 193.968H281.888C283.343 193.97 284.739 194.549 285.768 195.578C286.797 196.607 287.376 198.002 287.378 199.458V220.448C287.376 221.904 286.797 223.299 285.768 224.328C284.739 225.358 283.343 225.936 281.888 225.938ZM183.717 194.614C182.433 194.615 181.202 195.126 180.294 196.034C179.386 196.942 178.875 198.174 178.873 199.458V220.448C178.875 221.733 179.386 222.964 180.294 223.872C181.202 224.78 182.433 225.291 183.717 225.292H281.888C283.172 225.291 284.403 224.78 285.312 223.872C286.22 222.964 286.73 221.733 286.732 220.448V199.458C286.73 198.174 286.22 196.942 285.312 196.034C284.403 195.126 283.172 194.615 281.888 194.614H183.717Z" fill="#3F3D56"/>
<path d="M269.94 220.61H195.666C194.254 220.608 192.899 220.046 191.9 219.047C190.901 218.048 190.339 216.694 190.338 215.281V204.302C190.339 202.889 190.901 201.535 191.9 200.536C192.899 199.537 194.254 198.975 195.666 198.973H269.94C271.353 198.975 272.707 199.537 273.706 200.536C274.705 201.535 275.267 202.889 275.268 204.302V215.281C275.267 216.694 274.705 218.048 273.706 219.047C272.707 220.046 271.353 220.608 269.94 220.61Z" fill="#F2F2F2"/>
<path d="M211.649 214.692C215.168 214.692 218.021 211.839 218.021 208.32C218.021 204.8 215.168 201.948 211.649 201.948C208.13 201.948 205.277 204.8 205.277 208.32C205.277 211.839 208.13 214.692 211.649 214.692Z" fill="#FF6584"/>
<path d="M265.324 219.967L256.33 212.423L247.491 205.01C247.257 204.814 246.962 204.707 246.658 204.708C246.354 204.708 246.059 204.817 245.827 205.013L237.016 212.46L234.864 214.28L231.619 211.558L221.758 203.288C221.524 203.092 221.23 202.985 220.925 202.986C220.621 202.986 220.326 203.094 220.094 203.291L210.265 211.599L200.281 220.039C200.23 220.081 200.194 220.139 200.177 220.203C200.16 220.267 200.163 220.334 200.186 220.396C200.209 220.459 200.25 220.512 200.304 220.55C200.359 220.588 200.423 220.608 200.49 220.608L220.959 220.569L227.438 220.556L227.375 220.61L246.689 220.573L265.117 220.537C265.183 220.537 265.248 220.516 265.302 220.478C265.356 220.44 265.398 220.387 265.42 220.324C265.443 220.262 265.446 220.194 265.428 220.13C265.411 220.066 265.375 220.009 265.324 219.967Z" fill="#3F3D56"/>
<path d="M349.651 339.609H287.649C287.563 339.609 287.481 339.575 287.42 339.515C287.36 339.454 287.326 339.372 287.326 339.286C287.326 339.201 287.36 339.119 287.42 339.058C287.481 338.997 287.563 338.963 287.649 338.963H349.651C349.737 338.963 349.819 338.997 349.879 339.058C349.94 339.119 349.974 339.201 349.974 339.286C349.974 339.372 349.94 339.454 349.879 339.515C349.819 339.575 349.737 339.609 349.651 339.609Z" fill="#CCCCCC"/>
<path d="M262.067 168.599C261.809 168.179 261.469 167.817 261.066 167.534C260.664 167.251 260.208 167.053 259.726 166.952C259.55 166.915 259.37 166.892 259.19 166.884L234.586 144.886C234.103 144.389 233.458 144.081 232.768 144.017C232.632 144.002 232.495 143.997 232.358 144.004C231.79 144.03 231.242 144.221 230.781 144.553C230.32 144.885 229.966 145.344 229.762 145.875C229.557 146.405 229.512 146.983 229.632 147.539C229.751 148.095 230.029 148.603 230.433 149.003L239.853 157.215L255.321 170.698C255.334 170.952 255.372 171.204 255.434 171.45C255.619 172.164 256.017 172.805 256.575 173.288C257.133 173.77 257.824 174.072 258.557 174.153C259.226 174.231 259.903 174.119 260.511 173.83C260.993 173.605 261.42 173.277 261.764 172.871C261.799 172.829 261.832 172.79 261.864 172.745C262.315 172.157 262.577 171.444 262.613 170.704C262.65 169.963 262.459 169.228 262.067 168.599Z" fill="#FFB8B8"/>
<path d="M219.984 189.799L219.754 180.479L219.561 172.745L219.428 167.332L219.167 156.782C219.115 156.218 218.9 155.68 218.548 155.235C218.195 154.791 217.721 154.458 217.184 154.278C216.646 154.099 216.067 154.079 215.518 154.223C214.969 154.366 214.474 154.667 214.093 155.087C214.004 155.183 213.923 155.287 213.851 155.397C213.454 155.966 213.275 156.66 213.347 157.351L213.922 172.745L214.21 180.479L214.578 190.344C214.472 190.489 214.376 190.642 214.29 190.8C214.061 191.235 213.922 191.713 213.883 192.204C213.843 192.694 213.904 193.188 214.061 193.654C214.225 194.144 214.491 194.593 214.841 194.972C215.191 195.351 215.618 195.651 216.093 195.854C216.567 196.056 217.08 196.155 217.595 196.145C218.111 196.135 218.619 196.016 219.086 195.796C219.628 195.539 220.098 195.154 220.456 194.672C220.813 194.191 221.046 193.629 221.135 193.037C221.224 192.444 221.165 191.838 220.964 191.274C220.764 190.709 220.427 190.202 219.984 189.799Z" fill="#FFB8B8"/>
<path d="M242.136 163.399L239.853 157.215L236.159 147.198C235.892 146.469 235.465 145.81 234.909 145.269C234.353 144.727 233.682 144.318 232.946 144.072C232.888 144.053 232.826 144.033 232.768 144.017C232.055 143.801 231.304 143.741 230.566 143.843C229.828 143.944 229.121 144.204 228.493 144.605L216.05 152.497C214.911 153.218 214.096 154.354 213.778 155.665C213.461 156.976 213.665 158.358 214.348 159.521C215.904 162.212 217.6 164.819 219.428 167.333C220.878 169.306 223.578 169.516 224.046 172.745H233.22L242.508 164.407L242.136 163.399Z" fill="#CCCCCC"/>
<path d="M99.6689 238.978C103.802 238.978 107.152 235.628 107.152 231.496C107.152 227.363 103.802 224.013 99.6689 224.013C95.5362 224.013 92.186 227.363 92.186 231.496C92.186 235.628 95.5362 238.978 99.6689 238.978Z" fill="#A0616A"/>
<path d="M118.039 226.345C118.113 226.403 118.185 226.466 118.254 226.531C118.598 226.855 118.869 227.248 119.05 227.684C119.232 228.12 119.319 228.589 119.306 229.061C119.293 229.534 119.181 229.998 118.977 230.423C118.772 230.849 118.48 231.227 118.119 231.531C118.035 231.602 117.947 231.668 117.856 231.729L118.363 248.827C118.377 249.387 118.211 249.936 117.888 250.394C117.566 250.851 117.104 251.193 116.572 251.367L116.541 251.374L102.659 252.852C102.282 252.893 101.9 252.858 101.536 252.749C101.172 252.641 100.833 252.462 100.539 252.222C100.245 251.982 100.001 251.687 99.8221 251.352C99.6429 251.018 99.5317 250.651 99.4949 250.273C99.4582 249.895 99.4967 249.514 99.6081 249.151C99.7196 248.788 99.9018 248.451 100.144 248.159C100.387 247.867 100.685 247.626 101.021 247.45C101.357 247.274 101.725 247.166 102.103 247.132L111.999 246.261L113.71 231.454C113.598 231.355 113.493 231.248 113.396 231.135C112.86 230.499 112.578 229.688 112.607 228.857C112.635 228.026 112.971 227.235 113.55 226.638C114.129 226.041 114.909 225.681 115.738 225.626C116.568 225.572 117.388 225.828 118.039 226.345Z" fill="#A0616A"/>
<path d="M111.993 335.638H115.728L117.505 321.231H111.992L111.993 335.638Z" fill="#A0616A"/>
<path d="M111.041 334.418L118.396 334.418C119.012 334.418 119.622 334.539 120.19 334.775C120.759 335.01 121.276 335.355 121.711 335.791C122.147 336.226 122.492 336.743 122.727 337.311C122.963 337.88 123.084 338.49 123.084 339.105V339.258L111.041 339.258L111.041 334.418Z" fill="#2F2E41"/>
<path d="M74.8687 330.473L78.0779 332.384L86.9756 320.915L82.2389 318.094L74.8687 330.473Z" fill="#A0616A"/>
<path d="M74.6734 328.938L80.9936 332.701C81.5226 333.016 81.9845 333.432 82.3527 333.926C82.7208 334.419 82.9882 334.98 83.1395 335.577C83.2908 336.173 83.3231 336.794 83.2345 337.403C83.146 338.012 82.9383 338.598 82.6233 339.127L82.5454 339.258L72.1973 333.097L74.6734 328.938Z" fill="#2F2E41"/>
<path d="M116.61 330.549H112.428C112.089 330.55 111.762 330.424 111.51 330.198C111.258 329.972 111.1 329.66 111.064 329.323L106.848 289.687C106.837 289.588 106.794 289.494 106.725 289.421C106.656 289.348 106.565 289.3 106.466 289.284C106.367 289.269 106.265 289.286 106.177 289.333C106.088 289.381 106.018 289.456 105.977 289.547L98.37 306.391L84.9026 328.351C84.7283 328.633 84.4585 328.842 84.1424 328.941C83.8264 329.04 83.4854 329.021 83.1818 328.889L77.8017 326.522C77.6238 326.444 77.4646 326.328 77.3346 326.184C77.2046 326.039 77.1069 325.869 77.0478 325.684C76.9887 325.499 76.9697 325.303 76.9919 325.11C77.0142 324.917 77.0772 324.731 77.1769 324.564L89.5571 303.834L93.354 286.368C92.1598 278.794 97.2792 267.533 97.3311 267.42L97.3565 267.365L111.458 261.854L111.529 261.94C117.09 280.19 120.479 299.83 117.977 329.293C117.946 329.635 117.789 329.953 117.536 330.185C117.283 330.417 116.953 330.547 116.61 330.549Z" fill="#2F2E41"/>
<path d="M96.7878 269.211L96.7221 269.073C96.6907 269.007 93.5551 262.393 91.138 255.325C90.6735 253.958 90.4979 252.51 90.6223 251.072C90.7467 249.633 91.1685 248.237 91.8609 246.97C92.5623 245.69 93.5219 244.57 94.6788 243.68C95.8358 242.791 97.1649 242.151 98.5819 241.802C101.042 241.212 103.632 241.526 105.88 242.686C108.128 243.846 109.885 245.775 110.83 248.121C112.747 252.916 112.136 258.033 111.561 262.058L111.55 262.139L111.476 262.174L96.7878 269.211Z" fill="#3F3D56"/>
<path d="M108.742 227.269H96.8599V222.089C99.4678 221.053 102.02 220.172 103.562 222.089C104.936 222.089 106.253 222.635 107.225 223.606C108.196 224.578 108.742 225.895 108.742 227.269Z" fill="#2F2E41"/>
<path d="M96.2017 221.175C89.0985 221.175 87.1104 230.079 87.1104 235.102C87.1104 237.903 88.3772 238.905 90.3679 239.244L91.071 235.494L92.7176 239.405C93.2768 239.408 93.8642 239.397 94.4733 239.386L95.0316 238.236L96.2765 239.365C101.263 239.373 105.293 240.1 105.293 235.102C105.293 230.079 103.549 221.175 96.2017 221.175Z" fill="#2F2E41"/>
<path d="M129.325 339.609H67.3229C67.2373 339.609 67.1551 339.575 67.0946 339.515C67.034 339.454 67 339.372 67 339.286C67 339.201 67.034 339.119 67.0946 339.058C67.1551 338.997 67.2373 338.963 67.3229 338.963H129.325C129.411 338.963 129.493 338.997 129.554 339.058C129.614 339.119 129.648 339.201 129.648 339.286C129.648 339.372 129.614 339.454 129.554 339.515C129.493 339.575 129.411 339.609 129.325 339.609Z" fill="#CCCCCC"/>
<path d="M130.491 233.365H116.605C115.792 233.364 115.012 233.041 114.437 232.466C113.862 231.891 113.539 231.111 113.538 230.298V216.412C113.539 215.598 113.862 214.818 114.437 214.243C115.012 213.668 115.792 213.345 116.605 213.344H130.491C131.305 213.345 132.085 213.668 132.66 214.243C133.235 214.818 133.558 215.598 133.559 216.412V230.298C133.558 231.111 133.235 231.891 132.66 232.466C132.085 233.041 131.305 233.364 130.491 233.365Z" fill="white"/>
<path d="M130.491 233.365H116.605C115.792 233.364 115.012 233.041 114.437 232.466C113.862 231.891 113.539 231.111 113.538 230.298V216.412C113.539 215.598 113.862 214.818 114.437 214.243C115.012 213.668 115.792 213.345 116.605 213.344H130.491C131.305 213.345 132.085 213.668 132.66 214.243C133.235 214.818 133.558 215.598 133.559 216.412V230.298C133.558 231.111 133.235 231.891 132.66 232.466C132.085 233.041 131.305 233.364 130.491 233.365ZM116.605 213.99C115.963 213.99 115.348 214.246 114.894 214.7C114.44 215.154 114.184 215.769 114.183 216.412V230.298C114.184 230.94 114.44 231.555 114.894 232.009C115.348 232.463 115.963 232.719 116.605 232.72H130.491C131.134 232.719 131.749 232.463 132.203 232.009C132.657 231.555 132.913 230.94 132.913 230.298V216.412C132.913 215.769 132.657 215.154 132.203 214.7C131.749 214.246 131.134 213.99 130.491 213.99H116.605Z" fill="#3F3D56"/>
<path d="M128.07 227.714H119.028C118.771 227.714 118.525 227.612 118.343 227.43C118.162 227.249 118.059 227.002 118.059 226.745V219.964C118.059 219.707 118.162 219.461 118.343 219.279C118.525 219.098 118.771 218.995 119.028 218.995H121.573C121.739 218.995 121.902 219.037 122.046 219.117C122.191 219.198 122.312 219.315 122.398 219.456L123.108 220.61H128.07C128.327 220.61 128.573 220.712 128.755 220.894C128.936 221.075 129.038 221.322 129.039 221.579V226.745C129.038 227.002 128.936 227.249 128.755 227.43C128.573 227.612 128.327 227.714 128.07 227.714Z" fill="#15CEFF"/>
<path d="M127.776 231.14C127.821 231.223 127.863 231.308 127.901 231.395C128.092 231.827 128.19 232.295 128.188 232.767C128.186 233.239 128.084 233.706 127.889 234.136C127.694 234.566 127.41 234.95 127.057 235.263C126.703 235.576 126.287 235.81 125.836 235.951C125.732 235.984 125.625 236.011 125.517 236.032L119.35 251.986C119.146 252.508 118.779 252.95 118.304 253.246C117.829 253.543 117.271 253.678 116.713 253.633L116.682 253.627L103.314 249.603C102.951 249.493 102.613 249.313 102.319 249.072C102.026 248.831 101.783 248.535 101.605 248.199C101.427 247.864 101.317 247.497 101.282 247.119C101.246 246.741 101.286 246.36 101.399 245.997C101.511 245.635 101.695 245.299 101.938 245.007C102.182 244.716 102.481 244.476 102.818 244.301C103.154 244.126 103.523 244.02 103.901 243.988C104.279 243.956 104.66 243.999 105.021 244.115L114.48 247.152L121.803 234.169C121.738 234.035 121.683 233.896 121.638 233.753C121.39 232.96 121.445 232.102 121.794 231.347C122.143 230.593 122.759 229.994 123.524 229.669C124.289 229.343 125.148 229.313 125.933 229.585C126.719 229.857 127.376 230.411 127.776 231.14Z" fill="#A0616A"/>
<defs>
<filter id="filter0_d_660_613" x="1.95703" y="2.5" width="413.887" height="459.903" filterUnits="userSpaceOnUse" color-interpolation-filters="sRGB">
<feFlood flood-opacity="0" result="BackgroundImageFix"/>
<feColorMatrix in="SourceAlpha" type="matrix" values="0 0 0 0 0 0 0 0 0 0 0 0 0 0 0 0 0 0 127 0" result="hardAlpha"/>
<feOffset/>
<feGaussianBlur stdDeviation="3"/>
<feColorMatrix type="matrix" values="0 0 0 0 0 0 0 0 0 0 0 0 0 0 0 0 0 0 0.161 0"/>
<feBlend mode="normal" in2="BackgroundImageFix" result="effect1_dropShadow_660_613"/>
<feBlend mode="normal" in="SourceGraphic" in2="effect1_dropShadow_660_613" result="shape"/>
</filter>
</defs>
</svg>
