<svg width="258" height="258" viewBox="0 0 258 258" fill="none" xmlns="http://www.w3.org/2000/svg">
<rect x="1" y="1" width="256" height="256" rx="8" stroke="#15CEFF" stroke-width="2" stroke-linecap="round" stroke-dasharray="5 12"/>
<g clip-path="url(#clip0_660_759)">
<path d="M217.961 184.37C217.191 178.212 213.352 172.144 207.444 170.14C209.774 176.479 209.773 183.432 207.442 189.771C206.534 192.212 205.269 194.833 206.123 197.293C206.654 198.824 207.954 199.996 209.407 200.728C210.86 201.46 212.472 201.809 214.065 202.151L214.378 202.409C216.906 196.735 218.732 190.529 217.961 184.37Z" fill="#F0F0F0"/>
<path d="M207.385 170.256C210.826 174.089 212.964 178.901 213.497 184.011C213.631 185.108 213.591 186.221 213.376 187.306C213.134 188.356 212.612 189.323 211.866 190.105C211.186 190.849 210.403 191.531 209.916 192.426C209.673 192.888 209.532 193.395 209.501 193.915C209.469 194.435 209.549 194.956 209.734 195.443C210.164 196.669 211.012 197.669 211.875 198.617C212.833 199.67 213.845 200.749 214.252 202.146C214.301 202.315 214.562 202.229 214.513 202.06C213.805 199.631 211.432 198.251 210.301 196.062C209.773 195.041 209.552 193.856 210.046 192.778C210.479 191.836 211.286 191.132 211.982 190.385C212.72 189.632 213.263 188.711 213.561 187.702C213.83 186.631 213.913 185.523 213.808 184.424C213.611 181.946 213.023 179.515 212.066 177.218C210.989 174.592 209.467 172.168 207.567 170.051C207.45 169.92 207.269 170.126 207.385 170.256Z" fill="white"/>
<path d="M213.423 182.355C214.273 182.15 215.022 181.651 215.536 180.948C216.05 180.244 216.296 179.382 216.23 178.514C216.216 178.339 215.941 178.352 215.955 178.528C216.018 179.336 215.789 180.139 215.309 180.793C214.829 181.447 214.129 181.909 213.336 182.096C213.164 182.136 213.251 182.396 213.423 182.355Z" fill="white"/>
<path d="M212.261 189.774C210.725 188.862 209.592 187.409 209.086 185.704C209.036 185.535 208.775 185.621 208.825 185.789C209.355 187.563 210.537 189.073 212.137 190.018C212.29 190.108 212.413 189.863 212.261 189.774Z" fill="white"/>
<path d="M210.733 174.851C210.421 174.998 210.077 175.066 209.731 175.049C209.386 175.032 209.05 174.929 208.755 174.751C208.603 174.659 208.481 174.904 208.631 174.995C208.959 175.191 209.329 175.303 209.711 175.323C210.092 175.344 210.473 175.27 210.819 175.111C210.853 175.098 210.881 175.073 210.898 175.041C210.914 175.009 210.917 174.972 210.907 174.938C210.895 174.903 210.871 174.875 210.838 174.859C210.806 174.843 210.768 174.84 210.733 174.851Z" fill="white"/>
<path d="M189.436 181.139C189.528 181.199 189.621 181.259 189.714 181.322C190.958 182.135 192.134 183.048 193.23 184.05C193.316 184.126 193.402 184.205 193.485 184.283C196.099 186.727 198.233 189.632 199.78 192.85C200.395 194.131 200.91 195.457 201.322 196.816C201.891 198.692 202.358 200.772 203.484 202.307C203.6 202.469 203.725 202.623 203.86 202.769H214.038C214.061 202.758 214.084 202.748 214.108 202.737L214.514 202.755C214.498 202.684 214.479 202.61 214.463 202.538C214.454 202.497 214.442 202.455 214.433 202.414C214.426 202.386 214.419 202.358 214.414 202.333C214.412 202.324 214.409 202.314 214.407 202.307C214.403 202.282 214.396 202.259 214.391 202.236C214.289 201.823 214.183 201.409 214.075 200.996C214.075 200.994 214.075 200.994 214.073 200.992C213.239 197.845 212.134 194.74 210.59 191.901C210.543 191.816 210.497 191.728 210.446 191.643C209.743 190.367 208.936 189.15 208.033 188.005C207.537 187.379 207.009 186.779 206.452 186.206C205.009 184.73 203.341 183.488 201.51 182.527C197.86 180.611 193.634 179.877 189.733 181.047C189.633 181.077 189.535 181.107 189.436 181.139Z" fill="#F0F0F0"/>
<path d="M189.458 181.268C194.526 182.269 199.148 184.831 202.668 188.592C203.44 189.388 204.081 190.3 204.568 191.295C205.01 192.279 205.179 193.363 205.057 194.434C204.964 195.435 204.752 196.449 204.905 197.455C204.992 197.968 205.186 198.458 205.476 198.892C205.766 199.326 206.145 199.694 206.588 199.972C207.674 200.694 208.955 200.985 210.219 201.226C211.622 201.493 213.083 201.749 214.254 202.62C214.396 202.725 214.552 202.5 214.411 202.395C212.374 200.88 209.644 201.198 207.415 200.128C206.376 199.628 205.481 198.815 205.223 197.658C204.998 196.646 205.216 195.601 205.319 194.589C205.453 193.545 205.328 192.485 204.955 191.501C204.521 190.485 203.916 189.55 203.167 188.736C201.509 186.875 199.567 185.286 197.412 184.025C194.961 182.573 192.278 181.548 189.479 180.995C189.306 180.961 189.286 181.234 189.458 181.268Z" fill="white"/>
<path d="M201.607 187.315C202.161 186.642 202.457 185.795 202.442 184.926C202.426 184.056 202.1 183.22 201.522 182.568C201.405 182.436 201.193 182.611 201.311 182.743C201.85 183.35 202.154 184.128 202.167 184.938C202.179 185.748 201.901 186.536 201.38 187.159C201.268 187.295 201.494 187.45 201.607 187.315Z" fill="white"/>
<path d="M205.172 193.933C203.394 194.124 201.609 193.642 200.172 192.583C200.03 192.478 199.873 192.703 200.015 192.808C201.512 193.907 203.371 194.405 205.221 194.202C205.397 194.183 205.347 193.914 205.172 193.933Z" fill="white"/>
<path d="M194.914 182.932C194.754 183.237 194.521 183.498 194.234 183.69C193.948 183.883 193.618 184.002 193.274 184.037C193.098 184.054 193.148 184.323 193.323 184.306C193.703 184.266 194.067 184.134 194.384 183.922C194.701 183.709 194.961 183.423 195.14 183.088C195.16 183.058 195.167 183.022 195.161 182.986C195.154 182.951 195.135 182.919 195.106 182.898C195.076 182.877 195.039 182.87 195.003 182.876C194.967 182.882 194.935 182.903 194.914 182.932Z" fill="white"/>
<path d="M173.048 76.1561L51.5838 54.0334C51.3365 53.9861 51.0822 53.9891 50.8361 54.0421C50.6129 54.0907 50.4033 54.188 50.2226 54.327C50.0459 54.464 49.9038 54.64 49.8074 54.8411C49.7049 55.0582 49.6528 55.2955 49.6549 55.5354V163.712C49.6526 163.952 49.7046 164.19 49.807 164.407C49.9032 164.608 50.0451 164.784 50.2217 164.921C50.4023 165.06 50.6118 165.158 50.8349 165.206C51.081 165.26 51.3353 165.263 51.5826 165.216L173.048 143.093C173.148 143.072 173.242 143.025 173.318 142.956C173.407 142.878 173.481 142.784 173.538 142.679C173.603 142.56 173.653 142.433 173.686 142.302C173.722 142.158 173.74 142.011 173.74 141.863V77.3895C173.74 77.2413 173.722 77.0936 173.686 76.9497C173.653 76.8178 173.604 76.6907 173.538 76.5716C173.481 76.4673 173.407 76.3736 173.318 76.2946C173.242 76.226 173.149 76.1789 173.048 76.1582L173.048 76.1561Z" fill="#E4E4E4"/>
<path d="M174.905 76.1561L53.4412 54.0334C53.1939 53.9861 52.9396 53.9891 52.6935 54.0421C52.4703 54.0907 52.2608 54.188 52.08 54.327C51.9034 54.464 51.7612 54.64 51.6648 54.8411C51.5623 55.0582 51.5102 55.2955 51.5123 55.5354V163.712C51.51 163.952 51.562 164.19 51.6644 164.407C51.7606 164.608 51.9026 164.784 52.0791 164.921C52.2597 165.06 52.4692 165.158 52.6924 165.206C52.9384 165.26 53.1928 165.263 53.4401 165.216L174.905 143.093C175.006 143.072 175.099 143.025 175.175 142.956C175.264 142.878 175.339 142.784 175.395 142.679C175.461 142.56 175.511 142.433 175.543 142.302C175.579 142.158 175.597 142.011 175.597 141.863V77.3895C175.597 77.2413 175.579 77.0936 175.543 76.9497C175.511 76.8178 175.461 76.6907 175.395 76.5716C175.339 76.4673 175.264 76.3736 175.175 76.2946C175.099 76.226 175.006 76.1789 174.905 76.1582L174.905 76.1561Z" fill="white"/>
<path d="M174.905 76.1561L53.4412 54.0334C53.1939 53.9861 52.9396 53.9891 52.6935 54.0421C52.4703 54.0907 52.2608 54.188 52.08 54.327C51.9034 54.464 51.7612 54.64 51.6648 54.8411C51.5623 55.0582 51.5102 55.2955 51.5123 55.5354V163.712C51.51 163.952 51.562 164.19 51.6644 164.407C51.7606 164.608 51.9026 164.784 52.0791 164.921C52.2597 165.06 52.4692 165.158 52.6924 165.206C52.9384 165.26 53.1928 165.263 53.4401 165.216L174.905 143.093C175.006 143.072 175.099 143.025 175.175 142.956C175.264 142.878 175.339 142.784 175.395 142.679C175.461 142.56 175.511 142.433 175.543 142.302C175.579 142.158 175.597 142.011 175.597 141.863V77.3895C175.597 77.2413 175.579 77.0936 175.543 76.9497C175.511 76.8178 175.461 76.6907 175.395 76.5716C175.339 76.4673 175.264 76.3736 175.175 76.2946C175.099 76.226 175.006 76.1789 174.905 76.1582L174.905 76.1561ZM175.367 141.902C175.367 142.001 175.355 142.1 175.331 142.196C175.309 142.284 175.276 142.369 175.232 142.448C175.195 142.518 175.145 142.58 175.086 142.633C175.035 142.678 174.973 142.709 174.906 142.723L53.4424 164.6C53.2776 164.632 53.1082 164.629 52.9443 164.594C52.7958 164.561 52.6565 164.496 52.5363 164.403C52.4189 164.312 52.3244 164.194 52.2604 164.061C52.1925 163.916 52.1579 163.758 52.1592 163.599V55.6504C52.1578 55.4909 52.1923 55.3332 52.2602 55.1887C52.3241 55.0547 52.4185 54.9372 52.5358 54.8457C52.6559 54.7529 52.7952 54.6878 52.9436 54.655C53.1074 54.6192 53.2769 54.6168 53.4417 54.6479L174.906 76.5259C174.973 76.5395 175.035 76.5708 175.086 76.6164C175.145 76.669 175.195 76.7315 175.232 76.8011C175.276 76.8804 175.31 76.9652 175.331 77.0532C175.355 77.1492 175.368 77.2478 175.368 77.3468V141.902L175.367 141.902Z" fill="#CACACA"/>
<path d="M32.0002 87.7646C31.9943 87.0266 32.1513 86.2963 32.4602 85.6252C32.7488 85.0052 33.1753 84.4585 33.7076 84.0264C34.2434 83.5943 34.8688 83.2858 35.539 83.1231C36.264 82.9492 37.0175 82.9267 37.7517 83.0568C38.5218 83.1901 39.2608 83.4628 39.9319 83.8613C40.5949 84.2535 41.1884 84.7515 41.6886 85.3355C42.1845 85.9111 42.5808 86.5646 42.8612 87.2694C43.1407 87.9688 43.2857 88.714 43.2889 89.4666C43.2941 90.1782 43.1484 90.883 42.8612 91.5349C42.5915 92.1407 42.1912 92.6802 41.6886 93.1152C41.1791 93.5534 40.5796 93.8757 39.9319 94.0598C39.2233 94.2587 38.4809 94.3088 37.7517 94.2071C36.975 94.1007 36.225 93.8515 35.5402 93.4721C34.8521 93.0925 34.2332 92.6005 33.7094 92.0166C33.1835 91.434 32.7615 90.7662 32.4618 90.0423C32.1612 89.3199 32.0045 88.5463 32.0002 87.7646Z" fill="#E4E4E4"/>
<path d="M32.0002 110.156C31.9943 109.418 32.1513 108.688 32.4602 108.017C32.7488 107.397 33.1753 106.85 33.7076 106.418C34.2434 105.986 34.8688 105.677 35.539 105.515C36.264 105.341 37.0175 105.318 37.7517 105.448C38.5218 105.582 39.2608 105.854 39.9319 106.253C40.5949 106.645 41.1884 107.143 41.6886 107.727C42.1845 108.303 42.5808 108.956 42.8612 109.661C43.1407 110.36 43.2857 111.106 43.2889 111.858C43.2941 112.57 43.1484 113.274 42.8612 113.926C42.5915 114.532 42.1912 115.072 41.6886 115.507C41.1791 115.945 40.5796 116.267 39.9319 116.451C39.2233 116.65 38.4809 116.7 37.7517 116.599C36.975 116.492 36.225 116.243 35.5402 115.864C34.8521 115.484 34.2332 114.992 33.7094 114.408C33.1835 113.825 32.7615 113.158 32.4618 112.434C32.1612 111.711 32.0045 110.938 32.0002 110.156Z" fill="#E4E4E4"/>
<path d="M32.0002 132.547C31.9943 131.809 32.1513 131.079 32.4602 130.408C32.7488 129.788 33.1753 129.241 33.7076 128.809C34.2434 128.377 34.8688 128.069 35.539 127.906C36.264 127.732 37.0175 127.709 37.7517 127.84C38.5218 127.973 39.2608 128.246 39.9319 128.644C40.5949 129.036 41.1884 129.534 41.6886 130.118C42.1845 130.694 42.5808 131.347 42.8612 132.052C43.1407 132.752 43.2857 133.497 43.2889 134.249C43.2941 134.961 43.1484 135.666 42.8612 136.318C42.5915 136.924 42.1912 137.463 41.6886 137.898C41.1791 138.336 40.5796 138.659 39.9319 138.843C39.2233 139.042 38.4809 139.092 37.7517 138.99C36.975 138.884 36.225 138.634 35.5402 138.255C34.8521 137.875 34.2332 137.383 33.7094 136.799C33.1835 136.217 32.7615 135.549 32.4618 134.825C32.1612 134.103 32.0045 133.329 32.0002 132.547Z" fill="#E4E4E4"/>
<path d="M33.3932 87.7646C33.3874 87.0266 33.5444 86.2963 33.8532 85.6252C34.1419 85.0052 34.5684 84.4585 35.1006 84.0264C35.6364 83.5943 36.2619 83.2858 36.9321 83.1231C37.6571 82.9492 38.4105 82.9267 39.1448 83.0568C39.9149 83.1901 40.6539 83.4628 41.325 83.8613C41.988 84.2535 42.5815 84.7515 43.0816 85.3355C43.5776 85.9111 43.9739 86.5646 44.2543 87.2694C44.5337 87.9688 44.6788 88.714 44.682 89.4666C44.6872 90.1782 44.5415 90.883 44.2543 91.5349C43.9846 92.1407 43.5842 92.6802 43.0816 93.1152C42.5722 93.5534 41.9727 93.8757 41.325 94.0598C40.6164 94.2587 39.8739 94.3088 39.1448 94.2071C38.3681 94.1007 37.6181 93.8515 36.9332 93.4721C36.2451 93.0925 35.6262 92.6005 35.1025 92.0166C34.5766 91.434 34.1546 90.7662 33.8549 90.0423C33.5543 89.3199 33.3975 88.5463 33.3932 87.7646Z" fill="#15CEFF"/>
<path d="M33.3936 110.003C33.3901 109.254 33.5469 108.513 33.8536 107.829C34.1449 107.185 34.57 106.609 35.101 106.14C35.6322 105.67 36.2559 105.317 36.9325 105.101C37.6465 104.875 38.3996 104.797 39.1452 104.872C39.9067 104.946 40.6468 105.165 41.3254 105.516C41.9862 105.858 42.5809 106.314 43.082 106.861C43.5797 107.403 43.9768 108.028 44.2547 108.708C44.5362 109.397 44.6813 110.133 44.6822 110.876C44.6854 111.598 44.5398 112.313 44.2544 112.977C43.9808 113.609 43.5797 114.178 43.0758 114.649C42.5719 115.121 41.9761 115.484 41.3251 115.717C40.6271 115.966 39.8851 116.071 39.1449 116.024C38.3775 115.977 37.6264 115.783 36.9334 115.452C35.5498 114.791 34.4558 113.651 33.8555 112.247C33.5529 111.537 33.3959 110.774 33.3936 110.003Z" fill="#15CEFF"/>
<path d="M33.3936 132.242C33.3926 131.497 33.5434 130.76 33.8368 130.074C34.1303 129.389 34.5603 128.769 35.101 128.253C35.7659 127.62 36.5757 127.158 37.4606 126.906C38.3455 126.654 39.2788 126.62 40.1799 126.807C41.081 126.994 41.9228 127.396 42.6325 127.979C43.3422 128.561 43.8986 129.307 44.2535 130.151C44.6023 130.992 44.7387 131.904 44.6509 132.809C44.5631 133.714 44.2537 134.583 43.7497 135.342C43.2458 136.1 42.5626 136.724 41.7599 137.16C40.9572 137.595 40.0594 137.828 39.1451 137.839C38.0258 137.856 36.9265 137.543 35.9854 136.94C35.0443 136.337 34.3033 135.472 33.8554 134.452C33.5508 133.754 33.3936 133.002 33.3936 132.242Z" fill="#15CEFF"/>
<path d="M36.9021 87.7392L38.5884 87.9968V86.344C38.5876 86.2725 38.6023 86.2016 38.6316 86.1362C38.6589 86.0758 38.6996 86.0223 38.7507 85.9797C38.8022 85.937 38.8627 85.9062 38.9276 85.8895C38.9984 85.8715 39.0722 85.8683 39.1443 85.8802C39.2206 85.8925 39.2941 85.9186 39.3609 85.9573C39.4276 85.9958 39.4874 86.0449 39.5379 86.1028C39.5883 86.1601 39.6287 86.2254 39.6575 86.296C39.6861 86.366 39.7012 86.4408 39.7018 86.5164V88.1669L41.3561 88.4192C41.4312 88.431 41.5035 88.4566 41.5692 88.4947C41.701 88.5708 41.8035 88.6884 41.8604 88.829C41.8885 88.8985 41.903 88.9727 41.9034 89.0476C41.9039 89.1184 41.8893 89.1885 41.8604 89.2533C41.8337 89.313 41.7941 89.3661 41.7443 89.4088C41.6938 89.4515 41.6344 89.4826 41.5704 89.4998C41.5009 89.5182 41.4283 89.522 41.3572 89.5109L39.7006 89.2646V90.9114C39.7012 90.9829 39.6863 91.0538 39.657 91.1191C39.6296 91.1798 39.589 91.2336 39.5381 91.2768C39.4867 91.32 39.4265 91.3515 39.3616 91.3691C39.2911 91.3881 39.2174 91.3924 39.1452 91.3816C39.0689 91.3706 38.9954 91.3455 38.9283 91.3077C38.8616 91.2702 38.8017 91.2219 38.7511 91.1646C38.7006 91.1078 38.6602 91.0429 38.6316 90.9726C38.6031 90.9023 38.5884 90.8274 38.5884 90.7516V89.0988L36.9021 88.8472C36.8246 88.8354 36.75 88.8095 36.6819 88.7708C36.6142 88.7325 36.5534 88.6833 36.502 88.6251C36.4509 88.5679 36.4098 88.5025 36.3805 88.4317C36.3514 88.3608 36.3362 88.285 36.336 88.2085C36.3354 88.1363 36.3506 88.0649 36.3805 87.9991C36.4086 87.9381 36.4501 87.8841 36.502 87.8412C36.5544 87.7977 36.6159 87.7662 36.6819 87.7489C36.7539 87.7306 36.8288 87.7273 36.9021 87.7392Z" fill="white"/>
<path d="M38.0854 111.925L42.7682 112.263H42.7853L40.5893 108.299C40.5757 108.274 40.5562 108.253 40.5325 108.237C40.5208 108.23 40.5083 108.223 40.4951 108.219C40.4818 108.214 40.468 108.211 40.454 108.21C40.4403 108.208 40.4266 108.209 40.4131 108.211C40.4001 108.214 40.3875 108.218 40.3757 108.224C40.3521 108.236 40.3323 108.254 40.3188 108.276L38.8246 110.718L38.7526 110.836L38.0854 111.925Z" fill="white"/>
<path d="M35.4131 111.732L39.5445 112.03L38.7527 110.835L38.6956 110.749L37.6571 109.182C37.6388 109.158 37.6158 109.137 37.5896 109.121C37.5768 109.114 37.5634 109.107 37.5494 109.102C37.535 109.097 37.52 109.094 37.5048 109.092C37.4901 109.09 37.4753 109.089 37.4605 109.09C37.4461 109.091 37.4318 109.093 37.418 109.097C37.4043 109.101 37.3912 109.107 37.3787 109.114C37.3662 109.12 37.3545 109.129 37.3439 109.138L37.3404 109.142L37.336 109.146L37.3325 109.151L37.329 109.155L35.4131 111.732Z" fill="white"/>
<path d="M38.5373 107.647C38.6326 107.655 38.7253 107.681 38.8106 107.724C38.8942 107.767 38.9696 107.823 39.0333 107.892C39.0969 107.96 39.1477 108.039 39.1833 108.124C39.2194 108.211 39.2381 108.304 39.2383 108.398C39.2387 108.489 39.22 108.579 39.1833 108.663C39.1485 108.742 39.0974 108.812 39.0333 108.87C38.9689 108.929 38.8931 108.973 38.8106 109C38.7227 109.03 38.6296 109.04 38.5373 109.032C38.4419 109.025 38.349 108.998 38.2635 108.956C38.1795 108.914 38.1037 108.857 38.0397 108.788C37.9757 108.72 37.9245 108.641 37.8885 108.555C37.852 108.468 37.8332 108.375 37.833 108.28C37.8326 108.189 37.8515 108.098 37.8885 108.015C37.9237 107.936 37.9752 107.865 38.0397 107.807C38.1045 107.749 38.1807 107.705 38.2635 107.678C38.3517 107.649 38.4448 107.638 38.5373 107.647Z" fill="white"/>
<path d="M89.0684 123.447L135.436 79.7124L135.634 80.0587L89.3582 123.817L89.0684 123.447Z" fill="#E6E6E6"/>
<path d="M89.0757 73.8778L89.3664 73.5315L135.63 121.275L135.431 121.604L89.0757 73.8778Z" fill="#E6E6E6"/>
<path d="M134.966 79.074L89.8947 72.9184C89.6864 72.8888 89.4739 72.9068 89.2736 72.971C89.0829 73.0335 88.9088 73.138 88.7644 73.2766C88.6149 73.4201 88.4975 73.5931 88.4195 73.7845C88.3343 73.9957 88.2911 74.2213 88.2925 74.4488V122.68C88.2919 122.911 88.335 123.14 88.4195 123.355C88.4982 123.554 88.6152 123.737 88.7641 123.892C88.9077 124.041 89.0812 124.159 89.2734 124.238C89.4701 124.318 89.6823 124.354 89.8945 124.342L134.966 121.874C135.118 121.864 135.266 121.816 135.395 121.735C135.531 121.65 135.65 121.538 135.743 121.407C135.846 121.264 135.925 121.105 135.978 120.937C136.035 120.754 136.064 120.564 136.064 120.373V80.6635C136.064 80.4697 136.035 80.277 135.978 80.0917C135.925 79.9178 135.846 79.7528 135.743 79.6023C135.649 79.4636 135.531 79.3428 135.395 79.2457C135.268 79.1556 135.121 79.0967 134.966 79.074ZM89.8947 123.845C89.7432 123.853 89.5918 123.828 89.4515 123.771C89.3144 123.714 89.1907 123.629 89.0883 123.523C88.982 123.411 88.8986 123.281 88.8426 123.138C88.7823 122.985 88.7516 122.822 88.7521 122.657V74.5086C88.7512 74.3465 88.7819 74.1857 88.8426 74.0352C88.898 73.8983 88.9817 73.7745 89.0883 73.6718C89.1913 73.5729 89.3155 73.4984 89.4515 73.4537C89.5944 73.4075 89.746 73.3944 89.8947 73.4151L134.966 79.4874C135.077 79.5036 135.182 79.5457 135.273 79.6102C135.37 79.6792 135.455 79.7652 135.522 79.8641C135.595 79.9716 135.652 80.0895 135.69 80.2138C135.731 80.3463 135.751 80.4841 135.752 80.6227V120.389C135.752 120.526 135.731 120.662 135.69 120.793C135.652 120.913 135.596 121.026 135.522 121.129C135.455 121.222 135.37 121.302 135.273 121.363C135.18 121.42 135.075 121.454 134.966 121.461L89.8947 123.845Z" fill="#E6E6E6"/>
<path d="M88.4017 129.435C88.2819 129.448 88.1676 129.492 88.0704 129.563C87.963 129.641 87.8717 129.739 87.8014 129.852C87.7216 129.977 87.6611 130.114 87.6222 130.258C87.5791 130.414 87.5582 130.576 87.5602 130.738C87.5611 130.894 87.5846 131.048 87.6299 131.197C87.6692 131.328 87.7305 131.451 87.811 131.562C87.8811 131.659 87.9721 131.739 88.0773 131.798C88.1767 131.852 88.2893 131.877 88.4024 131.87L167.308 125.375C167.37 125.37 167.429 125.343 167.474 125.299C167.532 125.245 167.578 125.18 167.611 125.108C167.653 125.02 167.684 124.927 167.704 124.831C167.728 124.72 167.74 124.608 167.74 124.495C167.742 124.383 167.731 124.271 167.71 124.161C167.692 124.068 167.662 123.977 167.621 123.891C167.589 123.823 167.544 123.761 167.487 123.711C167.442 123.671 167.382 123.649 167.321 123.65H167.308L88.4017 129.435Z" fill="#E6E6E6"/>
<path d="M88.4017 136.827C88.2813 136.843 88.1671 136.89 88.0704 136.963C87.9631 137.044 87.8719 137.144 87.8015 137.259C87.7217 137.386 87.6613 137.524 87.6222 137.669C87.5791 137.827 87.5582 137.989 87.5602 138.153C87.561 138.308 87.5845 138.461 87.6299 138.61C87.669 138.739 87.7303 138.861 87.811 138.969C87.881 139.065 87.9719 139.143 88.0769 139.198C88.1769 139.25 88.2897 139.272 88.4019 139.262L167.308 130.609C167.371 130.602 167.43 130.573 167.474 130.528C167.532 130.472 167.578 130.406 167.611 130.333C167.653 130.244 167.684 130.15 167.704 130.053C167.728 129.942 167.74 129.828 167.74 129.715C167.742 129.603 167.731 129.492 167.71 129.382C167.692 129.289 167.662 129.2 167.621 129.115C167.589 129.047 167.543 128.988 167.487 128.939C167.441 128.9 167.381 128.88 167.321 128.883H167.307L88.4017 136.827Z" fill="#E6E6E6"/>
<path d="M88.4017 144.098C88.2806 144.119 88.1666 144.169 88.0703 144.244C87.9631 144.328 87.872 144.431 87.8014 144.547C87.7219 144.676 87.6615 144.816 87.6222 144.962C87.5791 145.12 87.5583 145.284 87.5602 145.447C87.561 145.601 87.5844 145.755 87.6298 145.902C87.6688 146.03 87.7301 146.15 87.811 146.257C87.8811 146.35 87.9721 146.426 88.0768 146.479C88.1776 146.528 88.2905 146.547 88.4019 146.534L167.308 135.758C167.371 135.749 167.43 135.719 167.474 135.673C167.532 135.615 167.578 135.548 167.611 135.474C167.653 135.383 167.684 135.288 167.704 135.191C167.728 135.079 167.74 134.966 167.74 134.852C167.742 134.741 167.731 134.629 167.71 134.52C167.692 134.428 167.662 134.339 167.621 134.255C167.589 134.189 167.543 134.13 167.487 134.083C167.44 134.045 167.381 134.026 167.321 134.031H167.307L88.4017 144.098Z" fill="#E6E6E6"/>
<path d="M41.3961 129.9L36.8917 129.847C36.8166 129.844 36.7416 129.855 36.6702 129.878C36.6011 129.9 36.5365 129.934 36.4791 129.979C36.4219 130.023 36.3728 130.076 36.3342 130.137C36.2945 130.2 36.2666 130.269 36.2517 130.341C36.2369 130.428 36.2414 130.516 36.265 130.601C36.2767 130.643 36.2931 130.684 36.3137 130.722C36.3558 130.801 36.4147 130.87 36.4863 130.924C36.5936 131.005 36.7243 131.049 36.859 131.05L38.2137 131.062C38.2775 131.063 38.3399 131.082 38.3931 131.117C38.4463 131.152 38.4881 131.202 38.5132 131.26C38.5301 131.3 38.5388 131.342 38.5387 131.385V134.027C38.5354 134.173 38.5843 134.315 38.6767 134.428C38.7691 134.542 38.899 134.62 39.0433 134.647C39.1742 134.669 39.3086 134.648 39.426 134.587C39.5434 134.525 39.6374 134.427 39.6935 134.308C39.7305 134.229 39.7496 134.143 39.7497 134.056V131.392C39.7497 131.351 39.758 131.31 39.774 131.271C39.79 131.233 39.8135 131.198 39.8431 131.169C39.8727 131.139 39.9078 131.116 39.9464 131.1C39.9851 131.084 40.0265 131.076 40.0683 131.076L40.0713 131.076L41.3654 131.086C41.5099 131.091 41.6513 131.044 41.7646 130.955C41.8778 130.866 41.9555 130.739 41.9838 130.599C41.998 130.513 41.9935 130.426 41.9706 130.343C41.9477 130.259 41.9069 130.182 41.8511 130.115C41.7953 130.049 41.7258 129.995 41.6472 129.958C41.5687 129.921 41.483 129.901 41.3961 129.9Z" fill="white"/>
<path d="M41.396 133.459C41.5244 133.459 41.6495 133.5 41.7526 133.576C41.8557 133.653 41.9314 133.76 41.9685 133.882C42.0056 134.004 42.0021 134.135 41.9586 134.255C41.915 134.375 41.8337 134.478 41.7267 134.549C41.6196 134.619 41.4926 134.654 41.3643 134.647C41.2361 134.64 41.1134 134.593 41.0146 134.511C40.9157 134.43 40.8459 134.319 40.8154 134.194C40.7849 134.07 40.7955 133.94 40.8454 133.822C40.891 133.715 40.9675 133.623 41.0655 133.558C41.1634 133.493 41.2784 133.459 41.396 133.459Z" fill="white"/>
<path d="M146.969 98.4505C146.948 98.6117 146.915 98.7709 146.868 98.9268L156.258 110.103L159.765 109.502L161.368 114.645L155.264 116.308C154.771 116.443 154.248 116.414 153.772 116.228C153.296 116.041 152.895 115.706 152.627 115.273L143.9 101.16C143.271 101.161 142.655 100.973 142.136 100.618C141.617 100.264 141.219 99.7609 140.995 99.1762C140.77 98.5914 140.73 97.9525 140.88 97.3446C141.03 96.7367 141.362 96.1884 141.833 95.7729C142.304 95.3573 142.89 95.094 143.515 95.0181C144.14 94.9422 144.774 95.0572 145.331 95.3479C145.889 95.6386 146.344 96.0912 146.637 96.6454C146.929 97.1996 147.045 97.8292 146.969 98.4505Z" fill="#FFB6B6"/>
<path d="M156.674 109.48C156.774 109.318 156.908 109.18 157.067 109.075C157.226 108.97 157.406 108.9 157.595 108.87L164.182 107.825C165.114 107.533 166.125 107.62 166.992 108.067C167.86 108.515 168.513 109.285 168.81 110.211C169.107 111.137 169.022 112.142 168.574 113.005C168.127 113.869 167.353 114.521 166.423 114.818L160.404 117.727C160.232 117.81 160.045 117.855 159.854 117.86C159.663 117.864 159.473 117.828 159.298 117.752C159.122 117.677 158.965 117.566 158.837 117.425C158.709 117.284 158.613 117.117 158.555 116.936L156.537 110.572C156.479 110.391 156.462 110.199 156.485 110.011C156.509 109.823 156.573 109.641 156.674 109.48Z" fill="#3F3D56"/>
<path d="M157.041 200.01H154.194L152.84 189.094L157.041 189.094L157.041 200.01Z" fill="#FFB6B6"/>
<path d="M157.767 202.754L148.587 202.753V202.638C148.587 201.696 148.964 200.793 149.634 200.127C150.304 199.46 151.213 199.086 152.16 199.086L157.767 199.086L157.767 202.754Z" fill="#2F2E41"/>
<path d="M186.764 200.01H183.917L182.562 189.094L186.764 189.094L186.764 200.01Z" fill="#FFB6B6"/>
<path d="M187.489 202.754L178.31 202.753V202.638C178.31 201.696 178.687 200.793 179.357 200.127C180.027 199.46 180.935 199.086 181.883 199.086L187.49 199.086L187.489 202.754Z" fill="#2F2E41"/>
<path d="M158.152 133.517L170.488 129.973C174.982 133.142 178.085 139.493 177.08 147.711C175.461 160.954 184.836 177.981 188.879 195.234L181.888 195.452L166.578 159.03L157.603 196.21L151.357 196.405L155.534 145.212L158.152 133.517Z" fill="#2F2E41"/>
<path d="M163.646 101.312C167.17 101.312 170.027 98.4717 170.027 94.9681C170.027 91.4644 167.17 88.6241 163.646 88.6241C160.121 88.6241 157.264 91.4644 157.264 94.9681C157.264 98.4717 160.121 101.312 163.646 101.312Z" fill="#FFB6B6"/>
<path d="M157.153 123.177C155.742 120.716 155.045 117.727 156.273 115.17C156.582 114.527 157.425 113.918 157.866 113.356L162.797 106.047L168.364 105.157C173.182 109.174 169.066 122.899 173.014 131.901L156.527 140.673C157.706 136.199 159.296 126.918 157.153 123.177Z" fill="#3F3D56"/>
<path d="M157.223 92.4278C157.223 92.4278 157.656 91.6322 160.242 92.6587C161.147 93.018 161.572 92.9354 161.631 93.7171C161.84 96.6594 162.923 99.4737 164.741 101.804L164.761 101.83L166.054 100.657L167.717 101.976L174.738 102.123C174.738 102.123 175.846 96.6972 172.151 90.5382C168.456 84.3791 160.881 87.7519 160.881 87.7519C155.708 88.0452 157.223 92.4278 157.223 92.4278Z" fill="#2F2E41"/>
<path d="M140.932 84.3189L95.8606 78.1634C95.6522 78.1338 95.4398 78.1518 95.2394 78.216C95.0487 78.2785 94.8746 78.383 94.7302 78.5216C94.5808 78.6651 94.4633 78.8381 94.3854 79.0295C94.3001 79.2407 94.2569 79.4663 94.2583 79.6938V127.925C94.2577 128.156 94.3008 128.385 94.3854 128.6C94.464 128.799 94.5811 128.982 94.7299 129.137C94.8736 129.286 95.047 129.404 95.2392 129.483C95.4359 129.563 95.6481 129.598 95.8603 129.587L140.932 127.119C141.084 127.109 141.232 127.061 141.361 126.98C141.497 126.895 141.615 126.783 141.709 126.652C141.812 126.509 141.891 126.35 141.943 126.182C142.001 125.999 142.03 125.809 142.03 125.618V85.9085C142.029 85.7147 142 85.522 141.943 85.3367C141.89 85.1628 141.811 84.9978 141.709 84.8473C141.615 84.7086 141.497 84.5878 141.361 84.4907C141.233 84.4006 141.087 84.3417 140.932 84.3189Z" fill="#15CEFF"/>
<path opacity="0.2" d="M140.932 84.3189L95.8606 78.1634C95.6522 78.1338 95.4398 78.1518 95.2394 78.216C95.0487 78.2785 94.8746 78.383 94.7302 78.5216C94.5808 78.6651 94.4633 78.8381 94.3854 79.0295C94.3001 79.2407 94.2569 79.4663 94.2583 79.6938V127.925C94.2577 128.156 94.3008 128.385 94.3854 128.6C94.464 128.799 94.5811 128.982 94.7299 129.137C94.8736 129.286 95.047 129.404 95.2392 129.483C95.4359 129.563 95.6481 129.598 95.8603 129.587L140.932 127.119C141.084 127.109 141.232 127.061 141.361 126.98C141.497 126.895 141.615 126.783 141.709 126.652C141.812 126.509 141.891 126.35 141.943 126.182C142.001 125.999 142.03 125.809 142.03 125.618V85.9085C142.029 85.7147 142 85.522 141.943 85.3367C141.89 85.1628 141.811 84.9978 141.709 84.8473C141.615 84.7086 141.497 84.5878 141.361 84.4907C141.233 84.4006 141.087 84.3417 140.932 84.3189Z" fill="black"/>
<path d="M142.79 84.3189L97.718 78.1634C97.5096 78.1338 97.2972 78.1518 97.0968 78.216C96.9061 78.2785 96.7321 78.383 96.5876 78.5216C96.4382 78.6651 96.3207 78.8381 96.2428 79.0295C96.1575 79.2407 96.1144 79.4663 96.1158 79.6938V127.925C96.1151 128.156 96.1582 128.385 96.2428 128.6C96.3214 128.799 96.4385 128.982 96.5874 129.137C96.731 129.286 96.9044 129.404 97.0966 129.483C97.2933 129.563 97.5055 129.598 97.7178 129.587L142.79 127.119C142.942 127.109 143.089 127.061 143.218 126.98C143.354 126.895 143.473 126.783 143.566 126.652C143.669 126.509 143.749 126.35 143.801 126.182C143.858 125.999 143.887 125.809 143.887 125.618V85.9085C143.887 85.7147 143.858 85.522 143.801 85.3367C143.748 85.1628 143.669 84.9978 143.566 84.8473C143.473 84.7086 143.355 84.5878 143.218 84.4907C143.091 84.4006 142.944 84.3417 142.79 84.3189Z" fill="#15CEFF"/>
<path d="M142.596 122.879C142.719 122.986 142.833 123.103 142.937 123.228L157.509 121.747L158.971 118.522L164.155 120.079L162.126 126.039C161.962 126.52 161.645 126.936 161.223 127.223C160.801 127.51 160.297 127.654 159.786 127.632L143.137 126.923C142.786 127.443 142.284 127.844 141.699 128.073C141.113 128.303 140.471 128.349 139.858 128.207C139.244 128.064 138.689 127.74 138.266 127.276C137.843 126.813 137.572 126.232 137.489 125.612C137.406 124.991 137.515 124.36 137.802 123.803C138.088 123.246 138.539 122.788 139.093 122.492C139.648 122.195 140.28 122.073 140.905 122.142C141.531 122.211 142.121 122.468 142.596 122.879Z" fill="#FFB6B6"/>
<path d="M157.222 121.056C157.143 120.883 157.103 120.695 157.105 120.505C157.106 120.315 157.148 120.128 157.229 119.956L160.045 113.944C160.323 113.013 160.961 112.229 161.819 111.764C162.677 111.3 163.686 111.193 164.624 111.466C165.561 111.74 166.352 112.372 166.821 113.224C167.291 114.076 167.401 115.079 167.128 116.012L166.185 122.598C166.158 122.786 166.091 122.966 165.987 123.126C165.884 123.286 165.747 123.422 165.587 123.524C165.426 123.627 165.245 123.693 165.056 123.72C164.867 123.747 164.674 123.733 164.491 123.679L158.056 121.78C157.872 121.726 157.703 121.633 157.559 121.509C157.415 121.384 157.3 121.229 157.222 121.056Z" fill="#3F3D56"/>
<path d="M225.768 203H137.297C137.235 203 137.176 202.976 137.132 202.932C137.089 202.889 137.064 202.83 137.064 202.769C137.064 202.708 137.089 202.649 137.132 202.606C137.176 202.563 137.235 202.538 137.297 202.538H225.768C225.829 202.538 225.888 202.563 225.932 202.606C225.976 202.649 226 202.708 226 202.769C226 202.83 225.976 202.889 225.932 202.932C225.888 202.976 225.829 203 225.768 203Z" fill="#CACACA"/>
</g>
<defs>
<clipPath id="clip0_660_759">
<rect width="194" height="149" fill="white" transform="translate(32 54)"/>
</clipPath>
</defs>
</svg>
