<svg width="258" height="258" viewBox="0 0 258 258" fill="none" xmlns="http://www.w3.org/2000/svg">
<rect x="1" y="1" width="256" height="256" rx="8" stroke="#15CEFF" stroke-width="2" stroke-linecap="round" stroke-dasharray="5 12"/>
<g clip-path="url(#clip0_660_780)">
<path d="M224 201.261C224.058 207.3 185.747 207.853 185.017 201.262C184.959 195.223 223.27 194.67 224 201.261Z" fill="#E6E6E6"/>
<path d="M194.026 180.298L191.179 181.84L192.991 187.753L195.838 188.01L197.391 184.668L194.026 180.298Z" fill="#9F616A"/>
<path d="M202.826 192.124V194.952L207.226 194.695L207.165 192.366L202.826 192.124Z" fill="#9F616A"/>
<path d="M192.99 146.361L194.543 165.643L199.461 193.923L207.226 192.895L204.638 170.528L205.673 149.961L192.99 146.361Z" fill="#2F2E41"/>
<path d="M213.697 131.964L195.061 132.221L192.99 146.361L205.673 152.274L208.779 163.587L192.99 180.298L199.202 188.01C199.202 188.01 208.003 176.184 214.474 169.5C220.945 162.815 217.839 142.505 217.839 142.505L213.697 131.964Z" fill="#2F2E41"/>
<path d="M202.567 95.4567C205.712 95.4567 208.262 92.9244 208.262 89.8006C208.262 86.6768 205.712 84.1445 202.567 84.1445C199.423 84.1445 196.873 86.6768 196.873 89.8006C196.873 92.9244 199.423 95.4567 202.567 95.4567Z" fill="#9F616A"/>
<path d="M200.497 93.657V99.3131L204.379 105.483C204.379 105.483 210.332 101.113 209.038 100.084C207.744 99.056 207.485 91.0861 207.485 91.0861L200.497 93.657Z" fill="#9F616A"/>
<path d="M200.497 98.2846L196.614 102.912L198.167 135.049L210.333 134.792L212.403 106.769L209.815 99.57L208.04 97.1707L204.897 101.884L200.497 98.2846Z" fill="#D0CDE1"/>
<path d="M194.284 114.996L191.437 125.794L194.284 136.592L189.625 142.762L185.484 123.223C185.484 123.223 188.59 107.283 188.849 105.483C189.108 103.684 189.625 103.427 189.625 103.427L191.696 103.684L194.284 114.996Z" fill="#2F2E41"/>
<path d="M214.991 119.109L216.803 122.451L217.321 128.107L216.286 134.535L219.909 140.448L223.533 124.251L219.65 103.426H218.097L214.991 119.109Z" fill="#2F2E41"/>
<path d="M192.99 180.041C192.99 180.041 189.367 181.069 188.073 181.326C186.778 181.583 188.849 186.468 188.849 186.468C188.849 186.468 190.143 193.152 190.402 194.438C190.661 195.723 192.473 200.094 194.802 200.608C197.132 201.122 195.579 191.61 195.579 191.61C195.579 191.61 196.614 188.525 196.614 187.496C196.614 186.468 195.061 186.982 195.061 186.982C190.92 186.468 192.99 180.041 192.99 180.041Z" fill="#2F2E41"/>
<path d="M201.532 199.837C201.791 201.379 201.273 201.379 205.414 201.893C209.556 202.408 208.52 199.065 208.52 199.065C208.347 197.49 208 195.938 207.485 194.438C206.709 192.381 202.567 194.952 202.567 194.952C202.567 194.952 201.273 198.294 201.532 199.837Z" fill="#2F2E41"/>
<path d="M207.492 91.2656L207.627 93.552C207.627 93.552 209.297 89.8005 209.556 85.9441C209.815 82.0877 205.414 81.3164 202.826 81.0594C200.238 80.8023 195.837 82.6019 195.837 84.6587C195.837 86.7154 200.496 86.2012 202.308 85.687C204.12 85.1729 204.897 89.5435 204.897 89.5435L205.932 89.8006L207.492 91.2656Z" fill="#2F2E41"/>
<path d="M198.969 100.105L200.497 98.2847L204.897 101.884L200.497 104.969L198.969 100.105Z" fill="#D0CDE1"/>
<path d="M209.815 99.57L208.003 97.2562L204.897 101.884L208.78 104.712L209.815 99.57Z" fill="#D0CDE1"/>
<path d="M193.508 118.595L194.543 128.365L192.473 134.278L191.178 139.934C191.178 139.934 191.178 145.333 196.355 145.59C201.532 145.847 205.932 129.393 205.932 129.393C205.932 129.393 206.709 132.992 207.226 135.049C207.744 137.106 216.544 145.333 216.544 145.333C216.544 145.333 218.615 145.076 220.427 140.962C222.239 136.849 216.803 132.992 216.803 132.992L215.25 127.593L215.768 120.909L219.392 103.427L208.65 97.899L209.815 112.682L205.932 124.251L200.108 98.6703L198.167 100.084L189.884 103.427L193.508 118.595Z" fill="#2F2E41"/>
<path d="M91.2136 157.481C90.7018 157.477 90.1841 157.473 89.6757 157.458L89.6915 156.949C90.1947 156.964 90.7092 156.971 91.2138 156.971C91.7206 156.971 92.237 156.963 92.7493 156.947L92.7658 157.456C92.2479 157.472 91.7258 157.481 91.2136 157.481ZM86.5924 157.266C85.5713 157.17 84.54 157.04 83.5274 156.879L83.6083 156.376C84.6102 156.535 85.6304 156.664 86.6407 156.759L86.5924 157.266ZM95.8488 157.26L95.8 156.753C96.8099 156.657 97.83 156.527 98.8318 156.367L98.9135 156.87C97.9008 157.032 96.8697 157.163 95.8488 157.26ZM80.4936 156.298C79.4937 156.073 78.4878 155.812 77.5037 155.523L77.6491 155.035C78.6227 155.32 79.6178 155.578 80.607 155.801L80.4936 156.298ZM101.947 156.285L101.833 155.789C102.824 155.564 103.819 155.305 104.79 155.019L104.936 155.507C103.954 155.797 102.949 156.058 101.947 156.285ZM74.5701 154.559C73.6053 154.207 72.6401 153.819 71.7011 153.407L71.9087 152.941C72.8375 153.349 73.7924 153.732 74.7469 154.081L74.5701 154.559ZM107.868 154.539L107.69 154.061C108.639 153.714 109.591 153.33 110.519 152.922L110.727 153.387C109.788 153.801 108.827 154.188 107.868 154.539ZM68.9139 152.073C68.006 151.603 67.0994 151.095 66.2194 150.565L66.4854 150.129C67.3561 150.654 68.253 151.156 69.1512 151.621L68.9139 152.073ZM113.506 152.055L113.269 151.603C114.165 151.138 115.06 150.636 115.928 150.112L116.195 150.547C115.317 151.077 114.412 151.584 113.506 152.055ZM63.6284 148.889C62.7875 148.306 61.9541 147.688 61.1512 147.052L61.471 146.654C62.2655 147.283 63.0901 147.894 63.922 148.471L63.6284 148.889ZM118.781 148.871L118.487 148.453C119.319 147.876 120.143 147.265 120.935 146.636L121.255 147.034C120.454 147.669 119.622 148.287 118.781 148.871ZM58.7973 145.062C58.0372 144.376 57.2898 143.658 56.5764 142.927L56.9445 142.573C57.6505 143.296 58.3899 144.006 59.1422 144.685L58.7973 145.062ZM123.607 145.044L123.261 144.667C124.012 143.99 124.751 143.279 125.458 142.554L125.826 142.909C125.112 143.641 124.365 144.36 123.607 145.044ZM54.4971 140.658C53.8315 139.883 53.1826 139.076 52.5681 138.261L52.9787 137.956C53.5867 138.762 54.2287 139.56 54.8873 140.327L54.4971 140.658ZM127.905 140.637L127.514 140.306C128.173 139.539 128.815 138.74 129.423 137.932L129.834 138.237C129.219 139.054 128.57 139.861 127.905 140.637ZM50.7973 135.748C50.2361 134.894 49.6961 134.013 49.1922 133.128L49.6388 132.877C50.1372 133.753 50.6715 134.625 51.2268 135.469L50.7973 135.748ZM131.605 135.72L131.175 135.442C131.731 134.596 132.265 133.722 132.764 132.845L133.21 133.095C132.707 133.982 132.166 134.865 131.605 135.72ZM47.7599 130.412C47.3136 129.495 46.8919 128.553 46.5067 127.611L46.9818 127.419C47.363 128.351 47.7802 129.283 48.2217 130.19L47.7599 130.412ZM134.643 130.372L134.182 130.151C134.623 129.242 135.04 128.307 135.422 127.371L135.897 127.563C135.511 128.509 135.09 129.454 134.643 130.372ZM45.436 124.732C45.1116 123.764 44.8152 122.774 44.5549 121.79L45.0511 121.66C45.3084 122.634 45.6017 123.614 45.9227 124.571L45.436 124.732ZM136.966 124.678L136.479 124.518C136.798 123.562 137.09 122.582 137.347 121.606L137.843 121.735C137.584 122.722 137.288 123.712 136.966 124.678ZM43.8668 118.798C43.6708 117.798 43.505 116.779 43.3739 115.768L43.8826 115.703C44.0123 116.703 44.1764 117.712 44.3702 118.7L43.8668 118.798ZM138.528 118.742L138.024 118.645C138.217 117.657 138.38 116.648 138.508 115.647L139.017 115.712C138.887 116.723 138.723 117.743 138.528 118.742ZM43.0774 112.714C43.0116 111.699 42.9777 110.666 42.9766 109.646L43.4895 109.646C43.4906 110.655 43.5242 111.676 43.5893 112.681L43.0774 112.714ZM139.31 112.657L138.798 112.625C138.862 111.621 138.895 110.6 138.895 109.59L138.894 109.478H139.407L139.407 109.588C139.407 110.61 139.375 111.642 139.31 112.657ZM43.5822 106.611L43.0702 106.579C43.1338 105.562 43.2312 104.534 43.3595 103.524L43.8684 103.588C43.7413 104.587 43.645 105.604 43.5822 106.611ZM138.791 106.444C138.725 105.437 138.625 104.42 138.494 103.422L139.003 103.356C139.135 104.365 139.236 105.392 139.303 106.41L138.791 106.444ZM44.3488 100.59L43.8451 100.493C44.0386 99.4933 44.2678 98.4862 44.526 97.4998L45.0224 97.628C44.7669 98.6039 44.5403 99.6002 44.3488 100.59ZM138.003 100.425C137.807 99.4354 137.577 98.4398 137.318 97.466L137.814 97.3362C138.076 98.3204 138.309 99.3267 138.506 100.327L138.003 100.425ZM45.8872 94.7156L45.4001 94.5559C45.722 93.5878 46.0804 92.6168 46.4655 91.6696L46.9411 91.8604C46.5602 92.7974 46.2057 93.758 45.8872 94.7156ZM136.444 94.5568C136.122 93.6005 135.764 92.6426 135.381 91.7096L135.856 91.5173C136.244 92.4604 136.605 93.4286 136.93 94.3951L136.444 94.5568ZM48.1784 89.0791L47.716 88.8582C48.161 87.9395 48.6421 87.0228 49.1459 86.1337L49.5929 86.3837C49.0944 87.2633 48.6186 88.1701 48.1784 89.0791ZM134.138 88.9402C133.697 88.0356 133.219 87.132 132.718 86.2547L133.164 86.0035C133.671 86.8901 134.153 87.8035 134.6 88.718L134.138 88.9402ZM51.1783 83.7845L50.7483 83.5066C51.3077 82.6526 51.9026 81.8049 52.5165 80.9873L52.9278 81.2918C52.3204 82.1008 51.7317 82.9394 51.1783 83.7845ZM131.127 83.6646C130.572 82.8226 129.982 81.9866 129.372 81.1799L129.782 80.8741C130.398 81.6896 130.995 82.5345 131.556 83.3855L131.127 83.6646ZM54.8335 78.916L54.4428 78.5861C55.1071 77.8098 55.8055 77.0446 56.5185 76.3118L56.8874 76.6658C56.1819 77.3909 55.4909 78.148 54.8335 78.916ZM127.461 78.811C126.801 78.0451 126.108 77.2903 125.401 76.5673L125.768 76.2123C126.483 76.9428 127.184 77.7058 127.85 78.4799L127.461 78.811ZM59.081 74.5504L58.7357 74.1738C59.4947 73.4871 60.2851 72.8165 61.0848 72.1809L61.4054 72.5787C60.6141 73.2076 59.832 73.8711 59.081 74.5504ZM123.2 74.458C122.448 73.7817 121.664 73.1203 120.869 72.4921L121.189 72.0934C121.992 72.7283 122.785 73.3968 123.544 74.0804L123.2 74.458ZM63.851 70.7583L63.5567 70.3411C64.396 69.7569 65.2655 69.1921 66.1412 68.6622L66.4081 69.0973C65.5418 69.6216 64.6813 70.1804 63.851 70.7583ZM118.416 70.6772C117.581 70.1 116.718 69.543 115.851 69.0217L116.116 68.5858C116.993 69.1126 117.865 69.6756 118.709 70.2591L118.416 70.6772ZM69.0659 67.6027L68.8277 67.1514C69.7345 66.679 70.6692 66.2295 71.6055 65.8154L71.8142 66.2809C70.8877 66.6905 69.9632 67.1353 69.0659 67.6027ZM113.183 67.5328C112.282 67.0671 111.354 66.6244 110.424 66.2169L110.631 65.7507C111.571 66.1626 112.51 66.6101 113.42 67.0808L113.183 67.5328ZM74.6412 65.138L74.4631 64.6601C75.4248 64.3068 76.411 63.9799 77.3943 63.6887L77.5408 64.177C76.568 64.465 75.5925 64.7884 74.6412 65.138ZM107.585 65.0802C106.631 64.7338 105.654 64.4139 104.681 64.1295L104.826 63.6407C105.81 63.9281 106.797 64.2515 107.761 64.6018L107.585 65.0802ZM80.4968 63.404L80.3823 62.9074C81.3803 62.6803 82.4005 62.4824 83.4147 62.3189L83.4969 62.8219C82.4934 62.9836 81.4841 63.1794 80.4968 63.404ZM101.723 63.3669C100.734 63.1455 99.7235 62.9532 98.7204 62.7952L98.8008 62.292C99.8146 62.4517 100.836 62.6461 101.835 62.8699L101.723 63.3669ZM86.5284 62.4319L86.4788 61.9249C87.4971 61.8268 88.5344 61.7598 89.5616 61.7258L89.5787 62.235C88.5622 62.2686 87.536 62.3349 86.5284 62.4319ZM95.6875 62.4161C94.6784 62.3225 93.6518 62.2598 92.6366 62.2298L92.6519 61.7206C93.6779 61.7509 94.7154 61.8142 95.7352 61.9089L95.6875 62.4161Z" fill="#D0CDE1"/>
<path d="M89.3967 74.9455C96.0538 74.9455 101.451 69.5851 101.451 62.9727C101.451 56.3604 96.0538 51 89.3967 51C82.7395 51 77.3428 56.3604 77.3428 62.9727C77.3428 69.5851 82.7395 74.9455 89.3967 74.9455Z" fill="#15CEFF"/>
<path d="M136.073 107.552C142.731 107.552 148.127 102.192 148.127 95.5793C148.127 88.9669 142.731 83.6066 136.073 83.6066C129.416 83.6066 124.02 88.9669 124.02 95.5793C124.02 102.192 129.416 107.552 136.073 107.552Z" fill="#15CEFF"/>
<path d="M121.455 157.481C128.112 157.481 133.509 152.12 133.509 145.508C133.509 138.896 128.112 133.535 121.455 133.535C114.798 133.535 109.401 138.896 109.401 145.508C109.401 152.12 114.798 157.481 121.455 157.481Z" fill="#15CEFF"/>
<path d="M63.4933 159.519C70.1505 159.519 75.5472 154.158 75.5472 147.546C75.5472 140.934 70.1505 135.573 63.4933 135.573C56.8362 135.573 51.4395 140.934 51.4395 147.546C51.4395 154.158 56.8362 159.519 63.4933 159.519Z" fill="#15CEFF"/>
<path d="M46.0539 107.552C52.7111 107.552 58.1078 102.192 58.1078 95.5793C58.1078 88.9669 52.7111 83.6066 46.0539 83.6066C39.3967 83.6066 34 88.9669 34 95.5793C34 102.192 39.3967 107.552 46.0539 107.552Z" fill="#15CEFF"/>
<path d="M94.5619 62.0182H90.3575C89.9751 62.0182 89.6085 61.8673 89.3381 61.5988C89.0678 61.3303 88.9159 60.9661 88.9159 60.5864V56.4102C88.9159 56.3945 88.9128 56.379 88.9068 56.3645C88.9007 56.3501 88.8919 56.3369 88.8807 56.3258C88.8696 56.3148 88.8563 56.306 88.8418 56.3C88.8272 56.294 88.8116 56.2909 88.7958 56.2909H86.0329C85.5231 56.2909 85.0342 56.492 84.6738 56.8501C84.3133 57.2081 84.1108 57.6937 84.1108 58.2V67.7455C84.1108 68.2518 84.3133 68.7374 84.6738 69.0954C85.0342 69.4534 85.5231 69.6546 86.0329 69.6546H92.76C93.2698 69.6546 93.7586 69.4534 94.1191 69.0954C94.4795 68.7374 94.682 68.2518 94.682 67.7455V62.1375C94.682 62.1218 94.6789 62.1063 94.6729 62.0918C94.6669 62.0774 94.658 62.0642 94.6468 62.0531C94.6357 62.042 94.6225 62.0333 94.6079 62.0273C94.5933 62.0213 94.5777 62.0182 94.5619 62.0182ZM91.799 66.7909H86.9939C86.8665 66.7909 86.7442 66.7406 86.6541 66.6511C86.564 66.5616 86.5134 66.4402 86.5134 66.3136C86.5134 66.1871 86.564 66.0657 86.6541 65.9762C86.7442 65.8867 86.8665 65.8364 86.9939 65.8364H91.799C91.9264 65.8364 92.0486 65.8867 92.1387 65.9762C92.2289 66.0657 92.2795 66.1871 92.2795 66.3136C92.2795 66.4402 92.2289 66.5616 92.1387 66.6511C92.0486 66.7406 91.9264 66.7909 91.799 66.7909ZM91.799 64.4045H86.9939C86.8665 64.4045 86.7442 64.3543 86.6541 64.2648C86.564 64.1752 86.5134 64.0539 86.5134 63.9273C86.5134 63.8007 86.564 63.6793 86.6541 63.5898C86.7442 63.5003 86.8665 63.45 86.9939 63.45H91.799C91.9264 63.45 92.0486 63.5003 92.1387 63.5898C92.2289 63.6793 92.2795 63.8007 92.2795 63.9273C92.2795 64.0539 92.2289 64.1752 92.1387 64.2648C92.0486 64.3543 91.9264 64.4045 91.799 64.4045Z" fill="white"/>
<path d="M94.2982 60.9619L89.9794 56.6721C89.971 56.6638 89.9603 56.6582 89.9487 56.6559C89.9371 56.6536 89.925 56.6548 89.9141 56.6593C89.9031 56.6638 89.8938 56.6714 89.8872 56.6812C89.8806 56.6909 89.877 56.7024 89.877 56.7142V60.5864C89.877 60.713 89.9276 60.8344 90.0177 60.9239C90.1078 61.0134 90.23 61.0637 90.3575 61.0637H94.2559C94.2677 61.0636 94.2793 61.0601 94.2891 61.0535C94.299 61.047 94.3066 61.0377 94.3111 61.0268C94.3157 61.0159 94.3169 61.004 94.3146 60.9924C94.3123 60.9809 94.3066 60.9703 94.2982 60.9619Z" fill="white"/>
<path d="M123.198 143.15C123.05 143.15 122.907 143.201 122.793 143.294C122.679 143.387 122.601 143.517 122.572 143.661C122.543 143.805 122.565 143.954 122.635 144.084C122.705 144.213 122.818 144.314 122.954 144.37C123.091 144.427 123.243 144.434 123.384 144.391C123.525 144.349 123.648 144.259 123.73 144.136C123.812 144.014 123.849 143.868 123.834 143.722C123.82 143.576 123.754 143.439 123.65 143.335C123.591 143.276 123.52 143.23 123.443 143.198C123.365 143.166 123.282 143.15 123.198 143.15Z" fill="white"/>
<path d="M126.755 140.612V140.61C126.734 140.522 126.69 140.441 126.626 140.377C126.562 140.313 126.481 140.268 126.392 140.247C125.679 140.074 124.557 140.258 123.314 140.752C122.118 141.214 121.024 141.902 120.093 142.778C119.838 143.03 119.602 143.298 119.386 143.583C118.907 143.55 118.428 143.626 117.984 143.806C116.602 144.41 116.207 145.956 116.102 146.591C116.087 146.681 116.093 146.774 116.119 146.861C116.146 146.949 116.193 147.029 116.256 147.096C116.319 147.162 116.396 147.214 116.482 147.246C116.569 147.278 116.661 147.29 116.753 147.281H116.756L118.295 147.114C118.297 147.133 118.299 147.151 118.301 147.167C118.321 147.354 118.404 147.528 118.538 147.66L119.289 148.407C119.422 148.539 119.597 148.623 119.785 148.642L119.836 148.648L119.669 150.175V150.178C119.661 150.256 119.668 150.334 119.691 150.409C119.713 150.484 119.75 150.553 119.8 150.614C119.849 150.674 119.91 150.725 119.979 150.762C120.049 150.799 120.124 150.822 120.203 150.83C120.221 150.832 120.239 150.833 120.258 150.833C120.291 150.833 120.324 150.831 120.357 150.825C121 150.723 122.556 150.335 123.162 148.955C123.342 148.516 123.419 148.042 123.388 147.568C123.676 147.354 123.947 147.119 124.201 146.866C125.082 145.95 125.776 144.871 126.243 143.692C126.738 142.471 126.924 141.348 126.755 140.612ZM124.192 144.77C123.996 144.965 123.745 145.099 123.472 145.153C123.199 145.207 122.917 145.179 122.659 145.073C122.402 144.968 122.183 144.789 122.028 144.559C121.873 144.33 121.791 144.059 121.79 143.783C121.79 143.507 121.873 143.237 122.027 143.007C122.182 142.777 122.401 142.598 122.658 142.492C122.915 142.386 123.198 142.358 123.471 142.412C123.744 142.466 123.994 142.599 124.191 142.794L124.192 142.795C124.456 143.053 124.606 143.404 124.608 143.772C124.611 144.139 124.467 144.493 124.207 144.755L124.192 144.77Z" fill="white"/>
<path d="M119.203 148.609C119.11 148.598 119.017 148.62 118.94 148.673C118.787 148.776 118.633 148.879 118.478 148.979C118.411 149.022 118.331 149.042 118.251 149.034C118.171 149.027 118.097 148.993 118.039 148.938C117.981 148.883 117.943 148.81 117.931 148.732C117.92 148.653 117.935 148.573 117.975 148.504L118.266 148.005C118.308 147.944 118.331 147.873 118.333 147.8C118.335 147.727 118.316 147.655 118.277 147.592C118.239 147.53 118.183 147.479 118.117 147.448C118.051 147.416 117.977 147.403 117.903 147.412C117.581 147.453 117.281 147.599 117.051 147.827C116.963 147.915 116.697 148.18 116.553 149.189C116.512 149.479 116.487 149.77 116.476 150.063C116.475 150.113 116.484 150.162 116.502 150.209C116.52 150.256 116.547 150.298 116.581 150.335C116.616 150.371 116.657 150.4 116.703 150.42C116.749 150.44 116.799 150.452 116.849 150.453C116.853 150.453 116.856 150.453 116.859 150.453H116.869C117.163 150.443 117.457 150.417 117.749 150.377C118.766 150.234 119.033 149.969 119.12 149.882C119.351 149.654 119.498 149.354 119.536 149.033C119.549 148.933 119.521 148.832 119.458 148.752C119.395 148.673 119.304 148.621 119.203 148.609Z" fill="white"/>
<path d="M59.3452 154.052H58.4719C58.2982 154.052 58.1316 153.984 58.0087 153.862C57.8859 153.74 57.8169 153.574 57.8169 153.401V149.498C57.8169 149.325 57.8859 149.16 58.0087 149.038C58.1316 148.916 58.2982 148.847 58.4719 148.847H59.3452C59.519 148.847 59.6856 148.916 59.8084 149.038C59.9313 149.16 60.0003 149.325 60.0003 149.498V153.401C60.0003 153.574 59.9313 153.74 59.8084 153.862C59.6856 153.984 59.519 154.052 59.3452 154.052Z" fill="white"/>
<path d="M65.4585 154.052H64.5852C64.4115 154.052 64.2449 153.984 64.122 153.862C63.9992 153.74 63.9302 153.574 63.9302 153.401V146.895C63.9302 146.723 63.9992 146.557 64.122 146.435C64.2449 146.313 64.4115 146.245 64.5852 146.245H65.4585C65.6323 146.245 65.7989 146.313 65.9217 146.435C66.0445 146.557 66.1135 146.723 66.1135 146.895V153.401C66.1135 153.574 66.0445 153.74 65.9217 153.862C65.7989 153.984 65.6323 154.052 65.4585 154.052Z" fill="white"/>
<path d="M68.5152 154.052H67.6418C67.4681 154.052 67.3015 153.984 67.1787 153.862C67.0558 153.74 66.9868 153.574 66.9868 153.401V143.859C66.9868 143.687 67.0558 143.521 67.1787 143.399C67.3015 143.277 67.4681 143.209 67.6418 143.209H68.5152C68.6889 143.209 68.8555 143.277 68.9783 143.399C69.1012 143.521 69.1702 143.687 69.1702 143.859V153.401C69.1702 153.574 69.1012 153.74 68.9783 153.862C68.8555 153.984 68.6889 154.052 68.5152 154.052Z" fill="white"/>
<path d="M62.4019 154.052H61.5285C61.3548 154.052 61.1882 153.984 61.0654 153.862C60.9425 153.74 60.8735 153.574 60.8735 153.402V141.691C60.8735 141.518 60.9425 141.353 61.0654 141.231C61.1882 141.109 61.3548 141.04 61.5285 141.04H62.4019C62.5756 141.04 62.7422 141.109 62.8651 141.231C62.9879 141.353 63.0569 141.518 63.0569 141.691V153.402C63.0569 153.487 63.04 153.572 63.007 153.651C62.9741 153.729 62.9259 153.801 62.865 153.862C62.8042 153.922 62.732 153.97 62.6525 154.003C62.5731 154.035 62.4879 154.052 62.4019 154.052Z" fill="white"/>
<path d="M136.651 95.2658L136.027 94.6458C135.884 94.5038 135.69 94.4238 135.488 94.4232C135.286 94.4227 135.092 94.5017 134.948 94.6429L130.61 98.6195C130.451 98.7595 130.353 98.9561 130.339 99.1668C130.334 99.2715 130.351 99.376 130.389 99.4737C130.427 99.5715 130.485 99.6605 130.559 99.7351L131.491 100.671L131.492 100.673C131.636 100.815 131.831 100.896 132.035 100.896H132.063C132.168 100.89 132.271 100.864 132.366 100.818C132.461 100.773 132.546 100.709 132.617 100.631L136.648 96.342C136.792 96.2001 136.873 96.0073 136.874 95.8058C136.875 95.6044 136.795 95.4108 136.653 95.2678L136.651 95.2658Z" fill="white"/>
<path d="M141.665 94.0128L141.658 94.0054L140.839 93.2003C140.791 93.1528 140.734 93.1152 140.671 93.0897C140.609 93.0642 140.542 93.0513 140.474 93.0517C140.364 93.0518 140.257 93.0862 140.168 93.15C140.168 93.1398 140.17 93.1298 140.17 93.121C140.204 92.9131 140.159 92.7003 140.046 92.5224C139.866 92.2808 139.668 92.0528 139.454 91.8402L139.452 91.8383C138.853 91.2678 138.149 90.817 137.379 90.5105C136.977 90.3464 136.546 90.2621 136.111 90.2624C135.548 90.2574 135 90.4478 134.563 90.8008C134.439 90.9187 134.326 91.0476 134.225 91.1858C134.176 91.252 134.151 91.3319 134.152 91.4137C134.153 91.4954 134.181 91.5747 134.231 91.6396C134.281 91.7045 134.351 91.7516 134.43 91.7739C134.509 91.7963 134.593 91.7926 134.67 91.7635C134.737 91.7386 134.806 91.7178 134.875 91.7011C135.02 91.6707 135.169 91.6615 135.316 91.6738C135.622 91.7055 135.915 91.8123 136.169 91.9845C136.311 92.1036 136.425 92.2533 136.5 92.4223C136.576 92.5912 136.612 92.775 136.605 92.9598C136.499 93.26 136.337 93.5377 136.128 93.7783C136.072 93.8515 136.044 93.9423 136.051 94.0339C136.057 94.1256 136.097 94.2119 136.162 94.2767L136.984 95.0935C137.054 95.1623 137.147 95.2022 137.244 95.2049C137.342 95.2076 137.437 95.173 137.51 95.1082C137.743 94.9019 138.097 94.591 138.221 94.5148C138.326 94.4445 138.446 94.3975 138.572 94.3771C138.666 94.368 138.76 94.3877 138.842 94.4336C138.842 94.4377 138.842 94.4418 138.84 94.4457C138.839 94.4496 138.837 94.4531 138.834 94.4562L138.791 94.4972L138.784 94.5039C138.687 94.5995 138.633 94.7293 138.632 94.8648C138.632 95.0003 138.686 95.1303 138.782 95.2263L138.785 95.2288L139.604 96.0337C139.652 96.0811 139.709 96.1187 139.771 96.1442C139.834 96.1696 139.901 96.1825 139.969 96.182C140.105 96.1822 140.235 96.1294 140.332 96.0349L141.659 94.7336C141.663 94.7291 141.668 94.7244 141.672 94.7196C141.761 94.6228 141.81 94.496 141.809 94.3649C141.807 94.2338 141.756 94.108 141.665 94.0128Z" fill="white"/>
<path d="M47.9677 94.8665C47.8731 94.8665 47.7806 94.8386 47.7019 94.7864C47.6232 94.7342 47.5619 94.6599 47.5257 94.5731C47.4895 94.4863 47.48 94.3907 47.4985 94.2985C47.5169 94.2063 47.5625 94.1217 47.6294 94.0552L48.7264 92.9655L47.6294 91.8758C47.5397 91.7867 47.4893 91.6658 47.4893 91.5398C47.4893 91.4138 47.5397 91.2929 47.6294 91.2038C47.7191 91.1146 47.8408 91.0646 47.9677 91.0646C48.0946 91.0646 48.2163 91.1146 48.306 91.2038L49.7414 92.6295C49.7858 92.6736 49.8211 92.726 49.8451 92.7837C49.8692 92.8413 49.8815 92.9031 49.8815 92.9655C49.8815 93.0279 49.8692 93.0897 49.8451 93.1474C49.8211 93.205 49.7858 93.2574 49.7414 93.3016L48.306 94.7273C48.2616 94.7715 48.2089 94.8065 48.1508 94.8304C48.0928 94.8543 48.0305 94.8666 47.9677 94.8665Z" fill="white"/>
<path d="M40.3124 96.2921C40.2496 96.2921 40.1874 96.2799 40.1293 96.256C40.0713 96.2321 40.0185 96.1971 39.9741 96.153C39.9297 96.1088 39.8944 96.0564 39.8704 95.9988C39.8464 95.9411 39.834 95.8793 39.834 95.8169V95.3417C39.8377 94.5868 40.1412 93.8639 40.6785 93.33C41.2157 92.7961 41.9434 92.4943 42.7033 92.4902H48.9247C49.0516 92.4902 49.1733 92.5403 49.2631 92.6294C49.3528 92.7186 49.4032 92.8394 49.4032 92.9655C49.4032 93.0915 49.3528 93.2124 49.2631 93.3015C49.1733 93.3906 49.0516 93.4407 48.9247 93.4407H42.7047C42.1978 93.4437 41.7126 93.6451 41.3543 94.0013C40.996 94.3574 40.7935 94.8396 40.7909 95.3431V95.8169C40.7909 95.8793 40.7785 95.9411 40.7545 95.9988C40.7304 96.0564 40.6952 96.1088 40.6508 96.1529C40.6063 96.1971 40.5536 96.2321 40.4955 96.256C40.4375 96.2799 40.3753 96.2921 40.3124 96.2921Z" fill="white"/>
<path d="M44.1399 100.094C44.0771 100.094 44.0148 100.082 43.9568 100.058C43.8987 100.034 43.846 99.9991 43.8016 99.9549L42.3662 98.5292C42.3218 98.485 42.2865 98.4326 42.2625 98.375C42.2385 98.3173 42.2261 98.2555 42.2261 98.1931C42.2261 98.1307 42.2385 98.0689 42.2625 98.0113C42.2865 97.9536 42.3218 97.9012 42.3662 97.8571L43.8016 96.4314C43.8914 96.3424 44.013 96.2924 44.1398 96.2925C44.2666 96.2925 44.3883 96.3426 44.4779 96.4317C44.5676 96.5207 44.618 96.6415 44.6181 96.7675C44.6181 96.8935 44.5678 97.0143 44.4782 97.1034L43.3812 98.1931L44.4782 99.2828C44.5451 99.3493 44.5907 99.4339 44.6092 99.5261C44.6276 99.6183 44.6182 99.7139 44.5819 99.8007C44.5457 99.8875 44.4844 99.9618 44.4057 100.014C44.3271 100.066 44.2346 100.094 44.1399 100.094Z" fill="white"/>
<path d="M43.183 98.6684C43.0561 98.6684 42.9345 98.6183 42.8447 98.5292C42.755 98.44 42.7046 98.3192 42.7046 98.1931C42.7046 98.0671 42.755 97.9462 42.8447 97.8571C42.9345 97.768 43.0561 97.7179 43.183 97.7179H49.403C49.9099 97.7149 50.3952 97.5135 50.7535 97.1573C51.1118 96.8012 51.3142 96.319 51.3168 95.8155V95.3417C51.3168 95.2157 51.3673 95.0948 51.457 95.0056C51.5467 94.9165 51.6684 94.8665 51.7953 94.8665C51.9222 94.8665 52.0439 94.9165 52.1336 95.0056C52.2234 95.0948 52.2738 95.2157 52.2738 95.3417V95.8169C52.27 96.5718 51.9666 97.2947 51.4293 97.8286C50.892 98.3625 50.1644 98.6643 49.4044 98.6684L43.183 98.6684Z" fill="white"/>
</g>
<defs>
<clipPath id="clip0_660_780">
<rect width="190" height="155" fill="white" transform="translate(34 51)"/>
</clipPath>
</defs>
</svg>
