<svg width="258" height="258" viewBox="0 0 258 258" fill="none" xmlns="http://www.w3.org/2000/svg">
<rect x="1" y="1" width="256" height="256" rx="8" stroke="#15CEFF" stroke-width="2" stroke-linecap="round" stroke-dasharray="5 12"/>
<path d="M185.975 144.866H122.727C122.222 144.866 121.738 144.665 121.381 144.308C121.024 143.952 120.823 143.468 120.822 142.963V121.652C120.823 121.148 121.024 120.664 121.381 120.307C121.738 119.951 122.222 119.75 122.727 119.749H185.975C186.48 119.75 186.964 119.951 187.321 120.307C187.679 120.664 187.879 121.148 187.88 121.652V142.963C187.879 143.468 187.679 143.952 187.321 144.308C186.964 144.665 186.48 144.866 185.975 144.866Z" fill="#F1F1F1"/>
<path d="M147.493 125.458H130.729V127.361H147.493V125.458Z" fill="#15CEFF"/>
<path d="M169.592 127.741C170.223 127.741 170.735 127.23 170.735 126.599C170.735 125.969 170.223 125.458 169.592 125.458C168.96 125.458 168.449 125.969 168.449 126.599C168.449 127.23 168.96 127.741 169.592 127.741Z" fill="#15CEFF"/>
<path d="M173.402 127.741C174.033 127.741 174.545 127.23 174.545 126.599C174.545 125.969 174.033 125.458 173.402 125.458C172.771 125.458 172.259 125.969 172.259 126.599C172.259 127.23 172.771 127.741 173.402 127.741Z" fill="#15CEFF"/>
<path d="M177.212 127.741C177.843 127.741 178.355 127.23 178.355 126.599C178.355 125.969 177.843 125.458 177.212 125.458C176.581 125.458 176.069 125.969 176.069 126.599C176.069 127.23 176.581 127.741 177.212 127.741Z" fill="#15CEFF"/>
<path d="M185.975 171.886H122.727C122.222 171.885 121.738 171.685 121.381 171.328C121.024 170.971 120.823 170.488 120.822 169.983V148.672C120.823 148.167 121.024 147.684 121.381 147.327C121.738 146.97 122.222 146.77 122.727 146.769H185.975C186.48 146.77 186.964 146.97 187.321 147.327C187.679 147.684 187.879 148.167 187.88 148.672V169.983C187.879 170.488 187.679 170.971 187.321 171.328C186.964 171.685 186.48 171.885 185.975 171.886Z" fill="#F1F1F1"/>
<path d="M147.493 152.477H130.729V154.38H147.493V152.477Z" fill="#15CEFF"/>
<path d="M169.592 154.761C170.223 154.761 170.735 154.25 170.735 153.619C170.735 152.989 170.223 152.477 169.592 152.477C168.96 152.477 168.449 152.989 168.449 153.619C168.449 154.25 168.96 154.761 169.592 154.761Z" fill="#15CEFF"/>
<path d="M173.402 154.761C174.033 154.761 174.545 154.25 174.545 153.619C174.545 152.989 174.033 152.477 173.402 152.477C172.771 152.477 172.259 152.989 172.259 153.619C172.259 154.25 172.771 154.761 173.402 154.761Z" fill="#15CEFF"/>
<path d="M177.212 154.761C177.843 154.761 178.355 154.25 178.355 153.619C178.355 152.989 177.843 152.477 177.212 152.477C176.581 152.477 176.069 152.989 176.069 153.619C176.069 154.25 176.581 154.761 177.212 154.761Z" fill="#15CEFF"/>
<path d="M185.975 198.906H122.727C122.222 198.905 121.738 198.704 121.381 198.348C121.024 197.991 120.823 197.507 120.822 197.003V175.692C120.823 175.187 121.024 174.703 121.381 174.347C121.738 173.99 122.222 173.789 122.727 173.789H185.975C186.48 173.789 186.964 173.99 187.321 174.347C187.679 174.703 187.879 175.187 187.88 175.692V197.003C187.879 197.507 187.679 197.991 187.321 198.348C186.964 198.704 186.48 198.905 185.975 198.906Z" fill="#F1F1F1"/>
<path d="M147.493 179.497H130.729V181.4H147.493V179.497Z" fill="#15CEFF"/>
<path d="M169.592 181.78C170.223 181.78 170.735 181.269 170.735 180.639C170.735 180.008 170.223 179.497 169.592 179.497C168.96 179.497 168.449 180.008 168.449 180.639C168.449 181.269 168.96 181.78 169.592 181.78Z" fill="#15CEFF"/>
<path d="M173.402 181.78C174.033 181.78 174.545 181.269 174.545 180.639C174.545 180.008 174.033 179.497 173.402 179.497C172.771 179.497 172.259 180.008 172.259 180.639C172.259 181.269 172.771 181.78 173.402 181.78Z" fill="#15CEFF"/>
<path d="M177.212 181.78C177.843 181.78 178.355 181.269 178.355 180.639C178.355 180.008 177.843 179.497 177.212 179.497C176.581 179.497 176.069 180.008 176.069 180.639C176.069 181.269 176.581 181.78 177.212 181.78Z" fill="#15CEFF"/>
<path d="M162.132 98.939L162.062 98.8874L162.06 98.8862C161.97 98.8192 161.867 98.7707 161.758 98.7434C161.649 98.716 161.536 98.7104 161.425 98.7268C161.314 98.7432 161.207 98.7813 161.11 98.8389C161.014 98.8966 160.93 98.9726 160.863 99.0627L146.627 118.208H145.06V117.84C145.06 117.75 145.024 117.663 144.96 117.599C144.896 117.534 144.809 117.498 144.718 117.498H143.784C143.693 117.498 143.606 117.534 143.542 117.599C143.477 117.663 143.441 117.75 143.441 117.84V118.208H142.9V117.84C142.9 117.75 142.864 117.663 142.8 117.599C142.736 117.534 142.649 117.498 142.558 117.498H141.624C141.533 117.498 141.446 117.534 141.382 117.599C141.317 117.663 141.281 117.75 141.281 117.84V118.208H140.742V117.84C140.742 117.75 140.706 117.663 140.642 117.599C140.578 117.534 140.491 117.498 140.4 117.498H139.465C139.375 117.498 139.288 117.534 139.223 117.599C139.159 117.663 139.123 117.75 139.123 117.84V118.208H138.582V117.84C138.582 117.75 138.546 117.663 138.482 117.599C138.418 117.534 138.331 117.498 138.24 117.498H137.306C137.215 117.498 137.128 117.534 137.064 117.599C136.999 117.663 136.963 117.75 136.963 117.84V118.208H136.424V117.84C136.424 117.75 136.388 117.663 136.324 117.599C136.26 117.534 136.173 117.498 136.082 117.498H135.147C135.102 117.498 135.058 117.507 135.016 117.524C134.975 117.542 134.937 117.567 134.905 117.599C134.874 117.63 134.848 117.668 134.831 117.709C134.814 117.751 134.805 117.795 134.805 117.84V118.208H134.264V117.84C134.264 117.75 134.228 117.663 134.164 117.599C134.1 117.534 134.013 117.498 133.922 117.498H132.988C132.897 117.498 132.81 117.534 132.745 117.599C132.681 117.663 132.645 117.75 132.645 117.84V118.208H132.104V117.84C132.104 117.75 132.068 117.663 132.004 117.599C131.94 117.534 131.853 117.498 131.762 117.498H130.828C130.737 117.498 130.65 117.534 130.586 117.599C130.521 117.663 130.485 117.75 130.485 117.84V118.208H129.946V117.84C129.946 117.75 129.91 117.663 129.846 117.599C129.782 117.534 129.695 117.498 129.604 117.498H128.669C128.579 117.498 128.492 117.534 128.427 117.599C128.363 117.663 128.327 117.75 128.327 117.84V118.208H127.786V117.84C127.786 117.75 127.75 117.663 127.686 117.599C127.622 117.534 127.535 117.498 127.444 117.498H126.51C126.419 117.498 126.332 117.534 126.267 117.599C126.203 117.663 126.167 117.75 126.167 117.84V118.208H125.628V117.84C125.628 117.75 125.592 117.663 125.528 117.599C125.464 117.534 125.377 117.498 125.286 117.498H124.351C124.261 117.498 124.174 117.534 124.109 117.599C124.045 117.663 124.009 117.75 124.009 117.84V118.208H123.331C123.219 118.208 123.108 118.23 123.004 118.273C122.9 118.316 122.806 118.379 122.726 118.458C122.647 118.538 122.584 118.632 122.541 118.735C122.498 118.839 122.476 118.95 122.476 119.063V119.878C122.476 119.99 122.498 120.101 122.541 120.205C122.584 120.309 122.647 120.403 122.726 120.482C122.806 120.562 122.9 120.625 123.004 120.668C123.108 120.711 123.219 120.733 123.331 120.733H146.484C146.778 120.733 147.062 120.632 147.289 120.447C147.517 120.262 147.673 120.004 147.733 119.718L147.742 119.724L162.307 100.137L162.308 100.135C162.444 99.9528 162.501 99.7246 162.468 99.5004C162.435 99.2761 162.314 99.0742 162.132 98.939Z" fill="#3F3D56"/>
<path d="M72.1602 191.646L75.0361 193.116L82.0812 182.736L77.8368 180.566L72.1602 191.646Z" fill="#FFB7B7"/>
<path d="M71.9071 190.333L77.5708 193.228L77.5711 193.228C78.5283 193.718 79.2517 194.567 79.5821 195.589C79.9126 196.611 79.823 197.722 79.3332 198.678L79.2731 198.795L70 194.055L71.9071 190.333Z" fill="#2F2E41"/>
<path d="M105.375 195.667H108.606L110.143 183.221H105.375L105.375 195.667Z" fill="#FFB7B7"/>
<path d="M104.551 194.614L110.914 194.614H110.914C111.989 194.614 113.02 195.04 113.781 195.8C114.541 196.559 114.968 197.589 114.968 198.663V198.795L104.551 198.795L104.551 194.614Z" fill="#2F2E41"/>
<path d="M90.2638 94.1462C90.2638 94.1462 88.1004 92.4907 88.1004 96.5345L87.7588 109.897L91.5732 122.521L93.7935 118.427L92.8826 109.556L90.2638 94.1462Z" fill="#2F2E41"/>
<path d="M113.406 130.696C113.406 130.696 115.914 142.899 112.737 152.913L110.981 191.418L104.542 190.916L102.284 162.352L100.11 148.153L95.5943 161.099L80.7095 188.494L73.8525 183.149C73.8525 183.149 81.4512 162.44 87.0648 158.092L89.8802 126.064L113.406 130.696Z" fill="#2F2E41"/>
<path d="M112.216 74.0155C114.161 70.4619 112.853 66.0063 109.295 64.0638C105.737 62.1212 101.276 63.4272 99.3316 66.9808C97.3867 70.5344 98.6943 74.99 102.252 76.9326C105.81 78.8752 110.271 77.5692 112.216 74.0155Z" fill="#FFB7B7"/>
<path d="M105.254 72.0535C106.134 72.1679 106.797 71.2685 107.105 70.4371C107.413 69.6057 107.648 68.6378 108.413 68.1887C109.458 67.5751 110.796 68.3131 111.991 68.1106C113.342 67.882 114.219 66.4529 114.288 65.087C114.357 63.721 113.813 62.4072 113.279 61.1478L113.092 62.713C113.117 62.1825 113.005 61.6545 112.768 61.1795C112.53 60.7045 112.174 60.2984 111.734 60L111.975 62.2966C111.923 61.9798 111.81 61.6761 111.641 61.4031C111.472 61.1301 111.251 60.8931 110.99 60.7057C110.729 60.5183 110.434 60.3842 110.121 60.3111C109.808 60.238 109.484 60.2273 109.167 60.2797L109.205 61.6481C107.646 61.4629 106.073 61.2774 104.509 61.4185C102.945 61.5596 101.37 62.0538 100.185 63.0826C98.4116 64.6214 97.764 67.1553 97.9814 69.4914C98.1988 71.8274 99.1643 74.022 100.17 76.1419C100.424 76.6753 100.774 77.2772 101.361 77.3452C101.888 77.4062 102.371 76.9658 102.535 76.4614C102.661 75.9438 102.656 75.4029 102.521 74.8876C102.372 74.1002 102.185 73.2954 102.325 72.5064C102.464 71.7174 103.033 70.9377 103.829 70.841C104.625 70.7443 105.44 71.6534 105.057 72.3575L105.254 72.0535Z" fill="#2F2E41"/>
<path d="M113.86 133.96L89.353 132.38L91.1976 124.747L113.596 129.749L113.86 133.96Z" fill="#CBCBCB"/>
<path d="M98.7464 80.4989L100.284 78.3673C100.284 78.3673 102.002 78.9505 106.603 81.2381L106.928 83.2352L114.915 132.302L100.397 131.676L96.4441 131.592L95.1503 128.696L93.555 131.531L89.6944 131.449L85.7661 129.174L89.6374 117.347L90.8899 106.543L88.9543 96.3639C88.9543 96.3639 86.5185 87.0171 95.8998 81.9774L98.7464 80.4989Z" fill="#2F2E41"/>
<path d="M131.468 117.643C131.112 117.733 130.741 117.744 130.381 117.676C130.021 117.607 129.68 117.461 129.382 117.246C129.085 117.032 128.838 116.755 128.659 116.435C128.48 116.115 128.374 115.76 128.347 115.395L119.734 113.09L123.199 110.018L130.847 112.677C131.465 112.673 132.062 112.896 132.526 113.303C132.99 113.709 133.289 114.272 133.366 114.884C133.442 115.496 133.291 116.115 132.941 116.624C132.592 117.132 132.067 117.495 131.468 117.643Z" fill="#FFB7B7"/>
<path d="M127.611 116.342C127.429 116.44 127.23 116.5 127.024 116.516C126.818 116.532 126.612 116.505 126.417 116.436L112.249 111.065C108.792 109.841 105.898 107.405 104.106 104.21L98.197 93.682C97.7821 93.2195 97.4626 92.6797 97.2568 92.0936C97.051 91.5076 96.9629 90.8868 96.9976 90.2667C97.0323 89.6466 97.189 89.0394 97.4589 88.4799C97.7288 87.9204 98.1065 87.4195 98.5703 87.0059C99.0342 86.5924 99.5752 86.2743 100.162 86.0697C100.749 85.8652 101.371 85.7784 101.992 85.8141C102.613 85.8499 103.22 86.0076 103.78 86.2781C104.34 86.5487 104.84 86.9268 105.254 87.3909L115.48 103.581L128.351 111.118C128.603 111.283 128.798 111.522 128.91 111.801C129.022 112.081 129.045 112.389 128.977 112.682L128.337 115.391C128.268 115.681 128.112 115.944 127.89 116.144C127.805 116.221 127.711 116.287 127.611 116.342Z" fill="#2F2E41"/>
</svg>
