<svg width="48" height="48" viewBox="0 0 48 48" fill="none" xmlns="http://www.w3.org/2000/svg">
<rect width="48" height="48" rx="14" fill="#15CEFF"/>
<path d="M23.0489 13.9271C23.3483 13.0057 24.6517 13.0057 24.9511 13.9271L26.6942 19.2918C26.828 19.7038 27.212 19.9828 27.6452 19.9828H33.2861C34.2548 19.9828 34.6576 21.2224 33.8738 21.7918L29.3103 25.1074C28.9598 25.362 28.8132 25.8134 28.947 26.2254L30.6902 31.5902C30.9895 32.5115 29.935 33.2776 29.1513 32.7082L24.5878 29.3926C24.2373 29.138 23.7627 29.138 23.4122 29.3926L18.8487 32.7082C18.065 33.2776 17.0105 32.5115 17.3098 31.5902L19.053 26.2254C19.1868 25.8134 19.0402 25.362 18.6897 25.1074L14.1262 21.7918C13.3425 21.2224 13.7452 19.9828 14.7139 19.9828H20.3548C20.788 19.9828 21.172 19.7038 21.3058 19.2918L23.0489 13.9271Z" fill="white"/>
</svg>
