<svg id="wordpress" xmlns="http://www.w3.org/2000/svg" width="73.775" height="73.772" viewBox="0 0 73.775 73.772">
  <defs>
    <style>
      .cls-1 {
        fill: #464342;
      }
    </style>
  </defs>
  <path id="Path_720" data-name="Path 720" class="cls-1" d="M5.243,36.885A31.649,31.649,0,0,0,23.077,65.364L7.983,24.007a31.523,31.523,0,0,0-2.74,12.878Zm53-1.6a16.66,16.66,0,0,0-2.61-8.727c-1.6-2.607-3.107-4.814-3.107-7.42a5.48,5.48,0,0,1,5.314-5.616c.14,0,.273.017.41.025a31.636,31.636,0,0,0-47.807,5.956c.742.022,1.442.038,2.036.038,3.31,0,8.433-.4,8.433-.4a1.307,1.307,0,0,1,.2,2.607s-1.714.2-3.622.3L29.022,56.326l6.925-20.769-4.93-13.508c-1.7-.1-3.318-.3-3.318-.3a1.307,1.307,0,0,1,.2-2.607s5.226.4,8.335.4c3.309,0,8.433-.4,8.433-.4a1.307,1.307,0,0,1,.2,2.607s-1.718.2-3.622.3L52.683,56.065l3.156-10.547c1.368-4.377,2.409-7.52,2.409-10.229ZM37.442,39.653,27.948,67.241a31.658,31.658,0,0,0,19.447-.5,2.779,2.779,0,0,1-.225-.436L37.442,39.653ZM64.652,21.7a24.279,24.279,0,0,1,.213,3.254,29.849,29.849,0,0,1-2.406,11.334L52.794,64.237A31.649,31.649,0,0,0,64.652,21.7ZM36.886,0A36.886,36.886,0,1,0,73.775,36.885,36.928,36.928,0,0,0,36.886,0Zm0,72.082a35.2,35.2,0,1,1,35.193-35.2,35.236,35.236,0,0,1-35.193,35.2Z"/>
</svg>
